solid OpenSCAD_Model
  facet normal -1 0 0
    outer loop
      vertex -18.2 -6 0
      vertex -18.2 6 2
      vertex -18.2 6 0
    endloop
  endfacet
  facet normal -1 -0 0
    outer loop
      vertex -18.2 6 2
      vertex -18.2 -6 0
      vertex -18.2 -6 2
    endloop
  endfacet
  facet normal 0 0 1
    outer loop
      vertex 18.2 6 2
      vertex 15.2 3 2
      vertex 18.2 -6 2
    endloop
  endfacet
  facet normal 0 0 1
    outer loop
      vertex 18.2 6 2
      vertex -15.2 3 2
      vertex 15.2 3 2
    endloop
  endfacet
  facet normal 0 0 1
    outer loop
      vertex -15.2 3 2
      vertex -18.2 6 2
      vertex -15.2 -3 2
    endloop
  endfacet
  facet normal -0 0 1
    outer loop
      vertex -18.2 6 2
      vertex -15.2 3 2
      vertex 18.2 6 2
    endloop
  endfacet
  facet normal -0 0 1
    outer loop
      vertex 15.2 -3 2
      vertex 18.2 -6 2
      vertex 15.2 3 2
    endloop
  endfacet
  facet normal -0 0 1
    outer loop
      vertex -15.2 -3 2
      vertex 18.2 -6 2
      vertex 15.2 -3 2
    endloop
  endfacet
  facet normal 0 0 1
    outer loop
      vertex -15.2 -3 2
      vertex -18.2 -6 2
      vertex 18.2 -6 2
    endloop
  endfacet
  facet normal 0 0 1
    outer loop
      vertex -18.2 -6 2
      vertex -15.2 -3 2
      vertex -18.2 6 2
    endloop
  endfacet
  facet normal 1 -0 0
    outer loop
      vertex 18.2 -6 2
      vertex 18.2 6 0
      vertex 18.2 6 2
    endloop
  endfacet
  facet normal 1 0 0
    outer loop
      vertex 18.2 6 0
      vertex 18.2 -6 2
      vertex 18.2 -6 0
    endloop
  endfacet
  facet normal 0 1 -0
    outer loop
      vertex 18.2 6 0
      vertex -18.2 6 2
      vertex 18.2 6 2
    endloop
  endfacet
  facet normal 0 1 0
    outer loop
      vertex -18.2 6 2
      vertex 18.2 6 0
      vertex -18.2 6 0
    endloop
  endfacet
  facet normal 0 0 -1
    outer loop
      vertex -18.2 -6 0
      vertex 18.2 6 0
      vertex 18.2 -6 0
    endloop
  endfacet
  facet normal -0 0 -1
    outer loop
      vertex 18.2 6 0
      vertex -18.2 -6 0
      vertex -18.2 6 0
    endloop
  endfacet
  facet normal 0 -1 0
    outer loop
      vertex -18.2 -6 0
      vertex 18.2 -6 2
      vertex -18.2 -6 2
    endloop
  endfacet
  facet normal 0 -1 -0
    outer loop
      vertex 18.2 -6 2
      vertex -18.2 -6 0
      vertex 18.2 -6 0
    endloop
  endfacet
  facet normal -1 0 0
    outer loop
      vertex -15.2 -3 2
      vertex -15.2 3 6
      vertex -15.2 3 2
    endloop
  endfacet
  facet normal -1 -0 0
    outer loop
      vertex -15.2 3 6
      vertex -15.2 -3 2
      vertex -15.2 -3 6
    endloop
  endfacet
  facet normal 1 -0 0
    outer loop
      vertex 15.2 -3 6
      vertex 15.2 3 2
      vertex 15.2 3 6
    endloop
  endfacet
  facet normal 1 0 0
    outer loop
      vertex 15.2 3 2
      vertex 15.2 -3 6
      vertex 15.2 -3 2
    endloop
  endfacet
  facet normal 0 1 -0
    outer loop
      vertex 15.2 3 2
      vertex -15.2 3 6
      vertex 15.2 3 6
    endloop
  endfacet
  facet normal 0 1 0
    outer loop
      vertex -15.2 3 6
      vertex 15.2 3 2
      vertex -15.2 3 2
    endloop
  endfacet
  facet normal 0 -1 0
    outer loop
      vertex -15.2 -3 2
      vertex 15.2 -3 6
      vertex -15.2 -3 6
    endloop
  endfacet
  facet normal 0 -1 -0
    outer loop
      vertex 15.2 -3 6
      vertex -15.2 -3 2
      vertex 15.2 -3 2
    endloop
  endfacet
  facet normal -0.707107 0 0.707107
    outer loop
      vertex -15.2 3 6
      vertex -14.2 -2 7
      vertex -14.2 2 7
    endloop
  endfacet
  facet normal -0.707107 0 0.707107
    outer loop
      vertex -14.2 -2 7
      vertex -15.2 3 6
      vertex -15.2 -3 6
    endloop
  endfacet
  facet normal 0.707107 -0 0.707107
    outer loop
      vertex 14.2 -2 7
      vertex 15.2 3 6
      vertex 14.2 2 7
    endloop
  endfacet
  facet normal 0.707107 0 0.707107
    outer loop
      vertex 15.2 3 6
      vertex 14.2 -2 7
      vertex 15.2 -3 6
    endloop
  endfacet
  facet normal 0 -0.707107 0.707107
    outer loop
      vertex -15.2 -3 6
      vertex 14.2 -2 7
      vertex -14.2 -2 7
    endloop
  endfacet
  facet normal 0 -0.707107 0.707107
    outer loop
      vertex 14.2 -2 7
      vertex -15.2 -3 6
      vertex 15.2 -3 6
    endloop
  endfacet
  facet normal -0 0 1
    outer loop
      vertex -13.2 0.87 7
      vertex 13.2 -0.87 7
      vertex 13.2 0.87 7
    endloop
  endfacet
  facet normal 0 0 1
    outer loop
      vertex 13.2 -0.87 7
      vertex -13.2 0.87 7
      vertex -13.2 -0.87 7
    endloop
  endfacet
  facet normal 0 0 1
    outer loop
      vertex 13.2 0.87 7
      vertex 14.2 2 7
      vertex 13.2 1.67 7
    endloop
  endfacet
  facet normal 0 0 1
    outer loop
      vertex 14.2 2 7
      vertex -13.2 1.67 7
      vertex 13.2 1.67 7
    endloop
  endfacet
  facet normal 0 0 1
    outer loop
      vertex -14.2 2 7
      vertex -13.2 0.87 7
      vertex -13.2 1.67 7
    endloop
  endfacet
  facet normal 0 0 1
    outer loop
      vertex -13.2 0.87 7
      vertex -14.2 2 7
      vertex -13.2 -0.87 7
    endloop
  endfacet
  facet normal 0 0 1
    outer loop
      vertex -14.2 -2 7
      vertex -13.2 -0.87 7
      vertex -14.2 2 7
    endloop
  endfacet
  facet normal -0 0 1
    outer loop
      vertex -14.2 2 7
      vertex -13.2 1.67 7
      vertex 14.2 2 7
    endloop
  endfacet
  facet normal 0 0 1
    outer loop
      vertex 14.2 2 7
      vertex 13.2 0.87 7
      vertex 14.2 -2 7
    endloop
  endfacet
  facet normal -0 0 1
    outer loop
      vertex 13.2 -0.87 7
      vertex 14.2 -2 7
      vertex 13.2 0.87 7
    endloop
  endfacet
  facet normal -0 0 1
    outer loop
      vertex 13.2 -1.67 7
      vertex 14.2 -2 7
      vertex 13.2 -0.87 7
    endloop
  endfacet
  facet normal -0 0 1
    outer loop
      vertex -13.2 -1.67 7
      vertex 14.2 -2 7
      vertex 13.2 -1.67 7
    endloop
  endfacet
  facet normal 0 0 1
    outer loop
      vertex -13.2 -1.67 7
      vertex -14.2 -2 7
      vertex 14.2 -2 7
    endloop
  endfacet
  facet normal 0 0 1
    outer loop
      vertex -13.2 -0.87 7
      vertex -14.2 -2 7
      vertex -13.2 -1.67 7
    endloop
  endfacet
  facet normal 0 0.707107 0.707107
    outer loop
      vertex 15.2 3 6
      vertex -14.2 2 7
      vertex 14.2 2 7
    endloop
  endfacet
  facet normal 0 0.707107 0.707107
    outer loop
      vertex -14.2 2 7
      vertex 15.2 3 6
      vertex -15.2 3 6
    endloop
  endfacet
  facet normal 1 -0 0
    outer loop
      vertex -13.2 0.87 7
      vertex -13.2 1.67 2
      vertex -13.2 1.67 7
    endloop
  endfacet
  facet normal 1 0 0
    outer loop
      vertex -13.2 1.67 2
      vertex -13.2 0.87 7
      vertex -13.2 0.87 2
    endloop
  endfacet
  facet normal -1 0 0
    outer loop
      vertex 13.2 0.87 2
      vertex 13.2 1.67 7
      vertex 13.2 1.67 2
    endloop
  endfacet
  facet normal -1 -0 0
    outer loop
      vertex 13.2 1.67 7
      vertex 13.2 0.87 2
      vertex 13.2 0.87 7
    endloop
  endfacet
  facet normal -0 0 1
    outer loop
      vertex -13.2 1.67 2
      vertex 13.2 0.87 2
      vertex 13.2 1.67 2
    endloop
  endfacet
  facet normal 0 0 1
    outer loop
      vertex 13.2 0.87 2
      vertex -13.2 1.67 2
      vertex -13.2 0.87 2
    endloop
  endfacet
  facet normal 0 1 -0
    outer loop
      vertex 13.2 0.87 2
      vertex -13.2 0.87 7
      vertex 13.2 0.87 7
    endloop
  endfacet
  facet normal 0 1 0
    outer loop
      vertex -13.2 0.87 7
      vertex 13.2 0.87 2
      vertex -13.2 0.87 2
    endloop
  endfacet
  facet normal 0 -1 0
    outer loop
      vertex -13.2 1.67 2
      vertex 13.2 1.67 7
      vertex -13.2 1.67 7
    endloop
  endfacet
  facet normal 0 -1 -0
    outer loop
      vertex 13.2 1.67 7
      vertex -13.2 1.67 2
      vertex 13.2 1.67 2
    endloop
  endfacet
  facet normal 1 -0 0
    outer loop
      vertex -13.2 -1.67 7
      vertex -13.2 -0.87 2
      vertex -13.2 -0.87 7
    endloop
  endfacet
  facet normal 1 0 0
    outer loop
      vertex -13.2 -0.87 2
      vertex -13.2 -1.67 7
      vertex -13.2 -1.67 2
    endloop
  endfacet
  facet normal -1 0 0
    outer loop
      vertex 13.2 -1.67 2
      vertex 13.2 -0.87 7
      vertex 13.2 -0.87 2
    endloop
  endfacet
  facet normal -1 -0 0
    outer loop
      vertex 13.2 -0.87 7
      vertex 13.2 -1.67 2
      vertex 13.2 -1.67 7
    endloop
  endfacet
  facet normal 0 -1 0
    outer loop
      vertex -13.2 -0.87 2
      vertex 13.2 -0.87 7
      vertex -13.2 -0.87 7
    endloop
  endfacet
  facet normal 0 -1 -0
    outer loop
      vertex 13.2 -0.87 7
      vertex -13.2 -0.87 2
      vertex 13.2 -0.87 2
    endloop
  endfacet
  facet normal -0 0 1
    outer loop
      vertex -13.2 -0.87 2
      vertex 13.2 -1.67 2
      vertex 13.2 -0.87 2
    endloop
  endfacet
  facet normal 0 0 1
    outer loop
      vertex 13.2 -1.67 2
      vertex -13.2 -0.87 2
      vertex -13.2 -1.67 2
    endloop
  endfacet
  facet normal 0 1 -0
    outer loop
      vertex 13.2 -1.67 2
      vertex -13.2 -1.67 7
      vertex 13.2 -1.67 7
    endloop
  endfacet
  facet normal 0 1 0
    outer loop
      vertex -13.2 -1.67 7
      vertex 13.2 -1.67 2
      vertex -13.2 -1.67 2
    endloop
  endfacet
endsolid OpenSCAD_Model
