solid OpenSCAD_Model
  facet normal 0.866026 0.499999 0
    outer loop
      vertex 3.19741 1.42358 7.4
      vertex 2.83156 2.05725 0
      vertex 2.83156 2.05725 7.4
    endloop
  endfacet
  facet normal 0.866026 0.499999 0
    outer loop
      vertex 2.83156 2.05725 0
      vertex 3.19741 1.42358 7.4
      vertex 3.19741 1.42358 0
    endloop
  endfacet
  facet normal 0 1 -0
    outer loop
      vertex 0.365849 3.48083 0
      vertex -0.365849 3.48083 7.4
      vertex 0.365849 3.48083 7.4
    endloop
  endfacet
  facet normal 0 1 0
    outer loop
      vertex -0.365849 3.48083 7.4
      vertex 0.365849 3.48083 0
      vertex -0.365849 3.48083 0
    endloop
  endfacet
  facet normal 0.743145 0.66913 0
    outer loop
      vertex 2.83156 2.05725 7.4
      vertex 2.34196 2.60101 0
      vertex 2.34196 2.60101 7.4
    endloop
  endfacet
  facet normal 0.743145 0.66913 0
    outer loop
      vertex 2.34196 2.60101 0
      vertex 2.83156 2.05725 7.4
      vertex 2.83156 2.05725 0
    endloop
  endfacet
  facet normal 0.207912 0.978147 -0
    outer loop
      vertex 1.08156 3.3287 0
      vertex 0.365849 3.48083 7.4
      vertex 1.08156 3.3287 7.4
    endloop
  endfacet
  facet normal 0.207912 0.978147 0
    outer loop
      vertex 0.365849 3.48083 7.4
      vertex 1.08156 3.3287 0
      vertex 0.365849 3.48083 0
    endloop
  endfacet
  facet normal -0.406736 0.913546 0
    outer loop
      vertex -1.08156 3.3287 0
      vertex -1.75 3.03109 7.4
      vertex -1.08156 3.3287 7.4
    endloop
  endfacet
  facet normal -0.406736 0.913546 0
    outer loop
      vertex -1.75 3.03109 7.4
      vertex -1.08156 3.3287 0
      vertex -1.75 3.03109 0
    endloop
  endfacet
  facet normal -0.866026 0.499999 0
    outer loop
      vertex -3.19741 1.42358 0
      vertex -2.83156 2.05725 7.4
      vertex -2.83156 2.05725 0
    endloop
  endfacet
  facet normal -0.866026 0.499999 0
    outer loop
      vertex -2.83156 2.05725 7.4
      vertex -3.19741 1.42358 0
      vertex -3.19741 1.42358 7.4
    endloop
  endfacet
  facet normal -0.587785 0.809017 0
    outer loop
      vertex -1.75 3.03109 0
      vertex -2.34196 2.60101 7.4
      vertex -1.75 3.03109 7.4
    endloop
  endfacet
  facet normal -0.587785 0.809017 0
    outer loop
      vertex -2.34196 2.60101 7.4
      vertex -1.75 3.03109 0
      vertex -2.34196 2.60101 0
    endloop
  endfacet
  facet normal 0.994522 -0.104529 0
    outer loop
      vertex 3.42352 -0.727691 7.4
      vertex 3.5 0 0
      vertex 3.5 0 7.4
    endloop
  endfacet
  facet normal 0.994522 -0.104529 0
    outer loop
      vertex 3.5 0 0
      vertex 3.42352 -0.727691 7.4
      vertex 3.42352 -0.727691 0
    endloop
  endfacet
  facet normal 0.207912 -0.978147 0
    outer loop
      vertex 0.365849 -3.48083 0
      vertex 1.08156 -3.3287 7.4
      vertex 0.365849 -3.48083 7.4
    endloop
  endfacet
  facet normal 0.207912 -0.978147 0
    outer loop
      vertex 1.08156 -3.3287 7.4
      vertex 0.365849 -3.48083 0
      vertex 1.08156 -3.3287 0
    endloop
  endfacet
  facet normal 0.951056 0.309017 0
    outer loop
      vertex 3.42352 0.727691 7.4
      vertex 3.19741 1.42358 0
      vertex 3.19741 1.42358 7.4
    endloop
  endfacet
  facet normal 0.951056 0.309017 0
    outer loop
      vertex 3.19741 1.42358 0
      vertex 3.42352 0.727691 7.4
      vertex 3.42352 0.727691 0
    endloop
  endfacet
  facet normal 0.587786 0.809017 -0
    outer loop
      vertex 2.34196 2.60101 0
      vertex 1.75 3.03109 7.4
      vertex 2.34196 2.60101 7.4
    endloop
  endfacet
  facet normal 0.587786 0.809017 0
    outer loop
      vertex 1.75 3.03109 7.4
      vertex 2.34196 2.60101 0
      vertex 1.75 3.03109 0
    endloop
  endfacet
  facet normal 0.406736 0.913546 -0
    outer loop
      vertex 1.75 3.03109 0
      vertex 1.08156 3.3287 7.4
      vertex 1.75 3.03109 7.4
    endloop
  endfacet
  facet normal 0.406736 0.913546 0
    outer loop
      vertex 1.08156 3.3287 7.4
      vertex 1.75 3.03109 0
      vertex 1.08156 3.3287 0
    endloop
  endfacet
  facet normal -0.994522 0.104529 0
    outer loop
      vertex -3.5 0 0
      vertex -3.42352 0.727691 7.4
      vertex -3.42352 0.727691 0
    endloop
  endfacet
  facet normal -0.994522 0.104529 0
    outer loop
      vertex -3.42352 0.727691 7.4
      vertex -3.5 0 0
      vertex -3.5 0 7.4
    endloop
  endfacet
  facet normal -0.743145 0.66913 0
    outer loop
      vertex -2.83156 2.05725 0
      vertex -2.34196 2.60101 7.4
      vertex -2.34196 2.60101 0
    endloop
  endfacet
  facet normal -0.743145 0.66913 0
    outer loop
      vertex -2.34196 2.60101 7.4
      vertex -2.83156 2.05725 0
      vertex -2.83156 2.05725 7.4
    endloop
  endfacet
  facet normal -0.207912 0.978147 0
    outer loop
      vertex -0.365849 3.48083 0
      vertex -1.08156 3.3287 7.4
      vertex -0.365849 3.48083 7.4
    endloop
  endfacet
  facet normal -0.207912 0.978147 0
    outer loop
      vertex -1.08156 3.3287 7.4
      vertex -0.365849 3.48083 0
      vertex -1.08156 3.3287 0
    endloop
  endfacet
  facet normal 0.994522 0.104529 0
    outer loop
      vertex 3.5 0 7.4
      vertex 3.42352 0.727691 0
      vertex 3.42352 0.727691 7.4
    endloop
  endfacet
  facet normal 0.994522 0.104529 0
    outer loop
      vertex 3.42352 0.727691 0
      vertex 3.5 0 7.4
      vertex 3.5 0 0
    endloop
  endfacet
  facet normal -0.207912 -0.978147 0
    outer loop
      vertex -1.08156 -3.3287 0
      vertex -0.365849 -3.48083 7.4
      vertex -1.08156 -3.3287 7.4
    endloop
  endfacet
  facet normal -0.207912 -0.978147 -0
    outer loop
      vertex -0.365849 -3.48083 7.4
      vertex -1.08156 -3.3287 0
      vertex -0.365849 -3.48083 0
    endloop
  endfacet
  facet normal 0.587786 -0.809017 0
    outer loop
      vertex 1.75 -3.03109 0
      vertex 2.34196 -2.60101 7.4
      vertex 1.75 -3.03109 7.4
    endloop
  endfacet
  facet normal 0.587786 -0.809017 0
    outer loop
      vertex 2.34196 -2.60101 7.4
      vertex 1.75 -3.03109 0
      vertex 2.34196 -2.60101 0
    endloop
  endfacet
  facet normal 0 0 1
    outer loop
      vertex 1.65 1.65 7.4
      vertex 3.5 0 7.4
      vertex 3.42352 0.727691 7.4
    endloop
  endfacet
  facet normal 0 0 1
    outer loop
      vertex 1.65 1.65 7.4
      vertex 3.42352 0.727691 7.4
      vertex 3.19741 1.42358 7.4
    endloop
  endfacet
  facet normal 0 0 1
    outer loop
      vertex 1.65 -1.65 7.4
      vertex 3.5 0 7.4
      vertex 1.65 1.65 7.4
    endloop
  endfacet
  facet normal -0 0 1
    outer loop
      vertex 1.65 1.65 7.4
      vertex 3.19741 1.42358 7.4
      vertex 2.83156 2.05725 7.4
    endloop
  endfacet
  facet normal 0 0 1
    outer loop
      vertex 3.5 0 7.4
      vertex 1.65 -1.65 7.4
      vertex 3.42352 -0.727691 7.4
    endloop
  endfacet
  facet normal 0 0 1
    outer loop
      vertex 1.65 1.65 7.4
      vertex 2.83156 2.05725 7.4
      vertex 2.34196 2.60101 7.4
    endloop
  endfacet
  facet normal 0 0 1
    outer loop
      vertex 3.42352 -0.727691 7.4
      vertex 1.65 -1.65 7.4
      vertex 3.19741 -1.42358 7.4
    endloop
  endfacet
  facet normal 0 0 1
    outer loop
      vertex 1.65 1.65 7.4
      vertex 2.34196 2.60101 7.4
      vertex 1.75 3.03109 7.4
    endloop
  endfacet
  facet normal 0 0 1
    outer loop
      vertex 3.19741 -1.42358 7.4
      vertex 1.65 -1.65 7.4
      vertex 2.83156 -2.05725 7.4
    endloop
  endfacet
  facet normal 0 0 1
    outer loop
      vertex 2.83156 -2.05725 7.4
      vertex 1.65 -1.65 7.4
      vertex 2.34196 -2.60101 7.4
    endloop
  endfacet
  facet normal 0 0 1
    outer loop
      vertex 1.08156 3.3287 7.4
      vertex 1.65 1.65 7.4
      vertex 1.75 3.03109 7.4
    endloop
  endfacet
  facet normal 0 0 1
    outer loop
      vertex 0.365849 3.48083 7.4
      vertex 1.65 1.65 7.4
      vertex 1.08156 3.3287 7.4
    endloop
  endfacet
  facet normal -0 0 1
    outer loop
      vertex -0.365849 3.48083 7.4
      vertex 1.65 1.65 7.4
      vertex 0.365849 3.48083 7.4
    endloop
  endfacet
  facet normal 0 0 1
    outer loop
      vertex -1.65 1.65 7.4
      vertex -0.365849 3.48083 7.4
      vertex -1.08156 3.3287 7.4
    endloop
  endfacet
  facet normal 0 0 1
    outer loop
      vertex -0.365849 3.48083 7.4
      vertex -1.65 1.65 7.4
      vertex 1.65 1.65 7.4
    endloop
  endfacet
  facet normal -0 0 1
    outer loop
      vertex -2.34196 2.60101 7.4
      vertex -1.65 1.65 7.4
      vertex -1.75 3.03109 7.4
    endloop
  endfacet
  facet normal -0 0 1
    outer loop
      vertex -1.75 3.03109 7.4
      vertex -1.65 1.65 7.4
      vertex -1.08156 3.3287 7.4
    endloop
  endfacet
  facet normal 0 0 1
    outer loop
      vertex 2.34196 -2.60101 7.4
      vertex 1.65 -1.65 7.4
      vertex 1.75 -3.03109 7.4
    endloop
  endfacet
  facet normal 0 0 1
    outer loop
      vertex 1.65 -1.65 7.4
      vertex 1.08156 -3.3287 7.4
      vertex 1.75 -3.03109 7.4
    endloop
  endfacet
  facet normal 0 0 1
    outer loop
      vertex 1.65 -1.65 7.4
      vertex 0.365849 -3.48083 7.4
      vertex 1.08156 -3.3287 7.4
    endloop
  endfacet
  facet normal 0 0 1
    outer loop
      vertex 1.65 -1.65 7.4
      vertex -0.365849 -3.48083 7.4
      vertex 0.365849 -3.48083 7.4
    endloop
  endfacet
  facet normal -0 0 1
    outer loop
      vertex -1.65 -1.65 7.4
      vertex -0.365849 -3.48083 7.4
      vertex 1.65 -1.65 7.4
    endloop
  endfacet
  facet normal 0 0 1
    outer loop
      vertex -0.365849 -3.48083 7.4
      vertex -1.65 -1.65 7.4
      vertex -1.08156 -3.3287 7.4
    endloop
  endfacet
  facet normal 0 0 1
    outer loop
      vertex -1.65 -1.65 7.4
      vertex -1.75 -3.03109 7.4
      vertex -1.08156 -3.3287 7.4
    endloop
  endfacet
  facet normal -0 0 1
    outer loop
      vertex -2.83156 2.05725 7.4
      vertex -1.65 1.65 7.4
      vertex -2.34196 2.60101 7.4
    endloop
  endfacet
  facet normal 0 0 1
    outer loop
      vertex -3.19741 1.42358 7.4
      vertex -1.65 1.65 7.4
      vertex -2.83156 2.05725 7.4
    endloop
  endfacet
  facet normal 0 0 1
    outer loop
      vertex -1.65 -1.65 7.4
      vertex -2.34196 -2.60101 7.4
      vertex -1.75 -3.03109 7.4
    endloop
  endfacet
  facet normal 0 0 1
    outer loop
      vertex -3.42352 0.727691 7.4
      vertex -1.65 1.65 7.4
      vertex -3.19741 1.42358 7.4
    endloop
  endfacet
  facet normal 0 0 1
    outer loop
      vertex -1.65 -1.65 7.4
      vertex -2.83156 -2.05725 7.4
      vertex -2.34196 -2.60101 7.4
    endloop
  endfacet
  facet normal 0 0 1
    outer loop
      vertex -3.5 0 7.4
      vertex -1.65 1.65 7.4
      vertex -3.42352 0.727691 7.4
    endloop
  endfacet
  facet normal 0 0 1
    outer loop
      vertex -1.65 -1.65 7.4
      vertex -3.19741 -1.42358 7.4
      vertex -2.83156 -2.05725 7.4
    endloop
  endfacet
  facet normal 0 0 1
    outer loop
      vertex -1.65 1.65 7.4
      vertex -3.5 0 7.4
      vertex -1.65 -1.65 7.4
    endloop
  endfacet
  facet normal 0 0 1
    outer loop
      vertex -1.65 -1.65 7.4
      vertex -3.42352 -0.727691 7.4
      vertex -3.19741 -1.42358 7.4
    endloop
  endfacet
  facet normal 0 0 1
    outer loop
      vertex -1.65 -1.65 7.4
      vertex -3.5 0 7.4
      vertex -3.42352 -0.727691 7.4
    endloop
  endfacet
  facet normal -0.951056 0.309017 0
    outer loop
      vertex -3.42352 0.727691 0
      vertex -3.19741 1.42358 7.4
      vertex -3.19741 1.42358 0
    endloop
  endfacet
  facet normal -0.951056 0.309017 0
    outer loop
      vertex -3.19741 1.42358 7.4
      vertex -3.42352 0.727691 0
      vertex -3.42352 0.727691 7.4
    endloop
  endfacet
  facet normal 0.951056 -0.309017 0
    outer loop
      vertex 3.19741 -1.42358 7.4
      vertex 3.42352 -0.727691 0
      vertex 3.42352 -0.727691 7.4
    endloop
  endfacet
  facet normal 0.951056 -0.309017 0
    outer loop
      vertex 3.42352 -0.727691 0
      vertex 3.19741 -1.42358 7.4
      vertex 3.19741 -1.42358 0
    endloop
  endfacet
  facet normal 0.866026 -0.499999 0
    outer loop
      vertex 2.83156 -2.05725 7.4
      vertex 3.19741 -1.42358 0
      vertex 3.19741 -1.42358 7.4
    endloop
  endfacet
  facet normal 0.866026 -0.499999 0
    outer loop
      vertex 3.19741 -1.42358 0
      vertex 2.83156 -2.05725 7.4
      vertex 2.83156 -2.05725 0
    endloop
  endfacet
  facet normal -0.994522 -0.104529 0
    outer loop
      vertex -3.42352 -0.727691 0
      vertex -3.5 0 7.4
      vertex -3.5 0 0
    endloop
  endfacet
  facet normal -0.994522 -0.104529 0
    outer loop
      vertex -3.5 0 7.4
      vertex -3.42352 -0.727691 0
      vertex -3.42352 -0.727691 7.4
    endloop
  endfacet
  facet normal 0.743145 -0.66913 0
    outer loop
      vertex 2.34196 -2.60101 7.4
      vertex 2.83156 -2.05725 0
      vertex 2.83156 -2.05725 7.4
    endloop
  endfacet
  facet normal 0.743145 -0.66913 0
    outer loop
      vertex 2.83156 -2.05725 0
      vertex 2.34196 -2.60101 7.4
      vertex 2.34196 -2.60101 0
    endloop
  endfacet
  facet normal -0.587786 -0.809017 0
    outer loop
      vertex -2.34196 -2.60101 0
      vertex -1.75 -3.03109 7.4
      vertex -2.34196 -2.60101 7.4
    endloop
  endfacet
  facet normal -0.587786 -0.809017 -0
    outer loop
      vertex -1.75 -3.03109 7.4
      vertex -2.34196 -2.60101 0
      vertex -1.75 -3.03109 0
    endloop
  endfacet
  facet normal 0 -1 0
    outer loop
      vertex -0.365849 -3.48083 0
      vertex 0.365849 -3.48083 7.4
      vertex -0.365849 -3.48083 7.4
    endloop
  endfacet
  facet normal 0 -1 -0
    outer loop
      vertex 0.365849 -3.48083 7.4
      vertex -0.365849 -3.48083 0
      vertex 0.365849 -3.48083 0
    endloop
  endfacet
  facet normal 0 0 -1
    outer loop
      vertex 1.35 0 0
      vertex 3.5 0 0
      vertex 3.42352 -0.727691 0
    endloop
  endfacet
  facet normal 0 0 -1
    outer loop
      vertex 1.3205 -0.280681 0
      vertex 3.42352 -0.727691 0
      vertex 3.19741 -1.42358 0
    endloop
  endfacet
  facet normal 0 0 -1
    outer loop
      vertex 3.5 0 0
      vertex 1.35 0 0
      vertex 3.42352 0.727691 0
    endloop
  endfacet
  facet normal 0 0 -1
    outer loop
      vertex 1.23329 -0.549094 0
      vertex 3.19741 -1.42358 0
      vertex 2.83156 -2.05725 0
    endloop
  endfacet
  facet normal 0 0 -1
    outer loop
      vertex 1.3205 0.280681 0
      vertex 3.42352 0.727691 0
      vertex 1.35 0 0
    endloop
  endfacet
  facet normal 0 0 -1
    outer loop
      vertex 1.09217 -0.793509 0
      vertex 2.83156 -2.05725 0
      vertex 2.34196 -2.60101 0
    endloop
  endfacet
  facet normal -0 0 -1
    outer loop
      vertex 3.42352 0.727691 0
      vertex 1.3205 0.280681 0
      vertex 3.19741 1.42358 0
    endloop
  endfacet
  facet normal 0 0 -1
    outer loop
      vertex 0.903326 -1.00325 0
      vertex 2.34196 -2.60101 0
      vertex 1.75 -3.03109 0
    endloop
  endfacet
  facet normal 0 0 -1
    outer loop
      vertex 1.23329 0.549094 0
      vertex 3.19741 1.42358 0
      vertex 1.3205 0.280681 0
    endloop
  endfacet
  facet normal -0 0 -1
    outer loop
      vertex 3.19741 1.42358 0
      vertex 1.23329 0.549094 0
      vertex 2.83156 2.05725 0
    endloop
  endfacet
  facet normal 0 0 -1
    outer loop
      vertex 3.42352 -0.727691 0
      vertex 1.3205 -0.280681 0
      vertex 1.35 0 0
    endloop
  endfacet
  facet normal 0 0 -1
    outer loop
      vertex 3.19741 -1.42358 0
      vertex 1.23329 -0.549094 0
      vertex 1.3205 -0.280681 0
    endloop
  endfacet
  facet normal 0 0 -1
    outer loop
      vertex 2.83156 -2.05725 0
      vertex 1.09217 -0.793509 0
      vertex 1.23329 -0.549094 0
    endloop
  endfacet
  facet normal 0 0 -1
    outer loop
      vertex 0.674999 -1.16913 0
      vertex 1.75 -3.03109 0
      vertex 1.08156 -3.3287 0
    endloop
  endfacet
  facet normal 0 0 -1
    outer loop
      vertex 2.34196 -2.60101 0
      vertex 0.903326 -1.00325 0
      vertex 1.09217 -0.793509 0
    endloop
  endfacet
  facet normal 0 0 -1
    outer loop
      vertex 1.75 -3.03109 0
      vertex 0.674999 -1.16913 0
      vertex 0.903326 -1.00325 0
    endloop
  endfacet
  facet normal 0 0 -1
    outer loop
      vertex 1.08156 -3.3287 0
      vertex 0.417172 -1.28393 0
      vertex 0.674999 -1.16913 0
    endloop
  endfacet
  facet normal 0 0 -1
    outer loop
      vertex 0.365849 -3.48083 0
      vertex 0.417172 -1.28393 0
      vertex 1.08156 -3.3287 0
    endloop
  endfacet
  facet normal 0 0 -1
    outer loop
      vertex 0.365849 -3.48083 0
      vertex 0.141113 -1.3426 0
      vertex 0.417172 -1.28393 0
    endloop
  endfacet
  facet normal 0 0 -1
    outer loop
      vertex 0.365849 -3.48083 0
      vertex -0.141113 -1.3426 0
      vertex 0.141113 -1.3426 0
    endloop
  endfacet
  facet normal 0 0 -1
    outer loop
      vertex -0.365849 -3.48083 0
      vertex -0.141113 -1.3426 0
      vertex 0.365849 -3.48083 0
    endloop
  endfacet
  facet normal 0 0 -1
    outer loop
      vertex -0.365849 -3.48083 0
      vertex -0.417172 -1.28393 0
      vertex -0.141113 -1.3426 0
    endloop
  endfacet
  facet normal 0 0 -1
    outer loop
      vertex -1.08156 -3.3287 0
      vertex -0.417172 -1.28393 0
      vertex -0.365849 -3.48083 0
    endloop
  endfacet
  facet normal -0 0 -1
    outer loop
      vertex -0.417172 -1.28393 0
      vertex -1.08156 -3.3287 0
      vertex -0.674999 -1.16913 0
    endloop
  endfacet
  facet normal 0 0 -1
    outer loop
      vertex -1.75 -3.03109 0
      vertex -0.674999 -1.16913 0
      vertex -1.08156 -3.3287 0
    endloop
  endfacet
  facet normal -0 0 -1
    outer loop
      vertex -0.674999 -1.16913 0
      vertex -1.75 -3.03109 0
      vertex -0.903326 -1.00325 0
    endloop
  endfacet
  facet normal 0 0 -1
    outer loop
      vertex -2.34196 -2.60101 0
      vertex -0.903326 -1.00325 0
      vertex -1.75 -3.03109 0
    endloop
  endfacet
  facet normal -0 0 -1
    outer loop
      vertex -0.903326 -1.00325 0
      vertex -2.34196 -2.60101 0
      vertex -1.09217 -0.793509 0
    endloop
  endfacet
  facet normal 0 0 -1
    outer loop
      vertex -2.83156 -2.05725 0
      vertex -1.09217 -0.793509 0
      vertex -2.34196 -2.60101 0
    endloop
  endfacet
  facet normal -0 0 -1
    outer loop
      vertex -1.09217 -0.793509 0
      vertex -2.83156 -2.05725 0
      vertex -1.23329 -0.549094 0
    endloop
  endfacet
  facet normal 0 0 -1
    outer loop
      vertex -3.19741 -1.42358 0
      vertex -1.23329 -0.549094 0
      vertex -2.83156 -2.05725 0
    endloop
  endfacet
  facet normal -0 0 -1
    outer loop
      vertex -1.23329 -0.549094 0
      vertex -3.19741 -1.42358 0
      vertex -1.3205 -0.280681 0
    endloop
  endfacet
  facet normal 0 0 -1
    outer loop
      vertex -1.35 0 0
      vertex -2.34196 2.60101 0
      vertex -1.75 3.03109 0
    endloop
  endfacet
  facet normal 0 0 -1
    outer loop
      vertex -3.42352 -0.727691 0
      vertex -1.3205 -0.280681 0
      vertex -3.19741 -1.42358 0
    endloop
  endfacet
  facet normal 0 0 -1
    outer loop
      vertex -1.35 0 0
      vertex -2.83156 2.05725 0
      vertex -2.34196 2.60101 0
    endloop
  endfacet
  facet normal -0 0 -1
    outer loop
      vertex -1.3205 -0.280681 0
      vertex -3.42352 -0.727691 0
      vertex -1.35 0 0
    endloop
  endfacet
  facet normal 0 0 -1
    outer loop
      vertex -1.35 0 0
      vertex -3.19741 1.42358 0
      vertex -2.83156 2.05725 0
    endloop
  endfacet
  facet normal 0 0 -1
    outer loop
      vertex -3.5 0 0
      vertex -1.35 0 0
      vertex -3.42352 -0.727691 0
    endloop
  endfacet
  facet normal 0 0 -1
    outer loop
      vertex -1.35 0 0
      vertex -3.42352 0.727691 0
      vertex -3.19741 1.42358 0
    endloop
  endfacet
  facet normal 0 0 -1
    outer loop
      vertex -1.35 0 0
      vertex -3.5 0 0
      vertex -3.42352 0.727691 0
    endloop
  endfacet
  facet normal 0 0 -1
    outer loop
      vertex 1.09217 0.793509 0
      vertex 2.83156 2.05725 0
      vertex 1.23329 0.549094 0
    endloop
  endfacet
  facet normal -0 0 -1
    outer loop
      vertex 2.83156 2.05725 0
      vertex 1.09217 0.793509 0
      vertex 2.34196 2.60101 0
    endloop
  endfacet
  facet normal 0 0 -1
    outer loop
      vertex 0.903326 1.00325 0
      vertex 2.34196 2.60101 0
      vertex 1.09217 0.793509 0
    endloop
  endfacet
  facet normal -0 0 -1
    outer loop
      vertex 2.34196 2.60101 0
      vertex 0.903326 1.00325 0
      vertex 1.75 3.03109 0
    endloop
  endfacet
  facet normal 0 0 -1
    outer loop
      vertex 0.674999 1.16913 0
      vertex 1.75 3.03109 0
      vertex 0.903326 1.00325 0
    endloop
  endfacet
  facet normal -0 0 -1
    outer loop
      vertex 1.75 3.03109 0
      vertex 0.674999 1.16913 0
      vertex 1.08156 3.3287 0
    endloop
  endfacet
  facet normal 0 0 -1
    outer loop
      vertex 0.417172 1.28393 0
      vertex 1.08156 3.3287 0
      vertex 0.674999 1.16913 0
    endloop
  endfacet
  facet normal 0 0 -1
    outer loop
      vertex 0.417172 1.28393 0
      vertex 0.365849 3.48083 0
      vertex 1.08156 3.3287 0
    endloop
  endfacet
  facet normal 0 0 -1
    outer loop
      vertex 0.141113 1.3426 0
      vertex 0.365849 3.48083 0
      vertex 0.417172 1.28393 0
    endloop
  endfacet
  facet normal 0 0 -1
    outer loop
      vertex -0.141113 1.3426 0
      vertex 0.365849 3.48083 0
      vertex 0.141113 1.3426 0
    endloop
  endfacet
  facet normal 0 0 -1
    outer loop
      vertex -0.141113 1.3426 0
      vertex -0.365849 3.48083 0
      vertex 0.365849 3.48083 0
    endloop
  endfacet
  facet normal 0 0 -1
    outer loop
      vertex -0.417172 1.28393 0
      vertex -0.365849 3.48083 0
      vertex -0.141113 1.3426 0
    endloop
  endfacet
  facet normal 0 0 -1
    outer loop
      vertex -1.08156 3.3287 0
      vertex -0.417172 1.28393 0
      vertex -0.674999 1.16913 0
    endloop
  endfacet
  facet normal 0 0 -1
    outer loop
      vertex -1.75 3.03109 0
      vertex -0.674999 1.16913 0
      vertex -0.903326 1.00325 0
    endloop
  endfacet
  facet normal 0 0 -1
    outer loop
      vertex -0.417172 1.28393 0
      vertex -1.08156 3.3287 0
      vertex -0.365849 3.48083 0
    endloop
  endfacet
  facet normal 0 0 -1
    outer loop
      vertex -1.75 3.03109 0
      vertex -0.903326 1.00325 0
      vertex -1.09217 0.793509 0
    endloop
  endfacet
  facet normal 0 0 -1
    outer loop
      vertex -1.75 3.03109 0
      vertex -1.09217 0.793509 0
      vertex -1.23329 0.549094 0
    endloop
  endfacet
  facet normal 0 0 -1
    outer loop
      vertex -1.75 3.03109 0
      vertex -1.23329 0.549094 0
      vertex -1.3205 0.280681 0
    endloop
  endfacet
  facet normal 0 0 -1
    outer loop
      vertex -1.75 3.03109 0
      vertex -1.3205 0.280681 0
      vertex -1.35 0 0
    endloop
  endfacet
  facet normal 0 0 -1
    outer loop
      vertex -0.674999 1.16913 0
      vertex -1.75 3.03109 0
      vertex -1.08156 3.3287 0
    endloop
  endfacet
  facet normal -0.951056 -0.309017 0
    outer loop
      vertex -3.19741 -1.42358 0
      vertex -3.42352 -0.727691 7.4
      vertex -3.42352 -0.727691 0
    endloop
  endfacet
  facet normal -0.951056 -0.309017 0
    outer loop
      vertex -3.42352 -0.727691 7.4
      vertex -3.19741 -1.42358 0
      vertex -3.19741 -1.42358 7.4
    endloop
  endfacet
  facet normal -0.743145 -0.66913 0
    outer loop
      vertex -2.34196 -2.60101 0
      vertex -2.83156 -2.05725 7.4
      vertex -2.83156 -2.05725 0
    endloop
  endfacet
  facet normal -0.743145 -0.66913 0
    outer loop
      vertex -2.83156 -2.05725 7.4
      vertex -2.34196 -2.60101 0
      vertex -2.34196 -2.60101 7.4
    endloop
  endfacet
  facet normal -0.866026 -0.499999 0
    outer loop
      vertex -2.83156 -2.05725 0
      vertex -3.19741 -1.42358 7.4
      vertex -3.19741 -1.42358 0
    endloop
  endfacet
  facet normal -0.866026 -0.499999 0
    outer loop
      vertex -3.19741 -1.42358 7.4
      vertex -2.83156 -2.05725 0
      vertex -2.83156 -2.05725 7.4
    endloop
  endfacet
  facet normal 0.406736 -0.913546 0
    outer loop
      vertex 1.08156 -3.3287 0
      vertex 1.75 -3.03109 7.4
      vertex 1.08156 -3.3287 7.4
    endloop
  endfacet
  facet normal 0.406736 -0.913546 0
    outer loop
      vertex 1.75 -3.03109 7.4
      vertex 1.08156 -3.3287 0
      vertex 1.75 -3.03109 0
    endloop
  endfacet
  facet normal -0.406736 -0.913546 0
    outer loop
      vertex -1.75 -3.03109 0
      vertex -1.08156 -3.3287 7.4
      vertex -1.75 -3.03109 7.4
    endloop
  endfacet
  facet normal -0.406736 -0.913546 -0
    outer loop
      vertex -1.08156 -3.3287 7.4
      vertex -1.75 -3.03109 0
      vertex -1.08156 -3.3287 0
    endloop
  endfacet
  facet normal -1 0 0
    outer loop
      vertex -1.65 -1.65 7.4
      vertex -1.65 1.65 9.4
      vertex -1.65 1.65 7.4
    endloop
  endfacet
  facet normal -1 -0 0
    outer loop
      vertex -1.65 1.65 9.4
      vertex -1.65 -1.65 7.4
      vertex -1.65 -1.65 9.4
    endloop
  endfacet
  facet normal 1 -0 0
    outer loop
      vertex 1.65 -1.65 9.4
      vertex 1.65 1.65 7.4
      vertex 1.65 1.65 9.4
    endloop
  endfacet
  facet normal 1 0 0
    outer loop
      vertex 1.65 1.65 7.4
      vertex 1.65 -1.65 9.4
      vertex 1.65 -1.65 7.4
    endloop
  endfacet
  facet normal 0 1 -0
    outer loop
      vertex 1.65 1.65 7.4
      vertex -1.65 1.65 9.4
      vertex 1.65 1.65 9.4
    endloop
  endfacet
  facet normal 0 1 0
    outer loop
      vertex -1.65 1.65 9.4
      vertex 1.65 1.65 7.4
      vertex -1.65 1.65 7.4
    endloop
  endfacet
  facet normal 0 -1 0
    outer loop
      vertex -1.65 -1.65 7.4
      vertex 1.65 -1.65 9.4
      vertex -1.65 -1.65 9.4
    endloop
  endfacet
  facet normal 0 -1 -0
    outer loop
      vertex 1.65 -1.65 9.4
      vertex -1.65 -1.65 7.4
      vertex 1.65 -1.65 7.4
    endloop
  endfacet
  facet normal 0.876216 0 0.481919
    outer loop
      vertex 1.65 1.65 9.4
      vertex 0 0 12.4
      vertex 1.65 -1.65 9.4
    endloop
  endfacet
  facet normal 0 -0.876216 0.481919
    outer loop
      vertex 0 0 12.4
      vertex -1.65 -1.65 9.4
      vertex 1.65 -1.65 9.4
    endloop
  endfacet
  facet normal 0 0.876216 0.481919
    outer loop
      vertex 1.65 1.65 9.4
      vertex -1.65 1.65 9.4
      vertex 0 0 12.4
    endloop
  endfacet
  facet normal -0.876216 0 0.481919
    outer loop
      vertex -1.65 1.65 9.4
      vertex -1.65 -1.65 9.4
      vertex 0 0 12.4
    endloop
  endfacet
  facet normal 0.951057 -0.309016 0
    outer loop
      vertex -1.3205 0.280681 5
      vertex -1.23329 0.549094 0
      vertex -1.23329 0.549094 5
    endloop
  endfacet
  facet normal 0.951057 -0.309016 0
    outer loop
      vertex -1.23329 0.549094 0
      vertex -1.3205 0.280681 5
      vertex -1.3205 0.280681 0
    endloop
  endfacet
  facet normal -0.866025 -0.5 0
    outer loop
      vertex 1.23329 0.549094 0
      vertex 1.09217 0.793509 5
      vertex 1.09217 0.793509 0
    endloop
  endfacet
  facet normal -0.866025 -0.5 0
    outer loop
      vertex 1.09217 0.793509 5
      vertex 1.23329 0.549094 0
      vertex 1.23329 0.549094 5
    endloop
  endfacet
  facet normal -0.951057 -0.309016 0
    outer loop
      vertex 1.3205 0.280681 0
      vertex 1.23329 0.549094 5
      vertex 1.23329 0.549094 0
    endloop
  endfacet
  facet normal -0.951057 -0.309016 0
    outer loop
      vertex 1.23329 0.549094 5
      vertex 1.3205 0.280681 0
      vertex 1.3205 0.280681 5
    endloop
  endfacet
  facet normal -0.20791 -0.978148 0
    outer loop
      vertex 0.141113 1.3426 0
      vertex 0.417172 1.28393 5
      vertex 0.141113 1.3426 5
    endloop
  endfacet
  facet normal -0.20791 -0.978148 -0
    outer loop
      vertex 0.417172 1.28393 5
      vertex 0.141113 1.3426 0
      vertex 0.417172 1.28393 0
    endloop
  endfacet
  facet normal -0.406737 -0.913545 0
    outer loop
      vertex 0.417172 1.28393 0
      vertex 0.674999 1.16913 5
      vertex 0.417172 1.28393 5
    endloop
  endfacet
  facet normal -0.406737 -0.913545 -0
    outer loop
      vertex 0.674999 1.16913 5
      vertex 0.417172 1.28393 0
      vertex 0.674999 1.16913 0
    endloop
  endfacet
  facet normal 0.20791 -0.978148 0
    outer loop
      vertex -0.417172 1.28393 0
      vertex -0.141113 1.3426 5
      vertex -0.417172 1.28393 5
    endloop
  endfacet
  facet normal 0.20791 -0.978148 0
    outer loop
      vertex -0.141113 1.3426 5
      vertex -0.417172 1.28393 0
      vertex -0.141113 1.3426 0
    endloop
  endfacet
  facet normal 0.866025 -0.5 0
    outer loop
      vertex -1.23329 0.549094 5
      vertex -1.09217 0.793509 0
      vertex -1.09217 0.793509 5
    endloop
  endfacet
  facet normal 0.866025 -0.5 0
    outer loop
      vertex -1.09217 0.793509 0
      vertex -1.23329 0.549094 5
      vertex -1.23329 0.549094 0
    endloop
  endfacet
  facet normal -0.994522 0.104529 0
    outer loop
      vertex 1.3205 -0.280681 0
      vertex 1.35 0 5
      vertex 1.35 0 0
    endloop
  endfacet
  facet normal -0.994522 0.104529 0
    outer loop
      vertex 1.35 0 5
      vertex 1.3205 -0.280681 0
      vertex 1.3205 -0.280681 5
    endloop
  endfacet
  facet normal -0.743146 -0.66913 0
    outer loop
      vertex 1.09217 0.793509 0
      vertex 0.903326 1.00325 5
      vertex 0.903326 1.00325 0
    endloop
  endfacet
  facet normal -0.743146 -0.66913 0
    outer loop
      vertex 0.903326 1.00325 5
      vertex 1.09217 0.793509 0
      vertex 1.09217 0.793509 5
    endloop
  endfacet
  facet normal 0 -1 0
    outer loop
      vertex -0.141113 1.3426 0
      vertex 0.141113 1.3426 5
      vertex -0.141113 1.3426 5
    endloop
  endfacet
  facet normal 0 -1 -0
    outer loop
      vertex 0.141113 1.3426 5
      vertex -0.141113 1.3426 0
      vertex 0.141113 1.3426 0
    endloop
  endfacet
  facet normal -0.587784 -0.809018 0
    outer loop
      vertex 0.674999 1.16913 0
      vertex 0.903326 1.00325 5
      vertex 0.674999 1.16913 5
    endloop
  endfacet
  facet normal -0.587784 -0.809018 -0
    outer loop
      vertex 0.903326 1.00325 5
      vertex 0.674999 1.16913 0
      vertex 0.903326 1.00325 0
    endloop
  endfacet
  facet normal 0.994522 -0.104529 0
    outer loop
      vertex -1.35 0 5
      vertex -1.3205 0.280681 0
      vertex -1.3205 0.280681 5
    endloop
  endfacet
  facet normal 0.994522 -0.104529 0
    outer loop
      vertex -1.3205 0.280681 0
      vertex -1.35 0 5
      vertex -1.35 0 0
    endloop
  endfacet
  facet normal 0.743146 -0.66913 0
    outer loop
      vertex -1.09217 0.793509 5
      vertex -0.903326 1.00325 0
      vertex -0.903326 1.00325 5
    endloop
  endfacet
  facet normal 0.743146 -0.66913 0
    outer loop
      vertex -0.903326 1.00325 0
      vertex -1.09217 0.793509 5
      vertex -1.09217 0.793509 0
    endloop
  endfacet
  facet normal 0.406737 -0.913545 0
    outer loop
      vertex -0.674999 1.16913 0
      vertex -0.417172 1.28393 5
      vertex -0.674999 1.16913 5
    endloop
  endfacet
  facet normal 0.406737 -0.913545 0
    outer loop
      vertex -0.417172 1.28393 5
      vertex -0.674999 1.16913 0
      vertex -0.417172 1.28393 0
    endloop
  endfacet
  facet normal 0.587784 -0.809018 0
    outer loop
      vertex -0.903326 1.00325 0
      vertex -0.674999 1.16913 5
      vertex -0.903326 1.00325 5
    endloop
  endfacet
  facet normal 0.587784 -0.809018 0
    outer loop
      vertex -0.674999 1.16913 5
      vertex -0.903326 1.00325 0
      vertex -0.674999 1.16913 0
    endloop
  endfacet
  facet normal -0.994522 -0.104529 0
    outer loop
      vertex 1.35 0 0
      vertex 1.3205 0.280681 5
      vertex 1.3205 0.280681 0
    endloop
  endfacet
  facet normal -0.994522 -0.104529 0
    outer loop
      vertex 1.3205 0.280681 5
      vertex 1.35 0 0
      vertex 1.35 0 5
    endloop
  endfacet
  facet normal -0.951057 0.309016 0
    outer loop
      vertex 1.23329 -0.549094 0
      vertex 1.3205 -0.280681 5
      vertex 1.3205 -0.280681 0
    endloop
  endfacet
  facet normal -0.951057 0.309016 0
    outer loop
      vertex 1.3205 -0.280681 5
      vertex 1.23329 -0.549094 0
      vertex 1.23329 -0.549094 5
    endloop
  endfacet
  facet normal 0.587784 0.809018 -0
    outer loop
      vertex -0.674999 -1.16913 0
      vertex -0.903326 -1.00325 5
      vertex -0.674999 -1.16913 5
    endloop
  endfacet
  facet normal 0.587784 0.809018 0
    outer loop
      vertex -0.903326 -1.00325 5
      vertex -0.674999 -1.16913 0
      vertex -0.903326 -1.00325 0
    endloop
  endfacet
  facet normal 0.866025 0.5 0
    outer loop
      vertex -1.09217 -0.793509 5
      vertex -1.23329 -0.549094 0
      vertex -1.23329 -0.549094 5
    endloop
  endfacet
  facet normal 0.866025 0.5 0
    outer loop
      vertex -1.23329 -0.549094 0
      vertex -1.09217 -0.793509 5
      vertex -1.09217 -0.793509 0
    endloop
  endfacet
  facet normal -0.587784 0.809018 0
    outer loop
      vertex 0.903326 -1.00325 0
      vertex 0.674999 -1.16913 5
      vertex 0.903326 -1.00325 5
    endloop
  endfacet
  facet normal -0.587784 0.809018 0
    outer loop
      vertex 0.674999 -1.16913 5
      vertex 0.903326 -1.00325 0
      vertex 0.674999 -1.16913 0
    endloop
  endfacet
  facet normal -0.866025 0.5 0
    outer loop
      vertex 1.09217 -0.793509 0
      vertex 1.23329 -0.549094 5
      vertex 1.23329 -0.549094 0
    endloop
  endfacet
  facet normal -0.866025 0.5 0
    outer loop
      vertex 1.23329 -0.549094 5
      vertex 1.09217 -0.793509 0
      vertex 1.09217 -0.793509 5
    endloop
  endfacet
  facet normal 0.994522 0.104529 0
    outer loop
      vertex -1.3205 -0.280681 5
      vertex -1.35 0 0
      vertex -1.35 0 5
    endloop
  endfacet
  facet normal 0.994522 0.104529 0
    outer loop
      vertex -1.35 0 0
      vertex -1.3205 -0.280681 5
      vertex -1.3205 -0.280681 0
    endloop
  endfacet
  facet normal 0.743146 0.66913 0
    outer loop
      vertex -0.903326 -1.00325 5
      vertex -1.09217 -0.793509 0
      vertex -1.09217 -0.793509 5
    endloop
  endfacet
  facet normal 0.743146 0.66913 0
    outer loop
      vertex -1.09217 -0.793509 0
      vertex -0.903326 -1.00325 5
      vertex -0.903326 -1.00325 0
    endloop
  endfacet
  facet normal -0.20791 0.978148 0
    outer loop
      vertex 0.417172 -1.28393 0
      vertex 0.141113 -1.3426 5
      vertex 0.417172 -1.28393 5
    endloop
  endfacet
  facet normal -0.20791 0.978148 0
    outer loop
      vertex 0.141113 -1.3426 5
      vertex 0.417172 -1.28393 0
      vertex 0.141113 -1.3426 0
    endloop
  endfacet
  facet normal -0.406737 0.913545 0
    outer loop
      vertex 0.674999 -1.16913 0
      vertex 0.417172 -1.28393 5
      vertex 0.674999 -1.16913 5
    endloop
  endfacet
  facet normal -0.406737 0.913545 0
    outer loop
      vertex 0.417172 -1.28393 5
      vertex 0.674999 -1.16913 0
      vertex 0.417172 -1.28393 0
    endloop
  endfacet
  facet normal 0 1 -0
    outer loop
      vertex 0.141113 -1.3426 0
      vertex -0.141113 -1.3426 5
      vertex 0.141113 -1.3426 5
    endloop
  endfacet
  facet normal 0 1 0
    outer loop
      vertex -0.141113 -1.3426 5
      vertex 0.141113 -1.3426 0
      vertex -0.141113 -1.3426 0
    endloop
  endfacet
  facet normal 0.20791 0.978148 -0
    outer loop
      vertex -0.141113 -1.3426 0
      vertex -0.417172 -1.28393 5
      vertex -0.141113 -1.3426 5
    endloop
  endfacet
  facet normal 0.20791 0.978148 0
    outer loop
      vertex -0.417172 -1.28393 5
      vertex -0.141113 -1.3426 0
      vertex -0.417172 -1.28393 0
    endloop
  endfacet
  facet normal 0.951057 0.309016 0
    outer loop
      vertex -1.23329 -0.549094 5
      vertex -1.3205 -0.280681 0
      vertex -1.3205 -0.280681 5
    endloop
  endfacet
  facet normal 0.951057 0.309016 0
    outer loop
      vertex -1.3205 -0.280681 0
      vertex -1.23329 -0.549094 5
      vertex -1.23329 -0.549094 0
    endloop
  endfacet
  facet normal -0.743146 0.66913 0
    outer loop
      vertex 0.903326 -1.00325 0
      vertex 1.09217 -0.793509 5
      vertex 1.09217 -0.793509 0
    endloop
  endfacet
  facet normal -0.743146 0.66913 0
    outer loop
      vertex 1.09217 -0.793509 5
      vertex 0.903326 -1.00325 0
      vertex 0.903326 -1.00325 5
    endloop
  endfacet
  facet normal 0.406737 0.913545 -0
    outer loop
      vertex -0.417172 -1.28393 0
      vertex -0.674999 -1.16913 5
      vertex -0.417172 -1.28393 5
    endloop
  endfacet
  facet normal 0.406737 0.913545 0
    outer loop
      vertex -0.674999 -1.16913 5
      vertex -0.417172 -1.28393 0
      vertex -0.674999 -1.16913 0
    endloop
  endfacet
  facet normal -0.942829 -0.0990961 -0.318205
    outer loop
      vertex 1.3205 0.280681 5
      vertex 1.35 0 5
      vertex 0 0 9
    endloop
  endfacet
  facet normal 0.901623 0.292954 -0.318205
    outer loop
      vertex 0 0 9
      vertex -1.23329 -0.549094 5
      vertex -1.3205 -0.280681 5
    endloop
  endfacet
  facet normal 0.197103 -0.927306 -0.318205
    outer loop
      vertex -0.141113 1.3426 5
      vertex 0 0 9
      vertex -0.417172 1.28393 5
    endloop
  endfacet
  facet normal -0.197103 0.927306 -0.318205
    outer loop
      vertex 0.417172 -1.28393 5
      vertex 0.141113 -1.3426 5
      vertex 0 0 9
    endloop
  endfacet
  facet normal 0.704518 -0.63435 -0.318205
    outer loop
      vertex -0.903326 1.00325 5
      vertex 0 0 9
      vertex -1.09217 0.793509 5
    endloop
  endfacet
  facet normal -0.557233 -0.766967 -0.318205
    outer loop
      vertex 0.674999 1.16913 5
      vertex 0.903326 1.00325 5
      vertex 0 0 9
    endloop
  endfacet
  facet normal 0.385595 0.866061 -0.318205
    outer loop
      vertex 0 0 9
      vertex -0.417172 -1.28393 5
      vertex -0.674999 -1.16913 5
    endloop
  endfacet
  facet normal -0.821011 0.474011 -0.318205
    outer loop
      vertex 1.23329 -0.549094 5
      vertex 1.09217 -0.793509 5
      vertex 0 0 9
    endloop
  endfacet
  facet normal 0.385595 -0.866061 -0.318205
    outer loop
      vertex -0.417172 1.28393 5
      vertex 0 0 9
      vertex -0.674999 1.16913 5
    endloop
  endfacet
  facet normal 0.901623 -0.292954 -0.318205
    outer loop
      vertex -1.23329 0.549094 5
      vertex 0 0 9
      vertex -1.3205 0.280681 5
    endloop
  endfacet
  facet normal -0.197103 -0.927306 -0.318205
    outer loop
      vertex 0.141113 1.3426 5
      vertex 0.417172 1.28393 5
      vertex 0 0 9
    endloop
  endfacet
  facet normal -0.821011 -0.474011 -0.318205
    outer loop
      vertex 1.09217 0.793509 5
      vertex 1.23329 0.549094 5
      vertex 0 0 9
    endloop
  endfacet
  facet normal -0.901623 -0.292954 -0.318205
    outer loop
      vertex 1.23329 0.549094 5
      vertex 1.3205 0.280681 5
      vertex 0 0 9
    endloop
  endfacet
  facet normal 0.197103 0.927306 -0.318205
    outer loop
      vertex 0 0 9
      vertex -0.141113 -1.3426 5
      vertex -0.417172 -1.28393 5
    endloop
  endfacet
  facet normal 0.557233 -0.766967 -0.318205
    outer loop
      vertex -0.674999 1.16913 5
      vertex 0 0 9
      vertex -0.903326 1.00325 5
    endloop
  endfacet
  facet normal 0.821011 -0.474011 -0.318205
    outer loop
      vertex -1.09217 0.793509 5
      vertex 0 0 9
      vertex -1.23329 0.549094 5
    endloop
  endfacet
  facet normal 0.942829 -0.0990961 -0.318205
    outer loop
      vertex -1.3205 0.280681 5
      vertex 0 0 9
      vertex -1.35 0 5
    endloop
  endfacet
  facet normal -0.385595 -0.866061 -0.318205
    outer loop
      vertex 0.417172 1.28393 5
      vertex 0.674999 1.16913 5
      vertex 0 0 9
    endloop
  endfacet
  facet normal -0 -0.948022 -0.318204
    outer loop
      vertex 0.141113 1.3426 5
      vertex 0 0 9
      vertex -0.141113 1.3426 5
    endloop
  endfacet
  facet normal -0.704518 -0.63435 -0.318205
    outer loop
      vertex 0.903326 1.00325 5
      vertex 1.09217 0.793509 5
      vertex 0 0 9
    endloop
  endfacet
  facet normal 0.942829 0.0990961 -0.318205
    outer loop
      vertex 0 0 9
      vertex -1.3205 -0.280681 5
      vertex -1.35 0 5
    endloop
  endfacet
  facet normal 0.704518 0.63435 -0.318205
    outer loop
      vertex 0 0 9
      vertex -0.903326 -1.00325 5
      vertex -1.09217 -0.793509 5
    endloop
  endfacet
  facet normal 0.821011 0.474011 -0.318205
    outer loop
      vertex 0 0 9
      vertex -1.09217 -0.793509 5
      vertex -1.23329 -0.549094 5
    endloop
  endfacet
  facet normal 0.557233 0.766967 -0.318205
    outer loop
      vertex 0 0 9
      vertex -0.674999 -1.16913 5
      vertex -0.903326 -1.00325 5
    endloop
  endfacet
  facet normal 0 0.948022 -0.318204
    outer loop
      vertex 0 0 9
      vertex 0.141113 -1.3426 5
      vertex -0.141113 -1.3426 5
    endloop
  endfacet
  facet normal -0.557233 0.766967 -0.318205
    outer loop
      vertex 0.903326 -1.00325 5
      vertex 0.674999 -1.16913 5
      vertex 0 0 9
    endloop
  endfacet
  facet normal -0.385595 0.866061 -0.318205
    outer loop
      vertex 0.674999 -1.16913 5
      vertex 0.417172 -1.28393 5
      vertex 0 0 9
    endloop
  endfacet
  facet normal -0.704518 0.63435 -0.318205
    outer loop
      vertex 1.09217 -0.793509 5
      vertex 0.903326 -1.00325 5
      vertex 0 0 9
    endloop
  endfacet
  facet normal -0.942829 0.0990961 -0.318205
    outer loop
      vertex 1.35 0 5
      vertex 1.3205 -0.280681 5
      vertex 0 0 9
    endloop
  endfacet
  facet normal -0.901623 0.292954 -0.318205
    outer loop
      vertex 1.3205 -0.280681 5
      vertex 1.23329 -0.549094 5
      vertex 0 0 9
    endloop
  endfacet
endsolid OpenSCAD_Model
