G04 --- HEADER BEGIN --- *
%TF.GenerationSoftware,LibrePCB,LibrePCB,0.1.3*%
%TF.CreationDate,2020-03-08T21:05:15*%
%TF.ProjectId,Hydro Battery Charger - default,71762d7e-e7f1-403c-8020-db9670c01e9b,v3*%
%TF.Part,Single*%
%FSLAX66Y66*%
%MOMM*%
G01*
G74*
G04 --- HEADER END --- *
G04 --- APERTURE LIST BEGIN --- *
%ADD10R,1.24X1.04*%
%ADD11R,1.439X0.384*%
%ADD12R,0.8X0.9*%
%ADD13R,0.48X0.98*%
%ADD14R,0.65X0.6*%
%ADD15R,2.46X0.96*%
%ADD16R,2.56X4.36*%
%ADD17R,0.9X0.8*%
%ADD18R,1.2X0.8*%
%ADD19R,0.384X1.439*%
%ADD20R,2.62X1.92*%
%ADD21R,0.8X1.2*%
%ADD22R,1.39X0.84*%
%ADD23R,4.73X3.08*%
%ADD24R,0.6X0.65*%
%ADD25R,3.02X1.52*%
%ADD26R,0.36X1.11*%
%ADD27R,1.11X0.36*%
%ADD28R,1.04X1.24*%
G04 --- APERTURE LIST END --- *
G04 --- BOARD BEGIN --- *
D10*
X25558750Y33335000D03*
X25558750Y31435000D03*
D11*
X32745500Y32385000D03*
X27579500Y29845000D03*
X32745500Y33655000D03*
X27579500Y32385000D03*
X27579500Y31115000D03*
X32745500Y31115000D03*
X27579500Y33655000D03*
X32745500Y29845000D03*
D12*
X22383750Y38791250D03*
X22383750Y37091250D03*
D13*
X35081250Y62995000D03*
X33181250Y60195000D03*
X34131250Y60195000D03*
X35081250Y60195000D03*
X33181250Y62995000D03*
D14*
X28733750Y67926250D03*
X28733750Y66376250D03*
D15*
X35560000Y38881250D03*
X35560000Y42081250D03*
D16*
X3352800Y23495000D03*
X8077200Y23495000D03*
D12*
X18097500Y37091250D03*
X18097500Y38791250D03*
D14*
X82796250Y43002500D03*
X82796250Y41452500D03*
D17*
X14978750Y44608750D03*
X13278750Y44608750D03*
D18*
X25093750Y67307500D03*
X27293750Y66357500D03*
X25093750Y65407500D03*
D14*
X33496250Y44468750D03*
X33496250Y46018750D03*
D19*
X36517500Y49096750D03*
X36507500Y43930750D03*
X37777500Y43930750D03*
X39047500Y43930750D03*
X35237500Y43930750D03*
D20*
X37147500Y46513750D03*
D19*
X39057500Y49096750D03*
X35247500Y49096750D03*
X37787500Y49096750D03*
D21*
X46516250Y54621250D03*
X47466250Y56821250D03*
X48416250Y54621250D03*
D22*
X32861250Y40326250D03*
X32861250Y43176250D03*
D23*
X46873868Y50011154D03*
X46873868Y40061154D03*
D12*
X16668750Y37091250D03*
X16668750Y38791250D03*
D14*
X82796250Y46850000D03*
X82796250Y48400000D03*
X34131250Y36055000D03*
X34131250Y37605000D03*
D22*
X10477500Y74457500D03*
X10477500Y77307500D03*
D14*
X35401250Y36055000D03*
X35401250Y37605000D03*
D17*
X14978750Y41751250D03*
X13278750Y41751250D03*
X51015000Y57150000D03*
X49315000Y57150000D03*
D14*
X82796250Y44151250D03*
X82796250Y45701250D03*
X34925000Y52051250D03*
X34925000Y50501250D03*
D21*
X8892500Y66210000D03*
X9842500Y68410000D03*
X10792500Y66210000D03*
D14*
X55880000Y71895000D03*
X55880000Y70345000D03*
X9366250Y26688750D03*
X9366250Y28238750D03*
D12*
X20955000Y37091250D03*
X20955000Y38791250D03*
D22*
X34925000Y32071250D03*
X34925000Y34921250D03*
D24*
X24942500Y38893750D03*
X26492500Y38893750D03*
D12*
X36353750Y51220000D03*
X36353750Y52920000D03*
D24*
X11607500Y63817500D03*
X13157500Y63817500D03*
D25*
X20320000Y31927500D03*
X20320000Y27127500D03*
D24*
X38595000Y52070000D03*
X40145000Y52070000D03*
D25*
X33972500Y94792500D03*
X33972500Y89992500D03*
D21*
X12226250Y66210000D03*
X13176250Y68410000D03*
X14126250Y66210000D03*
D17*
X43441250Y53022500D03*
X45141250Y53022500D03*
D10*
X36671250Y58898750D03*
X36671250Y60798750D03*
D17*
X13278750Y43180000D03*
X14978750Y43180000D03*
D13*
X43815000Y57280000D03*
X43815000Y54480000D03*
X44765000Y57280000D03*
X44765000Y54480000D03*
X42865000Y54480000D03*
X42865000Y57280000D03*
D26*
X21983750Y49393750D03*
X25183750Y49393750D03*
X21183750Y49393750D03*
D27*
X26533750Y46443750D03*
X26533750Y48043750D03*
D26*
X20383750Y41093750D03*
D27*
X26533750Y42443750D03*
X26533750Y44043750D03*
D26*
X19583750Y49393750D03*
X23583750Y41093750D03*
D27*
X18233750Y44843750D03*
D26*
X20383750Y49393750D03*
D27*
X18233750Y44043750D03*
D26*
X19583750Y41093750D03*
X25183750Y41093750D03*
D27*
X18233750Y46443750D03*
X18233750Y43243750D03*
X18233750Y45643750D03*
X26533750Y47243750D03*
D26*
X22783750Y41093750D03*
D27*
X26533750Y45643750D03*
D26*
X24383750Y49393750D03*
X21183750Y41093750D03*
D27*
X26533750Y43243750D03*
D26*
X24383750Y41093750D03*
D27*
X18233750Y48043750D03*
D26*
X23583750Y49393750D03*
D27*
X18233750Y42443750D03*
X26533750Y44843750D03*
D26*
X22783750Y49393750D03*
D27*
X18233750Y47243750D03*
D26*
X21983750Y41093750D03*
D14*
X33496250Y48558750D03*
X33496250Y47008750D03*
D17*
X17406250Y50958750D03*
X19106250Y50958750D03*
D14*
X32226250Y44468750D03*
X32226250Y46018750D03*
D24*
X54432500Y57467500D03*
X52882500Y57467500D03*
D12*
X19526250Y37091250D03*
X19526250Y38791250D03*
X33496250Y49791250D03*
X33496250Y51491250D03*
D10*
X36671250Y64291250D03*
X36671250Y62391250D03*
D22*
X55880000Y76990000D03*
X55880000Y74140000D03*
D17*
X15455000Y73342500D03*
X13755000Y73342500D03*
X39585000Y50641250D03*
X37885000Y50641250D03*
D15*
X38735000Y42085036D03*
X38735000Y38885036D03*
D12*
X27622500Y40696250D03*
X27622500Y38996250D03*
D28*
X19206250Y52863750D03*
X17306250Y52863750D03*
D12*
X23812500Y38791250D03*
X23812500Y37091250D03*
G04 --- BOARD END --- *
%TF.MD5,25796f7ccee06c8ce65165fa1f818e01*%
M02*
