G04 --- HEADER BEGIN --- *
%TF.GenerationSoftware,LibrePCB,LibrePCB,0.1.3*%
%TF.CreationDate,2020-03-08T21:05:15*%
%TF.ProjectId,Hydro Battery Charger - default,71762d7e-e7f1-403c-8020-db9670c01e9b,v3*%
%TF.Part,Single*%
%FSLAX66Y66*%
%MOMM*%
G01*
G74*
G04 --- HEADER END --- *
G04 --- APERTURE LIST BEGIN --- *
%ADD10C,1.5*%
%ADD11R,1.5X1.3*%
%ADD12C,1.8*%
%ADD13R,1.535X0.48*%
%ADD14R,2.19X1.587*%
%ADD15R,1.0X1.1*%
%ADD16C,2.3*%
%ADD17R,0.6X1.1*%
%ADD18R,0.8X0.75*%
%ADD19O,3.0X1.8*%
%ADD20R,2.7X1.2*%
%ADD21R,3.2X5.0*%
%ADD22O,3.0X1.5*%
%ADD23R,1.1X1.0*%
%ADD24R,1.4X1.0*%
%ADD25R,0.48X1.535*%
%ADD26R,3.1X2.4*%
%ADD27O,4.0X2.8*%
%ADD28R,1.0X1.4*%
%ADD29R,1.6X1.05*%
%ADD30R,5.5X3.85*%
%ADD31O,4.0X2.54*%
%ADD32R,0.75X0.8*%
%ADD33C,4.0*%
%ADD34R,1.8X1.8*%
%ADD35R,1.587X2.19*%
%ADD36O,2.032X4.064*%
%ADD37R,3.4X1.9*%
%ADD38O,1.8X2.5*%
%ADD39R,1.8X2.5*%
%ADD40O,1.8X2.8*%
%ADD41R,0.45X1.2*%
%ADD42R,1.2X0.45*%
%ADD43O,2.8X4.0*%
%ADD44O,2.54X1.5*%
%ADD45O,1.8X3.0*%
%ADD46O,1.5X3.0*%
%ADD47R,1.3X1.5*%
%ADD48C,0.7*%
%ADD49C,1.0*%
%ADD50C,0.8*%
%ADD51C,0.5*%
%ADD52C,0.4*%
%ADD53C,0.6*%
%ADD54C,0.3*%
%ADD55C,0.9*%
%ADD56C,0.0*%
G04 --- APERTURE LIST END --- *
G04 --- BOARD BEGIN --- *
D10*
X80230000Y50000000D03*
X82770000Y50000000D03*
D11*
X25558750Y33335000D03*
X25558750Y31435000D03*
D12*
X92750000Y37755000D03*
X86250000Y42245000D03*
X92750000Y42245000D03*
X86250000Y37755000D03*
D13*
X32745500Y32385000D03*
X27579500Y29845000D03*
X32745500Y33655000D03*
X27579500Y32385000D03*
X27579500Y31115000D03*
X32745500Y31115000D03*
X27579500Y33655000D03*
X32745500Y29845000D03*
D14*
X40481250Y56515000D03*
D15*
X22383750Y38791250D03*
X22383750Y37091250D03*
D16*
X89500000Y65000000D03*
X92000000Y55000000D03*
X87000000Y55000000D03*
D17*
X35081250Y62995000D03*
X33181250Y60195000D03*
X34131250Y60195000D03*
X35081250Y60195000D03*
X33181250Y62995000D03*
D18*
X28733750Y67926250D03*
X28733750Y66376250D03*
D19*
X14605000Y12697500D03*
X14605000Y6847500D03*
X14605000Y29347500D03*
X14605000Y23497500D03*
D20*
X35560000Y38881250D03*
X35560000Y42081250D03*
D21*
X3352800Y23495000D03*
X8077200Y23495000D03*
D15*
X18097500Y37091250D03*
X18097500Y38791250D03*
D22*
X31432500Y20637500D03*
X31432500Y23177500D03*
X31432500Y25717500D03*
D18*
X82796250Y43002500D03*
X82796250Y41452500D03*
D23*
X14978750Y44608750D03*
X13278750Y44608750D03*
D24*
X25093750Y67307500D03*
X27293750Y66357500D03*
X25093750Y65407500D03*
D18*
X33496250Y44468750D03*
X33496250Y46018750D03*
D25*
X36517500Y49096750D03*
X36507500Y43930750D03*
X37777500Y43930750D03*
X39047500Y43930750D03*
X35237500Y43930750D03*
D26*
X37147500Y46513750D03*
D25*
X39057500Y49096750D03*
X35247500Y49096750D03*
X37787500Y49096750D03*
D27*
X14922500Y90328750D03*
X30162500Y90328750D03*
D28*
X46516250Y54621250D03*
X47466250Y56821250D03*
X48416250Y54621250D03*
D29*
X32861250Y40326250D03*
X32861250Y43176250D03*
D30*
X46873868Y50011154D03*
X46873868Y40061154D03*
D15*
X16668750Y37091250D03*
X16668750Y38791250D03*
D18*
X82796250Y46850000D03*
X82796250Y48400000D03*
X34131250Y36055000D03*
X34131250Y37605000D03*
D14*
X67627500Y56197500D03*
D29*
X10477500Y74457500D03*
X10477500Y77307500D03*
D18*
X35401250Y36055000D03*
X35401250Y37605000D03*
D23*
X14978750Y41751250D03*
X13278750Y41751250D03*
X51015000Y57150000D03*
X49315000Y57150000D03*
D18*
X82796250Y44151250D03*
X82796250Y45701250D03*
X34925000Y52051250D03*
X34925000Y50501250D03*
D10*
X80230000Y60000000D03*
X82770000Y60000000D03*
D28*
X8892500Y66210000D03*
X9842500Y68410000D03*
X10792500Y66210000D03*
D14*
X37306250Y56515000D03*
D31*
X7000000Y76920000D03*
X7000000Y82000000D03*
X7000000Y87080000D03*
D18*
X55880000Y71895000D03*
X55880000Y70345000D03*
X9366250Y26688750D03*
X9366250Y28238750D03*
D14*
X56038750Y24130000D03*
X20320000Y24447500D03*
D15*
X20955000Y37091250D03*
X20955000Y38791250D03*
D29*
X34925000Y32071250D03*
X34925000Y34921250D03*
D32*
X24942500Y38893750D03*
X26492500Y38893750D03*
D33*
X44450000Y10240000D03*
X44450000Y20240000D03*
D12*
X8030000Y51276250D03*
X10570000Y56356250D03*
X8030000Y58896250D03*
X8030000Y41116250D03*
X10570000Y53816250D03*
X10570000Y46196250D03*
X8030000Y46196250D03*
X8030000Y48736250D03*
X8030000Y53816250D03*
X10570000Y48736250D03*
X10570000Y38576250D03*
X10570000Y43656250D03*
X10570000Y51276250D03*
D34*
X10570000Y61436250D03*
D12*
X8030000Y61436250D03*
X8030000Y38576250D03*
X10570000Y58896250D03*
X10570000Y41116250D03*
X8030000Y43656250D03*
X8030000Y56356250D03*
D35*
X53657500Y55245000D03*
D15*
X36353750Y51220000D03*
X36353750Y52920000D03*
D32*
X11607500Y63817500D03*
X13157500Y63817500D03*
D35*
X14922500Y93345000D03*
D36*
X77152500Y56197500D03*
X72072500Y56197500D03*
D37*
X20320000Y31927500D03*
X20320000Y27127500D03*
D32*
X38595000Y52070000D03*
X40145000Y52070000D03*
D37*
X33972500Y94792500D03*
X33972500Y89992500D03*
D38*
X21160000Y71000000D03*
X31320000Y71000000D03*
X33860000Y71000000D03*
X16080000Y71000000D03*
X36400000Y71000000D03*
X44020000Y71000000D03*
X46560000Y71000000D03*
X28780000Y71000000D03*
X18620000Y71000000D03*
X23700000Y71000000D03*
X13540000Y71000000D03*
X38940000Y71000000D03*
X49100000Y71000000D03*
X41480000Y71000000D03*
D39*
X11000000Y71000000D03*
D38*
X26240000Y71000000D03*
D40*
X39907500Y63817500D03*
X67407500Y63817500D03*
D28*
X12226250Y66210000D03*
X13176250Y68410000D03*
X14126250Y66210000D03*
D23*
X43441250Y53022500D03*
X45141250Y53022500D03*
D11*
X36671250Y58898750D03*
X36671250Y60798750D03*
D33*
X46037500Y89772500D03*
X46037500Y79772500D03*
D23*
X13278750Y43180000D03*
X14978750Y43180000D03*
D17*
X43815000Y57280000D03*
X43815000Y54480000D03*
X44765000Y57280000D03*
X44765000Y54480000D03*
X42865000Y54480000D03*
X42865000Y57280000D03*
D41*
X21983750Y49393750D03*
X25183750Y49393750D03*
X21183750Y49393750D03*
D42*
X26533750Y46443750D03*
X26533750Y48043750D03*
D41*
X20383750Y41093750D03*
D42*
X26533750Y42443750D03*
X26533750Y44043750D03*
D41*
X19583750Y49393750D03*
X23583750Y41093750D03*
D42*
X18233750Y44843750D03*
D41*
X20383750Y49393750D03*
D42*
X18233750Y44043750D03*
D41*
X19583750Y41093750D03*
X25183750Y41093750D03*
D42*
X18233750Y46443750D03*
X18233750Y43243750D03*
X18233750Y45643750D03*
X26533750Y47243750D03*
D41*
X22783750Y41093750D03*
D42*
X26533750Y45643750D03*
D41*
X24383750Y49393750D03*
X21183750Y41093750D03*
D42*
X26533750Y43243750D03*
D41*
X24383750Y41093750D03*
D42*
X18233750Y48043750D03*
D41*
X23583750Y49393750D03*
D42*
X18233750Y42443750D03*
X26533750Y44843750D03*
D41*
X22783750Y49393750D03*
D42*
X18233750Y47243750D03*
D41*
X21983750Y41093750D03*
D10*
X80230000Y40000000D03*
X82770000Y40000000D03*
D43*
X23495000Y10160000D03*
X23495000Y25400000D03*
D18*
X33496250Y48558750D03*
X33496250Y47008750D03*
D33*
X68580000Y89772500D03*
X68580000Y79772500D03*
D23*
X17406250Y50958750D03*
X19106250Y50958750D03*
D14*
X29368750Y87312500D03*
D18*
X32226250Y44468750D03*
X32226250Y46018750D03*
D32*
X54432500Y57467500D03*
X52882500Y57467500D03*
D44*
X67627500Y52720000D03*
X67627500Y38720000D03*
D15*
X19526250Y37091250D03*
X19526250Y38791250D03*
X33496250Y49791250D03*
X33496250Y51491250D03*
D11*
X36671250Y64291250D03*
X36671250Y62391250D03*
D45*
X27942500Y82073750D03*
X33792500Y82073750D03*
X11292500Y82073750D03*
X17142500Y82073750D03*
D29*
X55880000Y76990000D03*
X55880000Y74140000D03*
D23*
X15455000Y73342500D03*
X13755000Y73342500D03*
D16*
X19685000Y57230000D03*
X22185000Y67230000D03*
X17185000Y67230000D03*
D23*
X39585000Y50641250D03*
X37885000Y50641250D03*
D46*
X63182500Y56197500D03*
X60642500Y56197500D03*
X58102500Y56197500D03*
D20*
X38735000Y42085036D03*
X38735000Y38885036D03*
D33*
X66992500Y10240000D03*
X66992500Y20240000D03*
D31*
X7000000Y17540000D03*
X7000000Y12460000D03*
D14*
X34290000Y65405000D03*
D12*
X86250000Y52245000D03*
X92750000Y47755000D03*
X86250000Y47755000D03*
X92750000Y52245000D03*
D40*
X38320000Y32385000D03*
X65820000Y32385000D03*
D15*
X27622500Y40696250D03*
X27622500Y38996250D03*
D47*
X19206250Y52863750D03*
X17306250Y52863750D03*
D15*
X23812500Y38791250D03*
X23812500Y37091250D03*
D48*
X56038750Y43815000D03*
X29527500Y56356250D03*
X29051250Y47942500D03*
D49*
X29051250Y33655000D03*
X32861250Y39211250D03*
D48*
X48260000Y43656250D03*
X28733750Y68738750D03*
X21272500Y42386250D03*
X46513750Y62706250D03*
X77875000Y40798750D03*
X3175000Y43656250D03*
X24923750Y46037500D03*
X7620000Y22225000D03*
X43021250Y28257500D03*
X60642500Y29527500D03*
X26511250Y41751250D03*
X11112500Y64770000D03*
X11747500Y64770000D03*
X25241250Y40163750D03*
D49*
X16827500Y59372500D03*
X16827500Y58420000D03*
D48*
X86360000Y39846250D03*
X28098750Y46672500D03*
X77628750Y46990000D03*
X87860000Y45156250D03*
X59213750Y4921250D03*
X18097500Y33496250D03*
X110331250Y95091250D03*
X30956250Y57943750D03*
X25241250Y51435000D03*
X31432500Y39211250D03*
X18097500Y39846250D03*
X18097500Y32543750D03*
X20002500Y73977500D03*
X28257500Y54768750D03*
X81280000Y45720000D03*
X36195000Y95567500D03*
X21590000Y43815000D03*
X1111250Y18415000D03*
X19526250Y36036250D03*
X55245000Y33813750D03*
X22542500Y33496250D03*
X51435000Y95091250D03*
X33496250Y57785000D03*
X25400000Y61436250D03*
X35919890Y45878750D03*
X34808640Y45878750D03*
X18891250Y33496250D03*
X99695000Y94773750D03*
X90646250Y40005000D03*
X61277500Y48736250D03*
X48577500Y64770000D03*
X90646250Y50165000D03*
X49847500Y45402500D03*
X13176250Y4603750D03*
X2698750Y36036250D03*
X60960000Y94615000D03*
X26511250Y37306250D03*
X19843750Y33496250D03*
X3016250Y51435000D03*
X118268750Y21431250D03*
X78898750Y44450000D03*
X28098750Y45720000D03*
X1111250Y24288750D03*
X45243750Y43656250D03*
X89852500Y94615000D03*
X1111250Y76200000D03*
X17145000Y49688750D03*
X48260000Y45402500D03*
X12858750Y39211250D03*
X3016250Y61912500D03*
X22860000Y42386250D03*
X26987500Y67945000D03*
X12382500Y45561250D03*
X30480000Y47942500D03*
X54292500Y70008750D03*
X24606250Y76358750D03*
X36195000Y94615000D03*
X9683750Y36195000D03*
X39052500Y53340000D03*
X16192500Y42068750D03*
X23971250Y46037500D03*
X50800000Y70326250D03*
X39052500Y4762500D03*
X27622500Y41910000D03*
X20796250Y44767500D03*
X42068750Y45402500D03*
X35919890Y46513750D03*
X34808640Y46513750D03*
X1270000Y95408750D03*
X118427500Y5556250D03*
X33178750Y35083750D03*
X70167500Y48577500D03*
X118427500Y73977500D03*
X36671250Y37623750D03*
X24447500Y52546250D03*
X1111250Y21113750D03*
X38258750Y28098750D03*
X2857500Y39687500D03*
X39412390Y47148750D03*
X38459890Y47148750D03*
X31591250Y37941250D03*
X1428750Y87788750D03*
X51593750Y43815000D03*
X6667500Y20002500D03*
X39412390Y45878750D03*
X38459890Y45878750D03*
X20796250Y47942500D03*
D49*
X41592500Y53181250D03*
D48*
X55403750Y28098750D03*
X16510000Y73183750D03*
X51117500Y67151250D03*
X1111250Y21907500D03*
X118427500Y32702500D03*
X31908750Y51435000D03*
X39412390Y46513750D03*
X38459890Y46513750D03*
X40322500Y53340000D03*
X45243750Y45402500D03*
X1111250Y4445000D03*
X118427500Y45878750D03*
X1111250Y22701250D03*
X51593750Y5080000D03*
X18256250Y49688750D03*
X28098750Y44767500D03*
X76200000Y45085000D03*
X69850000Y94456250D03*
X30480000Y37147500D03*
X19685000Y42545000D03*
D49*
X55880000Y73025000D03*
D48*
X22542500Y64135000D03*
X20161250Y66516250D03*
X7620000Y24765000D03*
X1111250Y25082500D03*
X22383750Y36036250D03*
X37941250Y40322500D03*
X31908750Y50482500D03*
D49*
X51117500Y55880000D03*
X42862500Y58578750D03*
D48*
X31750000Y47942500D03*
X34131250Y59055000D03*
X30003750Y5080000D03*
X14128750Y57150000D03*
X1111250Y25876250D03*
X54133750Y43656250D03*
X46672500Y45402500D03*
X26511250Y40957500D03*
X24606250Y74136250D03*
X30480000Y41592500D03*
X31750000Y94615000D03*
X34925000Y40005000D03*
X21748750Y33496250D03*
X28416250Y41910000D03*
X22860000Y40005000D03*
X36353750Y50006250D03*
X118427500Y13970000D03*
X64928750Y48736250D03*
X28257500Y63976250D03*
X23018750Y4921250D03*
X60801250Y39211250D03*
X57467500Y48736250D03*
X22542500Y32543750D03*
X26670000Y62865000D03*
X20637500Y39846250D03*
X25241250Y36036250D03*
D49*
X43497500Y41592500D03*
X46196250Y53022500D03*
D48*
X37465000Y51752500D03*
X90646250Y44926250D03*
X3016250Y58737500D03*
X12382500Y44608750D03*
X8572500Y20002500D03*
X31115000Y95091250D03*
X25400000Y68738750D03*
X20002500Y76358750D03*
X17145000Y54292500D03*
X38735000Y36195000D03*
X36830000Y95091250D03*
X3016250Y55086250D03*
X97790000Y4921250D03*
X7620000Y23495000D03*
X47466250Y67468750D03*
X56038750Y45402500D03*
X36353750Y25082500D03*
X35919890Y47148750D03*
X34808640Y47148750D03*
X108902500Y5080000D03*
X35242500Y56038750D03*
X118110000Y56197500D03*
X76041250Y49212500D03*
X53975000Y45402500D03*
X67786250Y4921250D03*
X16192500Y76835000D03*
X88106250Y4921250D03*
X36512500Y40005000D03*
X7620000Y20002500D03*
X42068750Y46831250D03*
X34131250Y63023750D03*
X18097500Y36036250D03*
X26670000Y53181250D03*
X79216250Y4921250D03*
X3016250Y47625000D03*
X22542500Y31591250D03*
X49053750Y28416250D03*
X41116250Y95250000D03*
X43180000Y33337500D03*
X1111250Y23495000D03*
X18097500Y31591250D03*
X72866250Y48577500D03*
X20796250Y33496250D03*
X24130000Y62388750D03*
X118586250Y95091250D03*
X118427500Y85566250D03*
X1111250Y81121250D03*
X81597500Y94773750D03*
X16668750Y36036250D03*
X78898750Y45720000D03*
X39528750Y58737500D03*
X49847500Y43656250D03*
X118268750Y64770000D03*
X14446250Y39211250D03*
X35718750Y40005000D03*
X16668750Y39846250D03*
X10001250Y28892500D03*
X16986250Y95408750D03*
X11430000Y68421250D03*
X31750000Y95567500D03*
X42703750Y62547500D03*
X20955000Y36036250D03*
X13970000Y47148750D03*
X16668750Y48577500D03*
X1270000Y10318750D03*
X63976250Y41751250D03*
X60642500Y34290000D03*
X48895000Y33655000D03*
X87312500Y50165000D03*
X44926250Y65405000D03*
X25082500Y43973750D03*
X46513750Y43815000D03*
X29686250Y38100000D03*
X26193750Y29845000D03*
X28257500Y95408750D03*
X51593750Y45402500D03*
X21590000Y47942500D03*
X1270000Y15240000D03*
D50*
X25558750Y33335000D02*
X25876250Y33655000D01*
X32861250Y40326250D02*
X34461250Y42081250D01*
X35560000Y42081250D02*
X34461250Y42081250D01*
X37777500Y43930750D02*
X37782500Y43930750D01*
X32861250Y40326250D02*
X32861250Y39211250D01*
X36507500Y43930750D02*
X37782500Y43930750D01*
X27579500Y33655000D02*
X29051250Y33655000D01*
X27579500Y33655000D02*
X25876250Y33655000D01*
X35560000Y42081250D02*
X36507500Y42068750D01*
X36507500Y43930750D02*
X36507500Y42068750D01*
D51*
X28733750Y67926250D02*
X28733750Y68738750D01*
D52*
X21183750Y41093750D02*
X21183750Y42297500D01*
X21183750Y42297500D02*
X21272500Y42386250D01*
D51*
X31432500Y20637500D02*
X34925000Y20637500D01*
X34925000Y32071250D02*
X34925000Y32385000D01*
X34925000Y29845000D02*
X34925000Y20637500D01*
X32745500Y29845000D02*
X34925000Y29845000D01*
X34925000Y29845000D02*
X34925000Y32385000D01*
X32745500Y32385000D02*
X34925000Y32385000D01*
D53*
X11747500Y64770000D02*
X12223750Y65246250D01*
D52*
X25183750Y41093750D02*
X25183750Y40062500D01*
X25241250Y40163750D02*
X25241250Y40163750D01*
D53*
X36671250Y65087500D02*
X36671250Y64293750D01*
X34290000Y65405000D02*
X36353750Y65405000D01*
D48*
X19583750Y49393750D02*
X19583750Y47567500D01*
D52*
X25241250Y40163750D02*
X25183750Y40062500D01*
D50*
X16827500Y59372500D02*
X16827500Y58420000D01*
D48*
X19583750Y49393750D02*
X19526250Y50403750D01*
D52*
X25183750Y40062500D02*
X25400000Y39846250D01*
D53*
X36671250Y64291250D02*
X35557500Y64291250D01*
D52*
X26193750Y39846250D02*
X26511250Y39528750D01*
D50*
X16827500Y56673750D02*
X19208750Y54292500D01*
X19208750Y52863750D02*
X19206250Y52863750D01*
D51*
X11607500Y64770000D02*
X11747500Y64770000D01*
D48*
X19526250Y50403750D02*
X19106250Y50958750D01*
D51*
X11112500Y64770000D02*
X11747500Y64770000D01*
D48*
X19106250Y50958750D02*
X19208750Y50961250D01*
X25183750Y41093750D02*
X25183750Y42126250D01*
X19206250Y52863750D02*
X19208750Y50961250D01*
X25183750Y42126250D02*
X25082500Y42227500D01*
D52*
X25400000Y39846250D02*
X26193750Y39846250D01*
D51*
X8892500Y66210000D02*
X8892500Y64770000D01*
D53*
X36671250Y64293750D02*
X36671250Y64291250D01*
X35557500Y64291250D02*
X35083750Y63817500D01*
D50*
X19208750Y54292500D02*
X19208750Y52863750D01*
D52*
X26492500Y38893750D02*
X26511250Y38893750D01*
D53*
X36353750Y65405000D02*
X36671250Y65087500D01*
X35083750Y63817500D02*
X35083750Y63023750D01*
X12226250Y66210000D02*
X12223750Y66198750D01*
D51*
X8892500Y64770000D02*
X11112500Y64770000D01*
D53*
X35081250Y62995000D02*
X35083750Y63023750D01*
D51*
X11607500Y63817500D02*
X11607500Y64770000D01*
D48*
X19583750Y47567500D02*
X25082500Y42227500D01*
D52*
X26511250Y39528750D02*
X26511250Y38893750D01*
X27622500Y38996250D02*
X26613750Y38996250D01*
X26613750Y38996250D02*
X26511250Y38893750D01*
D50*
X16827500Y58420000D02*
X16827500Y56673750D01*
D53*
X12223750Y65246250D02*
X12223750Y66198750D01*
D54*
X77628750Y46990000D02*
X82796250Y46990000D01*
D52*
X27870000Y46443750D02*
X28098750Y46672500D01*
D54*
X82796250Y46850000D02*
X82796250Y46990000D01*
D52*
X26533750Y46443750D02*
X27870000Y46443750D01*
X39933750Y67627500D02*
X41521250Y69215000D01*
X41521250Y69215000D02*
X41521250Y70961250D01*
X32067500Y67627500D02*
X39933750Y67627500D01*
X23583750Y49393750D02*
X23583750Y53905000D01*
X23583750Y53905000D02*
X31432500Y61753750D01*
X31432500Y61753750D02*
X31432500Y66992500D01*
X31432500Y66992500D02*
X32067500Y67627500D01*
X41480000Y71000000D02*
X41521250Y70961250D01*
X25183750Y49393750D02*
X25183750Y51377500D01*
X25183750Y51377500D02*
X25241250Y51435000D01*
D51*
X32861250Y43176250D02*
X32226250Y43656250D01*
D52*
X18233750Y39982500D02*
X18097500Y39846250D01*
X18097500Y38791250D02*
X18097500Y38893750D01*
X18233750Y42443750D02*
X18233750Y39982500D01*
D51*
X31432500Y43338750D02*
X31750000Y43656250D01*
X31750000Y43656250D02*
X32226250Y43656250D01*
D52*
X18097500Y39846250D02*
X18097500Y38893750D01*
D51*
X32226250Y44468750D02*
X32226250Y43656250D01*
X31432500Y39211250D02*
X31432500Y43338750D01*
D52*
X21983750Y49393750D02*
X21983750Y54527500D01*
X21983750Y54527500D02*
X29845000Y62388750D01*
X29845000Y67627500D02*
X31432500Y69215000D01*
X36441250Y69532500D02*
X36441250Y70961250D01*
X29845000Y62388750D02*
X29845000Y67627500D01*
X31432500Y69215000D02*
X36123750Y69215000D01*
X36123750Y69215000D02*
X36441250Y69532500D01*
X36400000Y71000000D02*
X36441250Y70961250D01*
D51*
X52863750Y55245000D02*
X52863750Y57467500D01*
X52546250Y58420000D02*
X52863750Y58102500D01*
X52882500Y57467500D02*
X52863750Y57467500D01*
X43815000Y58102500D02*
X44132500Y58420000D01*
X43815000Y57280000D02*
X43815000Y58102500D01*
X44132500Y58420000D02*
X52546250Y58420000D01*
X53657500Y55245000D02*
X52863750Y55245000D01*
X52863750Y58102500D02*
X52863750Y57467500D01*
D50*
X34808640Y45878750D02*
X35919890Y45878750D01*
D51*
X38595000Y52070000D02*
X37726250Y52920000D01*
X36353750Y52920000D02*
X37726250Y52920000D01*
X34187500Y53078750D02*
X33496250Y52387500D01*
X34187500Y53078750D02*
X36353750Y53078750D01*
X33496250Y52387500D02*
X33496250Y51435000D01*
X36353750Y53078750D02*
X36353750Y52920000D01*
X33496250Y51491250D02*
X33496250Y51435000D01*
D52*
X9048750Y68421250D02*
X9048750Y72231250D01*
X8731250Y62865000D02*
X7620000Y63976250D01*
D51*
X9842500Y68410000D02*
X9842500Y68421250D01*
D52*
X10477500Y73660000D02*
X10477500Y74295000D01*
X12541250Y62230000D02*
X11906250Y62865000D01*
X9048750Y72231250D02*
X10477500Y73660000D01*
X14978750Y44608750D02*
X14998750Y44843750D01*
X7620000Y63976250D02*
X7620000Y66992500D01*
X10477500Y74457500D02*
X10477500Y74295000D01*
X14846250Y44843750D02*
X12541250Y47218750D01*
X18233750Y44843750D02*
X14998750Y44843750D01*
X11906250Y62865000D02*
X8731250Y62865000D01*
X9048750Y68421250D02*
X9842500Y68421250D01*
X12541250Y47218750D02*
X12541250Y62230000D01*
X7620000Y66992500D02*
X9048750Y68421250D01*
X14998750Y44843750D02*
X14846250Y44843750D01*
X7000000Y76920000D02*
X10473750Y76990000D01*
X10477500Y77307500D02*
X10473750Y76990000D01*
D51*
X54432500Y57467500D02*
X58102500Y57467500D01*
X58102500Y56197500D02*
X58102500Y57467500D01*
D52*
X26533750Y45643750D02*
X28022500Y45643750D01*
X28022500Y45643750D02*
X28098750Y45720000D01*
D54*
X79851250Y44450000D02*
X81280000Y43021250D01*
X82796250Y43002500D02*
X82796250Y43021250D01*
X78898750Y44450000D02*
X79851250Y44450000D01*
X81280000Y43021250D02*
X82796250Y43021250D01*
D52*
X38940000Y71000000D02*
X38981250Y70961250D01*
X31750000Y68421250D02*
X38187500Y68421250D01*
X22783750Y49393750D02*
X22783750Y54216250D01*
X30638750Y67310000D02*
X31750000Y68421250D01*
X38981250Y69215000D02*
X38981250Y70961250D01*
X22783750Y54216250D02*
X30638750Y62071250D01*
X30638750Y62071250D02*
X30638750Y67310000D01*
X38187500Y68421250D02*
X38981250Y69215000D01*
X18233750Y44043750D02*
X16738750Y44043750D01*
X16738750Y44043750D02*
X15875000Y43180000D01*
X18233750Y44043750D02*
X20072500Y44043750D01*
X20072500Y44043750D02*
X20796250Y44767500D01*
X15875000Y43180000D02*
X14922500Y43180000D01*
X14978750Y43180000D02*
X14922500Y43180000D01*
D50*
X34808640Y46513750D02*
X35919890Y46513750D01*
D51*
X47466250Y56821250D02*
X47466250Y57280000D01*
X47466250Y57280000D02*
X49212500Y57280000D01*
X49315000Y57150000D02*
X49212500Y57280000D01*
X44765000Y57280000D02*
X47466250Y57280000D01*
D54*
X82796250Y41452500D02*
X82796250Y40163750D01*
X82770000Y40000000D02*
X82796250Y40163750D01*
D52*
X24383750Y52482500D02*
X24447500Y52546250D01*
X24383750Y49393750D02*
X24383750Y52482500D01*
D50*
X38459890Y47148750D02*
X39412390Y47148750D01*
X38459890Y45878750D02*
X39412390Y45878750D01*
D51*
X43441250Y53022500D02*
X41592500Y53181250D01*
X43815000Y54480000D02*
X43815000Y53340000D01*
X43441250Y53022500D02*
X43815000Y53340000D01*
D50*
X38459890Y46513750D02*
X39412390Y46513750D01*
D54*
X86491250Y37755000D02*
X86250000Y37755000D01*
D52*
X26533750Y44843750D02*
X28022500Y44843750D01*
D54*
X78898750Y37782500D02*
X86360000Y37782500D01*
X76200000Y45085000D02*
X76200000Y40481250D01*
X86250000Y37755000D02*
X86360000Y37782500D01*
X92750000Y37755000D02*
X86491250Y37755000D01*
D52*
X28022500Y44843750D02*
X28098750Y44767500D01*
D54*
X76200000Y40481250D02*
X78898750Y37782500D01*
D52*
X19583750Y41093750D02*
X19583750Y42545000D01*
D50*
X55880000Y71895000D02*
X55880000Y73025000D01*
D52*
X19583750Y42545000D02*
X19685000Y42545000D01*
X19526250Y38791250D02*
X19583750Y38893750D01*
D50*
X55880000Y74140000D02*
X55880000Y73025000D01*
D52*
X19583750Y41093750D02*
X19583750Y38893750D01*
X20383750Y55150000D02*
X22542500Y57308750D01*
X20161250Y66516250D02*
X20161250Y69691250D01*
X20383750Y49393750D02*
X20383750Y55150000D01*
X22542500Y57308750D02*
X22542500Y64135000D01*
X21160000Y71000000D02*
X20161250Y69691250D01*
D51*
X51015000Y57150000D02*
X51117500Y57150000D01*
X63182500Y53181250D02*
X52070000Y53181250D01*
X51117500Y57150000D02*
X51117500Y55880000D01*
X42862500Y57280000D02*
X42862500Y58578750D01*
X63182500Y56197500D02*
X63182500Y53181250D01*
X51117500Y54133750D02*
X51117500Y55880000D01*
X52070000Y53181250D02*
X51117500Y54133750D01*
X42865000Y57280000D02*
X42862500Y57280000D01*
D52*
X15240000Y65405000D02*
X15240000Y65246250D01*
X14128750Y64135000D02*
X15240000Y65246250D01*
X15240000Y68262500D02*
X15240000Y65405000D01*
X16080000Y69102500D02*
X15240000Y68262500D01*
X16080000Y71000000D02*
X16080000Y69102500D01*
X14128750Y57150000D02*
X14128750Y64135000D01*
X22783750Y40081250D02*
X22860000Y40005000D01*
X10570000Y43656250D02*
X10593750Y43540000D01*
X13278750Y41751250D02*
X13335000Y41751250D01*
X22783750Y41093750D02*
X22783750Y40081250D01*
D51*
X36513714Y50005036D02*
X36353750Y50006250D01*
X36517500Y49096750D02*
X36513714Y50005036D01*
D52*
X12382500Y41751250D02*
X13335000Y41751250D01*
X10593750Y43540000D02*
X12382500Y41751250D01*
X23812500Y38791250D02*
X23597500Y38791250D01*
X23812500Y38893750D02*
X23597500Y38791250D01*
X22383750Y38791250D02*
X21983750Y39135000D01*
X21983750Y41093750D02*
X21983750Y39135000D01*
X24942500Y38893750D02*
X23812500Y38893750D01*
X22383750Y38791250D02*
X23597500Y38791250D01*
D53*
X34131250Y60195000D02*
X34131250Y61277500D01*
X34131250Y61277500D02*
X34448750Y61595000D01*
X36671250Y60798750D02*
X36671250Y60801250D01*
X36671250Y62391250D02*
X36671250Y61595000D01*
X34448750Y61595000D02*
X36671250Y61595000D01*
X36671250Y61595000D02*
X36671250Y60801250D01*
D54*
X82770000Y50000000D02*
X82796250Y49688750D01*
X82796250Y48400000D02*
X82796250Y49688750D01*
D52*
X34766250Y35080000D02*
X34766250Y36036250D01*
X34766250Y36036250D02*
X34150000Y36055000D01*
X20955000Y39528750D02*
X20637500Y39846250D01*
X34150000Y36055000D02*
X34131250Y36036250D01*
X34131250Y36055000D02*
X34131250Y36036250D01*
X34766250Y36036250D02*
X35401250Y36055000D01*
X25241250Y36036250D02*
X34131250Y36036250D01*
X20383750Y40068750D02*
X20637500Y39846250D01*
X34925000Y34921250D02*
X34766250Y35080000D01*
X20383750Y41093750D02*
X20383750Y40068750D01*
X20955000Y38791250D02*
X20955000Y39528750D01*
D51*
X48418750Y53498750D02*
X48418750Y54610000D01*
D53*
X36671250Y58896250D02*
X36671250Y57150000D01*
D51*
X36353750Y51752500D02*
X35242500Y51752500D01*
X34925000Y52051250D02*
X35242500Y51752500D01*
X47942500Y53022500D02*
X48418750Y53498750D01*
D53*
X35081250Y59375000D02*
X35560000Y58896250D01*
D51*
X44765000Y54480000D02*
X44765000Y53501250D01*
D53*
X35081250Y60195000D02*
X35081250Y59375000D01*
D51*
X36353750Y51220000D02*
X36353750Y51752500D01*
X45141250Y53022500D02*
X44765000Y53501250D01*
X45141250Y53022500D02*
X46196250Y53022500D01*
X36353750Y51752500D02*
X37465000Y51752500D01*
X46196250Y53022500D02*
X47942500Y53022500D01*
X48416250Y54621250D02*
X48418750Y54610000D01*
D53*
X36671250Y58898750D02*
X36671250Y58896250D01*
X35560000Y58896250D02*
X36671250Y58896250D01*
X37306250Y56515000D02*
X36671250Y57150000D01*
D51*
X37885000Y50641250D02*
X37787500Y50641250D01*
X37787500Y49096750D02*
X37787500Y50641250D01*
D54*
X82796250Y45701250D02*
X83730000Y45701250D01*
X82770000Y60000000D02*
X84225000Y58420000D01*
X83730000Y45701250D02*
X84225000Y46196250D01*
X84225000Y46196250D02*
X84225000Y58420000D01*
D51*
X35247500Y49096750D02*
X35242500Y49096750D01*
X33496250Y49053750D02*
X33496250Y49791250D01*
X34925000Y50501250D02*
X35242500Y50165000D01*
X33496250Y49096750D02*
X33496250Y49053750D01*
X35242500Y49096750D02*
X33496250Y49096750D01*
X35242500Y49096750D02*
X35242500Y50165000D01*
X33496250Y49053750D02*
X33496250Y48558750D01*
D50*
X34808640Y47148750D02*
X35919890Y47148750D01*
D52*
X18620000Y69327500D02*
X19050000Y68897500D01*
X19050000Y68897500D02*
X19050000Y66675000D01*
X14922500Y48895000D02*
X14922500Y62547500D01*
X14922500Y62547500D02*
X19050000Y66675000D01*
X16573750Y47243750D02*
X14922500Y48895000D01*
X18620000Y71000000D02*
X18620000Y69327500D01*
X18233750Y47243750D02*
X16573750Y47243750D01*
D51*
X35382500Y37605000D02*
X35401250Y37605000D01*
X35560000Y38881250D02*
X35401250Y38576250D01*
X35401250Y37605000D02*
X35401250Y38576250D01*
X34131250Y37605000D02*
X35382500Y37605000D01*
D53*
X22238750Y67310000D02*
X22185000Y67230000D01*
D55*
X13581250Y70961250D02*
X13540000Y71000000D01*
D50*
X13176250Y68410000D02*
X13176250Y70643750D01*
D51*
X13755000Y73342500D02*
X13581250Y73140048D01*
X13581250Y73140048D02*
X13581250Y70961250D01*
D53*
X25093750Y67307500D02*
X22238750Y67310000D01*
D50*
X13176250Y70643750D02*
X13581250Y70961250D01*
D52*
X13335000Y49212500D02*
X13335000Y63817500D01*
X14126250Y66210000D02*
X13335000Y65246250D01*
X13157500Y63817500D02*
X13335000Y63817500D01*
X16103750Y46443750D02*
X13335000Y49212500D01*
X18233750Y46443750D02*
X16103750Y46443750D01*
X13335000Y63817500D02*
X13335000Y65246250D01*
D54*
X25400000Y48260000D02*
X32226250Y55086250D01*
X32226250Y55086250D02*
X32226250Y66357500D01*
X26533750Y47243750D02*
X25622500Y47243750D01*
X25622500Y47243750D02*
X25400000Y47466250D01*
X25400000Y47466250D02*
X25400000Y48260000D01*
X32226250Y66357500D02*
X32702500Y66833750D01*
X41838750Y66833750D02*
X44061250Y69056250D01*
X44020000Y71000000D02*
X44061250Y70961250D01*
X44061250Y69056250D02*
X44061250Y70961250D01*
X32702500Y66833750D02*
X41838750Y66833750D01*
D51*
X9366250Y26688750D02*
X9366250Y25082500D01*
X8077200Y23495000D02*
X9366250Y25082500D01*
D53*
X28733750Y66376250D02*
X27611250Y66357500D01*
X27293750Y66357500D02*
X27611250Y66357500D01*
D52*
X24130000Y57785000D02*
X24130000Y62388750D01*
X21183750Y49393750D02*
X21183750Y54838750D01*
X21183750Y54838750D02*
X24130000Y57785000D01*
D51*
X26533750Y48043750D02*
X26612500Y48043750D01*
X33525000Y54956250D02*
X40452500Y54956250D01*
X33525000Y54956250D02*
X26612500Y48043750D01*
D54*
X78898750Y45720000D02*
X79851250Y45720000D01*
D51*
X40452500Y54956250D02*
X40481250Y54927500D01*
X40481250Y54927500D02*
X40481250Y56515000D01*
X40957500Y54451250D02*
X42865000Y54480000D01*
X40481250Y54927500D02*
X40957500Y54451250D01*
D54*
X81438750Y44132500D02*
X82637500Y44132500D01*
X79851250Y45720000D02*
X81438750Y44132500D01*
X82796250Y44151250D02*
X82637500Y44132500D01*
D51*
X35237500Y43930750D02*
X35264390Y44470500D01*
X33496250Y44468750D02*
X35264390Y44470500D01*
D52*
X17145000Y40322500D02*
X16668750Y39846250D01*
X17145000Y42862500D02*
X17145000Y40322500D01*
X18233750Y43243750D02*
X17526250Y43243750D01*
X16668750Y38791250D02*
X16668750Y39846250D01*
D51*
X9366250Y28238750D02*
X10001250Y28892500D01*
D52*
X17526250Y43243750D02*
X17145000Y42862500D01*
X18233750Y45643750D02*
X15481250Y45643750D01*
X15481250Y45643750D02*
X13970000Y47148750D01*
X16668750Y48577500D02*
X15716250Y49530000D01*
X25093750Y65407500D02*
X19050000Y65405000D01*
X15716250Y62071250D02*
X19050000Y65405000D01*
X15716250Y49530000D02*
X15716250Y62071250D01*
D51*
X32745500Y33655000D02*
X31750000Y33655000D01*
X31432500Y25717500D02*
X30797500Y25717500D01*
X30797500Y32702500D02*
X30797500Y25717500D01*
X31750000Y33655000D02*
X30797500Y32702500D01*
D52*
X29527500Y38258750D02*
X29686250Y38100000D01*
X29527500Y42227500D02*
X29527500Y38258750D01*
D51*
X27579500Y29845000D02*
X26193750Y29845000D01*
D52*
X26533750Y44043750D02*
X27711250Y44043750D01*
X27711250Y44043750D02*
X29527500Y42227500D01*
D51*
X27579500Y31115000D02*
X25876250Y31115000D01*
X25558750Y31435000D02*
X25876250Y31115000D01*
D56*
G36*
X70126827Y16529500D02*
X70167500Y16610000D01*
X70167500Y39587500D01*
X70148000Y39646827D01*
X70067500Y39687500D01*
X62965000Y39687500D01*
X62905673Y39668000D01*
X62865000Y39587500D01*
X62865000Y28277391D01*
X62850936Y28243436D01*
X59704064Y25096564D01*
X59670109Y25082500D01*
X38141422Y25082500D01*
X38070711Y25053211D01*
X34621564Y21604064D01*
X34587609Y21590000D01*
X29945000Y21590000D01*
X29885673Y21570500D01*
X29845000Y21490000D01*
X29845000Y18773922D01*
X29874289Y18703211D01*
X32038211Y16539289D01*
X32108922Y16510000D01*
X70067500Y16510000D01*
X70126827Y16529500D01*
G37*
G36*
X81779639Y49073250D02*
X81815829Y49124145D01*
X81802227Y49211108D01*
X81689970Y49371428D01*
X81685624Y49378954D01*
X81597228Y49568519D01*
X81594255Y49576688D01*
X81540120Y49778722D01*
X81538609Y49787294D01*
X81520381Y49995645D01*
X81520381Y50004355D01*
X81538609Y50212705D01*
X81540120Y50221277D01*
X81594255Y50423311D01*
X81597228Y50431480D01*
X81685624Y50621045D01*
X81689972Y50628576D01*
X81809940Y50799908D01*
X81815529Y50806569D01*
X81963432Y50954472D01*
X81970091Y50960059D01*
X82141422Y51080026D01*
X82148954Y51084375D01*
X82338519Y51172771D01*
X82346688Y51175744D01*
X82548720Y51229879D01*
X82557295Y51231390D01*
X82765645Y51249619D01*
X82774355Y51249619D01*
X82982704Y51231390D01*
X82991279Y51229879D01*
X83193311Y51175744D01*
X83201480Y51172771D01*
X83391045Y51084375D01*
X83398582Y51080024D01*
X83417643Y51066677D01*
X83477426Y51048621D01*
X83536263Y51069555D01*
X83575000Y51148592D01*
X83575000Y58127273D01*
X83548561Y58195014D01*
X83050841Y58735494D01*
X82968565Y58767372D01*
X82774355Y58750381D01*
X82765645Y58750381D01*
X82557294Y58768609D01*
X82548722Y58770120D01*
X82346688Y58824255D01*
X82338519Y58827228D01*
X82148954Y58915624D01*
X82141422Y58919973D01*
X81970091Y59039940D01*
X81963432Y59045527D01*
X81815527Y59193432D01*
X81809940Y59200091D01*
X81689973Y59371422D01*
X81685624Y59378954D01*
X81597228Y59568519D01*
X81594255Y59576688D01*
X81540120Y59778722D01*
X81538609Y59787294D01*
X81520381Y59995645D01*
X81520381Y60004355D01*
X81538609Y60212705D01*
X81540120Y60221277D01*
X81594255Y60423311D01*
X81597228Y60431480D01*
X81685624Y60621045D01*
X81689972Y60628576D01*
X81809940Y60799908D01*
X81815529Y60806569D01*
X81963432Y60954472D01*
X81970091Y60960059D01*
X82141422Y61080026D01*
X82148954Y61084375D01*
X82338519Y61172771D01*
X82346688Y61175744D01*
X82548720Y61229879D01*
X82557295Y61231390D01*
X82765645Y61249619D01*
X82774355Y61249619D01*
X82982704Y61231390D01*
X82991279Y61229879D01*
X83193311Y61175744D01*
X83201480Y61172771D01*
X83391045Y61084375D01*
X83398576Y61080027D01*
X83569908Y60960059D01*
X83576569Y60954470D01*
X83724470Y60806569D01*
X83730059Y60799908D01*
X83850027Y60628576D01*
X83854375Y60621045D01*
X83942771Y60431480D01*
X83945744Y60423311D01*
X83999879Y60221279D01*
X84001390Y60212704D01*
X84019619Y60004355D01*
X84019619Y59995645D01*
X84001390Y59787295D01*
X83999877Y59778709D01*
X83982007Y59712020D01*
X83985487Y59649667D01*
X84005038Y59618397D01*
X84701102Y58862533D01*
X84706818Y58855519D01*
X84706878Y58855568D01*
X84710029Y58851625D01*
X84714966Y58846053D01*
X84751957Y58792462D01*
X84753065Y58790889D01*
X84791096Y58737999D01*
X84794686Y58731468D01*
X84795378Y58730348D01*
X84796561Y58728093D01*
X84797475Y58726391D01*
X84798676Y58724205D01*
X84799220Y58723028D01*
X84802690Y58716417D01*
X84825819Y58655429D01*
X84826520Y58653634D01*
X84850744Y58593292D01*
X84852665Y58586097D01*
X84853075Y58584824D01*
X84853696Y58582306D01*
X84854173Y58580450D01*
X84854807Y58578074D01*
X84855053Y58576802D01*
X84856842Y58569547D01*
X84864703Y58504801D01*
X84864954Y58502891D01*
X84874034Y58438503D01*
X84874177Y58431056D01*
X84874530Y58426020D01*
X84874453Y58426015D01*
X84875000Y58416980D01*
X84875000Y53027215D01*
X84894500Y52967888D01*
X84945395Y52931698D01*
X85007836Y52932760D01*
X85058716Y52972520D01*
X85142937Y53101429D01*
X85148005Y53107941D01*
X85299001Y53271968D01*
X85305074Y53277558D01*
X85360103Y53320388D01*
X85360103Y67904895D01*
X85353312Y67905359D01*
X85076118Y67943459D01*
X85069459Y67944843D01*
X84800043Y68020330D01*
X84793614Y68022615D01*
X84537001Y68134078D01*
X84530940Y68137218D01*
X84291894Y68282585D01*
X84286318Y68286521D01*
X84069288Y68463088D01*
X84064306Y68467741D01*
X83873339Y68672217D01*
X83869035Y68677508D01*
X83707687Y68906086D01*
X83704152Y68911898D01*
X83575422Y69160334D01*
X83572714Y69166570D01*
X83479019Y69430201D01*
X83477176Y69436780D01*
X83420255Y69710700D01*
X83419326Y69717459D01*
X83400233Y69996594D01*
X83400233Y70003406D01*
X83419326Y70282540D01*
X83420255Y70289299D01*
X83477176Y70563219D01*
X83479019Y70569798D01*
X83572714Y70833429D01*
X83575422Y70839665D01*
X83704152Y71088101D01*
X83707687Y71093913D01*
X83869035Y71322491D01*
X83873339Y71327782D01*
X84064306Y71532258D01*
X84069288Y71536911D01*
X84286318Y71713478D01*
X84291894Y71717414D01*
X84530940Y71862781D01*
X84537001Y71865921D01*
X84793614Y71977384D01*
X84800043Y71979669D01*
X85069459Y72055156D01*
X85076118Y72056540D01*
X85353312Y72094640D01*
X85360103Y72095104D01*
X85639896Y72095104D01*
X85646687Y72094640D01*
X85923881Y72056540D01*
X85930540Y72055156D01*
X86199956Y71979669D01*
X86206385Y71977384D01*
X86462998Y71865921D01*
X86469059Y71862781D01*
X86708105Y71717414D01*
X86713681Y71713478D01*
X86930711Y71536911D01*
X86935693Y71532258D01*
X87126660Y71327782D01*
X87130964Y71322491D01*
X87292312Y71093913D01*
X87295847Y71088101D01*
X87424577Y70839665D01*
X87427285Y70833429D01*
X87520980Y70569798D01*
X87522823Y70563219D01*
X87579744Y70289299D01*
X87580673Y70282540D01*
X87599767Y70003406D01*
X87599767Y69996594D01*
X87580673Y69717459D01*
X87579744Y69710700D01*
X87522823Y69436780D01*
X87520980Y69430201D01*
X87427285Y69166570D01*
X87424577Y69160334D01*
X87295847Y68911898D01*
X87292312Y68906086D01*
X87130964Y68677508D01*
X87126660Y68672217D01*
X86935693Y68467741D01*
X86930711Y68463088D01*
X86713681Y68286521D01*
X86708105Y68282585D01*
X86469059Y68137218D01*
X86462998Y68134078D01*
X86206385Y68022615D01*
X86199956Y68020330D01*
X85930540Y67944843D01*
X85923881Y67943459D01*
X85646687Y67905359D01*
X85639896Y67904895D01*
X85360103Y67904895D01*
X85360103Y53320388D01*
X85481003Y53414488D01*
X85487916Y53419005D01*
X85683990Y53525114D01*
X85691534Y53528423D01*
X85902415Y53600819D01*
X85910394Y53602840D01*
X86130313Y53639538D01*
X86138519Y53640218D01*
X86361480Y53640218D01*
X86369686Y53639538D01*
X86589605Y53602840D01*
X86597584Y53600819D01*
X86808465Y53528423D01*
X86816009Y53525114D01*
X87012083Y53419005D01*
X87018996Y53414488D01*
X87194925Y53277558D01*
X87200998Y53271968D01*
X87351994Y53107941D01*
X87357062Y53101429D01*
X87478999Y52914791D01*
X87482925Y52907538D01*
X87572480Y52703372D01*
X87575161Y52695564D01*
X87629890Y52479440D01*
X87631247Y52471310D01*
X87649658Y52249127D01*
X87649658Y52240873D01*
X87631247Y52018689D01*
X87629890Y52010559D01*
X87575161Y51794435D01*
X87572480Y51786627D01*
X87482925Y51582461D01*
X87478999Y51575208D01*
X87357062Y51388570D01*
X87351994Y51382058D01*
X87200998Y51218031D01*
X87194925Y51212441D01*
X87018996Y51075511D01*
X87012083Y51070994D01*
X86816009Y50964885D01*
X86808465Y50961576D01*
X86597584Y50889180D01*
X86589605Y50887159D01*
X86369686Y50850461D01*
X86361480Y50849781D01*
X86138519Y50849781D01*
X86130313Y50850461D01*
X85910394Y50887159D01*
X85902415Y50889180D01*
X85691534Y50961576D01*
X85683990Y50964885D01*
X85487916Y51070994D01*
X85481003Y51075511D01*
X85305074Y51212441D01*
X85299001Y51218031D01*
X85148005Y51382058D01*
X85142937Y51388570D01*
X85058716Y51517479D01*
X85009942Y51556480D01*
X84947541Y51558940D01*
X84895848Y51523899D01*
X84875000Y51462784D01*
X84875000Y49153750D01*
X84894500Y49094423D01*
X84975000Y49053750D01*
X85719490Y49053750D01*
X85751960Y49059168D01*
X85902415Y49110819D01*
X85910394Y49112840D01*
X86130313Y49149538D01*
X86138519Y49150218D01*
X86361480Y49150218D01*
X86369686Y49149538D01*
X86589605Y49112840D01*
X86597584Y49110819D01*
X86748039Y49059168D01*
X86780509Y49053750D01*
X89346161Y49053750D01*
X89346161Y57504933D01*
X89339906Y57505327D01*
X89034669Y57543886D01*
X89028499Y57545063D01*
X88730510Y57621574D01*
X88724533Y57623516D01*
X88438469Y57736777D01*
X88432801Y57739444D01*
X88163180Y57887670D01*
X88157893Y57891026D01*
X87908979Y58071871D01*
X87904154Y58075863D01*
X87679870Y58286480D01*
X87675573Y58291055D01*
X87479453Y58528123D01*
X87475780Y58533179D01*
X87310915Y58792964D01*
X87307896Y58798456D01*
X87176893Y59076851D01*
X87174589Y59082672D01*
X87079512Y59375290D01*
X87077954Y59381358D01*
X87020300Y59683589D01*
X87019516Y59689792D01*
X87000197Y59996869D01*
X87000197Y60003131D01*
X87019516Y60310207D01*
X87020300Y60316410D01*
X87077954Y60618641D01*
X87079512Y60624709D01*
X87174589Y60917327D01*
X87176893Y60923148D01*
X87307896Y61201543D01*
X87310915Y61207035D01*
X87475780Y61466820D01*
X87479453Y61471876D01*
X87675573Y61708944D01*
X87679870Y61713519D01*
X87904154Y61924136D01*
X87908979Y61928128D01*
X88157893Y62108973D01*
X88163180Y62112329D01*
X88432801Y62260555D01*
X88438469Y62263222D01*
X88724533Y62376483D01*
X88730510Y62378425D01*
X89028499Y62454936D01*
X89034669Y62456113D01*
X89339906Y62494672D01*
X89346161Y62495066D01*
X89380433Y62495066D01*
X89380433Y63354613D01*
X89372998Y63355170D01*
X89136544Y63390810D01*
X89129260Y63392472D01*
X88900771Y63462953D01*
X88893809Y63465685D01*
X88678371Y63569435D01*
X88671910Y63573165D01*
X88474328Y63707873D01*
X88468500Y63712521D01*
X88293206Y63875170D01*
X88288133Y63880637D01*
X88139039Y64067596D01*
X88134834Y64073763D01*
X88015277Y64280841D01*
X88012030Y64287584D01*
X87924671Y64510169D01*
X87922472Y64517298D01*
X87869262Y64750429D01*
X87868149Y64757818D01*
X87850280Y64996264D01*
X87850280Y65003736D01*
X87868149Y65242181D01*
X87869262Y65249570D01*
X87922472Y65482701D01*
X87924671Y65489830D01*
X88012030Y65712415D01*
X88015277Y65719158D01*
X88134834Y65926236D01*
X88139039Y65932403D01*
X88288133Y66119361D01*
X88293206Y66124828D01*
X88468500Y66287478D01*
X88474328Y66292126D01*
X88671910Y66426834D01*
X88678371Y66430564D01*
X88893809Y66534314D01*
X88900771Y66537046D01*
X89129260Y66607527D01*
X89136544Y66609189D01*
X89372998Y66644829D01*
X89380433Y66645386D01*
X89619566Y66645386D01*
X89627001Y66644829D01*
X89863455Y66609189D01*
X89870739Y66607527D01*
X90099228Y66537046D01*
X90106190Y66534314D01*
X90321630Y66430564D01*
X90328090Y66426834D01*
X90525671Y66292126D01*
X90531499Y66287478D01*
X90706793Y66124829D01*
X90711866Y66119362D01*
X90860960Y65932403D01*
X90865165Y65926236D01*
X90984722Y65719158D01*
X90987969Y65712415D01*
X91075328Y65489830D01*
X91077527Y65482701D01*
X91130737Y65249570D01*
X91131850Y65242181D01*
X91149720Y65003736D01*
X91149720Y64996264D01*
X91131850Y64757818D01*
X91130737Y64750429D01*
X91077527Y64517298D01*
X91075328Y64510169D01*
X90987969Y64287584D01*
X90984722Y64280841D01*
X90865165Y64073763D01*
X90860960Y64067596D01*
X90711866Y63880638D01*
X90706793Y63875171D01*
X90531499Y63712521D01*
X90525671Y63707873D01*
X90328090Y63573165D01*
X90321630Y63569435D01*
X90106190Y63465685D01*
X90099228Y63462953D01*
X89870739Y63392472D01*
X89863455Y63390810D01*
X89627001Y63355170D01*
X89619566Y63354613D01*
X89380433Y63354613D01*
X89380433Y62495066D01*
X89653838Y62495066D01*
X89660093Y62494672D01*
X89965330Y62456113D01*
X89971500Y62454936D01*
X90269489Y62378425D01*
X90275466Y62376483D01*
X90561530Y62263222D01*
X90567198Y62260555D01*
X90836819Y62112329D01*
X90842106Y62108973D01*
X91091020Y61928128D01*
X91095845Y61924136D01*
X91320129Y61713519D01*
X91324426Y61708944D01*
X91520546Y61471876D01*
X91524219Y61466820D01*
X91689084Y61207035D01*
X91692103Y61201543D01*
X91823106Y60923148D01*
X91825410Y60917327D01*
X91920487Y60624709D01*
X91922045Y60618641D01*
X91979699Y60316410D01*
X91980483Y60310207D01*
X91999803Y60003131D01*
X91999803Y59996869D01*
X91980483Y59689792D01*
X91979699Y59683589D01*
X91922045Y59381358D01*
X91920487Y59375290D01*
X91825410Y59082672D01*
X91823106Y59076851D01*
X91692103Y58798456D01*
X91689084Y58792964D01*
X91524219Y58533179D01*
X91520546Y58528123D01*
X91324426Y58291055D01*
X91320129Y58286480D01*
X91095845Y58075863D01*
X91091020Y58071871D01*
X90842106Y57891026D01*
X90836819Y57887670D01*
X90567198Y57739444D01*
X90561530Y57736777D01*
X90275466Y57623516D01*
X90269489Y57621574D01*
X89971500Y57545063D01*
X89965330Y57543886D01*
X89660093Y57505327D01*
X89653838Y57504933D01*
X89346161Y57504933D01*
X89346161Y49053750D01*
X92219490Y49053750D01*
X92251960Y49059168D01*
X92402415Y49110819D01*
X92410394Y49112840D01*
X92630313Y49149538D01*
X92638519Y49150218D01*
X92638519Y49150218D01*
X92638519Y50849781D01*
X92630313Y50850461D01*
X92410394Y50887159D01*
X92402415Y50889180D01*
X92191534Y50961576D01*
X92183990Y50964885D01*
X91987916Y51070994D01*
X91981003Y51075511D01*
X91805074Y51212441D01*
X91799001Y51218031D01*
X91648005Y51382058D01*
X91642937Y51388570D01*
X91521000Y51575208D01*
X91517074Y51582461D01*
X91427519Y51786627D01*
X91424838Y51794435D01*
X91370109Y52010559D01*
X91368752Y52018689D01*
X91350342Y52240873D01*
X91350342Y52249127D01*
X91368752Y52471310D01*
X91370109Y52479440D01*
X91424838Y52695564D01*
X91427519Y52703372D01*
X91517074Y52907538D01*
X91521000Y52914791D01*
X91642937Y53101429D01*
X91648005Y53107941D01*
X91747739Y53216282D01*
X91773573Y53273138D01*
X91760639Y53334234D01*
X91689070Y53382893D01*
X91636544Y53390810D01*
X91629260Y53392472D01*
X91400771Y53462953D01*
X91393809Y53465685D01*
X91178371Y53569435D01*
X91171910Y53573165D01*
X90974328Y53707873D01*
X90968500Y53712521D01*
X90793206Y53875170D01*
X90788133Y53880637D01*
X90639039Y54067596D01*
X90634834Y54073763D01*
X90515277Y54280841D01*
X90512030Y54287584D01*
X90424671Y54510169D01*
X90422472Y54517298D01*
X90369262Y54750429D01*
X90368149Y54757818D01*
X90350280Y54996264D01*
X90350280Y55003736D01*
X90368149Y55242181D01*
X90369262Y55249570D01*
X90422472Y55482701D01*
X90424671Y55489830D01*
X90512030Y55712415D01*
X90515277Y55719158D01*
X90634834Y55926236D01*
X90639039Y55932403D01*
X90788133Y56119361D01*
X90793206Y56124828D01*
X90968500Y56287478D01*
X90974328Y56292126D01*
X91171910Y56426834D01*
X91178371Y56430564D01*
X91393809Y56534314D01*
X91400771Y56537046D01*
X91629260Y56607527D01*
X91636544Y56609189D01*
X91872998Y56644829D01*
X91880433Y56645386D01*
X92119566Y56645386D01*
X92127001Y56644829D01*
X92363455Y56609189D01*
X92370739Y56607527D01*
X92599228Y56537046D01*
X92606190Y56534314D01*
X92821630Y56430564D01*
X92828090Y56426834D01*
X93025671Y56292126D01*
X93031499Y56287478D01*
X93206793Y56124829D01*
X93211866Y56119362D01*
X93360960Y55932403D01*
X93365165Y55926236D01*
X93484722Y55719158D01*
X93487969Y55712415D01*
X93575328Y55489830D01*
X93577527Y55482701D01*
X93630737Y55249570D01*
X93631850Y55242181D01*
X93649720Y55003736D01*
X93649720Y54996264D01*
X93631850Y54757818D01*
X93630737Y54750429D01*
X93577527Y54517298D01*
X93575328Y54510169D01*
X93487969Y54287584D01*
X93484722Y54280841D01*
X93365165Y54073763D01*
X93360960Y54067596D01*
X93211866Y53880638D01*
X93206793Y53875171D01*
X93083946Y53761185D01*
X93053719Y53706538D01*
X93061807Y53644614D01*
X93119493Y53593298D01*
X93308465Y53528423D01*
X93316009Y53525114D01*
X93512083Y53419005D01*
X93518996Y53414488D01*
X93694925Y53277558D01*
X93700998Y53271968D01*
X93851994Y53107941D01*
X93857062Y53101429D01*
X93978999Y52914791D01*
X93982925Y52907538D01*
X94072480Y52703372D01*
X94075161Y52695564D01*
X94129890Y52479440D01*
X94131247Y52471310D01*
X94149658Y52249127D01*
X94149658Y52240873D01*
X94131247Y52018689D01*
X94129890Y52010559D01*
X94075161Y51794435D01*
X94072480Y51786627D01*
X93982925Y51582461D01*
X93978999Y51575208D01*
X93857062Y51388570D01*
X93851994Y51382058D01*
X93700998Y51218031D01*
X93694925Y51212441D01*
X93518996Y51075511D01*
X93512083Y51070994D01*
X93316009Y50964885D01*
X93308465Y50961576D01*
X93097584Y50889180D01*
X93089605Y50887159D01*
X92869686Y50850461D01*
X92861480Y50849781D01*
X92638519Y50849781D01*
X92638519Y49150218D01*
X92861480Y49150218D01*
X92869686Y49149538D01*
X93089605Y49112840D01*
X93097584Y49110819D01*
X93248039Y49059168D01*
X93280509Y49053750D01*
X119400000Y49053750D01*
X119459327Y49073250D01*
X119500000Y49153750D01*
X119500000Y99400000D01*
X119480500Y99459327D01*
X119400000Y99500000D01*
X600000Y99500000D01*
X540673Y99480500D01*
X500000Y99400000D01*
X500000Y72807500D01*
X519500Y72748173D01*
X600000Y72707500D01*
X2710000Y72707500D01*
X2769327Y72727000D01*
X2810000Y72807500D01*
X2810000Y85708987D01*
X2811566Y85713752D01*
X2833828Y85725000D01*
X20621487Y85725000D01*
X20626252Y85723434D01*
X20637500Y85701172D01*
X20637500Y77570000D01*
X20657000Y77510673D01*
X20737500Y77470000D01*
X24188750Y77470000D01*
X24248077Y77489500D01*
X24288750Y77570000D01*
X24288750Y94122737D01*
X24290316Y94127502D01*
X24312578Y94138750D01*
X39671487Y94138750D01*
X39676252Y94137184D01*
X39687500Y94114922D01*
X39687500Y86877672D01*
X39716789Y86806961D01*
X40610711Y85913039D01*
X40681422Y85883750D01*
X71735109Y85883750D01*
X71769064Y85869686D01*
X75392186Y82246564D01*
X75406250Y82212609D01*
X75406250Y72392662D01*
X75425750Y72333335D01*
X75469438Y72299684D01*
X75561531Y72263222D01*
X75567194Y72260557D01*
X75836819Y72112329D01*
X75842106Y72108973D01*
X76091020Y71928128D01*
X76095845Y71924136D01*
X76320129Y71713519D01*
X76324426Y71708944D01*
X76520546Y71471876D01*
X76524219Y71466820D01*
X76689084Y71207035D01*
X76692103Y71201543D01*
X76823106Y70923148D01*
X76825410Y70917327D01*
X76920487Y70624709D01*
X76922045Y70618641D01*
X76979699Y70316410D01*
X76980483Y70310207D01*
X76999803Y70003131D01*
X76999803Y69996869D01*
X76980483Y69689792D01*
X76979699Y69683589D01*
X76922045Y69381358D01*
X76920487Y69375290D01*
X76825410Y69082672D01*
X76823106Y69076851D01*
X76692103Y68798456D01*
X76689084Y68792964D01*
X76524219Y68533179D01*
X76520546Y68528123D01*
X76324426Y68291055D01*
X76320129Y68286480D01*
X76095845Y68075863D01*
X76091020Y68071871D01*
X75842106Y67891026D01*
X75836819Y67887670D01*
X75567194Y67739442D01*
X75561531Y67736777D01*
X75469438Y67700315D01*
X75421455Y67660344D01*
X75406250Y67607337D01*
X75406250Y49153750D01*
X75425750Y49094423D01*
X75506250Y49053750D01*
X81720312Y49053750D01*
X81779639Y49073250D01*
G37*
G36*
X73143077Y51930750D02*
X73183750Y52011250D01*
X73183750Y58161250D01*
X73164250Y58220577D01*
X73083750Y58261250D01*
X62488750Y58261250D01*
X62429423Y58241750D01*
X62388750Y58161250D01*
X62388750Y52011250D01*
X62408250Y51951923D01*
X62488750Y51911250D01*
X73083750Y51911250D01*
X73143077Y51930750D01*
G37*
G36*
X33009086Y55508458D02*
X33046961Y55532202D01*
X33053409Y55538650D01*
X33062139Y55545612D01*
X33088286Y55562041D01*
X33097433Y55568531D01*
X33121584Y55587791D01*
X33131032Y55593727D01*
X33158869Y55607133D01*
X33168683Y55612557D01*
X33194839Y55628992D01*
X33204884Y55633829D01*
X33234041Y55644032D01*
X33244399Y55648323D01*
X33272222Y55661721D01*
X33282768Y55665411D01*
X33312875Y55672283D01*
X33323653Y55675388D01*
X33352808Y55685590D01*
X33363692Y55688074D01*
X33394377Y55691531D01*
X33405436Y55693410D01*
X33435550Y55700284D01*
X33446637Y55701533D01*
X33477522Y55701533D01*
X33488719Y55702162D01*
X33522202Y55705935D01*
X33527814Y55706250D01*
X35611250Y55706250D01*
X35670577Y55725750D01*
X35711250Y55806250D01*
X35711250Y57648750D01*
X35691750Y57708077D01*
X35611250Y57748750D01*
X35437263Y57748750D01*
X35432498Y57750316D01*
X35421250Y57772578D01*
X35421250Y58032115D01*
X35401750Y58091442D01*
X35352152Y58127221D01*
X35336416Y58132334D01*
X35331396Y58133820D01*
X35278372Y58148028D01*
X35268639Y58151764D01*
X35261612Y58155345D01*
X35247107Y58161353D01*
X35239597Y58163793D01*
X35230071Y58168034D01*
X35182481Y58195510D01*
X35177881Y58198007D01*
X35128962Y58222933D01*
X35120217Y58228612D01*
X35114090Y58233574D01*
X35101156Y58242463D01*
X35094309Y58246416D01*
X35085876Y58252543D01*
X35045037Y58289315D01*
X35041056Y58292716D01*
X34996343Y58328924D01*
X34992466Y58332414D01*
X34517414Y58807466D01*
X34513924Y58811343D01*
X34477716Y58856056D01*
X34474315Y58860037D01*
X34437543Y58900876D01*
X34431416Y58909309D01*
X34427463Y58916156D01*
X34418574Y58929090D01*
X34413612Y58935217D01*
X34407933Y58943962D01*
X34383007Y58992881D01*
X34380510Y58997481D01*
X34353034Y59045071D01*
X34348793Y59054597D01*
X34346353Y59062107D01*
X34340345Y59076612D01*
X34336764Y59083639D01*
X34332531Y59094667D01*
X34305914Y59120012D01*
X34281250Y59168828D01*
X34281250Y61228987D01*
X34282816Y61233752D01*
X34305078Y61245000D01*
X35865237Y61245000D01*
X35870002Y61243434D01*
X35881250Y61221172D01*
X35881250Y60148750D01*
X35900750Y60089423D01*
X35981250Y60048750D01*
X37905237Y60048750D01*
X37910002Y60047184D01*
X37921250Y60024922D01*
X37921250Y57908500D01*
X37940750Y57849173D01*
X38021250Y57808500D01*
X40857500Y57808500D01*
X40916827Y57828000D01*
X40957500Y57908500D01*
X40957500Y61261487D01*
X40959066Y61266252D01*
X40981328Y61277500D01*
X56256250Y61277500D01*
X56315577Y61297000D01*
X56356250Y61377500D01*
X56356250Y70543750D01*
X56336750Y70603077D01*
X56256250Y70643750D01*
X52883641Y70643750D01*
X52849686Y70657814D01*
X49876789Y73630711D01*
X49806078Y73660000D01*
X28277391Y73660000D01*
X28243436Y73674064D01*
X24318039Y77599461D01*
X24247328Y77628750D01*
X15498750Y77628750D01*
X15439423Y77609250D01*
X15398750Y77528750D01*
X15398750Y72882263D01*
X15397184Y72877498D01*
X15374922Y72866250D01*
X14905000Y72866250D01*
X14845673Y72846750D01*
X14805000Y72766250D01*
X14805000Y72358513D01*
X14803434Y72353748D01*
X14781172Y72342500D01*
X14742946Y72342500D01*
X14683619Y72323000D01*
X14647429Y72272105D01*
X14659229Y72187805D01*
X14726282Y72085172D01*
X14775056Y72046171D01*
X14837457Y72043711D01*
X14893715Y72085172D01*
X14972937Y72206429D01*
X14978005Y72212941D01*
X15129001Y72376968D01*
X15135074Y72382558D01*
X15311003Y72519488D01*
X15317916Y72524005D01*
X15513990Y72630114D01*
X15521534Y72633423D01*
X15732415Y72705819D01*
X15740394Y72707840D01*
X15960313Y72744538D01*
X15968519Y72745218D01*
X16191480Y72745218D01*
X16199686Y72744538D01*
X16419605Y72707840D01*
X16427584Y72705819D01*
X16638465Y72633423D01*
X16646009Y72630114D01*
X16842083Y72524005D01*
X16848996Y72519488D01*
X17024925Y72382558D01*
X17030998Y72376968D01*
X17181994Y72212941D01*
X17187055Y72206437D01*
X17266282Y72085172D01*
X17315056Y72046171D01*
X17377458Y72043711D01*
X17433715Y72085172D01*
X17512937Y72206429D01*
X17518005Y72212941D01*
X17669001Y72376968D01*
X17675074Y72382558D01*
X17851003Y72519488D01*
X17857916Y72524005D01*
X18053990Y72630114D01*
X18061534Y72633423D01*
X18272415Y72705819D01*
X18280394Y72707840D01*
X18500313Y72744538D01*
X18508519Y72745218D01*
X18731480Y72745218D01*
X18739686Y72744538D01*
X18959605Y72707840D01*
X18967584Y72705819D01*
X19178465Y72633423D01*
X19186009Y72630114D01*
X19382083Y72524005D01*
X19388996Y72519488D01*
X19564925Y72382558D01*
X19570998Y72376968D01*
X19721994Y72212941D01*
X19727055Y72206437D01*
X19806282Y72085172D01*
X19855056Y72046171D01*
X19917458Y72043711D01*
X19973715Y72085172D01*
X20052937Y72206429D01*
X20058005Y72212941D01*
X20209001Y72376968D01*
X20215074Y72382558D01*
X20391003Y72519488D01*
X20397916Y72524005D01*
X20593990Y72630114D01*
X20601534Y72633423D01*
X20812415Y72705819D01*
X20820394Y72707840D01*
X21040313Y72744538D01*
X21048519Y72745218D01*
X21271480Y72745218D01*
X21279686Y72744538D01*
X21499605Y72707840D01*
X21507584Y72705819D01*
X21718465Y72633423D01*
X21726009Y72630114D01*
X21922083Y72524005D01*
X21928996Y72519488D01*
X22104925Y72382558D01*
X22110998Y72376968D01*
X22261994Y72212941D01*
X22267055Y72206437D01*
X22346282Y72085172D01*
X22395056Y72046171D01*
X22457458Y72043711D01*
X22513715Y72085172D01*
X22592937Y72206429D01*
X22598005Y72212941D01*
X22749001Y72376968D01*
X22755074Y72382558D01*
X22931003Y72519488D01*
X22937916Y72524005D01*
X23133990Y72630114D01*
X23141534Y72633423D01*
X23352415Y72705819D01*
X23360394Y72707840D01*
X23580313Y72744538D01*
X23588519Y72745218D01*
X23811480Y72745218D01*
X23819686Y72744538D01*
X24039605Y72707840D01*
X24047584Y72705819D01*
X24258465Y72633423D01*
X24266009Y72630114D01*
X24462083Y72524005D01*
X24468996Y72519488D01*
X24644925Y72382558D01*
X24650998Y72376968D01*
X24801994Y72212941D01*
X24807055Y72206437D01*
X24886282Y72085172D01*
X24935056Y72046171D01*
X24997458Y72043711D01*
X25053715Y72085172D01*
X25132937Y72206429D01*
X25138005Y72212941D01*
X25289001Y72376968D01*
X25295074Y72382558D01*
X25471003Y72519488D01*
X25477916Y72524005D01*
X25673990Y72630114D01*
X25681534Y72633423D01*
X25892415Y72705819D01*
X25900394Y72707840D01*
X26120313Y72744538D01*
X26128519Y72745218D01*
X26351480Y72745218D01*
X26359686Y72744538D01*
X26579605Y72707840D01*
X26587584Y72705819D01*
X26798465Y72633423D01*
X26806009Y72630114D01*
X27002083Y72524005D01*
X27008996Y72519488D01*
X27184925Y72382558D01*
X27190998Y72376968D01*
X27341994Y72212941D01*
X27347055Y72206437D01*
X27426282Y72085172D01*
X27475056Y72046171D01*
X27537458Y72043711D01*
X27593715Y72085172D01*
X27672937Y72206429D01*
X27678005Y72212941D01*
X27829001Y72376968D01*
X27835074Y72382558D01*
X28011003Y72519488D01*
X28017916Y72524005D01*
X28213990Y72630114D01*
X28221534Y72633423D01*
X28432415Y72705819D01*
X28440394Y72707840D01*
X28660313Y72744538D01*
X28668519Y72745218D01*
X28891480Y72745218D01*
X28899686Y72744538D01*
X29119605Y72707840D01*
X29127584Y72705819D01*
X29338465Y72633423D01*
X29346009Y72630114D01*
X29542083Y72524005D01*
X29548996Y72519488D01*
X29724925Y72382558D01*
X29730998Y72376968D01*
X29881994Y72212941D01*
X29887055Y72206437D01*
X29966282Y72085172D01*
X30015056Y72046171D01*
X30077458Y72043711D01*
X30133715Y72085172D01*
X30212937Y72206429D01*
X30218005Y72212941D01*
X30369001Y72376968D01*
X30375074Y72382558D01*
X30551003Y72519488D01*
X30557916Y72524005D01*
X30753990Y72630114D01*
X30761534Y72633423D01*
X30972415Y72705819D01*
X30980394Y72707840D01*
X31200313Y72744538D01*
X31208519Y72745218D01*
X31431480Y72745218D01*
X31439686Y72744538D01*
X31659605Y72707840D01*
X31667584Y72705819D01*
X31878465Y72633423D01*
X31886009Y72630114D01*
X32082083Y72524005D01*
X32088996Y72519488D01*
X32264925Y72382558D01*
X32270998Y72376968D01*
X32421994Y72212941D01*
X32427055Y72206437D01*
X32506282Y72085172D01*
X32555056Y72046171D01*
X32617458Y72043711D01*
X32673715Y72085172D01*
X32752937Y72206429D01*
X32758005Y72212941D01*
X32909001Y72376968D01*
X32915074Y72382558D01*
X33091003Y72519488D01*
X33097916Y72524005D01*
X33293990Y72630114D01*
X33301534Y72633423D01*
X33512415Y72705819D01*
X33520394Y72707840D01*
X33740313Y72744538D01*
X33748519Y72745218D01*
X33971480Y72745218D01*
X33979686Y72744538D01*
X34199605Y72707840D01*
X34207584Y72705819D01*
X34418465Y72633423D01*
X34426009Y72630114D01*
X34622083Y72524005D01*
X34628996Y72519488D01*
X34804925Y72382558D01*
X34810998Y72376968D01*
X34961994Y72212941D01*
X34967055Y72206437D01*
X35046282Y72085172D01*
X35095056Y72046171D01*
X35157458Y72043711D01*
X35213715Y72085172D01*
X35292937Y72206429D01*
X35298005Y72212941D01*
X35449001Y72376968D01*
X35455074Y72382558D01*
X35631003Y72519488D01*
X35637916Y72524005D01*
X35833990Y72630114D01*
X35841534Y72633423D01*
X36052415Y72705819D01*
X36060394Y72707840D01*
X36280313Y72744538D01*
X36288519Y72745218D01*
X36511480Y72745218D01*
X36519686Y72744538D01*
X36739605Y72707840D01*
X36747584Y72705819D01*
X36958465Y72633423D01*
X36966009Y72630114D01*
X37162083Y72524005D01*
X37168996Y72519488D01*
X37344925Y72382558D01*
X37350998Y72376968D01*
X37501994Y72212941D01*
X37507055Y72206437D01*
X37586282Y72085172D01*
X37635056Y72046171D01*
X37697458Y72043711D01*
X37753715Y72085172D01*
X37832937Y72206429D01*
X37838005Y72212941D01*
X37989001Y72376968D01*
X37995074Y72382558D01*
X38171003Y72519488D01*
X38177916Y72524005D01*
X38373990Y72630114D01*
X38381534Y72633423D01*
X38592415Y72705819D01*
X38600394Y72707840D01*
X38820313Y72744538D01*
X38828519Y72745218D01*
X39051480Y72745218D01*
X39059686Y72744538D01*
X39279605Y72707840D01*
X39287584Y72705819D01*
X39498465Y72633423D01*
X39506009Y72630114D01*
X39702083Y72524005D01*
X39708996Y72519488D01*
X39884925Y72382558D01*
X39890998Y72376968D01*
X40041994Y72212941D01*
X40047055Y72206437D01*
X40126282Y72085172D01*
X40175056Y72046171D01*
X40237458Y72043711D01*
X40293715Y72085172D01*
X40372937Y72206429D01*
X40378005Y72212941D01*
X40529001Y72376968D01*
X40535074Y72382558D01*
X40711003Y72519488D01*
X40717916Y72524005D01*
X40913990Y72630114D01*
X40921534Y72633423D01*
X41132415Y72705819D01*
X41140394Y72707840D01*
X41360313Y72744538D01*
X41368519Y72745218D01*
X41591480Y72745218D01*
X41599686Y72744538D01*
X41819605Y72707840D01*
X41827584Y72705819D01*
X42038465Y72633423D01*
X42046009Y72630114D01*
X42242083Y72524005D01*
X42248996Y72519488D01*
X42424925Y72382558D01*
X42430998Y72376968D01*
X42581994Y72212941D01*
X42587055Y72206437D01*
X42666282Y72085172D01*
X42715056Y72046171D01*
X42777458Y72043711D01*
X42833715Y72085172D01*
X42912937Y72206429D01*
X42918005Y72212941D01*
X43069001Y72376968D01*
X43075074Y72382558D01*
X43251003Y72519488D01*
X43257916Y72524005D01*
X43453990Y72630114D01*
X43461534Y72633423D01*
X43672415Y72705819D01*
X43680394Y72707840D01*
X43900313Y72744538D01*
X43908519Y72745218D01*
X44131480Y72745218D01*
X44139686Y72744538D01*
X44359605Y72707840D01*
X44367584Y72705819D01*
X44578465Y72633423D01*
X44586009Y72630114D01*
X44782083Y72524005D01*
X44788996Y72519488D01*
X44964925Y72382558D01*
X44970998Y72376968D01*
X45121994Y72212941D01*
X45127055Y72206437D01*
X45206282Y72085172D01*
X45255056Y72046171D01*
X45317458Y72043711D01*
X45373715Y72085172D01*
X45452937Y72206429D01*
X45458005Y72212941D01*
X45609001Y72376968D01*
X45615074Y72382558D01*
X45791003Y72519488D01*
X45797916Y72524005D01*
X45993990Y72630114D01*
X46001534Y72633423D01*
X46212415Y72705819D01*
X46220394Y72707840D01*
X46440313Y72744538D01*
X46448519Y72745218D01*
X46671480Y72745218D01*
X46679686Y72744538D01*
X46899605Y72707840D01*
X46907584Y72705819D01*
X47118465Y72633423D01*
X47126009Y72630114D01*
X47322083Y72524005D01*
X47328996Y72519488D01*
X47504925Y72382558D01*
X47510998Y72376968D01*
X47661994Y72212941D01*
X47667062Y72206429D01*
X47788999Y72019791D01*
X47792925Y72012538D01*
X47882480Y71808372D01*
X47885161Y71800564D01*
X47939890Y71584440D01*
X47941247Y71576310D01*
X47959829Y71352060D01*
X47960000Y71347939D01*
X47960000Y70652061D01*
X47959829Y70647940D01*
X47941247Y70423689D01*
X47939890Y70415559D01*
X47885161Y70199435D01*
X47882480Y70191627D01*
X47792925Y69987461D01*
X47788999Y69980208D01*
X47667062Y69793570D01*
X47661994Y69787058D01*
X47510998Y69623031D01*
X47504925Y69617441D01*
X47328996Y69480511D01*
X47322083Y69475994D01*
X47126009Y69369885D01*
X47118465Y69366576D01*
X46907584Y69294180D01*
X46899605Y69292159D01*
X46679686Y69255461D01*
X46671480Y69254781D01*
X46448519Y69254781D01*
X46440313Y69255461D01*
X46220394Y69292159D01*
X46212415Y69294180D01*
X46001534Y69366576D01*
X45993990Y69369885D01*
X45797916Y69475994D01*
X45791003Y69480511D01*
X45615074Y69617441D01*
X45609001Y69623031D01*
X45458005Y69787058D01*
X45452937Y69793570D01*
X45373715Y69914827D01*
X45324941Y69953829D01*
X45262540Y69956288D01*
X45206282Y69914827D01*
X45127055Y69793562D01*
X45121994Y69787058D01*
X44970998Y69623031D01*
X44964925Y69617441D01*
X44788996Y69480511D01*
X44782083Y69475994D01*
X44763655Y69466021D01*
X44720759Y69420634D01*
X44711250Y69378074D01*
X44711250Y69059276D01*
X44710885Y69053240D01*
X44709968Y69045691D01*
X44709421Y69027590D01*
X44709696Y69023043D01*
X44708971Y69011049D01*
X44700004Y68962118D01*
X44699095Y68956147D01*
X44693091Y68906699D01*
X44690217Y68895039D01*
X44688591Y68890751D01*
X44683729Y68873310D01*
X44682907Y68868821D01*
X44679332Y68857350D01*
X44658911Y68811976D01*
X44656599Y68806396D01*
X44638939Y68759830D01*
X44633361Y68749203D01*
X44630758Y68745432D01*
X44621864Y68729664D01*
X44619984Y68725487D01*
X44613776Y68715217D01*
X44583073Y68676027D01*
X44579494Y68671163D01*
X44551216Y68630196D01*
X44543254Y68621210D01*
X44539829Y68618175D01*
X44527424Y68604997D01*
X44522731Y68599007D01*
X44518739Y68594501D01*
X42300503Y66376265D01*
X42295991Y66372268D01*
X42290009Y66367582D01*
X42276821Y66355168D01*
X42273788Y66351744D01*
X42264802Y66343783D01*
X42223840Y66315509D01*
X42218975Y66311929D01*
X42179787Y66281227D01*
X42169507Y66275013D01*
X42165335Y66273135D01*
X42149567Y66264241D01*
X42145796Y66261638D01*
X42135169Y66256060D01*
X42088603Y66238400D01*
X42083023Y66236088D01*
X42037649Y66215667D01*
X42026178Y66212092D01*
X42021689Y66211270D01*
X42004248Y66206408D01*
X41999960Y66204782D01*
X41988300Y66201908D01*
X41938861Y66195905D01*
X41932889Y66194996D01*
X41883951Y66186028D01*
X41871953Y66185303D01*
X41867401Y66185578D01*
X41849308Y66185032D01*
X41841754Y66184115D01*
X41835722Y66183750D01*
X36938712Y66183750D01*
X36879385Y66164250D01*
X36843195Y66113355D01*
X36844257Y66050914D01*
X36875781Y66006034D01*
X36917411Y65972324D01*
X36921276Y65968844D01*
X37235094Y65655026D01*
X37238584Y65651150D01*
X37274798Y65606428D01*
X37278199Y65602445D01*
X37314958Y65561621D01*
X37321083Y65553190D01*
X37325035Y65546345D01*
X37333923Y65533412D01*
X37338890Y65527279D01*
X37344565Y65518540D01*
X37356126Y65495850D01*
X37400435Y65451842D01*
X37445226Y65441250D01*
X37905237Y65441250D01*
X37910002Y65439684D01*
X37921250Y65417422D01*
X37921250Y63157263D01*
X37919684Y63152498D01*
X37897422Y63141250D01*
X35983750Y63141250D01*
X35924423Y63121750D01*
X35883750Y63041250D01*
X35883750Y63026372D01*
X35883476Y63021141D01*
X35881798Y63005178D01*
X35881250Y62994725D01*
X35881250Y61961013D01*
X35879684Y61956248D01*
X35857422Y61945000D01*
X34297263Y61945000D01*
X34292498Y61946566D01*
X34281250Y61968828D01*
X34281250Y64011500D01*
X34261750Y64070827D01*
X34181250Y64111500D01*
X34081250Y64111500D01*
X34021923Y64092000D01*
X33981250Y64011500D01*
X33981250Y61961013D01*
X33979684Y61956248D01*
X33957422Y61945000D01*
X32976250Y61945000D01*
X32916923Y61925500D01*
X32876250Y61845000D01*
X32876250Y61345000D01*
X32895750Y61285673D01*
X32976250Y61245000D01*
X33965237Y61245000D01*
X33970002Y61243434D01*
X33981250Y61221172D01*
X33981250Y59161013D01*
X33979684Y59156248D01*
X33957422Y59145000D01*
X32976250Y59145000D01*
X32916923Y59125500D01*
X32876250Y59045000D01*
X32876250Y55602913D01*
X32895750Y55543586D01*
X32946645Y55507396D01*
X33009086Y55508458D01*
G37*
G36*
X119459327Y519500D02*
X119500000Y600000D01*
X119500000Y49112500D01*
X119480500Y49171827D01*
X119400000Y49212500D01*
X93383120Y49212500D01*
X93323793Y49193000D01*
X93287603Y49142105D01*
X93288665Y49079664D01*
X93335525Y49024553D01*
X93512083Y48929005D01*
X93518996Y48924488D01*
X93694925Y48787558D01*
X93700998Y48781968D01*
X93851994Y48617941D01*
X93857062Y48611429D01*
X93978999Y48424791D01*
X93982925Y48417538D01*
X94072480Y48213372D01*
X94075161Y48205564D01*
X94129890Y47989440D01*
X94131247Y47981310D01*
X94149658Y47759127D01*
X94149658Y47750873D01*
X94131247Y47528689D01*
X94129890Y47520559D01*
X94075161Y47304435D01*
X94072480Y47296627D01*
X93982925Y47092461D01*
X93978999Y47085208D01*
X93857062Y46898570D01*
X93851994Y46892058D01*
X93700998Y46728031D01*
X93694925Y46722441D01*
X93518996Y46585511D01*
X93512083Y46580994D01*
X93316009Y46474885D01*
X93308465Y46471576D01*
X93097584Y46399180D01*
X93089605Y46397159D01*
X92869686Y46360461D01*
X92861480Y46359781D01*
X92638519Y46359781D01*
X92630313Y46360461D01*
X92410394Y46397159D01*
X92402415Y46399180D01*
X92191534Y46471576D01*
X92183990Y46474885D01*
X91987916Y46580994D01*
X91981003Y46585511D01*
X91805074Y46722441D01*
X91799001Y46728031D01*
X91648005Y46892058D01*
X91642937Y46898570D01*
X91521000Y47085208D01*
X91517074Y47092461D01*
X91427519Y47296627D01*
X91424838Y47304435D01*
X91370109Y47520559D01*
X91368752Y47528689D01*
X91350342Y47750873D01*
X91350342Y47759127D01*
X91368752Y47981310D01*
X91370109Y47989440D01*
X91424838Y48205564D01*
X91427519Y48213372D01*
X91517074Y48417538D01*
X91521000Y48424791D01*
X91642937Y48611429D01*
X91648005Y48617941D01*
X91799001Y48781968D01*
X91805074Y48787558D01*
X91981003Y48924488D01*
X91987916Y48929005D01*
X92164474Y49024553D01*
X92207370Y49069939D01*
X92214974Y49131924D01*
X92184322Y49186334D01*
X92116879Y49212500D01*
X86883120Y49212500D01*
X86823793Y49193000D01*
X86787603Y49142105D01*
X86788665Y49079664D01*
X86835525Y49024553D01*
X87012083Y48929005D01*
X87018996Y48924488D01*
X87194925Y48787558D01*
X87200998Y48781968D01*
X87351994Y48617941D01*
X87357062Y48611429D01*
X87478999Y48424791D01*
X87482925Y48417538D01*
X87572480Y48213372D01*
X87575161Y48205564D01*
X87629890Y47989440D01*
X87631247Y47981310D01*
X87649658Y47759127D01*
X87649658Y47750873D01*
X87631247Y47528689D01*
X87629890Y47520559D01*
X87575161Y47304435D01*
X87572480Y47296627D01*
X87482925Y47092461D01*
X87478999Y47085208D01*
X87357062Y46898570D01*
X87351994Y46892058D01*
X87200998Y46728031D01*
X87194925Y46722441D01*
X87018996Y46585511D01*
X87012083Y46580994D01*
X86816009Y46474885D01*
X86808465Y46471576D01*
X86597584Y46399180D01*
X86589605Y46397159D01*
X86369686Y46360461D01*
X86361480Y46359781D01*
X86138519Y46359781D01*
X86130313Y46360461D01*
X85910394Y46397159D01*
X85902415Y46399180D01*
X85691534Y46471576D01*
X85683990Y46474885D01*
X85487916Y46580994D01*
X85481003Y46585511D01*
X85305074Y46722441D01*
X85299001Y46728031D01*
X85148005Y46892058D01*
X85142937Y46898570D01*
X85058716Y47027479D01*
X85009942Y47066480D01*
X84947541Y47068940D01*
X84895848Y47033899D01*
X84875000Y46972784D01*
X84875000Y46199276D01*
X84874635Y46193240D01*
X84873718Y46185691D01*
X84873171Y46167590D01*
X84873446Y46163043D01*
X84872721Y46151049D01*
X84863754Y46102118D01*
X84862845Y46096147D01*
X84856841Y46046699D01*
X84853967Y46035039D01*
X84852341Y46030751D01*
X84847479Y46013310D01*
X84846657Y46008821D01*
X84843082Y45997350D01*
X84822661Y45951976D01*
X84820349Y45946396D01*
X84802689Y45899830D01*
X84797111Y45889203D01*
X84794508Y45885432D01*
X84785614Y45869664D01*
X84783734Y45865487D01*
X84777526Y45855217D01*
X84746823Y45816027D01*
X84743244Y45811163D01*
X84714966Y45770196D01*
X84707004Y45761210D01*
X84703579Y45758175D01*
X84691174Y45744997D01*
X84686481Y45739007D01*
X84682489Y45734501D01*
X84191753Y45243765D01*
X84187241Y45239768D01*
X84181259Y45235082D01*
X84168071Y45222668D01*
X84165038Y45219244D01*
X84156052Y45211283D01*
X84115090Y45183009D01*
X84110225Y45179429D01*
X84071037Y45148727D01*
X84060757Y45142513D01*
X84056585Y45140635D01*
X84040817Y45131741D01*
X84037046Y45129138D01*
X84026419Y45123560D01*
X83979853Y45105900D01*
X83974273Y45103588D01*
X83928899Y45083167D01*
X83917428Y45079592D01*
X83912939Y45078770D01*
X83895498Y45073908D01*
X83891210Y45072282D01*
X83879550Y45069408D01*
X83830111Y45063405D01*
X83824139Y45062496D01*
X83778225Y45054082D01*
X83723384Y45024207D01*
X83696250Y44955720D01*
X83696250Y40876211D01*
X83723181Y40811194D01*
X83721660Y40809918D01*
X83730059Y40799908D01*
X83850027Y40628576D01*
X83854375Y40621045D01*
X83942771Y40431480D01*
X83945744Y40423311D01*
X83999879Y40221279D01*
X84001390Y40212704D01*
X84019619Y40004355D01*
X84019619Y39995645D01*
X84001390Y39787295D01*
X83999879Y39778720D01*
X83945744Y39576688D01*
X83942771Y39568519D01*
X83854375Y39378954D01*
X83850026Y39371422D01*
X83730059Y39200091D01*
X83724472Y39193432D01*
X83576569Y39045529D01*
X83569908Y39039940D01*
X83398576Y38919972D01*
X83391045Y38915624D01*
X83201480Y38827228D01*
X83193311Y38824255D01*
X82991277Y38770120D01*
X82982705Y38768609D01*
X82774355Y38750381D01*
X82765645Y38750381D01*
X82557294Y38768609D01*
X82548722Y38770120D01*
X82346688Y38824255D01*
X82338519Y38827228D01*
X82148954Y38915624D01*
X82141422Y38919973D01*
X81970091Y39039940D01*
X81963432Y39045527D01*
X81815527Y39193432D01*
X81809940Y39200091D01*
X81689973Y39371422D01*
X81685624Y39378954D01*
X81597228Y39568519D01*
X81594255Y39576688D01*
X81540120Y39778722D01*
X81538609Y39787294D01*
X81520381Y39995645D01*
X81520381Y40004355D01*
X81538609Y40212705D01*
X81540120Y40221277D01*
X81594255Y40423311D01*
X81597228Y40431480D01*
X81685624Y40621045D01*
X81689972Y40628576D01*
X81809940Y40799908D01*
X81815529Y40806569D01*
X81866961Y40858001D01*
X81896250Y40928712D01*
X81896250Y42271250D01*
X81876750Y42330577D01*
X81796250Y42371250D01*
X81283028Y42371250D01*
X81276986Y42371615D01*
X81269443Y42372531D01*
X81251358Y42373078D01*
X81246788Y42372802D01*
X81234807Y42373527D01*
X81185862Y42382496D01*
X81179890Y42383405D01*
X81130449Y42389408D01*
X81118789Y42392282D01*
X81114501Y42393908D01*
X81097060Y42398770D01*
X81092571Y42399592D01*
X81081100Y42403167D01*
X81035726Y42423588D01*
X81030146Y42425900D01*
X80983580Y42443560D01*
X80972953Y42449138D01*
X80969182Y42451741D01*
X80953414Y42460635D01*
X80949242Y42462513D01*
X80938967Y42468724D01*
X80899778Y42499427D01*
X80894912Y42503007D01*
X80853947Y42531283D01*
X80844959Y42539246D01*
X80841923Y42542673D01*
X80828739Y42555083D01*
X80822763Y42559765D01*
X80818247Y42563765D01*
X79611301Y43770711D01*
X79540590Y43800000D01*
X79474779Y43800000D01*
X79416001Y43780902D01*
X79327990Y43716958D01*
X79318961Y43711746D01*
X79166205Y43643734D01*
X79156287Y43640511D01*
X78992721Y43605745D01*
X78982361Y43604656D01*
X78815138Y43604656D01*
X78804778Y43605745D01*
X78641212Y43640511D01*
X78631294Y43643734D01*
X78478539Y43711746D01*
X78469510Y43716958D01*
X78334231Y43815243D01*
X78326480Y43822222D01*
X78214589Y43946490D01*
X78208467Y43954917D01*
X78124857Y44099733D01*
X78120616Y44109258D01*
X78068942Y44268295D01*
X78066776Y44278485D01*
X78049298Y44444786D01*
X78049298Y44455214D01*
X78066776Y44621514D01*
X78068942Y44631704D01*
X78120616Y44790741D01*
X78124857Y44800266D01*
X78208467Y44945082D01*
X78214589Y44953509D01*
X78272735Y45018087D01*
X78297941Y45075224D01*
X78272734Y45151913D01*
X78214593Y45216485D01*
X78208467Y45224917D01*
X78124857Y45369733D01*
X78120616Y45379258D01*
X78068942Y45538295D01*
X78066776Y45548485D01*
X78049298Y45714786D01*
X78049298Y45725214D01*
X78066776Y45891514D01*
X78068942Y45901704D01*
X78120616Y46060741D01*
X78124857Y46070266D01*
X78138262Y46093484D01*
X78151038Y46154613D01*
X78125056Y46211402D01*
X78070450Y46241703D01*
X78010985Y46234838D01*
X77896205Y46183734D01*
X77886287Y46180511D01*
X77722721Y46145745D01*
X77712361Y46144656D01*
X77545138Y46144656D01*
X77534778Y46145745D01*
X77371212Y46180511D01*
X77361294Y46183734D01*
X77208539Y46251746D01*
X77199510Y46256958D01*
X77064231Y46355243D01*
X77056480Y46362222D01*
X76944589Y46486490D01*
X76938467Y46494917D01*
X76854857Y46639733D01*
X76850616Y46649258D01*
X76798942Y46808295D01*
X76796776Y46818485D01*
X76779298Y46984786D01*
X76779298Y46995214D01*
X76796776Y47161514D01*
X76798942Y47171704D01*
X76850616Y47330741D01*
X76854857Y47340266D01*
X76938467Y47485082D01*
X76944589Y47493509D01*
X77056480Y47617777D01*
X77064231Y47624756D01*
X77199510Y47723041D01*
X77208539Y47728253D01*
X77361294Y47796265D01*
X77371212Y47799488D01*
X77534778Y47834254D01*
X77545138Y47835343D01*
X77712361Y47835343D01*
X77722721Y47834254D01*
X77886287Y47799488D01*
X77896205Y47796265D01*
X78048961Y47728253D01*
X78057990Y47723041D01*
X78146000Y47659098D01*
X78204778Y47640000D01*
X81796250Y47640000D01*
X81855577Y47659500D01*
X81896250Y47740000D01*
X81896250Y49071287D01*
X81866961Y49141998D01*
X81825748Y49183211D01*
X81755037Y49212500D01*
X69383461Y49212500D01*
X69324134Y49193000D01*
X69290374Y49149034D01*
X69205563Y48932938D01*
X69202326Y48926215D01*
X69075287Y48706178D01*
X69071083Y48700012D01*
X68912671Y48501370D01*
X68907598Y48495903D01*
X68721348Y48323087D01*
X68715520Y48318439D01*
X68505590Y48175312D01*
X68499130Y48171582D01*
X68270212Y48061341D01*
X68263273Y48058618D01*
X68020486Y47983729D01*
X68013213Y47982069D01*
X67761974Y47944200D01*
X67754539Y47943643D01*
X67500460Y47943643D01*
X67493025Y47944200D01*
X67241786Y47982069D01*
X67234513Y47983729D01*
X66991727Y48058618D01*
X66984788Y48061341D01*
X66755874Y48171580D01*
X66749404Y48175316D01*
X66539479Y48318439D01*
X66533651Y48323087D01*
X66347401Y48495903D01*
X66342328Y48501370D01*
X66183916Y48700012D01*
X66179712Y48706178D01*
X66052673Y48926215D01*
X66049436Y48932938D01*
X65964625Y49149034D01*
X65924799Y49197136D01*
X65871538Y49212500D01*
X50223868Y49212500D01*
X50164541Y49193000D01*
X50123868Y49112500D01*
X50123868Y47602167D01*
X50122302Y47597402D01*
X50100040Y47586154D01*
X43639881Y47586154D01*
X43635116Y47587720D01*
X43623868Y47609982D01*
X43623868Y47660000D01*
X43604368Y47719327D01*
X43523868Y47760000D01*
X39297500Y47760000D01*
X39238173Y47740500D01*
X39197500Y47660000D01*
X39197500Y44829763D01*
X39195934Y44824998D01*
X39173672Y44813750D01*
X38617500Y44813750D01*
X38558173Y44794250D01*
X38517500Y44713750D01*
X38517500Y44474384D01*
X38536598Y44415606D01*
X38558844Y44384987D01*
X38564051Y44375969D01*
X38636321Y44213647D01*
X38639539Y44203743D01*
X38676480Y44029947D01*
X38677569Y44019587D01*
X38677569Y43841912D01*
X38676480Y43831552D01*
X38639540Y43657761D01*
X38636317Y43647843D01*
X38564054Y43485539D01*
X38558842Y43476510D01*
X38536598Y43445894D01*
X38517500Y43387116D01*
X38517500Y42679263D01*
X38515934Y42674498D01*
X38493672Y42663250D01*
X37510000Y42663250D01*
X37450673Y42643750D01*
X37410000Y42563250D01*
X37410000Y40997263D01*
X37408434Y40992498D01*
X37386172Y40981250D01*
X34720438Y40981250D01*
X34646539Y40948622D01*
X34187351Y40444951D01*
X34161250Y40377579D01*
X34161250Y39317263D01*
X34159684Y39312498D01*
X34137422Y39301250D01*
X33960748Y39301250D01*
X33901421Y39281750D01*
X33861230Y39211052D01*
X33842517Y39021052D01*
X33840609Y39011457D01*
X33786556Y38833269D01*
X33782812Y38824231D01*
X33695036Y38660013D01*
X33689602Y38651881D01*
X33571473Y38507941D01*
X33564558Y38501026D01*
X33420618Y38382897D01*
X33412486Y38377463D01*
X33248268Y38289687D01*
X33239230Y38285943D01*
X33061038Y38231889D01*
X33051456Y38229983D01*
X32866134Y38211731D01*
X32856366Y38211731D01*
X32671043Y38229983D01*
X32661461Y38231889D01*
X32483269Y38285943D01*
X32474231Y38289687D01*
X32310013Y38377463D01*
X32301881Y38382897D01*
X32157941Y38501026D01*
X32151022Y38507945D01*
X32118062Y38548107D01*
X32065352Y38581597D01*
X31981983Y38565570D01*
X31861740Y38478208D01*
X31852711Y38472996D01*
X31699955Y38404984D01*
X31690037Y38401761D01*
X31526471Y38366995D01*
X31516111Y38365906D01*
X31348888Y38365906D01*
X31338528Y38366995D01*
X31174962Y38401761D01*
X31165044Y38404984D01*
X31012289Y38472996D01*
X31003260Y38478208D01*
X30867981Y38576493D01*
X30860230Y38583472D01*
X30748339Y38707740D01*
X30742217Y38716167D01*
X30658607Y38860983D01*
X30654366Y38870508D01*
X30602692Y39029545D01*
X30600526Y39039735D01*
X30583048Y39206036D01*
X30583048Y39216464D01*
X30600526Y39382764D01*
X30602692Y39392954D01*
X30654366Y39551991D01*
X30658609Y39561521D01*
X30669103Y39579697D01*
X30682500Y39629696D01*
X30682500Y43335936D01*
X30682815Y43341549D01*
X30686588Y43375032D01*
X30687217Y43386228D01*
X30687217Y43417111D01*
X30688466Y43428196D01*
X30695338Y43458305D01*
X30697216Y43469360D01*
X30700675Y43500054D01*
X30703161Y43510946D01*
X30713363Y43540103D01*
X30716468Y43550879D01*
X30723339Y43580981D01*
X30727028Y43591522D01*
X30740421Y43619333D01*
X30744714Y43629697D01*
X30754919Y43658862D01*
X30759762Y43668920D01*
X30776197Y43695077D01*
X30781620Y43704890D01*
X30795019Y43732712D01*
X30800958Y43742165D01*
X30820215Y43766311D01*
X30826706Y43775459D01*
X30843137Y43801610D01*
X30850098Y43810339D01*
X30871947Y43832188D01*
X30879419Y43840550D01*
X30900426Y43866892D01*
X30904146Y43871055D01*
X31217695Y44184604D01*
X31221858Y44188324D01*
X31248200Y44209331D01*
X31256562Y44216803D01*
X31278413Y44238654D01*
X31288598Y44246776D01*
X31326250Y44324960D01*
X31326250Y45327737D01*
X31327816Y45332502D01*
X31350078Y45343750D01*
X34380237Y45343750D01*
X34385002Y45342184D01*
X34396250Y45319922D01*
X34396250Y45319740D01*
X34415750Y45260413D01*
X34496349Y45219740D01*
X34997599Y45220236D01*
X35056907Y45239795D01*
X35097500Y45320236D01*
X35097500Y47729250D01*
X35078000Y47788577D01*
X34997500Y47829250D01*
X34507500Y47829250D01*
X34507500Y47827948D01*
X34465027Y47827949D01*
X34414754Y47790900D01*
X34396250Y47732948D01*
X34396250Y47699763D01*
X34394684Y47694998D01*
X34372422Y47683750D01*
X32612263Y47683750D01*
X32607498Y47685316D01*
X32596250Y47707578D01*
X32596250Y48641250D01*
X32576750Y48700577D01*
X32527475Y48736250D01*
X32507498Y48742816D01*
X32496250Y48765078D01*
X32496250Y52525237D01*
X32497816Y52530002D01*
X32520078Y52541250D01*
X32687146Y52541250D01*
X32746473Y52560750D01*
X32784639Y52618998D01*
X32787089Y52629731D01*
X32790778Y52640272D01*
X32804171Y52668083D01*
X32808464Y52678447D01*
X32818669Y52707612D01*
X32823512Y52717670D01*
X32839947Y52743827D01*
X32845370Y52753640D01*
X32858769Y52781462D01*
X32864708Y52790915D01*
X32883965Y52815061D01*
X32890456Y52824209D01*
X32906887Y52850360D01*
X32913848Y52859089D01*
X32935697Y52880938D01*
X32943169Y52889300D01*
X32964176Y52915642D01*
X32967896Y52919805D01*
X33655195Y53607104D01*
X33659358Y53610824D01*
X33685700Y53631831D01*
X33694062Y53639303D01*
X33715915Y53661156D01*
X33724637Y53668111D01*
X33750793Y53684546D01*
X33759939Y53691035D01*
X33784088Y53710293D01*
X33793533Y53716228D01*
X33821367Y53729633D01*
X33831179Y53735056D01*
X33857335Y53751491D01*
X33867387Y53756331D01*
X33896545Y53766534D01*
X33906905Y53770825D01*
X33934729Y53784224D01*
X33945269Y53787912D01*
X33975377Y53794785D01*
X33986149Y53797888D01*
X34015308Y53808091D01*
X34026189Y53810574D01*
X34056887Y53814033D01*
X34067942Y53815911D01*
X34098056Y53822784D01*
X34109139Y53824033D01*
X34140022Y53824033D01*
X34151219Y53824662D01*
X34184702Y53828435D01*
X34190314Y53828750D01*
X35253750Y53828750D01*
X35313077Y53848250D01*
X35353750Y53928750D01*
X35353750Y53953987D01*
X35355316Y53958752D01*
X35377578Y53970000D01*
X37337737Y53970000D01*
X37342502Y53968434D01*
X37353750Y53946172D01*
X37353750Y53770000D01*
X37373250Y53710673D01*
X37453750Y53670000D01*
X37723436Y53670000D01*
X37729045Y53669685D01*
X37757929Y53666430D01*
X37770219Y53665807D01*
X37796470Y53666094D01*
X37807578Y53664965D01*
X37842283Y53657441D01*
X37852273Y53655800D01*
X37887554Y53651824D01*
X37898446Y53649338D01*
X37923227Y53640667D01*
X37935068Y53637325D01*
X37960736Y53631760D01*
X37971309Y53628190D01*
X38003466Y53613133D01*
X38012844Y53609308D01*
X38046367Y53597578D01*
X38056414Y53592740D01*
X38078658Y53578763D01*
X38089460Y53572870D01*
X38113232Y53561740D01*
X38122753Y53555902D01*
X38150748Y53534072D01*
X38159037Y53528258D01*
X38189110Y53509362D01*
X38197840Y53502400D01*
X38216411Y53483829D01*
X38225630Y53475681D01*
X38248550Y53457808D01*
X38252769Y53454121D01*
X38718417Y52998522D01*
X38788352Y52970000D01*
X41003987Y52970000D01*
X41008752Y52968434D01*
X41020000Y52946172D01*
X41020000Y52756028D01*
X41049289Y52685317D01*
X41135317Y52599289D01*
X41206028Y52570000D01*
X43991250Y52570000D01*
X44050577Y52589500D01*
X44091250Y52670000D01*
X44091250Y53151527D01*
X44085871Y53183882D01*
X44060773Y53257279D01*
X44060540Y53257952D01*
X44035624Y53329158D01*
X44035412Y53329905D01*
X44033931Y53336616D01*
X44033772Y53337322D01*
X44032187Y53344263D01*
X44032062Y53345020D01*
X44031394Y53351351D01*
X44005780Y53408306D01*
X43979370Y53425387D01*
X43965000Y53453828D01*
X43965000Y54668750D01*
X43945500Y54728077D01*
X43865000Y54768750D01*
X43765000Y54768750D01*
X43705673Y54749250D01*
X43665000Y54668750D01*
X43665000Y53446013D01*
X43663434Y53441248D01*
X43641172Y53430000D01*
X42081013Y53430000D01*
X42076248Y53431566D01*
X42065000Y53453828D01*
X42065000Y53616339D01*
X42045500Y53675666D01*
X41963493Y53716328D01*
X40971606Y53701378D01*
X40966014Y53701608D01*
X40926096Y53705497D01*
X40916399Y53705968D01*
X40879139Y53705968D01*
X40868054Y53707217D01*
X40844184Y53712665D01*
X40831629Y53714701D01*
X40807233Y53717078D01*
X40796324Y53719395D01*
X40760942Y53731180D01*
X40751595Y53733797D01*
X40715267Y53742089D01*
X40704729Y53745777D01*
X40682669Y53756400D01*
X40670884Y53761178D01*
X40647638Y53768921D01*
X40637509Y53773612D01*
X40605648Y53792969D01*
X40597114Y53797602D01*
X40563535Y53813773D01*
X40554087Y53819709D01*
X40534937Y53834980D01*
X40524513Y53842258D01*
X40503574Y53854979D01*
X40494742Y53861807D01*
X40467986Y53887769D01*
X40460697Y53894185D01*
X40429355Y53919178D01*
X40425195Y53922896D01*
X40171130Y54176961D01*
X40100419Y54206250D01*
X33877082Y54206250D01*
X33806371Y54176961D01*
X27663039Y48033629D01*
X27633750Y47962918D01*
X27633750Y47544798D01*
X27653250Y47485471D01*
X27704145Y47449281D01*
X27774425Y47453444D01*
X27831298Y47478766D01*
X27841212Y47481988D01*
X28004778Y47516754D01*
X28015138Y47517843D01*
X28182361Y47517843D01*
X28192721Y47516754D01*
X28356287Y47481988D01*
X28366205Y47478765D01*
X28518961Y47410753D01*
X28527990Y47405541D01*
X28663268Y47307256D01*
X28671019Y47300277D01*
X28782910Y47176009D01*
X28789032Y47167582D01*
X28872642Y47022766D01*
X28876883Y47013241D01*
X28928557Y46854204D01*
X28930723Y46844014D01*
X28948202Y46677714D01*
X28948202Y46667286D01*
X28930723Y46500985D01*
X28928557Y46490795D01*
X28876883Y46331758D01*
X28872642Y46322233D01*
X28828772Y46246248D01*
X28815996Y46185119D01*
X28828773Y46146248D01*
X28872640Y46070269D01*
X28876883Y46060740D01*
X28928557Y45901704D01*
X28930723Y45891514D01*
X28948202Y45725214D01*
X28948202Y45714786D01*
X28930723Y45548485D01*
X28928557Y45538295D01*
X28876883Y45379259D01*
X28872643Y45369737D01*
X28828772Y45293750D01*
X28815996Y45232621D01*
X28828773Y45193750D01*
X28872639Y45117773D01*
X28876883Y45108241D01*
X28928557Y44949204D01*
X28930723Y44939014D01*
X28948202Y44772714D01*
X28948202Y44762286D01*
X28930723Y44595985D01*
X28928557Y44585795D01*
X28876883Y44426758D01*
X28872642Y44417233D01*
X28789032Y44272417D01*
X28782906Y44263985D01*
X28703346Y44175623D01*
X28678140Y44118486D01*
X28706950Y44038000D01*
X30020499Y42724451D01*
X30024219Y42720288D01*
X30043485Y42696129D01*
X30050957Y42687767D01*
X30070809Y42667915D01*
X30077771Y42659185D01*
X30092709Y42635411D01*
X30099199Y42626265D01*
X30116707Y42604311D01*
X30122641Y42594866D01*
X30134825Y42569566D01*
X30140250Y42559750D01*
X30155190Y42535973D01*
X30160033Y42525917D01*
X30169308Y42499408D01*
X30173601Y42489044D01*
X30185779Y42463757D01*
X30189470Y42453212D01*
X30195716Y42425847D01*
X30198819Y42415075D01*
X30208093Y42388571D01*
X30210578Y42377679D01*
X30213722Y42349779D01*
X30215600Y42338724D01*
X30221848Y42311348D01*
X30223097Y42300264D01*
X30223097Y42272191D01*
X30223726Y42260994D01*
X30227185Y42230298D01*
X30227500Y42224686D01*
X30227500Y38800230D01*
X30257163Y38733610D01*
X30255011Y38731673D01*
X30370410Y38603509D01*
X30376532Y38595082D01*
X30460142Y38450266D01*
X30464383Y38440741D01*
X30516057Y38281704D01*
X30518223Y38271514D01*
X30535702Y38105214D01*
X30535702Y38094786D01*
X30518223Y37928485D01*
X30516057Y37918295D01*
X30464383Y37759258D01*
X30460142Y37749733D01*
X30376532Y37604917D01*
X30370410Y37596490D01*
X30258519Y37472222D01*
X30250768Y37465243D01*
X30115490Y37366958D01*
X30106461Y37361746D01*
X29953705Y37293734D01*
X29943787Y37290511D01*
X29780221Y37255745D01*
X29769861Y37254656D01*
X29602638Y37254656D01*
X29592278Y37255745D01*
X29428712Y37290511D01*
X29418794Y37293734D01*
X29266039Y37361746D01*
X29257010Y37366958D01*
X29121731Y37465243D01*
X29113980Y37472222D01*
X29002089Y37596490D01*
X28995967Y37604917D01*
X28912357Y37749733D01*
X28908116Y37759258D01*
X28856442Y37918295D01*
X28854276Y37928485D01*
X28836798Y38094786D01*
X28836798Y38105216D01*
X28838927Y38125475D01*
X28836968Y38158178D01*
X28833151Y38174902D01*
X28831902Y38185987D01*
X28831902Y38214067D01*
X28831273Y38225263D01*
X28827815Y38255951D01*
X28827500Y38261564D01*
X28827500Y41896128D01*
X28798211Y41966839D01*
X27475589Y43289461D01*
X27404878Y43318750D01*
X25434282Y43318750D01*
X25433910Y43342261D01*
X25433750Y43342578D01*
X25433750Y46556201D01*
X25414250Y46615528D01*
X25369211Y46649702D01*
X25326085Y46666058D01*
X25315450Y46671640D01*
X25311681Y46674241D01*
X25295916Y46683133D01*
X25291744Y46685011D01*
X25281471Y46691221D01*
X25242283Y46721923D01*
X25237417Y46725503D01*
X25196451Y46753780D01*
X25187454Y46761750D01*
X25184416Y46765179D01*
X25171246Y46777577D01*
X25165250Y46782275D01*
X25160752Y46786260D01*
X24942510Y47004502D01*
X24938525Y47009000D01*
X24933827Y47014996D01*
X24921429Y47028166D01*
X24918000Y47031204D01*
X24910030Y47040201D01*
X24881753Y47081167D01*
X24878173Y47086033D01*
X24847471Y47125221D01*
X24841261Y47135494D01*
X24839383Y47139666D01*
X24830491Y47155431D01*
X24827890Y47159200D01*
X24822308Y47169835D01*
X24804653Y47216386D01*
X24802342Y47221966D01*
X24781912Y47267361D01*
X24778342Y47278815D01*
X24777515Y47283328D01*
X24772655Y47300759D01*
X24771031Y47305041D01*
X24768158Y47316698D01*
X24762158Y47366121D01*
X24761249Y47372095D01*
X24752275Y47421059D01*
X24751551Y47433040D01*
X24751827Y47437608D01*
X24751281Y47455705D01*
X24750364Y47463252D01*
X24750000Y47469278D01*
X24750000Y48193750D01*
X24730500Y48253077D01*
X24650000Y48293750D01*
X20533750Y48293750D01*
X20474423Y48274250D01*
X20433750Y48193750D01*
X20433750Y47969179D01*
X20464082Y47897440D01*
X25274988Y43225426D01*
X25331134Y43198083D01*
X25331150Y43198086D01*
X25351463Y43151159D01*
X25672800Y42839099D01*
X25675749Y42835918D01*
X25682179Y42829581D01*
X25685395Y42826686D01*
X25782938Y42729143D01*
X25786447Y42725246D01*
X25825123Y42677484D01*
X25828524Y42673502D01*
X25867907Y42629763D01*
X25874032Y42621332D01*
X25878640Y42613351D01*
X25887529Y42600417D01*
X25893321Y42593264D01*
X25898996Y42584526D01*
X25925709Y42532099D01*
X25928207Y42527498D01*
X25957643Y42476513D01*
X25961883Y42466991D01*
X25964731Y42458225D01*
X25970736Y42443728D01*
X25974913Y42435530D01*
X25978649Y42425797D01*
X25993875Y42368976D01*
X25995361Y42363958D01*
X26013554Y42307965D01*
X26015722Y42297764D01*
X26016684Y42288605D01*
X26019545Y42273169D01*
X26021929Y42264272D01*
X26023558Y42253990D01*
X26026638Y42195224D01*
X26027049Y42190005D01*
X26033476Y42128859D01*
X26033750Y42123628D01*
X26033750Y41096372D01*
X26033476Y41091141D01*
X26015723Y40922235D01*
X26013557Y40912045D01*
X25961883Y40753008D01*
X25957641Y40743481D01*
X25949017Y40728543D01*
X25936242Y40667413D01*
X25949018Y40628546D01*
X25967663Y40596251D01*
X26014214Y40554621D01*
X26054266Y40546250D01*
X26190936Y40546250D01*
X26196548Y40545935D01*
X26227235Y40542477D01*
X26238432Y40541848D01*
X26266514Y40541848D01*
X26277598Y40540599D01*
X26304983Y40534349D01*
X26316038Y40532471D01*
X26343929Y40529328D01*
X26354820Y40526843D01*
X26381316Y40517572D01*
X26392088Y40514469D01*
X26419464Y40508220D01*
X26430005Y40504531D01*
X26455311Y40492345D01*
X26465669Y40488055D01*
X26492172Y40478781D01*
X26502218Y40473943D01*
X26525995Y40459003D01*
X26535810Y40453579D01*
X26561112Y40441394D01*
X26570562Y40435456D01*
X26592522Y40417944D01*
X26601669Y40411454D01*
X26625435Y40396521D01*
X26634165Y40389559D01*
X26654020Y40369704D01*
X26662382Y40362232D01*
X26686537Y40342969D01*
X26690700Y40339249D01*
X26954410Y40075539D01*
X27025121Y40046250D01*
X28606487Y40046250D01*
X28611252Y40044684D01*
X28622500Y40022422D01*
X28622500Y37962263D01*
X28620934Y37957498D01*
X28598672Y37946250D01*
X26638513Y37946250D01*
X26627137Y37949989D01*
X26594122Y37983005D01*
X26549026Y37993750D01*
X24912500Y37993750D01*
X24853173Y37974250D01*
X24812500Y37893750D01*
X24812500Y37757263D01*
X24810934Y37752498D01*
X24788672Y37741250D01*
X15684763Y37741250D01*
X15679998Y37742816D01*
X15668750Y37765078D01*
X15668750Y39825237D01*
X15670316Y39830002D01*
X15692578Y39841250D01*
X15728184Y39841250D01*
X15787511Y39860750D01*
X15827636Y39930797D01*
X15836776Y40017764D01*
X15838942Y40027954D01*
X15890616Y40186991D01*
X15894857Y40196516D01*
X15978467Y40341332D01*
X15984589Y40349759D01*
X16096480Y40474027D01*
X16104231Y40481006D01*
X16239510Y40579291D01*
X16248539Y40584503D01*
X16385674Y40645560D01*
X16431941Y40687504D01*
X16445000Y40736914D01*
X16445000Y42535701D01*
X16425500Y42595028D01*
X16374605Y42631218D01*
X16291800Y42620375D01*
X16282914Y42614792D01*
X16273765Y42608301D01*
X16251810Y42590792D01*
X16242364Y42584857D01*
X16217071Y42572676D01*
X16207260Y42567254D01*
X16183469Y42552306D01*
X16173421Y42547467D01*
X16146903Y42538188D01*
X16136543Y42533897D01*
X16111256Y42521720D01*
X16095720Y42516283D01*
X16046163Y42478281D01*
X16028750Y42421895D01*
X16028750Y42196013D01*
X16027184Y42191248D01*
X16004922Y42180000D01*
X14428750Y42180000D01*
X14369423Y42160500D01*
X14328750Y42080000D01*
X14328750Y40767263D01*
X14327184Y40762498D01*
X14304922Y40751250D01*
X12244763Y40751250D01*
X12239998Y40752816D01*
X12228750Y40775078D01*
X12228750Y40993146D01*
X12209250Y41052473D01*
X12161779Y41087534D01*
X12146241Y41092971D01*
X12120961Y41105145D01*
X12110602Y41109436D01*
X12095424Y41114747D01*
X12032985Y41115936D01*
X11982017Y41079850D01*
X11962738Y41028617D01*
X11951247Y40889939D01*
X11949890Y40881809D01*
X11895161Y40665685D01*
X11892480Y40657877D01*
X11802925Y40453711D01*
X11798999Y40446458D01*
X11677062Y40259820D01*
X11671994Y40253308D01*
X11520998Y40089281D01*
X11514925Y40083691D01*
X11338996Y39946761D01*
X11332088Y39942247D01*
X11317214Y39934198D01*
X11274318Y39888812D01*
X11266712Y39826827D01*
X11317212Y39758303D01*
X11332089Y39750252D01*
X11338993Y39745741D01*
X11514925Y39608808D01*
X11520998Y39603218D01*
X11671994Y39439191D01*
X11677062Y39432679D01*
X11798999Y39246041D01*
X11802925Y39238788D01*
X11892480Y39034622D01*
X11895161Y39026814D01*
X11949890Y38810690D01*
X11951247Y38802560D01*
X11969658Y38580377D01*
X11969658Y38572123D01*
X11951247Y38349939D01*
X11949890Y38341809D01*
X11895161Y38125685D01*
X11892480Y38117877D01*
X11802925Y37913711D01*
X11798999Y37906458D01*
X11677062Y37719820D01*
X11671994Y37713308D01*
X11520998Y37549281D01*
X11514925Y37543691D01*
X11338996Y37406761D01*
X11332083Y37402244D01*
X11136009Y37296135D01*
X11128465Y37292826D01*
X10917584Y37220430D01*
X10909605Y37218409D01*
X10689686Y37181711D01*
X10681480Y37181031D01*
X10458519Y37181031D01*
X10450313Y37181711D01*
X10230394Y37218409D01*
X10222415Y37220430D01*
X10011534Y37292826D01*
X10003990Y37296135D01*
X9807916Y37402244D01*
X9801003Y37406761D01*
X9625074Y37543691D01*
X9619001Y37549281D01*
X9468005Y37713308D01*
X9462937Y37719820D01*
X9341000Y37906458D01*
X9337074Y37913711D01*
X9247519Y38117877D01*
X9244838Y38125685D01*
X9190109Y38341809D01*
X9188752Y38349939D01*
X9170342Y38572123D01*
X9170342Y38580377D01*
X9188752Y38802560D01*
X9190109Y38810690D01*
X9244838Y39026814D01*
X9247519Y39034622D01*
X9337074Y39238788D01*
X9341000Y39246041D01*
X9462937Y39432679D01*
X9468005Y39439191D01*
X9619001Y39603218D01*
X9625074Y39608808D01*
X9801006Y39745741D01*
X9807910Y39750252D01*
X9822787Y39758303D01*
X9865682Y39803690D01*
X9873286Y39865675D01*
X9822785Y39934198D01*
X9807911Y39942247D01*
X9801003Y39946761D01*
X9625074Y40083691D01*
X9619001Y40089281D01*
X9468005Y40253308D01*
X9462937Y40259820D01*
X9341000Y40446458D01*
X9337074Y40453711D01*
X9247519Y40657877D01*
X9244838Y40665685D01*
X9190109Y40881809D01*
X9188752Y40889939D01*
X9170342Y41112123D01*
X9170342Y41120377D01*
X9188752Y41342560D01*
X9190109Y41350690D01*
X9244838Y41566814D01*
X9247519Y41574622D01*
X9337074Y41778788D01*
X9341000Y41786041D01*
X9462937Y41972679D01*
X9468005Y41979191D01*
X9619001Y42143218D01*
X9625074Y42148808D01*
X9801003Y42285738D01*
X9807911Y42290252D01*
X9822785Y42298301D01*
X9865681Y42343687D01*
X9873287Y42405672D01*
X9822787Y42474196D01*
X9807910Y42482247D01*
X9801006Y42486758D01*
X9625074Y42623691D01*
X9619001Y42629281D01*
X9468005Y42793308D01*
X9462937Y42799820D01*
X9341000Y42986458D01*
X9337074Y42993711D01*
X9247519Y43197877D01*
X9244838Y43205685D01*
X9190109Y43421809D01*
X9188752Y43429939D01*
X9170342Y43652123D01*
X9170342Y43660377D01*
X9188752Y43882560D01*
X9190109Y43890690D01*
X9244838Y44106814D01*
X9247519Y44114622D01*
X9337074Y44318788D01*
X9341000Y44326041D01*
X9462937Y44512679D01*
X9468005Y44519191D01*
X9619001Y44683218D01*
X9625074Y44688808D01*
X9801003Y44825738D01*
X9807911Y44830252D01*
X9822785Y44838301D01*
X9865681Y44883687D01*
X9873287Y44945672D01*
X9822787Y45014196D01*
X9807910Y45022247D01*
X9801006Y45026758D01*
X9625074Y45163691D01*
X9619001Y45169281D01*
X9468005Y45333308D01*
X9462937Y45339820D01*
X9341000Y45526458D01*
X9337074Y45533711D01*
X9247519Y45737877D01*
X9244838Y45745685D01*
X9190109Y45961809D01*
X9188752Y45969939D01*
X9170342Y46192123D01*
X9170342Y46200377D01*
X9188752Y46422560D01*
X9190109Y46430690D01*
X9244838Y46646814D01*
X9247519Y46654622D01*
X9337074Y46858788D01*
X9341000Y46866041D01*
X9462937Y47052679D01*
X9468005Y47059191D01*
X9619001Y47223218D01*
X9625074Y47228808D01*
X9801003Y47365738D01*
X9807911Y47370252D01*
X9822785Y47378301D01*
X9865681Y47423687D01*
X9873287Y47485672D01*
X9822787Y47554196D01*
X9807910Y47562247D01*
X9801006Y47566758D01*
X9625074Y47703691D01*
X9619001Y47709281D01*
X9468005Y47873308D01*
X9462937Y47879820D01*
X9341000Y48066458D01*
X9337074Y48073711D01*
X9247519Y48277877D01*
X9244838Y48285685D01*
X9190109Y48501809D01*
X9188752Y48509939D01*
X9170342Y48732123D01*
X9170342Y48740377D01*
X9188752Y48962560D01*
X9190109Y48970690D01*
X9244838Y49186814D01*
X9247519Y49194622D01*
X9337074Y49398788D01*
X9341000Y49406041D01*
X9462937Y49592679D01*
X9468005Y49599191D01*
X9619001Y49763218D01*
X9625074Y49768808D01*
X9801003Y49905738D01*
X9807911Y49910252D01*
X9822785Y49918301D01*
X9865681Y49963687D01*
X9873287Y50025672D01*
X9822787Y50094196D01*
X9807910Y50102247D01*
X9801006Y50106758D01*
X9625074Y50243691D01*
X9619001Y50249281D01*
X9468005Y50413308D01*
X9462937Y50419820D01*
X9341000Y50606458D01*
X9337074Y50613711D01*
X9247519Y50817877D01*
X9244838Y50825685D01*
X9190109Y51041809D01*
X9188752Y51049939D01*
X9170342Y51272123D01*
X9170342Y51280377D01*
X9188752Y51502560D01*
X9190109Y51510690D01*
X9244838Y51726814D01*
X9247519Y51734622D01*
X9337074Y51938788D01*
X9341000Y51946041D01*
X9462937Y52132679D01*
X9468005Y52139191D01*
X9619001Y52303218D01*
X9625074Y52308808D01*
X9801003Y52445738D01*
X9807911Y52450252D01*
X9822785Y52458301D01*
X9865681Y52503687D01*
X9873287Y52565672D01*
X9822787Y52634196D01*
X9807910Y52642247D01*
X9801006Y52646758D01*
X9625074Y52783691D01*
X9619001Y52789281D01*
X9468005Y52953308D01*
X9462937Y52959820D01*
X9341000Y53146458D01*
X9337074Y53153711D01*
X9247519Y53357877D01*
X9244838Y53365685D01*
X9190109Y53581809D01*
X9188752Y53589939D01*
X9170342Y53812123D01*
X9170342Y53820377D01*
X9188752Y54042560D01*
X9190109Y54050690D01*
X9244838Y54266814D01*
X9247519Y54274622D01*
X9337074Y54478788D01*
X9341000Y54486041D01*
X9462937Y54672679D01*
X9468005Y54679191D01*
X9619001Y54843218D01*
X9625074Y54848808D01*
X9801006Y54985741D01*
X9807910Y54990252D01*
X9822787Y54998303D01*
X9865682Y55043690D01*
X9873286Y55105675D01*
X9822785Y55174198D01*
X9807911Y55182247D01*
X9801003Y55186761D01*
X9625074Y55323691D01*
X9619001Y55329281D01*
X9468005Y55493308D01*
X9462937Y55499820D01*
X9341000Y55686458D01*
X9337074Y55693711D01*
X9247519Y55897877D01*
X9244838Y55905685D01*
X9190109Y56121809D01*
X9188752Y56129939D01*
X9170342Y56352123D01*
X9170342Y56360377D01*
X9188752Y56582560D01*
X9190109Y56590690D01*
X9244838Y56806814D01*
X9247519Y56814622D01*
X9337074Y57018788D01*
X9341000Y57026041D01*
X9462937Y57212679D01*
X9468005Y57219191D01*
X9619001Y57383218D01*
X9625074Y57388808D01*
X9801003Y57525738D01*
X9807911Y57530252D01*
X9822785Y57538301D01*
X9865681Y57583687D01*
X9873287Y57645672D01*
X9822787Y57714196D01*
X9807910Y57722247D01*
X9801006Y57726758D01*
X9625074Y57863691D01*
X9619001Y57869281D01*
X9468005Y58033308D01*
X9462937Y58039820D01*
X9341000Y58226458D01*
X9337074Y58233711D01*
X9247519Y58437877D01*
X9244838Y58445685D01*
X9190109Y58661809D01*
X9188752Y58669939D01*
X9170342Y58892123D01*
X9170342Y58900377D01*
X9188752Y59122560D01*
X9190109Y59130690D01*
X9244838Y59346814D01*
X9247519Y59354622D01*
X9337074Y59558788D01*
X9341000Y59566041D01*
X9462937Y59752679D01*
X9468005Y59759191D01*
X9568651Y59868522D01*
X9594485Y59925378D01*
X9581551Y59986474D01*
X9534892Y60027982D01*
X9495078Y60036250D01*
X9186013Y60036250D01*
X9181248Y60037816D01*
X9170000Y60060078D01*
X9170000Y60358314D01*
X9150500Y60417641D01*
X9099605Y60453831D01*
X9037164Y60452769D01*
X8996428Y60426043D01*
X8980998Y60409282D01*
X8974925Y60403691D01*
X8798996Y60266761D01*
X8792083Y60262244D01*
X8596009Y60156135D01*
X8588465Y60152826D01*
X8377584Y60080430D01*
X8369605Y60078409D01*
X8149686Y60041711D01*
X8141480Y60041031D01*
X7918519Y60041031D01*
X7910313Y60041711D01*
X7690394Y60078409D01*
X7682415Y60080430D01*
X7471534Y60152826D01*
X7463990Y60156135D01*
X7267916Y60262244D01*
X7261003Y60266761D01*
X7085074Y60403691D01*
X7079001Y60409281D01*
X6928005Y60573308D01*
X6922937Y60579820D01*
X6801000Y60766458D01*
X6797074Y60773711D01*
X6707519Y60977877D01*
X6704838Y60985685D01*
X6650109Y61201809D01*
X6648752Y61209939D01*
X6630342Y61432123D01*
X6630342Y61440377D01*
X6648752Y61662560D01*
X6650109Y61670690D01*
X6704838Y61886814D01*
X6707519Y61894622D01*
X6797074Y62098788D01*
X6801000Y62106041D01*
X6922937Y62292679D01*
X6928005Y62299191D01*
X7079001Y62463218D01*
X7085074Y62468808D01*
X7261003Y62605738D01*
X7267916Y62610255D01*
X7463990Y62716364D01*
X7471534Y62719674D01*
X7629025Y62773741D01*
X7678806Y62811449D01*
X7696510Y62871337D01*
X7667266Y62939034D01*
X7127001Y63479299D01*
X7123281Y63483462D01*
X7104022Y63507612D01*
X7096550Y63515974D01*
X7076689Y63535835D01*
X7069731Y63544560D01*
X7054793Y63568335D01*
X7048302Y63577482D01*
X7030793Y63599437D01*
X7024858Y63608883D01*
X7012674Y63634183D01*
X7007249Y63643999D01*
X6992309Y63667776D01*
X6987466Y63677832D01*
X6978191Y63704341D01*
X6973898Y63714705D01*
X6961720Y63739992D01*
X6958029Y63750537D01*
X6951783Y63777902D01*
X6948680Y63788674D01*
X6939404Y63815185D01*
X6936921Y63826064D01*
X6933777Y63853971D01*
X6931899Y63865027D01*
X6925651Y63892403D01*
X6924402Y63903486D01*
X6924402Y63931567D01*
X6923773Y63942763D01*
X6920315Y63973451D01*
X6920000Y63979064D01*
X6920000Y66989686D01*
X6920315Y66995299D01*
X6923773Y67025987D01*
X6924402Y67037183D01*
X6924402Y67065263D01*
X6925651Y67076346D01*
X6931899Y67103722D01*
X6933777Y67114778D01*
X6936921Y67142685D01*
X6939404Y67153564D01*
X6948680Y67180075D01*
X6951783Y67190847D01*
X6958029Y67218212D01*
X6961720Y67228757D01*
X6973898Y67254044D01*
X6978191Y67264408D01*
X6987466Y67290917D01*
X6992309Y67300973D01*
X7007249Y67324750D01*
X7012674Y67334566D01*
X7024856Y67359862D01*
X7030794Y67369312D01*
X7048302Y67391267D01*
X7054792Y67400414D01*
X7069728Y67424185D01*
X7076690Y67432915D01*
X7096547Y67452772D01*
X7104019Y67461134D01*
X7123281Y67485288D01*
X7127001Y67489451D01*
X8319461Y68681911D01*
X8348750Y68752622D01*
X8348750Y72228436D01*
X8349065Y72234049D01*
X8352523Y72264737D01*
X8353152Y72275933D01*
X8353152Y72304013D01*
X8354401Y72315096D01*
X8360649Y72342472D01*
X8362527Y72353528D01*
X8365671Y72381435D01*
X8368154Y72392314D01*
X8377430Y72418825D01*
X8380533Y72429597D01*
X8386779Y72456962D01*
X8390470Y72467507D01*
X8402648Y72492794D01*
X8406941Y72503158D01*
X8416216Y72529667D01*
X8421059Y72539723D01*
X8435999Y72563500D01*
X8441424Y72573316D01*
X8453606Y72598612D01*
X8459544Y72608062D01*
X8477052Y72630017D01*
X8483542Y72639164D01*
X8498478Y72662935D01*
X8505440Y72671665D01*
X8525297Y72691522D01*
X8532773Y72699889D01*
X8535976Y72703906D01*
X8557717Y72762450D01*
X8540485Y72822476D01*
X8491002Y72860573D01*
X8457789Y72866250D01*
X600000Y72866250D01*
X540673Y72846750D01*
X500000Y72766250D01*
X500000Y600000D01*
X519500Y540673D01*
X600000Y500000D01*
X4346161Y500000D01*
X4346161Y27504933D01*
X4339906Y27505327D01*
X4034669Y27543886D01*
X4028499Y27545063D01*
X3730510Y27621574D01*
X3724533Y27623516D01*
X3438469Y27736777D01*
X3432801Y27739444D01*
X3163180Y27887670D01*
X3157893Y27891026D01*
X2908979Y28071871D01*
X2904154Y28075863D01*
X2679870Y28286480D01*
X2675573Y28291055D01*
X2479453Y28528123D01*
X2475780Y28533179D01*
X2310915Y28792964D01*
X2307896Y28798456D01*
X2176893Y29076851D01*
X2174589Y29082672D01*
X2079512Y29375290D01*
X2077954Y29381358D01*
X2020300Y29683589D01*
X2019516Y29689792D01*
X2000197Y29996869D01*
X2000197Y30003131D01*
X2019516Y30310207D01*
X2020300Y30316410D01*
X2077954Y30618641D01*
X2079512Y30624709D01*
X2174589Y30917327D01*
X2176893Y30923148D01*
X2307896Y31201543D01*
X2310915Y31207035D01*
X2475780Y31466820D01*
X2479453Y31471876D01*
X2675573Y31708944D01*
X2679870Y31713519D01*
X2904154Y31924136D01*
X2908979Y31928128D01*
X3157893Y32108973D01*
X3163180Y32112329D01*
X3432801Y32260555D01*
X3438469Y32263222D01*
X3724533Y32376483D01*
X3730510Y32378425D01*
X4028499Y32454936D01*
X4034669Y32456113D01*
X4339906Y32494672D01*
X4346161Y32495066D01*
X4346161Y32495066D01*
X4346161Y67504933D01*
X4339906Y67505327D01*
X4034669Y67543886D01*
X4028499Y67545063D01*
X3730510Y67621574D01*
X3724533Y67623516D01*
X3438469Y67736777D01*
X3432801Y67739444D01*
X3163180Y67887670D01*
X3157893Y67891026D01*
X2908979Y68071871D01*
X2904154Y68075863D01*
X2679870Y68286480D01*
X2675573Y68291055D01*
X2479453Y68528123D01*
X2475780Y68533179D01*
X2310915Y68792964D01*
X2307896Y68798456D01*
X2176893Y69076851D01*
X2174589Y69082672D01*
X2079512Y69375290D01*
X2077954Y69381358D01*
X2020300Y69683589D01*
X2019516Y69689792D01*
X2000197Y69996869D01*
X2000197Y70003131D01*
X2019516Y70310207D01*
X2020300Y70316410D01*
X2077954Y70618641D01*
X2079512Y70624709D01*
X2174589Y70917327D01*
X2176893Y70923148D01*
X2307896Y71201543D01*
X2310915Y71207035D01*
X2475780Y71466820D01*
X2479453Y71471876D01*
X2675573Y71708944D01*
X2679870Y71713519D01*
X2904154Y71924136D01*
X2908979Y71928128D01*
X3157893Y72108973D01*
X3163180Y72112329D01*
X3432801Y72260555D01*
X3438469Y72263222D01*
X3724533Y72376483D01*
X3730510Y72378425D01*
X4028499Y72454936D01*
X4034669Y72456113D01*
X4339906Y72494672D01*
X4346161Y72495066D01*
X4653838Y72495066D01*
X4660093Y72494672D01*
X4965330Y72456113D01*
X4971500Y72454936D01*
X5269489Y72378425D01*
X5275466Y72376483D01*
X5561530Y72263222D01*
X5567198Y72260555D01*
X5836819Y72112329D01*
X5842106Y72108973D01*
X6091020Y71928128D01*
X6095845Y71924136D01*
X6320129Y71713519D01*
X6324426Y71708944D01*
X6520546Y71471876D01*
X6524219Y71466820D01*
X6689084Y71207035D01*
X6692103Y71201543D01*
X6823106Y70923148D01*
X6825410Y70917327D01*
X6920487Y70624709D01*
X6922045Y70618641D01*
X6979699Y70316410D01*
X6980483Y70310207D01*
X6999803Y70003131D01*
X6999803Y69996869D01*
X6980483Y69689792D01*
X6979699Y69683589D01*
X6922045Y69381358D01*
X6920487Y69375290D01*
X6825410Y69082672D01*
X6823106Y69076851D01*
X6692103Y68798456D01*
X6689084Y68792964D01*
X6524219Y68533179D01*
X6520546Y68528123D01*
X6324426Y68291055D01*
X6320129Y68286480D01*
X6095845Y68075863D01*
X6091020Y68071871D01*
X5842106Y67891026D01*
X5836819Y67887670D01*
X5567198Y67739444D01*
X5561530Y67736777D01*
X5275466Y67623516D01*
X5269489Y67621574D01*
X4971500Y67545063D01*
X4965330Y67543886D01*
X4660093Y67505327D01*
X4653838Y67504933D01*
X4346161Y67504933D01*
X4346161Y32495066D01*
X4653838Y32495066D01*
X4660093Y32494672D01*
X4965330Y32456113D01*
X4971500Y32454936D01*
X5269489Y32378425D01*
X5275466Y32376483D01*
X5561530Y32263222D01*
X5567198Y32260555D01*
X5836819Y32112329D01*
X5842106Y32108973D01*
X6091020Y31928128D01*
X6095845Y31924136D01*
X6320129Y31713519D01*
X6324426Y31708944D01*
X6520546Y31471876D01*
X6524219Y31466820D01*
X6689084Y31207035D01*
X6692103Y31201543D01*
X6823106Y30923148D01*
X6825410Y30917327D01*
X6920487Y30624709D01*
X6922045Y30618641D01*
X6979699Y30316410D01*
X6980483Y30310207D01*
X6999803Y30003131D01*
X6999803Y29996869D01*
X6980483Y29689792D01*
X6979699Y29683589D01*
X6922045Y29381358D01*
X6920487Y29375290D01*
X6825410Y29082672D01*
X6823106Y29076851D01*
X6692103Y28798456D01*
X6689084Y28792964D01*
X6524219Y28533179D01*
X6520546Y28528123D01*
X6324426Y28291055D01*
X6320129Y28286480D01*
X6095845Y28075863D01*
X6091020Y28071871D01*
X5842106Y27891026D01*
X5836819Y27887670D01*
X5567198Y27739444D01*
X5561530Y27736777D01*
X5275466Y27623516D01*
X5269489Y27621574D01*
X4971500Y27545063D01*
X4965330Y27543886D01*
X4660093Y27505327D01*
X4653838Y27504933D01*
X4346161Y27504933D01*
X4346161Y500000D01*
X13119818Y500000D01*
X13119818Y5215000D01*
X13115197Y5215213D01*
X13031470Y5222970D01*
X13020096Y5225387D01*
X12895376Y5267592D01*
X12888856Y5270326D01*
X12813962Y5308166D01*
X12809228Y5310894D01*
X12725123Y5365692D01*
X12715615Y5373749D01*
X12629304Y5467863D01*
X12621371Y5479443D01*
X12563572Y5596367D01*
X12560893Y5602916D01*
X12543738Y5655106D01*
X12541873Y5662791D01*
X12518128Y5811077D01*
X12517500Y5818972D01*
X12517500Y7688972D01*
X12488211Y7759683D01*
X9664683Y10583211D01*
X9593972Y10612500D01*
X5023568Y10612500D01*
X5018947Y10612713D01*
X4935220Y10620470D01*
X4923846Y10622887D01*
X4799126Y10665092D01*
X4792606Y10667826D01*
X4717712Y10705666D01*
X4712978Y10708394D01*
X4628873Y10763192D01*
X4619365Y10771249D01*
X4533054Y10865363D01*
X4525121Y10876943D01*
X4467322Y10993867D01*
X4464643Y11000416D01*
X4447488Y11052606D01*
X4445623Y11060291D01*
X4421878Y11208577D01*
X4421250Y11216472D01*
X4421250Y13867682D01*
X4421463Y13872303D01*
X4429220Y13956030D01*
X4431637Y13967404D01*
X4473842Y14092124D01*
X4476576Y14098644D01*
X4514416Y14173538D01*
X4517144Y14178272D01*
X4571942Y14262377D01*
X4579999Y14271885D01*
X4674113Y14358196D01*
X4685693Y14366129D01*
X4802617Y14423928D01*
X4809166Y14426607D01*
X4861356Y14443762D01*
X4869041Y14445627D01*
X5017327Y14469372D01*
X5023568Y14469868D01*
X5023568Y15692500D01*
X5018947Y15692713D01*
X4935220Y15700470D01*
X4923846Y15702887D01*
X4799126Y15745092D01*
X4792606Y15747826D01*
X4717712Y15785666D01*
X4712978Y15788394D01*
X4628873Y15843192D01*
X4619365Y15851249D01*
X4533054Y15945363D01*
X4525121Y15956943D01*
X4467322Y16073867D01*
X4464643Y16080416D01*
X4447488Y16132606D01*
X4445623Y16140291D01*
X4421878Y16288577D01*
X4421250Y16296472D01*
X4421250Y19479914D01*
X4422208Y19489646D01*
X4458352Y19671355D01*
X4461188Y19680703D01*
X4486719Y19742343D01*
X4491325Y19750959D01*
X4594258Y19905009D01*
X4600457Y19912563D01*
X5820711Y21132817D01*
X5850000Y21203528D01*
X5850000Y25932682D01*
X5850213Y25937303D01*
X5857970Y26021030D01*
X5860387Y26032404D01*
X5902592Y26157124D01*
X5905326Y26163644D01*
X5943166Y26238538D01*
X5945894Y26243272D01*
X5960985Y26266434D01*
X5977200Y26321024D01*
X5977200Y26478987D01*
X5978766Y26483752D01*
X6001028Y26495000D01*
X6232225Y26495000D01*
X6263450Y26500000D01*
X6290106Y26508762D01*
X6297791Y26510627D01*
X6446077Y26534372D01*
X6453972Y26535000D01*
X8366250Y26535000D01*
X8425577Y26554500D01*
X8466250Y26635000D01*
X8466250Y29097737D01*
X8467816Y29102502D01*
X8490078Y29113750D01*
X9111637Y29113750D01*
X9170964Y29133250D01*
X9206743Y29182849D01*
X9223115Y29233238D01*
X9227357Y29242766D01*
X9310967Y29387582D01*
X9317089Y29396009D01*
X9428980Y29520277D01*
X9436731Y29527256D01*
X9572010Y29625541D01*
X9581039Y29630753D01*
X9733794Y29698765D01*
X9743712Y29701988D01*
X9907278Y29736754D01*
X9917638Y29737843D01*
X10084861Y29737843D01*
X10095221Y29736754D01*
X10258787Y29701988D01*
X10268705Y29698765D01*
X10421461Y29630753D01*
X10430490Y29625541D01*
X10565768Y29527256D01*
X10573519Y29520277D01*
X10685410Y29396009D01*
X10691532Y29387582D01*
X10775142Y29242766D01*
X10779383Y29233241D01*
X10831057Y29074204D01*
X10833223Y29064014D01*
X10850702Y28897714D01*
X10850702Y28887286D01*
X10833223Y28720985D01*
X10831057Y28710795D01*
X10779383Y28551758D01*
X10775142Y28542233D01*
X10691532Y28397417D01*
X10685410Y28388990D01*
X10573519Y28264722D01*
X10565768Y28257743D01*
X10430490Y28159458D01*
X10421469Y28154250D01*
X10325576Y28111556D01*
X10279309Y28069611D01*
X10266250Y28020201D01*
X10266250Y25829763D01*
X10264684Y25824998D01*
X10238654Y25811846D01*
X10194495Y25767687D01*
X10183750Y25722592D01*
X10183750Y16294818D01*
X10183537Y16290197D01*
X10175780Y16206470D01*
X10173363Y16195096D01*
X10131158Y16070376D01*
X10128424Y16063856D01*
X10090584Y15988962D01*
X10087856Y15984228D01*
X10033058Y15900123D01*
X10025001Y15890615D01*
X9930887Y15804304D01*
X9919307Y15796371D01*
X9802383Y15738572D01*
X9795834Y15735893D01*
X9743644Y15718738D01*
X9735959Y15716873D01*
X9587673Y15693128D01*
X9579778Y15692500D01*
X5023568Y15692500D01*
X5023568Y14469868D01*
X5025222Y14470000D01*
X16090182Y14470000D01*
X16094803Y14469787D01*
X16178530Y14462030D01*
X16189904Y14459613D01*
X16314624Y14417408D01*
X16321144Y14414674D01*
X16396038Y14376834D01*
X16400772Y14374106D01*
X16484877Y14319308D01*
X16494385Y14311251D01*
X16580696Y14217137D01*
X16588629Y14205557D01*
X16646428Y14088633D01*
X16649107Y14082084D01*
X16666262Y14029894D01*
X16668127Y14022209D01*
X16691872Y13873923D01*
X16692500Y13866028D01*
X16692500Y5817318D01*
X16692287Y5812697D01*
X16684530Y5728970D01*
X16682113Y5717596D01*
X16639908Y5592876D01*
X16637174Y5586356D01*
X16599334Y5511462D01*
X16596606Y5506728D01*
X16541808Y5422623D01*
X16533751Y5413115D01*
X16439637Y5326804D01*
X16428057Y5318871D01*
X16311133Y5261072D01*
X16304584Y5258393D01*
X16252394Y5241238D01*
X16244709Y5239373D01*
X16096423Y5215628D01*
X16088528Y5215000D01*
X13119818Y5215000D01*
X13119818Y500000D01*
X32113836Y500000D01*
X32113836Y16010000D01*
X32104104Y16010958D01*
X31922395Y16047102D01*
X31913047Y16049938D01*
X31851407Y16075469D01*
X31842791Y16080075D01*
X31688741Y16183008D01*
X31681187Y16189207D01*
X29524207Y18346187D01*
X29518008Y18353741D01*
X29415075Y18507791D01*
X29410469Y18516407D01*
X29384938Y18578047D01*
X29382102Y18587395D01*
X29345958Y18769104D01*
X29345000Y18778836D01*
X29345000Y21487682D01*
X29345213Y21492303D01*
X29352970Y21576030D01*
X29355386Y21587401D01*
X29357264Y21592950D01*
X29357807Y21655397D01*
X29321196Y21705990D01*
X29262539Y21725000D01*
X13119818Y21725000D01*
X13115197Y21725213D01*
X13031470Y21732970D01*
X13020096Y21735387D01*
X12895376Y21777592D01*
X12888856Y21780326D01*
X12813962Y21818166D01*
X12809228Y21820894D01*
X12725123Y21875692D01*
X12715615Y21883749D01*
X12629304Y21977863D01*
X12621371Y21989443D01*
X12563572Y22106367D01*
X12560893Y22112916D01*
X12543738Y22165106D01*
X12541873Y22172791D01*
X12518128Y22321077D01*
X12517500Y22328972D01*
X12517500Y30116164D01*
X12518458Y30125896D01*
X12554602Y30307605D01*
X12557438Y30316953D01*
X12582969Y30378593D01*
X12587575Y30387209D01*
X12690508Y30541259D01*
X12696707Y30548813D01*
X12948687Y30800793D01*
X12956241Y30806992D01*
X13110291Y30909925D01*
X13118907Y30914531D01*
X13180547Y30940062D01*
X13189895Y30942898D01*
X13371604Y30979042D01*
X13381336Y30980000D01*
X15987414Y30980000D01*
X15997146Y30979042D01*
X16178855Y30942898D01*
X16188203Y30940062D01*
X16249843Y30914531D01*
X16258459Y30909925D01*
X16412509Y30806992D01*
X16420063Y30800793D01*
X18592817Y28628039D01*
X18663528Y28598750D01*
X22019914Y28598750D01*
X22029646Y28597792D01*
X22122003Y28579421D01*
X22141512Y28577500D01*
X22503987Y28577500D01*
X22508752Y28575934D01*
X22520000Y28553672D01*
X22520000Y28393528D01*
X22549289Y28322817D01*
X22879067Y27993039D01*
X22949778Y27963750D01*
X24083664Y27963750D01*
X24093396Y27962792D01*
X24275105Y27926648D01*
X24284453Y27923812D01*
X24346093Y27898281D01*
X24354709Y27893675D01*
X24508759Y27790742D01*
X24516313Y27784543D01*
X26110138Y26190718D01*
X26110138Y28999656D01*
X26099778Y29000745D01*
X25936212Y29035511D01*
X25926294Y29038734D01*
X25773539Y29106746D01*
X25764510Y29111958D01*
X25629231Y29210243D01*
X25621480Y29217222D01*
X25509589Y29341490D01*
X25503467Y29349917D01*
X25419857Y29494733D01*
X25415616Y29504258D01*
X25363942Y29663295D01*
X25361776Y29673485D01*
X25344298Y29839786D01*
X25344298Y29850214D01*
X25361776Y30016514D01*
X25363942Y30026704D01*
X25415616Y30185741D01*
X25419857Y30195266D01*
X25503467Y30340082D01*
X25509589Y30348509D01*
X25621480Y30472777D01*
X25629231Y30479756D01*
X25764510Y30578041D01*
X25773539Y30583253D01*
X25926294Y30651265D01*
X25936212Y30654488D01*
X26099778Y30689254D01*
X26110138Y30690343D01*
X26277361Y30690343D01*
X26287721Y30689254D01*
X26328013Y30680689D01*
X26328013Y31645000D01*
X26323248Y31646566D01*
X26312000Y31668828D01*
X26312000Y32085000D01*
X26292500Y32144327D01*
X26212000Y32185000D01*
X24324763Y32185000D01*
X24319998Y32186566D01*
X24308750Y32208828D01*
X24308750Y34468987D01*
X24310316Y34473752D01*
X24332578Y34485000D01*
X25510157Y34485000D01*
X25546358Y34491783D01*
X25555482Y34495326D01*
X25617927Y34512321D01*
X25622569Y34513705D01*
X25684150Y34533714D01*
X25694339Y34535879D01*
X25702858Y34536775D01*
X25718661Y34539736D01*
X25726920Y34541983D01*
X25737202Y34543654D01*
X25801820Y34547294D01*
X25806649Y34547684D01*
X25873643Y34554726D01*
X25878872Y34555000D01*
X28598843Y34555000D01*
X28645983Y34566808D01*
X28664231Y34576562D01*
X28673269Y34580306D01*
X28851457Y34634359D01*
X28861052Y34636267D01*
X29046356Y34654518D01*
X29056144Y34654518D01*
X29241447Y34636267D01*
X29251042Y34634359D01*
X29429230Y34580306D01*
X29438268Y34576562D01*
X29602486Y34488786D01*
X29610618Y34483352D01*
X29754558Y34365223D01*
X29761473Y34358308D01*
X29879602Y34214368D01*
X29885036Y34206236D01*
X29972812Y34042018D01*
X29976556Y34032980D01*
X30030609Y33854792D01*
X30032517Y33845197D01*
X30050768Y33659894D01*
X30050768Y33650106D01*
X30032517Y33464802D01*
X30030609Y33455207D01*
X29976556Y33277019D01*
X29972812Y33267981D01*
X29885036Y33103763D01*
X29879602Y33095631D01*
X29761473Y32951691D01*
X29754558Y32944776D01*
X29610618Y32826647D01*
X29602486Y32821213D01*
X29438268Y32733437D01*
X29429230Y32729693D01*
X29251038Y32675639D01*
X29241456Y32673733D01*
X29056134Y32655481D01*
X29046366Y32655481D01*
X28956801Y32664302D01*
X28895848Y32650710D01*
X28854844Y32603607D01*
X28847000Y32564783D01*
X28847000Y31661013D01*
X28845434Y31656248D01*
X28823172Y31645000D01*
X26328013Y31645000D01*
X26328013Y30680689D01*
X26451287Y30654488D01*
X26461205Y30651265D01*
X26568158Y30603646D01*
X26608832Y30595000D01*
X27576686Y30595000D01*
X27582298Y30594685D01*
X27662666Y30585629D01*
X27673863Y30585000D01*
X28830987Y30585000D01*
X28835752Y30583434D01*
X28847000Y30561172D01*
X28847000Y29121013D01*
X28845434Y29116248D01*
X28823172Y29105000D01*
X27673866Y29105000D01*
X27662669Y29104371D01*
X27582298Y29095315D01*
X27576686Y29095000D01*
X26608837Y29095000D01*
X26568163Y29086355D01*
X26461196Y29038730D01*
X26451292Y29035512D01*
X26287721Y29000745D01*
X26277361Y28999656D01*
X26110138Y28999656D01*
X26110138Y26190718D01*
X27641567Y24659289D01*
X27712278Y24630000D01*
X29767537Y24630000D01*
X29826864Y24649500D01*
X29863054Y24700395D01*
X29861992Y24762836D01*
X29838248Y24800711D01*
X29728027Y24910932D01*
X29722440Y24917591D01*
X29602473Y25088922D01*
X29598124Y25096454D01*
X29509728Y25286019D01*
X29506755Y25294188D01*
X29452620Y25496222D01*
X29451109Y25504794D01*
X29432881Y25713145D01*
X29432881Y25721855D01*
X29451109Y25930205D01*
X29452620Y25938777D01*
X29506755Y26140811D01*
X29509728Y26148980D01*
X29598124Y26338545D01*
X29602472Y26346076D01*
X29722440Y26517408D01*
X29728029Y26524069D01*
X29875932Y26671972D01*
X29882591Y26677559D01*
X30004857Y26763170D01*
X30042271Y26813172D01*
X30047500Y26845085D01*
X30047500Y32699686D01*
X30047815Y32705299D01*
X30051588Y32738782D01*
X30052217Y32749978D01*
X30052217Y32780861D01*
X30053466Y32791946D01*
X30060338Y32822055D01*
X30062216Y32833110D01*
X30065675Y32863804D01*
X30068161Y32874696D01*
X30078363Y32903853D01*
X30081468Y32914629D01*
X30088339Y32944731D01*
X30092028Y32955272D01*
X30105421Y32983083D01*
X30109714Y32993447D01*
X30119919Y33022612D01*
X30124762Y33032670D01*
X30141197Y33058827D01*
X30146620Y33068640D01*
X30160019Y33096462D01*
X30165958Y33105915D01*
X30185215Y33130061D01*
X30191706Y33139209D01*
X30208137Y33165360D01*
X30215098Y33174089D01*
X30236947Y33195938D01*
X30244419Y33204300D01*
X30265426Y33230642D01*
X30269146Y33234805D01*
X31217695Y34183354D01*
X31221858Y34187074D01*
X31248200Y34208081D01*
X31256562Y34215553D01*
X31278415Y34237406D01*
X31287137Y34244361D01*
X31313293Y34260796D01*
X31322439Y34267285D01*
X31346588Y34286543D01*
X31356033Y34292478D01*
X31383867Y34305883D01*
X31393679Y34311306D01*
X31419828Y34327736D01*
X31430599Y34332923D01*
X31471655Y34379755D01*
X31501828Y34395000D01*
X31631612Y34395000D01*
X31653865Y34397507D01*
X31660557Y34399034D01*
X31671639Y34400283D01*
X31702522Y34400283D01*
X31713719Y34400912D01*
X31747202Y34404685D01*
X31752814Y34405000D01*
X32742686Y34405000D01*
X32748298Y34404685D01*
X32828666Y34395629D01*
X32839863Y34395000D01*
X33525000Y34395000D01*
X33584327Y34414500D01*
X33625000Y34495000D01*
X33625000Y35080000D01*
X33605500Y35139327D01*
X33525000Y35180000D01*
X33247263Y35180000D01*
X33242498Y35181566D01*
X33231250Y35203828D01*
X33231250Y35236250D01*
X33211750Y35295577D01*
X33131250Y35336250D01*
X25748460Y35336250D01*
X25689682Y35317152D01*
X25670490Y35303209D01*
X25661461Y35297996D01*
X25508705Y35229984D01*
X25498787Y35226761D01*
X25335221Y35191995D01*
X25324861Y35190906D01*
X25157638Y35190906D01*
X25147278Y35191995D01*
X24983712Y35226761D01*
X24973794Y35229984D01*
X24821039Y35297996D01*
X24812010Y35303208D01*
X24676731Y35401493D01*
X24668980Y35408472D01*
X24557089Y35532740D01*
X24550967Y35541167D01*
X24467357Y35685983D01*
X24463116Y35695508D01*
X24411442Y35854545D01*
X24409276Y35864735D01*
X24391798Y36031036D01*
X24391798Y36041464D01*
X24409276Y36207764D01*
X24411442Y36217954D01*
X24463116Y36376991D01*
X24467357Y36386516D01*
X24550967Y36531332D01*
X24557089Y36539759D01*
X24668980Y36664027D01*
X24676731Y36671006D01*
X24812010Y36769291D01*
X24821039Y36774503D01*
X24973794Y36842515D01*
X24983712Y36845738D01*
X25147278Y36880504D01*
X25157638Y36881593D01*
X25324861Y36881593D01*
X25335221Y36880504D01*
X25498787Y36845738D01*
X25508705Y36842515D01*
X25661461Y36774503D01*
X25670485Y36769294D01*
X25689679Y36755348D01*
X25748458Y36736250D01*
X33131250Y36736250D01*
X33190577Y36755750D01*
X33231250Y36836250D01*
X33231250Y36913987D01*
X33232816Y36918752D01*
X33255078Y36930000D01*
X36285237Y36930000D01*
X36290002Y36928434D01*
X36301250Y36906172D01*
X36301250Y35196013D01*
X36299684Y35191248D01*
X36279904Y35181254D01*
X36235745Y35137096D01*
X36225000Y35092000D01*
X36225000Y33912263D01*
X36223434Y33907498D01*
X36201172Y33896250D01*
X34113000Y33896250D01*
X34053673Y33876750D01*
X34013000Y33796250D01*
X34013000Y33235000D01*
X34032500Y33175673D01*
X34113000Y33135000D01*
X34922186Y33135000D01*
X34927798Y33134685D01*
X35086304Y33116824D01*
X35097199Y33114338D01*
X35132853Y33101862D01*
X35165880Y33096250D01*
X36208987Y33096250D01*
X36213752Y33094684D01*
X36225000Y33072422D01*
X36225000Y31062263D01*
X36223434Y31057498D01*
X36201172Y31046250D01*
X35775000Y31046250D01*
X35715673Y31026750D01*
X35675000Y30946250D01*
X35675000Y23606028D01*
X35694500Y23546701D01*
X35745395Y23510511D01*
X35807836Y23511573D01*
X35845711Y23535317D01*
X37567318Y25256924D01*
X37567318Y37600000D01*
X37562697Y37600213D01*
X37478970Y37607970D01*
X37467596Y37610387D01*
X37342876Y37652592D01*
X37336356Y37655326D01*
X37261462Y37693166D01*
X37256728Y37695894D01*
X37172628Y37750688D01*
X37160076Y37761326D01*
X37095424Y37785036D01*
X36901013Y37785036D01*
X36896248Y37786602D01*
X36885000Y37808864D01*
X36885000Y39969023D01*
X36886566Y39973788D01*
X36908828Y39985036D01*
X37335925Y39985036D01*
X37367150Y39990036D01*
X37405106Y40002512D01*
X37412791Y40004377D01*
X37561077Y40028122D01*
X37568972Y40028750D01*
X42421250Y40028750D01*
X42480577Y40048250D01*
X42521250Y40128750D01*
X42521250Y41367622D01*
X42518267Y41387726D01*
X42519098Y41387891D01*
X42516233Y41402293D01*
X42497981Y41587616D01*
X42497981Y41597384D01*
X42516233Y41782706D01*
X42519098Y41797108D01*
X42518267Y41797273D01*
X42521250Y41817377D01*
X42521250Y41966432D01*
X42521463Y41971053D01*
X42529220Y42054780D01*
X42531637Y42066154D01*
X42573842Y42190874D01*
X42576576Y42197394D01*
X42614416Y42272288D01*
X42617144Y42277022D01*
X42671942Y42361127D01*
X42679999Y42370635D01*
X42774113Y42456946D01*
X42785693Y42464879D01*
X42902617Y42522678D01*
X42909166Y42525357D01*
X42961356Y42542512D01*
X42969041Y42544377D01*
X43117327Y42568122D01*
X43125222Y42568750D01*
X43272626Y42568750D01*
X43292724Y42571731D01*
X43292889Y42570900D01*
X43307304Y42573767D01*
X43492606Y42592018D01*
X43502394Y42592018D01*
X43687695Y42573767D01*
X43702110Y42570900D01*
X43702275Y42571731D01*
X43722373Y42568750D01*
X49427682Y42568750D01*
X49432303Y42568537D01*
X49516030Y42560780D01*
X49527404Y42558363D01*
X49652124Y42516158D01*
X49658644Y42513424D01*
X49691348Y42496900D01*
X49736444Y42486154D01*
X50107855Y42486154D01*
X50112620Y42484588D01*
X50123868Y42462326D01*
X50123868Y37652167D01*
X50122302Y37647402D01*
X50100040Y37636154D01*
X49636074Y37636154D01*
X49604849Y37631154D01*
X49589894Y37626238D01*
X49582209Y37624373D01*
X49433923Y37600628D01*
X49426028Y37600000D01*
X37567318Y37600000D01*
X37567318Y25256924D01*
X37713687Y25403293D01*
X37721241Y25409492D01*
X37875291Y25512425D01*
X37883907Y25517031D01*
X37945547Y25542562D01*
X37954895Y25545398D01*
X38136604Y25581542D01*
X38146336Y25582500D01*
X59441472Y25582500D01*
X59512183Y25611789D01*
X62335711Y28435317D01*
X62365000Y28506028D01*
X62365000Y39585182D01*
X62365213Y39589803D01*
X62372970Y39673530D01*
X62375387Y39684904D01*
X62417592Y39809624D01*
X62420326Y39816144D01*
X62458166Y39891038D01*
X62460894Y39895772D01*
X62515692Y39979877D01*
X62523749Y39989385D01*
X62617863Y40075696D01*
X62629443Y40083629D01*
X62746367Y40141428D01*
X62752916Y40144107D01*
X62805106Y40161262D01*
X62812791Y40163127D01*
X62961077Y40186872D01*
X62968972Y40187500D01*
X66499010Y40187500D01*
X66558337Y40207000D01*
X66594527Y40257895D01*
X66593465Y40320336D01*
X66555342Y40370124D01*
X66539479Y40380939D01*
X66533651Y40385587D01*
X66347401Y40558403D01*
X66342328Y40563870D01*
X66183916Y40762512D01*
X66179712Y40768678D01*
X66052673Y40988715D01*
X66049436Y40995438D01*
X65956614Y41231944D01*
X65954415Y41239073D01*
X65897879Y41486775D01*
X65896766Y41494164D01*
X65877780Y41747514D01*
X65877780Y41754986D01*
X65896766Y42008335D01*
X65897879Y42015724D01*
X65954415Y42263426D01*
X65956614Y42270555D01*
X66049436Y42507061D01*
X66052673Y42513784D01*
X66179712Y42733821D01*
X66183916Y42739987D01*
X66342328Y42938629D01*
X66347401Y42944096D01*
X66533651Y43116912D01*
X66539479Y43121560D01*
X66749404Y43264683D01*
X66755874Y43268419D01*
X66984788Y43378658D01*
X66991727Y43381381D01*
X67234513Y43456270D01*
X67241786Y43457930D01*
X67493025Y43495799D01*
X67500460Y43496356D01*
X67754539Y43496356D01*
X67761974Y43495799D01*
X68013213Y43457930D01*
X68020486Y43456270D01*
X68263273Y43381381D01*
X68270212Y43378658D01*
X68499130Y43268417D01*
X68505590Y43264687D01*
X68715520Y43121560D01*
X68721348Y43116912D01*
X68907598Y42944096D01*
X68912671Y42938629D01*
X69071083Y42739987D01*
X69075287Y42733821D01*
X69202326Y42513784D01*
X69205563Y42507061D01*
X69298385Y42270555D01*
X69300584Y42263426D01*
X69357120Y42015724D01*
X69358233Y42008335D01*
X69377220Y41754986D01*
X69377220Y41747514D01*
X69358233Y41494164D01*
X69357120Y41486775D01*
X69300584Y41239073D01*
X69298385Y41231944D01*
X69205563Y40995438D01*
X69202326Y40988715D01*
X69075287Y40768678D01*
X69071083Y40762512D01*
X68912671Y40563870D01*
X68907598Y40558403D01*
X68721348Y40385587D01*
X68715520Y40380939D01*
X68699657Y40370124D01*
X68661623Y40320591D01*
X68660392Y40258154D01*
X68696444Y40207161D01*
X68755989Y40187500D01*
X70065182Y40187500D01*
X70069803Y40187287D01*
X70153530Y40179530D01*
X70164904Y40177113D01*
X70289624Y40134908D01*
X70296144Y40132174D01*
X70371038Y40094334D01*
X70375772Y40091606D01*
X70459877Y40036808D01*
X70469385Y40028750D01*
X70555696Y39934637D01*
X70563629Y39923057D01*
X70621428Y39806133D01*
X70624107Y39799584D01*
X70641262Y39747394D01*
X70643127Y39739709D01*
X70666872Y39591423D01*
X70667500Y39583528D01*
X70667500Y16612318D01*
X70667287Y16607697D01*
X70659530Y16523970D01*
X70657113Y16512596D01*
X70614908Y16387876D01*
X70612174Y16381356D01*
X70574334Y16306462D01*
X70571606Y16301728D01*
X70516808Y16217623D01*
X70508751Y16208115D01*
X70414637Y16121804D01*
X70403057Y16113871D01*
X70286133Y16056072D01*
X70279584Y16053393D01*
X70227394Y16036238D01*
X70219709Y16034373D01*
X70071423Y16010628D01*
X70063528Y16010000D01*
X32113836Y16010000D01*
X32113836Y500000D01*
X74346161Y500000D01*
X74346161Y27504933D01*
X74339906Y27505327D01*
X74034669Y27543886D01*
X74028499Y27545063D01*
X73730510Y27621574D01*
X73724533Y27623516D01*
X73438469Y27736777D01*
X73432801Y27739444D01*
X73163180Y27887670D01*
X73157893Y27891026D01*
X72908979Y28071871D01*
X72904154Y28075863D01*
X72679870Y28286480D01*
X72675573Y28291055D01*
X72479453Y28528123D01*
X72475780Y28533179D01*
X72310915Y28792964D01*
X72307896Y28798456D01*
X72176893Y29076851D01*
X72174589Y29082672D01*
X72079512Y29375290D01*
X72077954Y29381358D01*
X72020300Y29683589D01*
X72019516Y29689792D01*
X72000197Y29996869D01*
X72000197Y30003131D01*
X72019516Y30310207D01*
X72020300Y30316410D01*
X72077954Y30618641D01*
X72079512Y30624709D01*
X72174589Y30917327D01*
X72176893Y30923148D01*
X72307896Y31201543D01*
X72310915Y31207035D01*
X72475780Y31466820D01*
X72479453Y31471876D01*
X72675573Y31708944D01*
X72679870Y31713519D01*
X72904154Y31924136D01*
X72908979Y31928128D01*
X73157893Y32108973D01*
X73163180Y32112329D01*
X73432801Y32260555D01*
X73438469Y32263222D01*
X73724533Y32376483D01*
X73730510Y32378425D01*
X74028499Y32454936D01*
X74034669Y32456113D01*
X74339906Y32494672D01*
X74346161Y32495066D01*
X74653838Y32495066D01*
X74660093Y32494672D01*
X74965330Y32456113D01*
X74971500Y32454936D01*
X75269489Y32378425D01*
X75275466Y32376483D01*
X75561530Y32263222D01*
X75567198Y32260555D01*
X75836819Y32112329D01*
X75842106Y32108973D01*
X76091020Y31928128D01*
X76095845Y31924136D01*
X76320129Y31713519D01*
X76324426Y31708944D01*
X76520546Y31471876D01*
X76524219Y31466820D01*
X76689084Y31207035D01*
X76692103Y31201543D01*
X76823106Y30923148D01*
X76825410Y30917327D01*
X76920487Y30624709D01*
X76922045Y30618641D01*
X76979699Y30316410D01*
X76980483Y30310207D01*
X76999803Y30003131D01*
X76999803Y29996869D01*
X76980483Y29689792D01*
X76979699Y29683589D01*
X76922045Y29381358D01*
X76920487Y29375290D01*
X76825410Y29082672D01*
X76823106Y29076851D01*
X76692103Y28798456D01*
X76689084Y28792964D01*
X76524219Y28533179D01*
X76520546Y28528123D01*
X76324426Y28291055D01*
X76320129Y28286480D01*
X76095845Y28075863D01*
X76091020Y28071871D01*
X75842106Y27891026D01*
X75836819Y27887670D01*
X75567198Y27739444D01*
X75561530Y27736777D01*
X75275466Y27623516D01*
X75269489Y27621574D01*
X74971500Y27545063D01*
X74965330Y27543886D01*
X74660093Y27505327D01*
X74653838Y27504933D01*
X74346161Y27504933D01*
X74346161Y500000D01*
X85360103Y500000D01*
X85360103Y27904895D01*
X85353312Y27905359D01*
X85076118Y27943459D01*
X85069459Y27944843D01*
X84800043Y28020330D01*
X84793614Y28022615D01*
X84537001Y28134078D01*
X84530940Y28137218D01*
X84291894Y28282585D01*
X84286318Y28286521D01*
X84069288Y28463088D01*
X84064306Y28467741D01*
X83873339Y28672217D01*
X83869035Y28677508D01*
X83707687Y28906086D01*
X83704152Y28911898D01*
X83575422Y29160334D01*
X83572714Y29166570D01*
X83479019Y29430201D01*
X83477176Y29436780D01*
X83420255Y29710700D01*
X83419326Y29717459D01*
X83400233Y29996594D01*
X83400233Y30003406D01*
X83419326Y30282540D01*
X83420255Y30289299D01*
X83477176Y30563219D01*
X83479019Y30569798D01*
X83572714Y30833429D01*
X83575422Y30839665D01*
X83704152Y31088101D01*
X83707687Y31093913D01*
X83869035Y31322491D01*
X83873339Y31327782D01*
X84064306Y31532258D01*
X84069288Y31536911D01*
X84286318Y31713478D01*
X84291894Y31717414D01*
X84530940Y31862781D01*
X84537001Y31865921D01*
X84793614Y31977384D01*
X84800043Y31979669D01*
X85069459Y32055156D01*
X85076118Y32056540D01*
X85353312Y32094640D01*
X85360103Y32095104D01*
X85639896Y32095104D01*
X85646687Y32094640D01*
X85923881Y32056540D01*
X85930540Y32055156D01*
X86138519Y31996882D01*
X86138519Y36359781D01*
X86130313Y36360461D01*
X85910394Y36397159D01*
X85902415Y36399180D01*
X85691534Y36471576D01*
X85683990Y36474885D01*
X85487916Y36580994D01*
X85481003Y36585511D01*
X85305074Y36722441D01*
X85299001Y36728031D01*
X85148005Y36892058D01*
X85142944Y36898562D01*
X85019703Y37087195D01*
X84970929Y37126196D01*
X84935986Y37132500D01*
X78901778Y37132500D01*
X78895746Y37132865D01*
X78888192Y37133782D01*
X78870099Y37134328D01*
X78865547Y37134053D01*
X78853551Y37134778D01*
X78804611Y37143747D01*
X78798637Y37144656D01*
X78749195Y37150658D01*
X78737539Y37153531D01*
X78733249Y37155158D01*
X78715823Y37160016D01*
X78711322Y37160841D01*
X78699861Y37164413D01*
X78654480Y37184837D01*
X78648900Y37187149D01*
X78602332Y37204810D01*
X78591697Y37210391D01*
X78587927Y37212994D01*
X78572159Y37221888D01*
X78567992Y37223763D01*
X78557718Y37229974D01*
X78518543Y37260665D01*
X78513679Y37264244D01*
X78472696Y37292533D01*
X78463710Y37300495D01*
X78460675Y37303920D01*
X78447497Y37316325D01*
X78441507Y37321018D01*
X78437001Y37325010D01*
X75742510Y40019501D01*
X75738518Y40024007D01*
X75733825Y40029997D01*
X75721420Y40043175D01*
X75717995Y40046210D01*
X75710033Y40055196D01*
X75681753Y40096167D01*
X75678173Y40101033D01*
X75647469Y40140223D01*
X75641258Y40150497D01*
X75639378Y40154673D01*
X75630491Y40170431D01*
X75627889Y40174201D01*
X75622308Y40184835D01*
X75604656Y40231381D01*
X75602344Y40236963D01*
X75581912Y40282359D01*
X75578341Y40293820D01*
X75577516Y40298321D01*
X75572656Y40315757D01*
X75571029Y40320047D01*
X75568159Y40331694D01*
X75562157Y40381124D01*
X75561248Y40387096D01*
X75552276Y40436057D01*
X75551550Y40448040D01*
X75551827Y40452609D01*
X75551281Y40470704D01*
X75550365Y40478250D01*
X75550000Y40484279D01*
X75550000Y44505165D01*
X75524314Y44572078D01*
X75515842Y44581487D01*
X75509716Y44589918D01*
X75426107Y44734733D01*
X75421866Y44744258D01*
X75370192Y44903295D01*
X75368026Y44913485D01*
X75350548Y45079786D01*
X75350548Y45090214D01*
X75368026Y45256514D01*
X75370192Y45266704D01*
X75421866Y45425741D01*
X75426107Y45435266D01*
X75509717Y45580082D01*
X75515839Y45588509D01*
X75627730Y45712777D01*
X75635481Y45719756D01*
X75770760Y45818041D01*
X75779789Y45823253D01*
X75932544Y45891265D01*
X75942462Y45894488D01*
X76106028Y45929254D01*
X76116388Y45930343D01*
X76283611Y45930343D01*
X76293971Y45929254D01*
X76457537Y45894488D01*
X76467455Y45891265D01*
X76620211Y45823253D01*
X76629240Y45818041D01*
X76764518Y45719756D01*
X76772269Y45712777D01*
X76884160Y45588509D01*
X76890282Y45580082D01*
X76973892Y45435266D01*
X76978133Y45425741D01*
X77029807Y45266704D01*
X77031973Y45256514D01*
X77049452Y45090214D01*
X77049452Y45079786D01*
X77031973Y44913485D01*
X77029807Y44903295D01*
X76978133Y44744258D01*
X76973892Y44734733D01*
X76890283Y44589918D01*
X76884161Y44581492D01*
X76875685Y44572079D01*
X76850000Y44505166D01*
X76850000Y40791911D01*
X76879289Y40721200D01*
X79138700Y38461789D01*
X79209411Y38432500D01*
X84971920Y38432500D01*
X85031247Y38452000D01*
X85055637Y38477805D01*
X85142944Y38611437D01*
X85148005Y38617941D01*
X85299001Y38781968D01*
X85305074Y38787558D01*
X85481003Y38924488D01*
X85487916Y38929005D01*
X85683990Y39035114D01*
X85691534Y39038423D01*
X85902415Y39110819D01*
X85910394Y39112840D01*
X86130313Y39149538D01*
X86138519Y39150218D01*
X86138519Y39150218D01*
X86138519Y40849781D01*
X86130313Y40850461D01*
X85910394Y40887159D01*
X85902415Y40889180D01*
X85691534Y40961576D01*
X85683990Y40964885D01*
X85487916Y41070994D01*
X85481003Y41075511D01*
X85305074Y41212441D01*
X85299001Y41218031D01*
X85148005Y41382058D01*
X85142937Y41388570D01*
X85021000Y41575208D01*
X85017074Y41582461D01*
X84927519Y41786627D01*
X84924838Y41794435D01*
X84870109Y42010559D01*
X84868752Y42018689D01*
X84850342Y42240873D01*
X84850342Y42249127D01*
X84868752Y42471310D01*
X84870109Y42479440D01*
X84924838Y42695564D01*
X84927519Y42703372D01*
X85017074Y42907538D01*
X85021000Y42914791D01*
X85142937Y43101429D01*
X85148005Y43107941D01*
X85299001Y43271968D01*
X85305074Y43277558D01*
X85481003Y43414488D01*
X85487916Y43419005D01*
X85683990Y43525114D01*
X85691534Y43528423D01*
X85902415Y43600819D01*
X85910394Y43602840D01*
X86130313Y43639538D01*
X86138519Y43640218D01*
X86361480Y43640218D01*
X86369686Y43639538D01*
X86589605Y43602840D01*
X86597584Y43600819D01*
X86808465Y43528423D01*
X86816009Y43525114D01*
X87012083Y43419005D01*
X87018996Y43414488D01*
X87194925Y43277558D01*
X87200998Y43271968D01*
X87351994Y43107941D01*
X87357062Y43101429D01*
X87478999Y42914791D01*
X87482925Y42907538D01*
X87572480Y42703372D01*
X87575161Y42695564D01*
X87629890Y42479440D01*
X87631247Y42471310D01*
X87649658Y42249127D01*
X87649658Y42240873D01*
X87631247Y42018689D01*
X87629890Y42010559D01*
X87575161Y41794435D01*
X87572480Y41786627D01*
X87482925Y41582461D01*
X87478999Y41575208D01*
X87357062Y41388570D01*
X87351994Y41382058D01*
X87200998Y41218031D01*
X87194925Y41212441D01*
X87018996Y41075511D01*
X87012083Y41070994D01*
X86816009Y40964885D01*
X86808465Y40961576D01*
X86597584Y40889180D01*
X86589605Y40887159D01*
X86369686Y40850461D01*
X86361480Y40849781D01*
X86138519Y40849781D01*
X86138519Y39150218D01*
X86361480Y39150218D01*
X86369686Y39149538D01*
X86589605Y39112840D01*
X86597584Y39110819D01*
X86808465Y39038423D01*
X86816009Y39035114D01*
X87012083Y38929005D01*
X87018996Y38924488D01*
X87194925Y38787558D01*
X87200998Y38781968D01*
X87351994Y38617941D01*
X87357062Y38611429D01*
X87462330Y38450305D01*
X87511103Y38411304D01*
X87546046Y38405000D01*
X91453953Y38405000D01*
X91513280Y38424500D01*
X91537669Y38450305D01*
X91642937Y38611429D01*
X91648005Y38617941D01*
X91799001Y38781968D01*
X91805074Y38787558D01*
X91981003Y38924488D01*
X91987916Y38929005D01*
X92183990Y39035114D01*
X92191534Y39038423D01*
X92402415Y39110819D01*
X92410394Y39112840D01*
X92630313Y39149538D01*
X92638519Y39150218D01*
X92638519Y39150218D01*
X92638519Y40849781D01*
X92630313Y40850461D01*
X92410394Y40887159D01*
X92402415Y40889180D01*
X92191534Y40961576D01*
X92183990Y40964885D01*
X91987916Y41070994D01*
X91981003Y41075511D01*
X91805074Y41212441D01*
X91799001Y41218031D01*
X91648005Y41382058D01*
X91642937Y41388570D01*
X91521000Y41575208D01*
X91517074Y41582461D01*
X91427519Y41786627D01*
X91424838Y41794435D01*
X91370109Y42010559D01*
X91368752Y42018689D01*
X91350342Y42240873D01*
X91350342Y42249127D01*
X91368752Y42471310D01*
X91370109Y42479440D01*
X91424838Y42695564D01*
X91427519Y42703372D01*
X91517074Y42907538D01*
X91521000Y42914791D01*
X91642937Y43101429D01*
X91648005Y43107941D01*
X91799001Y43271968D01*
X91805074Y43277558D01*
X91981003Y43414488D01*
X91987916Y43419005D01*
X92183990Y43525114D01*
X92191534Y43528423D01*
X92402415Y43600819D01*
X92410394Y43602840D01*
X92630313Y43639538D01*
X92638519Y43640218D01*
X92861480Y43640218D01*
X92869686Y43639538D01*
X93089605Y43602840D01*
X93097584Y43600819D01*
X93308465Y43528423D01*
X93316009Y43525114D01*
X93512083Y43419005D01*
X93518996Y43414488D01*
X93694925Y43277558D01*
X93700998Y43271968D01*
X93851994Y43107941D01*
X93857062Y43101429D01*
X93978999Y42914791D01*
X93982925Y42907538D01*
X94072480Y42703372D01*
X94075161Y42695564D01*
X94129890Y42479440D01*
X94131247Y42471310D01*
X94149658Y42249127D01*
X94149658Y42240873D01*
X94131247Y42018689D01*
X94129890Y42010559D01*
X94075161Y41794435D01*
X94072480Y41786627D01*
X93982925Y41582461D01*
X93978999Y41575208D01*
X93857062Y41388570D01*
X93851994Y41382058D01*
X93700998Y41218031D01*
X93694925Y41212441D01*
X93518996Y41075511D01*
X93512083Y41070994D01*
X93316009Y40964885D01*
X93308465Y40961576D01*
X93097584Y40889180D01*
X93089605Y40887159D01*
X92869686Y40850461D01*
X92861480Y40849781D01*
X92638519Y40849781D01*
X92638519Y39150218D01*
X92861480Y39150218D01*
X92869686Y39149538D01*
X93089605Y39112840D01*
X93097584Y39110819D01*
X93308465Y39038423D01*
X93316009Y39035114D01*
X93512083Y38929005D01*
X93518996Y38924488D01*
X93694925Y38787558D01*
X93700998Y38781968D01*
X93851994Y38617941D01*
X93857062Y38611429D01*
X93978999Y38424791D01*
X93982925Y38417538D01*
X94072480Y38213372D01*
X94075161Y38205564D01*
X94129890Y37989440D01*
X94131247Y37981310D01*
X94149658Y37759127D01*
X94149658Y37750873D01*
X94131247Y37528689D01*
X94129890Y37520559D01*
X94075161Y37304435D01*
X94072480Y37296627D01*
X93982925Y37092461D01*
X93978999Y37085208D01*
X93857062Y36898570D01*
X93851994Y36892058D01*
X93700998Y36728031D01*
X93694925Y36722441D01*
X93518996Y36585511D01*
X93512083Y36580994D01*
X93316009Y36474885D01*
X93308465Y36471576D01*
X93097584Y36399180D01*
X93089605Y36397159D01*
X92869686Y36360461D01*
X92861480Y36359781D01*
X92638519Y36359781D01*
X92630313Y36360461D01*
X92410394Y36397159D01*
X92402415Y36399180D01*
X92191534Y36471576D01*
X92183990Y36474885D01*
X91987916Y36580994D01*
X91981003Y36585511D01*
X91805074Y36722441D01*
X91799001Y36728031D01*
X91648005Y36892058D01*
X91642937Y36898570D01*
X91537668Y37059695D01*
X91488894Y37098696D01*
X91453952Y37105000D01*
X87546047Y37105000D01*
X87486720Y37085500D01*
X87462331Y37059695D01*
X87357062Y36898570D01*
X87351994Y36892058D01*
X87200998Y36728031D01*
X87194925Y36722441D01*
X87018996Y36585511D01*
X87012083Y36580994D01*
X86816009Y36474885D01*
X86808465Y36471576D01*
X86597584Y36399180D01*
X86589605Y36397159D01*
X86369686Y36360461D01*
X86361480Y36359781D01*
X86138519Y36359781D01*
X86138519Y31996882D01*
X86199956Y31979669D01*
X86206385Y31977384D01*
X86462998Y31865921D01*
X86469059Y31862781D01*
X86708105Y31717414D01*
X86713681Y31713478D01*
X86930711Y31536911D01*
X86935693Y31532258D01*
X87126660Y31327782D01*
X87130964Y31322491D01*
X87292312Y31093913D01*
X87295847Y31088101D01*
X87424577Y30839665D01*
X87427285Y30833429D01*
X87520980Y30569798D01*
X87522823Y30563219D01*
X87579744Y30289299D01*
X87580673Y30282540D01*
X87599767Y30003406D01*
X87599767Y29996594D01*
X87580673Y29717459D01*
X87579744Y29710700D01*
X87522823Y29436780D01*
X87520980Y29430201D01*
X87427285Y29166570D01*
X87424577Y29160334D01*
X87295847Y28911898D01*
X87292312Y28906086D01*
X87130964Y28677508D01*
X87126660Y28672217D01*
X86935693Y28467741D01*
X86930711Y28463088D01*
X86713681Y28286521D01*
X86708105Y28282585D01*
X86469059Y28137218D01*
X86462998Y28134078D01*
X86206385Y28022615D01*
X86199956Y28020330D01*
X85930540Y27944843D01*
X85923881Y27943459D01*
X85646687Y27905359D01*
X85639896Y27904895D01*
X85360103Y27904895D01*
X85360103Y500000D01*
X119400000Y500000D01*
X119459327Y519500D01*
G37*
G36*
X10738091Y65528646D02*
X10845044Y65576265D01*
X10854962Y65579488D01*
X11018528Y65614254D01*
X11028888Y65615343D01*
X11126250Y65615343D01*
X11185577Y65634843D01*
X11226250Y65715343D01*
X11226250Y67393987D01*
X11227816Y67398752D01*
X11250078Y67410000D01*
X12076250Y67410000D01*
X12135577Y67429500D01*
X12176250Y67510000D01*
X12176250Y69593987D01*
X12177816Y69598752D01*
X12221346Y69620746D01*
X12265505Y69664905D01*
X12276250Y69710000D01*
X12276250Y70036767D01*
X12267827Y70076937D01*
X12217517Y70191633D01*
X12214839Y70199432D01*
X12160109Y70415559D01*
X12158752Y70423689D01*
X12140171Y70647940D01*
X12140000Y70652061D01*
X12140000Y71347939D01*
X12140171Y71352060D01*
X12158752Y71576310D01*
X12160109Y71584440D01*
X12214838Y71800564D01*
X12217519Y71808372D01*
X12307074Y72012538D01*
X12311000Y72019791D01*
X12432937Y72206429D01*
X12438005Y72212941D01*
X12589001Y72376968D01*
X12595074Y72382558D01*
X12666421Y72438089D01*
X12705000Y72517003D01*
X12705000Y72766250D01*
X12685500Y72825577D01*
X12605000Y72866250D01*
X10715122Y72866250D01*
X10644411Y72836961D01*
X9778039Y71970589D01*
X9748750Y71899878D01*
X9748750Y69710000D01*
X9768250Y69650673D01*
X9848750Y69610000D01*
X10826487Y69610000D01*
X10831252Y69608434D01*
X10842500Y69586172D01*
X10842500Y67226013D01*
X10840934Y67221248D01*
X10818672Y67210000D01*
X9992500Y67210000D01*
X9933173Y67190500D01*
X9892500Y67110000D01*
X9892500Y65620000D01*
X9912000Y65560673D01*
X9992500Y65520000D01*
X10697417Y65520000D01*
X10738091Y65528646D01*
G37*
G36*
X14961586Y63590666D02*
X14999461Y63614410D01*
X18320711Y66935660D01*
X18350000Y67006371D01*
X18350000Y68566129D01*
X18320711Y68636840D01*
X18127001Y68830550D01*
X18123281Y68834713D01*
X18104026Y68858858D01*
X18096554Y68867220D01*
X18076690Y68887084D01*
X18069728Y68895814D01*
X18054788Y68919591D01*
X18048298Y68928738D01*
X18030794Y68950688D01*
X18024855Y68960139D01*
X18012676Y68985428D01*
X18007254Y68995239D01*
X17992306Y69019030D01*
X17987467Y69029078D01*
X17978188Y69055596D01*
X17973897Y69065956D01*
X17961720Y69091243D01*
X17958031Y69101783D01*
X17951785Y69129151D01*
X17948680Y69139929D01*
X17939406Y69166433D01*
X17936921Y69177319D01*
X17933777Y69205221D01*
X17931899Y69216275D01*
X17925651Y69243650D01*
X17924402Y69254737D01*
X17924402Y69282817D01*
X17923773Y69294013D01*
X17920315Y69324701D01*
X17920000Y69330314D01*
X17920000Y69382809D01*
X17900500Y69442136D01*
X17867594Y69470757D01*
X17857911Y69475997D01*
X17851003Y69480511D01*
X17675074Y69617441D01*
X17669001Y69623031D01*
X17518005Y69787058D01*
X17512944Y69793562D01*
X17433717Y69914827D01*
X17384943Y69953828D01*
X17322541Y69956288D01*
X17266284Y69914827D01*
X17187062Y69793570D01*
X17181994Y69787058D01*
X17030998Y69623031D01*
X17024925Y69617441D01*
X16848993Y69480508D01*
X16842085Y69475994D01*
X16832405Y69470756D01*
X16789509Y69425370D01*
X16780000Y69382809D01*
X16780000Y69105314D01*
X16779685Y69099702D01*
X16776227Y69069014D01*
X16775598Y69057817D01*
X16775598Y69029738D01*
X16774349Y69018651D01*
X16768100Y68991272D01*
X16766222Y68980219D01*
X16763078Y68952320D01*
X16760593Y68941432D01*
X16751321Y68914935D01*
X16748216Y68904157D01*
X16741968Y68876782D01*
X16738280Y68866241D01*
X16726099Y68840947D01*
X16721808Y68830587D01*
X16712533Y68804081D01*
X16707693Y68794030D01*
X16692748Y68770246D01*
X16687323Y68760430D01*
X16675144Y68735140D01*
X16669206Y68725690D01*
X16651702Y68703740D01*
X16645212Y68694592D01*
X16630274Y68670818D01*
X16623309Y68662084D01*
X16603449Y68642224D01*
X16595977Y68633862D01*
X16576719Y68609713D01*
X16572999Y68605550D01*
X15969289Y68001840D01*
X15940000Y67931129D01*
X15940000Y65249064D01*
X15939685Y65243452D01*
X15936226Y65212755D01*
X15935597Y65201558D01*
X15935597Y65173486D01*
X15934348Y65162401D01*
X15928100Y65135026D01*
X15926222Y65123971D01*
X15923078Y65096070D01*
X15920593Y65085178D01*
X15911319Y65058674D01*
X15908216Y65047902D01*
X15901970Y65020537D01*
X15898279Y65009992D01*
X15886101Y64984705D01*
X15881808Y64974341D01*
X15872533Y64947832D01*
X15867690Y64937776D01*
X15852750Y64913999D01*
X15847325Y64904183D01*
X15835142Y64878885D01*
X15829206Y64869437D01*
X15811697Y64847481D01*
X15805209Y64838337D01*
X15790269Y64814561D01*
X15783313Y64805838D01*
X15763453Y64785978D01*
X15755981Y64777616D01*
X15736719Y64753462D01*
X15732999Y64749299D01*
X14858039Y63874339D01*
X14828750Y63803628D01*
X14828750Y63685121D01*
X14848250Y63625794D01*
X14899145Y63589604D01*
X14961586Y63590666D01*
G37*
G36*
X27793077Y67377000D02*
X27833750Y67457500D01*
X27833750Y68785237D01*
X27835316Y68790002D01*
X27843498Y68794136D01*
X27887656Y68838295D01*
X27897853Y68872936D01*
X27901776Y68910257D01*
X27903945Y68920461D01*
X27955616Y69079491D01*
X27959857Y69089016D01*
X28043467Y69233832D01*
X28049593Y69242264D01*
X28095717Y69293490D01*
X28120924Y69350627D01*
X28107317Y69411577D01*
X28068997Y69448351D01*
X28017911Y69475997D01*
X28011003Y69480511D01*
X27835074Y69617441D01*
X27829001Y69623031D01*
X27678005Y69787058D01*
X27672937Y69793570D01*
X27593715Y69914827D01*
X27544941Y69953829D01*
X27482540Y69956288D01*
X27426282Y69914827D01*
X27347055Y69793562D01*
X27341994Y69787058D01*
X27190998Y69623031D01*
X27184925Y69617441D01*
X27008996Y69480511D01*
X27002083Y69475994D01*
X26806009Y69369885D01*
X26798465Y69366576D01*
X26587584Y69294180D01*
X26579605Y69292159D01*
X26359686Y69255461D01*
X26351480Y69254781D01*
X26128519Y69254781D01*
X26120313Y69255461D01*
X25900394Y69292159D01*
X25892415Y69294180D01*
X25681534Y69366576D01*
X25673990Y69369885D01*
X25477916Y69475994D01*
X25471003Y69480511D01*
X25295074Y69617441D01*
X25289001Y69623031D01*
X25138005Y69787058D01*
X25132937Y69793570D01*
X25053715Y69914827D01*
X25004941Y69953829D01*
X24942540Y69956288D01*
X24886282Y69914827D01*
X24807055Y69793562D01*
X24801994Y69787058D01*
X24650998Y69623031D01*
X24644925Y69617441D01*
X24468996Y69480511D01*
X24462083Y69475994D01*
X24266009Y69369885D01*
X24258465Y69366576D01*
X24047584Y69294180D01*
X24039605Y69292159D01*
X23819686Y69255461D01*
X23811480Y69254781D01*
X23588519Y69254781D01*
X23580313Y69255461D01*
X23360394Y69292159D01*
X23352415Y69294180D01*
X23141534Y69366576D01*
X23133990Y69369885D01*
X22937916Y69475994D01*
X22931003Y69480511D01*
X22755074Y69617441D01*
X22749001Y69623031D01*
X22598005Y69787058D01*
X22592937Y69793570D01*
X22513715Y69914827D01*
X22464941Y69953829D01*
X22402540Y69956288D01*
X22346282Y69914827D01*
X22267055Y69793562D01*
X22261994Y69787058D01*
X22110998Y69623031D01*
X22104925Y69617441D01*
X21928996Y69480511D01*
X21922083Y69475994D01*
X21726009Y69369885D01*
X21718465Y69366576D01*
X21507584Y69294180D01*
X21499605Y69292159D01*
X21279686Y69255461D01*
X21271480Y69254781D01*
X21048520Y69254781D01*
X21040313Y69255461D01*
X20977710Y69265908D01*
X20915982Y69256439D01*
X20871908Y69212195D01*
X20861250Y69167272D01*
X20861250Y68475511D01*
X20880750Y68416184D01*
X20931645Y68379994D01*
X20994086Y68381056D01*
X21029267Y68402206D01*
X21153500Y68517478D01*
X21159328Y68522126D01*
X21356910Y68656834D01*
X21363371Y68660564D01*
X21578809Y68764314D01*
X21585771Y68767046D01*
X21814260Y68837527D01*
X21821544Y68839189D01*
X22057998Y68874829D01*
X22065433Y68875386D01*
X22304566Y68875386D01*
X22312001Y68874829D01*
X22548455Y68839189D01*
X22555739Y68837527D01*
X22784228Y68767046D01*
X22791190Y68764314D01*
X23006630Y68660564D01*
X23013090Y68656834D01*
X23210671Y68522126D01*
X23216499Y68517478D01*
X23391793Y68354829D01*
X23396866Y68349362D01*
X23545959Y68162405D01*
X23552274Y68153143D01*
X23553826Y68154201D01*
X23595220Y68117160D01*
X23635214Y68108776D01*
X23793663Y68108638D01*
X23853007Y68128086D01*
X23893750Y68208638D01*
X23893750Y68291487D01*
X23895316Y68296252D01*
X23917578Y68307500D01*
X26277737Y68307500D01*
X26282502Y68305934D01*
X26293750Y68283672D01*
X26293750Y67457500D01*
X26313250Y67398173D01*
X26393750Y67357500D01*
X27733750Y67357500D01*
X27793077Y67377000D01*
G37*
G36*
X24962836Y58510666D02*
X25000711Y58534410D01*
X29115711Y62649410D01*
X29145000Y62720121D01*
X29145000Y65401250D01*
X29125500Y65460577D01*
X29045000Y65501250D01*
X28593750Y65501250D01*
X28534423Y65481750D01*
X28493750Y65401250D01*
X28493750Y65373513D01*
X28492184Y65368748D01*
X28469922Y65357500D01*
X26393750Y65357500D01*
X26334423Y65338000D01*
X26293750Y65257500D01*
X26293750Y64423513D01*
X26292184Y64418748D01*
X26269922Y64407500D01*
X23909763Y64407500D01*
X23904998Y64409066D01*
X23893750Y64431328D01*
X23893750Y64606963D01*
X23874250Y64666290D01*
X23793709Y64706963D01*
X23361663Y64706784D01*
X23302343Y64687259D01*
X23266174Y64636349D01*
X23275101Y64556784D01*
X23316392Y64485266D01*
X23320633Y64475741D01*
X23372307Y64316704D01*
X23374473Y64306514D01*
X23391952Y64140214D01*
X23391952Y64129786D01*
X23374473Y63963485D01*
X23372307Y63953295D01*
X23320633Y63794259D01*
X23316390Y63784729D01*
X23255898Y63679955D01*
X23242500Y63629955D01*
X23242500Y62915449D01*
X23262000Y62856122D01*
X23312895Y62819932D01*
X23375336Y62820994D01*
X23429102Y62865448D01*
X23439714Y62883829D01*
X23445839Y62892259D01*
X23557730Y63016527D01*
X23565481Y63023506D01*
X23700760Y63121791D01*
X23709789Y63127003D01*
X23862544Y63195015D01*
X23872462Y63198238D01*
X24036028Y63233004D01*
X24046388Y63234093D01*
X24213611Y63234093D01*
X24223971Y63233004D01*
X24387537Y63198238D01*
X24397455Y63195015D01*
X24550211Y63127003D01*
X24559240Y63121791D01*
X24694518Y63023506D01*
X24702269Y63016527D01*
X24814160Y62892259D01*
X24820282Y62883832D01*
X24903892Y62739016D01*
X24908133Y62729491D01*
X24959807Y62570454D01*
X24961973Y62560264D01*
X24979452Y62393964D01*
X24979452Y62383536D01*
X24961973Y62217235D01*
X24959807Y62207045D01*
X24908133Y62048009D01*
X24903890Y62038479D01*
X24843398Y61933705D01*
X24830000Y61883705D01*
X24830000Y58605121D01*
X24849500Y58545794D01*
X24900395Y58509604D01*
X24962836Y58510666D01*
G37*
G36*
X26041586Y49834955D02*
X26079461Y49858699D01*
X31546961Y55326199D01*
X31576250Y55396910D01*
X31576250Y60666129D01*
X31556750Y60725456D01*
X31505855Y60761646D01*
X31443414Y60760584D01*
X31405539Y60736840D01*
X24313039Y53644340D01*
X24283750Y53573629D01*
X24283750Y53491593D01*
X24303250Y53432266D01*
X24383750Y53391593D01*
X24531111Y53391593D01*
X24541471Y53390504D01*
X24705037Y53355738D01*
X24714955Y53352515D01*
X24867711Y53284503D01*
X24876740Y53279291D01*
X25012018Y53181006D01*
X25019769Y53174027D01*
X25131660Y53049759D01*
X25137782Y53041332D01*
X25221392Y52896516D01*
X25225633Y52886991D01*
X25277307Y52727954D01*
X25279473Y52717764D01*
X25296952Y52551464D01*
X25296952Y52541036D01*
X25280287Y52382479D01*
X25293479Y52321438D01*
X25358948Y52274211D01*
X25498787Y52244488D01*
X25508705Y52241265D01*
X25661461Y52173253D01*
X25670490Y52168041D01*
X25805768Y52069756D01*
X25813519Y52062777D01*
X25925410Y51938509D01*
X25931532Y51930082D01*
X26015142Y51785266D01*
X26019383Y51775741D01*
X26071057Y51616704D01*
X26073223Y51606514D01*
X26090702Y51440214D01*
X26090702Y51429786D01*
X26073223Y51263485D01*
X26071057Y51253295D01*
X26019383Y51094258D01*
X26015142Y51084733D01*
X25931532Y50939917D01*
X25925406Y50931485D01*
X25909435Y50913747D01*
X25883750Y50846835D01*
X25883750Y50543230D01*
X25894496Y50498134D01*
X25908750Y50469922D01*
X25908750Y49929410D01*
X25928250Y49870083D01*
X25979145Y49833893D01*
X26041586Y49834955D01*
G37*
G36*
X18693077Y47988250D02*
X18733750Y48068750D01*
X18733750Y49366752D01*
X18733588Y49372436D01*
X18705578Y49864434D01*
X18682738Y49922557D01*
X18605740Y49958750D01*
X18072263Y49958750D01*
X18067498Y49960316D01*
X18056250Y49982578D01*
X18056250Y54113750D01*
X18055464Y54113750D01*
X18055464Y54157796D01*
X18031175Y54197282D01*
X16586961Y55641496D01*
X16531221Y55669658D01*
X16469643Y55659260D01*
X16426242Y55614356D01*
X16416250Y55570785D01*
X16416250Y49861370D01*
X16445539Y49790659D01*
X16807460Y49428738D01*
X16857380Y49401634D01*
X16926287Y49386988D01*
X16936205Y49383765D01*
X17088961Y49315753D01*
X17097990Y49310541D01*
X17233268Y49212256D01*
X17241019Y49205277D01*
X17352910Y49081009D01*
X17359032Y49072582D01*
X17442642Y48927766D01*
X17446883Y48918241D01*
X17498557Y48759204D01*
X17500723Y48749014D01*
X17518202Y48582714D01*
X17518202Y48572286D01*
X17500723Y48405985D01*
X17498557Y48395795D01*
X17446883Y48236758D01*
X17442639Y48227226D01*
X17380010Y48118750D01*
X17367233Y48057621D01*
X17393215Y48000832D01*
X17466612Y47968750D01*
X18633750Y47968750D01*
X18693077Y47988250D01*
G37*
G36*
X13888077Y42770750D02*
X13928750Y42851250D01*
X13928750Y44743472D01*
X13900510Y44813117D01*
X12076012Y46693023D01*
X12020700Y46722016D01*
X11958973Y46712540D01*
X11914905Y46668291D01*
X11907312Y46598830D01*
X11949890Y46430690D01*
X11951247Y46422560D01*
X11969658Y46200377D01*
X11969658Y46192123D01*
X11951247Y45969939D01*
X11949890Y45961809D01*
X11895161Y45745685D01*
X11892480Y45737877D01*
X11802925Y45533711D01*
X11798999Y45526458D01*
X11677062Y45339820D01*
X11671994Y45333308D01*
X11520998Y45169281D01*
X11514925Y45163691D01*
X11338993Y45026758D01*
X11332089Y45022247D01*
X11317212Y45014196D01*
X11274317Y44968809D01*
X11266713Y44906824D01*
X11317214Y44838301D01*
X11332088Y44830252D01*
X11338996Y44825738D01*
X11514925Y44688808D01*
X11520998Y44683218D01*
X11671994Y44519191D01*
X11677062Y44512679D01*
X11798999Y44326041D01*
X11802925Y44318788D01*
X11892480Y44114622D01*
X11895161Y44106814D01*
X11949890Y43890690D01*
X11951247Y43882560D01*
X11969658Y43660377D01*
X11969658Y43652123D01*
X11951247Y43429939D01*
X11949890Y43421809D01*
X11913727Y43279002D01*
X11918066Y43216703D01*
X11939956Y43183743D01*
X12343160Y42780539D01*
X12413871Y42751250D01*
X13828750Y42751250D01*
X13888077Y42770750D01*
G37*
G36*
X81855577Y44802000D02*
X81896250Y44882500D01*
X81896250Y46240000D01*
X81876750Y46299327D01*
X81796250Y46340000D01*
X80391911Y46340000D01*
X80332584Y46320500D01*
X80296394Y46269605D01*
X80297456Y46207164D01*
X80321200Y46169289D01*
X81678700Y44811789D01*
X81749411Y44782500D01*
X81796250Y44782500D01*
X81855577Y44802000D01*
G37*
G36*
X23709987Y42213250D02*
X23746177Y42264145D01*
X23745115Y42326586D01*
X23720328Y42365489D01*
X21675683Y44351105D01*
X21619537Y44378448D01*
X21558117Y44367149D01*
X21519413Y44329366D01*
X21486537Y44272424D01*
X21480410Y44263990D01*
X21368519Y44139722D01*
X21360768Y44132743D01*
X21225490Y44034458D01*
X21216461Y44029246D01*
X21063705Y43961234D01*
X21053787Y43958011D01*
X20984880Y43943365D01*
X20934960Y43916261D01*
X20569450Y43550751D01*
X20565287Y43547031D01*
X20541138Y43527773D01*
X20532776Y43520301D01*
X20512914Y43500439D01*
X20504188Y43493481D01*
X20480411Y43478541D01*
X20471265Y43472051D01*
X20449310Y43454542D01*
X20439864Y43448607D01*
X20414571Y43436426D01*
X20404760Y43431004D01*
X20380969Y43416056D01*
X20370921Y43411217D01*
X20344403Y43401938D01*
X20334043Y43397647D01*
X20308756Y43385470D01*
X20298216Y43381781D01*
X20270848Y43375535D01*
X20260067Y43372429D01*
X20254175Y43370367D01*
X20204619Y43332364D01*
X20187272Y43272372D01*
X20228428Y43195079D01*
X20249516Y43179758D01*
X20257269Y43172777D01*
X20369160Y43048509D01*
X20375282Y43040082D01*
X20442584Y42923512D01*
X20489136Y42881883D01*
X20551307Y42875989D01*
X20603502Y42906599D01*
X20700230Y43014027D01*
X20707981Y43021006D01*
X20843260Y43119291D01*
X20852289Y43124503D01*
X21005044Y43192515D01*
X21014962Y43195738D01*
X21178528Y43230504D01*
X21188888Y43231593D01*
X21356111Y43231593D01*
X21366471Y43230504D01*
X21530037Y43195738D01*
X21539955Y43192515D01*
X21692711Y43124503D01*
X21701740Y43119291D01*
X21837018Y43021006D01*
X21844769Y43014027D01*
X21956660Y42889759D01*
X21962782Y42881332D01*
X22046392Y42736516D01*
X22050633Y42726991D01*
X22102307Y42567954D01*
X22104473Y42557764D01*
X22121952Y42391464D01*
X22121952Y42381036D01*
X22113876Y42304203D01*
X22127067Y42243163D01*
X22173900Y42201851D01*
X22213328Y42193750D01*
X23650660Y42193750D01*
X23709987Y42213250D01*
G37*
G36*
X49489327Y38119500D02*
X49530000Y38200000D01*
X49530000Y41968750D01*
X49510500Y42028077D01*
X49430000Y42068750D01*
X43121250Y42068750D01*
X43061923Y42049250D01*
X43021250Y41968750D01*
X43021250Y39544763D01*
X43019684Y39539998D01*
X42997422Y39528750D01*
X37565000Y39528750D01*
X37505673Y39509250D01*
X37465000Y39428750D01*
X37465000Y38200000D01*
X37484500Y38140673D01*
X37565000Y38100000D01*
X49430000Y38100000D01*
X49489327Y38119500D01*
G37*
G36*
X32979327Y22244500D02*
X33020000Y22325000D01*
X33020000Y24030000D01*
X33000500Y24089327D01*
X32920000Y24130000D01*
X27483641Y24130000D01*
X27449686Y24144064D01*
X24159289Y27434461D01*
X24088578Y27463750D01*
X22721141Y27463750D01*
X22687186Y27477814D01*
X22095539Y28069461D01*
X22024828Y28098750D01*
X18434891Y28098750D01*
X18400936Y28112814D01*
X16063039Y30450711D01*
X15992328Y30480000D01*
X13376422Y30480000D01*
X13305711Y30450711D01*
X13046789Y30191789D01*
X13017500Y30121078D01*
X13017500Y22325000D01*
X13037000Y22265673D01*
X13117500Y22225000D01*
X32920000Y22225000D01*
X32979327Y22244500D01*
G37*
G36*
X16151827Y5734500D02*
X16192500Y5815000D01*
X16192500Y13870000D01*
X16173000Y13929327D01*
X16092500Y13970000D01*
X5021250Y13970000D01*
X4961923Y13950500D01*
X4921250Y13870000D01*
X4921250Y11212500D01*
X4940750Y11153173D01*
X5021250Y11112500D01*
X9822609Y11112500D01*
X9856564Y11098436D01*
X13003436Y7951564D01*
X13017500Y7917609D01*
X13017500Y5815000D01*
X13037000Y5755673D01*
X13117500Y5715000D01*
X16092500Y5715000D01*
X16151827Y5734500D01*
G37*
G36*
X9643077Y16212000D02*
X9683750Y16292500D01*
X9683750Y25935000D01*
X9664250Y25994327D01*
X9583750Y26035000D01*
X6450000Y26035000D01*
X6390673Y26015500D01*
X6350000Y25935000D01*
X6350000Y20974891D01*
X6335936Y20940936D01*
X4950539Y19555539D01*
X4921250Y19484828D01*
X4921250Y16292500D01*
X4940750Y16233173D01*
X5021250Y16192500D01*
X9583750Y16192500D01*
X9643077Y16212000D01*
G37*
G36*
X61395577Y54629500D02*
X61436250Y54710000D01*
X61436250Y59828859D01*
X61450314Y59862814D01*
X62215936Y60628436D01*
X62249891Y60642500D01*
X65998578Y60642500D01*
X66069289Y60671789D01*
X68709461Y63311961D01*
X68738750Y63382672D01*
X68738750Y72211359D01*
X68752814Y72245314D01*
X71090711Y74583211D01*
X71120000Y74653922D01*
X71120000Y81556078D01*
X71090711Y81626789D01*
X69561789Y83155711D01*
X69491078Y83185000D01*
X38119891Y83185000D01*
X38085936Y83199064D01*
X35891564Y85393436D01*
X35877500Y85427391D01*
X35877500Y91657500D01*
X35858000Y91716827D01*
X35777500Y91757500D01*
X28298922Y91757500D01*
X28228211Y91728211D01*
X27016789Y90516789D01*
X26987500Y90446078D01*
X26987500Y81003922D01*
X27016789Y80933211D01*
X31403211Y76546789D01*
X31473922Y76517500D01*
X58876359Y76517500D01*
X58910314Y76503436D01*
X59834686Y75579064D01*
X59848750Y75545109D01*
X59848750Y54710000D01*
X59868250Y54650673D01*
X59948750Y54610000D01*
X61336250Y54610000D01*
X61395577Y54629500D01*
G37*
G36*
X18055853Y80506253D02*
X18097500Y80587462D01*
X18097500Y83561250D01*
X18078000Y83620577D01*
X17997500Y83661250D01*
X5021250Y83661250D01*
X4961923Y83641750D01*
X4921250Y83561250D01*
X4921250Y80743803D01*
X4940750Y80684476D01*
X5020045Y80643810D01*
X17996295Y80487469D01*
X18055853Y80506253D01*
G37*
G36*
X49489327Y48279500D02*
X49530000Y48360000D01*
X49530000Y51970000D01*
X49510500Y52029327D01*
X49430000Y52070000D01*
X40977391Y52070000D01*
X40943436Y52084064D01*
X40669289Y52358211D01*
X40598578Y52387500D01*
X39787500Y52387500D01*
X39728173Y52368000D01*
X39687500Y52287500D01*
X39687500Y51772391D01*
X39673436Y51738436D01*
X39081789Y51146789D01*
X39052500Y51076078D01*
X39052500Y50184891D01*
X39038436Y50150936D01*
X38764289Y49876789D01*
X38735000Y49806078D01*
X38735000Y48360000D01*
X38754500Y48300673D01*
X38835000Y48260000D01*
X49430000Y48260000D01*
X49489327Y48279500D01*
G37*
G04 --- BOARD END --- *
%TF.MD5,c5f7639ae49a7ac96f2a2352f6566c85*%
M02*
