G04 --- HEADER BEGIN --- *
%TF.GenerationSoftware,LibrePCB,LibrePCB,0.1.1-unstable*%
%TF.CreationDate,2019-08-06T14:54:38*%
%TF.ProjectId,Hydro Battery Charger - default,71762d7e-e7f1-403c-8020-db9670c01e9b,v1*%
%TF.Part,Single*%
%FSLAX66Y66*%
%MOMM*%
G01*
G74*
G04 --- HEADER END --- *
G04 --- APERTURE LIST BEGIN --- *
%ADD10C,2.0*%
%ADD11R,2.74X1.7875*%
%ADD12O,4.2X2.74*%
%ADD13C,2.5*%
%ADD14O,3.2X2.0*%
%ADD15R,3.4X5.2*%
%ADD16O,1.7X3.2*%
%ADD17O,3.0X4.2*%
%ADD18C,4.2*%
%ADD19R,2.0X2.0*%
%ADD20R,1.7875X2.74*%
%ADD21O,2.232X4.264*%
%ADD22R,3.6X2.1*%
%ADD23O,2.0X3.0*%
%ADD24O,1.47X2.74*%
%ADD25O,2.74X1.7*%
G04 --- APERTURE LIST END --- *
G04 --- BOARD BEGIN --- *
D10*
X144122500Y14847500D03*
X148612500Y21347500D03*
X148612500Y14847500D03*
X144122500Y21347500D03*
D11*
X68262500Y28257500D03*
D12*
X10000000Y40957500D03*
X10000000Y46037500D03*
D13*
X138508750Y54451250D03*
X128508750Y51951250D03*
X128508750Y56951250D03*
D14*
X15875000Y10951250D03*
X15875000Y5101250D03*
X15875000Y27601250D03*
X15875000Y21751250D03*
D15*
X5257800Y23495000D03*
X9982200Y23495000D03*
D16*
X32067500Y24447500D03*
X29527500Y24447500D03*
X26987500Y24447500D03*
D17*
X24130000Y55562500D03*
X24130000Y40322500D03*
D11*
X89217500Y37465000D03*
X53975000Y37623750D03*
X73342500Y18732500D03*
X21272500Y19367500D03*
D18*
X40005000Y6430000D03*
X40005000Y16430000D03*
D10*
X124777500Y10475000D03*
X129857500Y13015000D03*
X132397500Y10475000D03*
X114617500Y10475000D03*
X127317500Y13015000D03*
X119697500Y13015000D03*
X119697500Y10475000D03*
X122237500Y10475000D03*
X127317500Y10475000D03*
X122237500Y13015000D03*
X112077500Y13015000D03*
X117157500Y13015000D03*
X124777500Y13015000D03*
D19*
X134937500Y13015000D03*
D10*
X134937500Y10475000D03*
X112077500Y10475000D03*
X132397500Y13015000D03*
X114617500Y13015000D03*
X117157500Y10475000D03*
X129857500Y10475000D03*
D20*
X71755000Y38100000D03*
X3175000Y29210000D03*
D21*
X99377500Y38100000D03*
X94297500Y38100000D03*
D22*
X24130000Y9347500D03*
X24130000Y14147500D03*
X24130000Y50342500D03*
X24130000Y45542500D03*
D23*
X103602500Y47625000D03*
X76102500Y47625000D03*
D18*
X40005000Y53260000D03*
X40005000Y43260000D03*
D24*
X115252500Y16827500D03*
X115252500Y42227500D03*
X133032500Y42227500D03*
X130492500Y42227500D03*
X122872500Y42227500D03*
X112712500Y42227500D03*
X135572500Y16827500D03*
X133032500Y16827500D03*
X127952500Y42227500D03*
X120332500Y42227500D03*
X112712500Y16827500D03*
X125412500Y42227500D03*
X117792500Y42227500D03*
X135572500Y42227500D03*
D17*
X24130000Y4127500D03*
X24130000Y19367500D03*
D18*
X62547500Y53260000D03*
X62547500Y43260000D03*
D11*
X21113750Y39211250D03*
D25*
X89217500Y33352500D03*
X89217500Y19352500D03*
D14*
X15875000Y38097500D03*
X15875000Y32247500D03*
X15875000Y54747500D03*
X15875000Y48897500D03*
D16*
X84137500Y38100000D03*
X81597500Y38100000D03*
X79057500Y38100000D03*
D10*
X113982500Y49532500D03*
X121602500Y49532500D03*
X111442500Y49532500D03*
D19*
X111442500Y46992500D03*
D10*
X119062500Y46992500D03*
X113982500Y46992500D03*
X116522500Y46992500D03*
X121602500Y46992500D03*
X116522500Y49532500D03*
X119062500Y49532500D03*
D18*
X62547500Y6430000D03*
X62547500Y16430000D03*
D12*
X10000000Y13970000D03*
X10000000Y19050000D03*
D11*
X64770000Y25400000D03*
D10*
X144122500Y25483750D03*
X148612500Y31983750D03*
X148612500Y25483750D03*
X144122500Y31983750D03*
D23*
X103602500Y11430000D03*
X76102500Y11430000D03*
G04 --- BOARD END --- *
%TF.MD5,e3dc769b938f0e2b20620aca2e7e2b22*%
M02*
