M48
;DRILL FILE
;Generated by LibrePCB 0.1.1-unstable
;Creation Date: 2019-08-06T14:54:38
FMAT,2
METRIC,TZ
T1C0.3
T2C0.4
T3C0.5
T4C0.8
T5C0.9
T6C1.0
T7C1.016
T8C1.2
T9C1.3
T10C1.4
T11C2.0
%
G90
G05
M71
T1
X107.95Y35.8775
X119.22125Y36.35375
X126.365Y31.4325
X35.8775Y28.575
X124.93625Y26.749375
X126.52375Y30.32125
X144.78Y28.8925
X134.62Y30.32125
X141.12875Y50.165
X107.95Y21.2725
X113.3475Y24.4475
X78.4225Y31.75
X121.76125Y35.2425
X123.825Y31.27375
X127.3175Y32.22625
X123.66625Y26.67
X124.1425Y49.68875
X43.33875Y28.8925
X44.45Y28.8925
X123.5075Y37.544375
X114.14125Y35.2425
X81.28Y31.75
X109.5375Y22.225
X124.7775Y19.685
X84.29625Y22.70125
X127.0Y20.955
X36.83Y26.67
X47.9425Y28.8925
X46.99Y28.8925
X127.238125Y36.5125
X46.99Y29.5275
X47.9425Y29.5275
X46.99Y30.1625
X47.9425Y30.1625
X122.2375Y27.94
X143.51Y28.8925
X122.39625Y26.82875
X45.323125Y25.55875
X124.46Y38.020625
X79.375Y31.75
X112.7125Y38.57625
X116.5225Y38.57625
X109.22Y37.30625
X119.85625Y37.30625
X127.9525Y35.2425
X66.04Y31.035625
X126.20625Y26.51125
X140.335Y27.14625
X43.33875Y30.1625
X44.45Y30.1625
X44.45Y29.5275
X43.33875Y29.5275
X132.3975Y30.7975
X132.3975Y34.6075
X124.7775Y21.986875
X125.4125Y32.22625
X119.0625Y25.7175
X142.71625Y33.81375
X131.7625Y43.65625
X80.3275Y31.75
X127.079375Y24.4475
X141.605Y26.19375
X110.64875Y23.1775
X118.11Y21.2725
T2
X45.085Y24.4475
X50.8Y33.02
X141.9225Y44.45
X140.6525Y57.4675
X147.955Y48.10125
T3
X96.8375Y48.895
X33.02Y37.1475
X147.32Y13.0175
X56.594375Y29.845
X34.29Y6.985
X95.885Y1.5875
X104.775Y25.7175
X104.14Y26.9875
X14.44625Y42.2275
X1.905Y46.0375
X111.76Y26.3525
X105.41Y24.4475
X102.39375Y19.20875
X128.27Y38.4175
X130.175Y38.1
X101.75875Y18.415
X54.371875Y29.845
X133.6675Y50.165
X148.59Y27.46375
X56.8325Y6.985
X139.065Y32.385
X136.8425Y32.385
X72.7075Y58.7375
X53.419375Y29.845
X98.58375Y19.20875
X102.87Y34.29
X28.575Y58.42
X63.34125Y37.465
X122.71375Y56.03875
X112.0775Y56.03875
X77.31125Y1.5875
X22.225Y58.42
X145.0975Y49.8475
X6.50875Y38.57625
X47.3075Y2.2225
X99.06Y32.7025
X103.34625Y1.5875
X100.33Y32.7025
X1.27Y30.63875
X129.54Y34.925
X80.01Y58.7375
X101.6Y24.4475
X129.2225Y20.6375
X103.505Y33.49625
X104.14Y34.29
X20.79625Y27.6225
X1.905Y42.8625
X94.9325Y14.605
X11.7475Y29.68625
X148.59Y29.845
X103.1875Y52.3875
X100.965Y25.7175
X99.06Y34.29
X119.0625Y39.0525
X104.93375Y19.20875
X107.79125Y16.35125
X101.12375Y19.20875
X132.715Y29.21
X133.6675Y34.6075
X137.795Y29.21
X117.475Y33.9725
X65.88125Y35.56
X2.2225Y51.1175
X39.84625Y29.21
X104.29875Y18.415
X106.045Y25.7175
X109.5375Y2.54
X68.2625Y6.985
X8.5725Y58.1025
X96.8375Y52.3875
X40.9575Y29.21
X54.61Y58.42
X101.6Y32.7025
X122.555Y18.0975
X51.435Y53.975
X106.20375Y19.20875
X100.48875Y20.0025
X8.41375Y29.68625
X80.80375Y52.22875
X101.6Y26.9875
X28.2575Y2.2225
X39.84625Y30.32125
X28.2575Y6.985
X103.66375Y19.20875
X57.705625Y29.845
X129.2225Y22.5425
X99.06Y26.9875
X5.23875Y27.6225
X104.14Y32.7025
X36.5125Y57.4675
X102.87Y32.7025
X102.235Y25.7175
X55.483125Y29.845
X8.255Y1.905
X99.85375Y19.20875
X62.38875Y37.465
X33.3375Y53.34
X123.5075Y14.9225
X147.955Y1.905
X104.29875Y20.0025
X148.74875Y35.08375
X40.9575Y30.32125
X100.33Y26.9875
X1.905Y38.57625
X146.3675Y19.3675
X33.9725Y37.1475
X100.33Y24.4475
X64.29375Y37.465
X51.196875Y29.845
X102.87Y24.4475
X32.0675Y37.1475
X129.2225Y24.28875
X100.48875Y18.415
X99.695Y33.49625
X1.27Y14.2875
X1.27Y27.6225
X4.28625Y20.0025
X73.3425Y53.0225
X99.21875Y18.415
X105.56875Y18.415
X45.085Y53.6575
X137.795Y2.2225
X99.21875Y20.0025
X99.06Y24.4475
X106.68Y26.9875
X104.14Y24.4475
X131.1275Y22.5425
X87.47125Y1.5875
X88.5825Y58.7375
X103.02875Y18.415
X140.97Y20.32
X100.33Y34.29
X111.76Y31.4325
X31.115Y37.1475
X100.965Y33.49625
X58.816875Y29.845
X1.905Y8.255
X116.5225Y31.4325
X148.2725Y58.1025
X103.505Y58.42
X20.79625Y26.3525
X20.79625Y25.0825
X34.29Y2.2225
X68.2625Y2.2225
X20.79625Y28.8925
X99.695Y25.7175
X135.5725Y20.0025
X98.425Y25.7175
X103.02875Y20.0025
X101.75875Y20.0025
X1.27Y20.0025
X61.43625Y37.465
X46.99Y7.3025
X59.928125Y29.845
X58.1025Y53.34
X50.085625Y29.845
X126.6825Y18.415
X88.265Y52.3875
X102.235Y33.49625
X102.87Y26.9875
X141.2875Y12.7
X105.56875Y20.0025
X56.8325Y2.2225
X103.505Y25.7175
X123.5075Y2.2225
X47.625Y58.1025
X94.9325Y8.5725
X65.24625Y37.465
X38.735Y29.21
X130.4925Y34.925
X29.21Y37.1475
X138.27125Y35.2425
X139.7Y41.5925
X60.48375Y37.465
X135.5725Y35.2425
X105.41Y26.9875
X96.52Y58.42
X87.9475Y49.2125
X66.675Y54.61
X30.1625Y37.1475
X101.6Y34.29
X52.308125Y29.845
X106.68Y24.4475
T4
X135.5725Y42.2275
X117.7925Y42.2275
X125.4125Y42.2275
X112.7125Y16.8275
X120.3325Y42.2275
X127.9525Y42.2275
X133.0325Y16.8275
X135.5725Y16.8275
X112.7125Y42.2275
X122.8725Y42.2275
X130.4925Y42.2275
X133.0325Y42.2275
X115.2525Y42.2275
X115.2525Y16.8275
T5
X89.2175Y19.3525
X89.2175Y33.3525
T6
X76.1025Y11.43
X103.6025Y11.43
X144.1225Y31.98375
X148.6125Y25.48375
X148.6125Y31.98375
X144.1225Y25.48375
X64.77Y25.4
X119.0625Y49.5325
X116.5225Y49.5325
X121.6025Y46.9925
X116.5225Y46.9925
X113.9825Y46.9925
X119.0625Y46.9925
X111.4425Y46.9925
X111.4425Y49.5325
X121.6025Y49.5325
X113.9825Y49.5325
X79.0575Y38.1
X81.5975Y38.1
X84.1375Y38.1
X21.11375Y39.21125
X76.1025Y47.625
X103.6025Y47.625
X3.175Y29.21
X71.755Y38.1
X129.8575Y10.475
X117.1575Y10.475
X114.6175Y13.015
X132.3975Y13.015
X112.0775Y10.475
X134.9375Y10.475
X134.9375Y13.015
X124.7775Y13.015
X117.1575Y13.015
X112.0775Y13.015
X122.2375Y13.015
X127.3175Y10.475
X122.2375Y10.475
X119.6975Y10.475
X119.6975Y13.015
X127.3175Y13.015
X114.6175Y10.475
X132.3975Y10.475
X129.8575Y13.015
X124.7775Y10.475
X21.2725Y19.3675
X73.3425Y18.7325
X53.975Y37.62375
X89.2175Y37.465
X26.9875Y24.4475
X29.5275Y24.4475
X32.0675Y24.4475
X68.2625Y28.2575
X144.1225Y21.3475
X148.6125Y14.8475
X148.6125Y21.3475
X144.1225Y14.8475
T7
X94.2975Y38.1
X99.3775Y38.1
T8
X15.875Y48.8975
X15.875Y54.7475
X15.875Y32.2475
X15.875Y38.0975
X15.875Y21.75125
X15.875Y27.60125
X15.875Y5.10125
X15.875Y10.95125
T9
X128.50875Y56.95125
X128.50875Y51.95125
X138.50875Y54.45125
T10
X10.0Y19.05
X10.0Y13.97
X24.13Y19.3675
X24.13Y4.1275
X24.13Y40.3225
X24.13Y55.5625
X10.0Y46.0375
X10.0Y40.9575
T11
X62.5475Y16.43
X62.5475Y6.43
X62.5475Y43.26
X62.5475Y53.26
X40.005Y43.26
X40.005Y53.26
X40.005Y16.43
X40.005Y6.43
T0
M30
