G04 --- HEADER BEGIN --- *
%TF.GenerationSoftware,LibrePCB,LibrePCB,0.1.1-unstable*%
%TF.CreationDate,2019-08-06T17:21:51*%
%TF.ProjectId,Hydro Battery Charger - default,71762d7e-e7f1-403c-8020-db9670c01e9b,v2*%
%TF.Part,Single*%
%FSLAX66Y66*%
%MOMM*%
G01*
G74*
G04 --- HEADER END --- *
G04 --- APERTURE LIST BEGIN --- *
%ADD10R,1.4X1.4*%
%ADD11R,1.7X1.5*%
%ADD12C,2.0*%
%ADD13R,1.735X0.68*%
%ADD14R,2.74X1.7875*%
%ADD15O,4.2X2.74*%
%ADD16R,1.3X1.2*%
%ADD17C,2.5*%
%ADD18R,0.8X1.3*%
%ADD19O,3.2X2.0*%
%ADD20R,1.8X2.9*%
%ADD21O,1.7X3.2*%
%ADD22R,1.0X0.95*%
%ADD23R,0.68X1.735*%
%ADD24R,3.3X2.6*%
%ADD25O,3.0X4.2*%
%ADD26R,1.6X1.2*%
%ADD27R,1.25X1.8*%
%ADD28R,5.7X4.05*%
%ADD29R,1.2X1.3*%
%ADD30R,0.95X1.0*%
%ADD31R,1.8X1.25*%
%ADD32C,4.2*%
%ADD33R,2.0X2.0*%
%ADD34R,1.7875X2.74*%
%ADD35O,2.232X4.264*%
%ADD36O,2.0X3.0*%
%ADD37R,1.2X1.6*%
%ADD38R,1.5X1.7*%
%ADD39O,1.47X2.74*%
%ADD40R,1.3X0.8*%
%ADD41R,1.4X0.65*%
%ADD42R,0.65X1.4*%
%ADD43O,2.74X1.7*%
G04 --- APERTURE LIST END --- *
G04 --- BOARD BEGIN --- *
D10*
X145891250Y40225000D03*
X145891250Y42325000D03*
D11*
X36830000Y32065000D03*
X36830000Y30165000D03*
D12*
X144122500Y14847500D03*
X148612500Y21347500D03*
X148612500Y14847500D03*
X144122500Y21347500D03*
D13*
X29484500Y31110000D03*
X34650500Y28580000D03*
X29484500Y32380000D03*
X34650500Y31120000D03*
X34650500Y29850000D03*
X29484500Y29840000D03*
X34650500Y32390000D03*
X29484500Y28570000D03*
D14*
X68262500Y28257500D03*
D15*
X10000000Y40957500D03*
X10000000Y46037500D03*
D16*
X118960000Y28575000D03*
X117260000Y28575000D03*
D17*
X138508750Y54451250D03*
X128508750Y51951250D03*
X128508750Y56951250D03*
D18*
X64767500Y29668824D03*
X62867500Y32468824D03*
X63817500Y32468824D03*
X64767500Y32468824D03*
X62867500Y29668824D03*
D19*
X15875000Y10951250D03*
X15875000Y5101250D03*
X15875000Y27601250D03*
X15875000Y21751250D03*
D20*
X47708824Y35179000D03*
X44908824Y35179000D03*
D16*
X124040000Y22860000D03*
X122340000Y22860000D03*
D21*
X32067500Y24447500D03*
X29527500Y24447500D03*
X26987500Y24447500D03*
D22*
X148113750Y37325000D03*
X148113750Y38875000D03*
X41910000Y31890000D03*
X41910000Y30340000D03*
D23*
X45043824Y26881000D03*
X45033824Y32047000D03*
X46303824Y32047000D03*
X47573824Y32047000D03*
X43763824Y32047000D03*
D24*
X45673824Y29464000D03*
D23*
X47583824Y26881000D03*
X43773824Y26881000D03*
X46313824Y26881000D03*
D25*
X24130000Y55562500D03*
X24130000Y40322500D03*
D26*
X69385000Y33975000D03*
X71585000Y34925000D03*
X69385000Y35875000D03*
D27*
X119542500Y18891250D03*
X122392500Y18891250D03*
D28*
X55403978Y24918846D03*
X55403978Y34868846D03*
D29*
X125730000Y21692500D03*
X125730000Y23392500D03*
D22*
X145891250Y37325000D03*
X145891250Y38875000D03*
X114935000Y26810000D03*
X114935000Y25260000D03*
D14*
X89217500Y37465000D03*
D29*
X135572500Y39585000D03*
X135572500Y37885000D03*
D22*
X116205000Y26810000D03*
X116205000Y25260000D03*
D16*
X124357500Y17145000D03*
X122657500Y17145000D03*
X73240000Y28892500D03*
X71540000Y28892500D03*
D22*
X143668750Y37325000D03*
X143668750Y38875000D03*
X43815000Y23672500D03*
X43815000Y25222500D03*
D10*
X143668750Y40225000D03*
X143668750Y42325000D03*
D14*
X53975000Y37623750D03*
D30*
X120472500Y23653750D03*
X118922500Y23653750D03*
D22*
X127000000Y21767500D03*
X127000000Y23317500D03*
D14*
X73342500Y18732500D03*
X21272500Y19367500D03*
D29*
X117475000Y25185000D03*
X117475000Y26885000D03*
D31*
X112236250Y24610000D03*
X112236250Y27460000D03*
D22*
X119062500Y30975000D03*
X119062500Y32525000D03*
D32*
X40005000Y6430000D03*
X40005000Y16430000D03*
D12*
X124777500Y10475000D03*
X129857500Y13015000D03*
X132397500Y10475000D03*
X114617500Y10475000D03*
X127317500Y13015000D03*
X119697500Y13015000D03*
X119697500Y10475000D03*
X122237500Y10475000D03*
X127317500Y10475000D03*
X122237500Y13015000D03*
X112077500Y13015000D03*
X117157500Y13015000D03*
X124777500Y13015000D03*
D33*
X134937500Y13015000D03*
D12*
X134937500Y10475000D03*
X112077500Y10475000D03*
X132397500Y13015000D03*
X114617500Y13015000D03*
X117157500Y10475000D03*
X129857500Y10475000D03*
D34*
X71755000Y38100000D03*
D29*
X46990000Y23710000D03*
X46990000Y22010000D03*
D30*
X133807500Y35877500D03*
X132257500Y35877500D03*
D34*
X3175000Y29210000D03*
D30*
X145713750Y23336250D03*
X144163750Y23336250D03*
D35*
X99377500Y38100000D03*
X94297500Y38100000D03*
D16*
X148646250Y23336250D03*
X146946250Y23336250D03*
D22*
X48577500Y22085000D03*
X48577500Y23635000D03*
D36*
X103602500Y47625000D03*
X76102500Y47625000D03*
D37*
X133982500Y37635000D03*
X133032500Y39835000D03*
X132082500Y37635000D03*
D29*
X67310000Y30900000D03*
X67310000Y32600000D03*
D38*
X64767500Y34607500D03*
X62867500Y34607500D03*
D32*
X40005000Y53260000D03*
X40005000Y43260000D03*
D16*
X140073750Y50165000D03*
X138373750Y50165000D03*
D39*
X115252500Y16827500D03*
X115252500Y42227500D03*
X133032500Y42227500D03*
X130492500Y42227500D03*
X122872500Y42227500D03*
X112712500Y42227500D03*
X135572500Y16827500D03*
X133032500Y16827500D03*
X127952500Y42227500D03*
X120332500Y42227500D03*
X112712500Y16827500D03*
X125412500Y42227500D03*
X117792500Y42227500D03*
X135572500Y42227500D03*
D40*
X71885000Y31432500D03*
X69085000Y31432500D03*
X71885000Y32382500D03*
X69085000Y32382500D03*
X69085000Y30482500D03*
X71885000Y30482500D03*
D41*
X129245000Y29127500D03*
X129245000Y32327500D03*
X129245000Y28327500D03*
D42*
X126295000Y33677500D03*
X127895000Y33677500D03*
D41*
X120945000Y27527500D03*
D42*
X122295000Y33677500D03*
X123895000Y33677500D03*
D41*
X129245000Y26727500D03*
X120945000Y30727500D03*
D42*
X124695000Y25377500D03*
D41*
X129245000Y27527500D03*
D42*
X123895000Y25377500D03*
D41*
X120945000Y26727500D03*
X120945000Y32327500D03*
D42*
X126295000Y25377500D03*
X123095000Y25377500D03*
X125495000Y25377500D03*
X127095000Y33677500D03*
D41*
X120945000Y29927500D03*
D42*
X125495000Y33677500D03*
D41*
X129245000Y31527500D03*
X120945000Y28327500D03*
D42*
X123095000Y33677500D03*
D41*
X120945000Y31527500D03*
D42*
X127895000Y25377500D03*
D41*
X129245000Y30727500D03*
D42*
X122295000Y25377500D03*
X124695000Y33677500D03*
D41*
X129245000Y29927500D03*
D42*
X127095000Y25377500D03*
D41*
X120945000Y29127500D03*
D10*
X148113750Y40225000D03*
X148113750Y42325000D03*
D25*
X24130000Y4127500D03*
X24130000Y19367500D03*
D22*
X41910000Y27165000D03*
X41910000Y28715000D03*
D32*
X62547500Y53260000D03*
X62547500Y43260000D03*
D29*
X130810000Y24867500D03*
X130810000Y26567500D03*
D14*
X21113750Y39211250D03*
D30*
X122415000Y21272500D03*
X123965000Y21272500D03*
X75705000Y38100000D03*
X74155000Y38100000D03*
D43*
X89217500Y33352500D03*
X89217500Y19352500D03*
D16*
X118847500Y25082500D03*
X120547500Y25082500D03*
D29*
X42545000Y25297500D03*
X42545000Y23597500D03*
D38*
X64767500Y27735074D03*
X62867500Y27735074D03*
D19*
X15875000Y38097500D03*
X15875000Y32247500D03*
X15875000Y54747500D03*
X15875000Y48897500D03*
D27*
X116685000Y21748750D03*
X119535000Y21748750D03*
D16*
X128372500Y39687500D03*
X130072500Y39687500D03*
X48475000Y25082500D03*
X46775000Y25082500D03*
D21*
X84137500Y38100000D03*
X81597500Y38100000D03*
X79057500Y38100000D03*
D20*
X48718824Y38417500D03*
X51518824Y38417500D03*
D12*
X113982500Y49532500D03*
X121602500Y49532500D03*
X111442500Y49532500D03*
D33*
X111442500Y46992500D03*
D12*
X119062500Y46992500D03*
X113982500Y46992500D03*
X116522500Y46992500D03*
X121602500Y46992500D03*
X116522500Y49532500D03*
X119062500Y49532500D03*
D32*
X62547500Y6430000D03*
X62547500Y16430000D03*
D16*
X148646250Y33813750D03*
X146946250Y33813750D03*
D15*
X10000000Y13970000D03*
X10000000Y19050000D03*
D14*
X64770000Y25400000D03*
D12*
X144122500Y25483750D03*
X148612500Y31983750D03*
X148612500Y25483750D03*
X144122500Y31983750D03*
D36*
X103602500Y11430000D03*
X76102500Y11430000D03*
D16*
X120547500Y33972500D03*
X118847500Y33972500D03*
D11*
X132715000Y26667500D03*
X132715000Y24767500D03*
D30*
X145713750Y33813750D03*
X144163750Y33813750D03*
D16*
X118960000Y29845000D03*
X117260000Y29845000D03*
G04 --- BOARD END --- *
%TF.MD5,371919e8415c61e07908d8d8ee3cac93*%
M02*
