G04 --- HEADER BEGIN --- *
%TF.GenerationSoftware,LibrePCB,LibrePCB,0.1.1-unstable*%
%TF.CreationDate,2019-08-06T17:21:51*%
%TF.ProjectId,Hydro Battery Charger - default,71762d7e-e7f1-403c-8020-db9670c01e9b,v2*%
%TF.Part,Single*%
%FSLAX66Y66*%
%MOMM*%
G01*
G74*
G04 --- HEADER END --- *
G04 --- APERTURE LIST BEGIN --- *
%ADD10R,0.96X0.96*%
%ADD11R,1.24X1.04*%
%ADD12R,1.439X0.384*%
%ADD13R,0.9X0.8*%
%ADD14R,0.48X0.98*%
%ADD15R,1.28X2.38*%
%ADD16R,0.65X0.6*%
%ADD17R,0.384X1.439*%
%ADD18R,2.62X1.92*%
%ADD19R,1.2X0.8*%
%ADD20R,0.84X1.39*%
%ADD21R,4.73X3.08*%
%ADD22R,0.8X0.9*%
%ADD23R,0.6X0.65*%
%ADD24R,1.39X0.84*%
%ADD25R,0.8X1.2*%
%ADD26R,1.04X1.24*%
%ADD27R,0.98X0.48*%
%ADD28R,1.11X0.36*%
%ADD29R,0.36X1.11*%
G04 --- APERTURE LIST END --- *
G04 --- BOARD BEGIN --- *
D10*
X145891250Y40225000D03*
X145891250Y42325000D03*
D11*
X36830000Y32065000D03*
X36830000Y30165000D03*
D12*
X29484500Y31110000D03*
X34650500Y28580000D03*
X29484500Y32380000D03*
X34650500Y31120000D03*
X34650500Y29850000D03*
X29484500Y29840000D03*
X34650500Y32390000D03*
X29484500Y28570000D03*
D13*
X118960000Y28575000D03*
X117260000Y28575000D03*
D14*
X64767500Y29668824D03*
X62867500Y32468824D03*
X63817500Y32468824D03*
X64767500Y32468824D03*
X62867500Y29668824D03*
D15*
X47708824Y35179000D03*
X44908824Y35179000D03*
D13*
X124040000Y22860000D03*
X122340000Y22860000D03*
D16*
X148113750Y37325000D03*
X148113750Y38875000D03*
X41910000Y31890000D03*
X41910000Y30340000D03*
D17*
X45043824Y26881000D03*
X45033824Y32047000D03*
X46303824Y32047000D03*
X47573824Y32047000D03*
X43763824Y32047000D03*
D18*
X45673824Y29464000D03*
D17*
X47583824Y26881000D03*
X43773824Y26881000D03*
X46313824Y26881000D03*
D19*
X69385000Y33975000D03*
X71585000Y34925000D03*
X69385000Y35875000D03*
D20*
X119542500Y18891250D03*
X122392500Y18891250D03*
D21*
X55403978Y24918846D03*
X55403978Y34868846D03*
D22*
X125730000Y21692500D03*
X125730000Y23392500D03*
D16*
X145891250Y37325000D03*
X145891250Y38875000D03*
X114935000Y26810000D03*
X114935000Y25260000D03*
D22*
X135572500Y39585000D03*
X135572500Y37885000D03*
D16*
X116205000Y26810000D03*
X116205000Y25260000D03*
D13*
X124357500Y17145000D03*
X122657500Y17145000D03*
X73240000Y28892500D03*
X71540000Y28892500D03*
D16*
X143668750Y37325000D03*
X143668750Y38875000D03*
X43815000Y23672500D03*
X43815000Y25222500D03*
D10*
X143668750Y40225000D03*
X143668750Y42325000D03*
D23*
X120472500Y23653750D03*
X118922500Y23653750D03*
D16*
X127000000Y21767500D03*
X127000000Y23317500D03*
D22*
X117475000Y25185000D03*
X117475000Y26885000D03*
D24*
X112236250Y24610000D03*
X112236250Y27460000D03*
D16*
X119062500Y30975000D03*
X119062500Y32525000D03*
D22*
X46990000Y23710000D03*
X46990000Y22010000D03*
D23*
X133807500Y35877500D03*
X132257500Y35877500D03*
X145713750Y23336250D03*
X144163750Y23336250D03*
D13*
X148646250Y23336250D03*
X146946250Y23336250D03*
D16*
X48577500Y22085000D03*
X48577500Y23635000D03*
D25*
X133982500Y37635000D03*
X133032500Y39835000D03*
X132082500Y37635000D03*
D22*
X67310000Y30900000D03*
X67310000Y32600000D03*
D26*
X64767500Y34607500D03*
X62867500Y34607500D03*
D13*
X140073750Y50165000D03*
X138373750Y50165000D03*
D27*
X71885000Y31432500D03*
X69085000Y31432500D03*
X71885000Y32382500D03*
X69085000Y32382500D03*
X69085000Y30482500D03*
X71885000Y30482500D03*
D28*
X129245000Y29127500D03*
X129245000Y32327500D03*
X129245000Y28327500D03*
D29*
X126295000Y33677500D03*
X127895000Y33677500D03*
D28*
X120945000Y27527500D03*
D29*
X122295000Y33677500D03*
X123895000Y33677500D03*
D28*
X129245000Y26727500D03*
X120945000Y30727500D03*
D29*
X124695000Y25377500D03*
D28*
X129245000Y27527500D03*
D29*
X123895000Y25377500D03*
D28*
X120945000Y26727500D03*
X120945000Y32327500D03*
D29*
X126295000Y25377500D03*
X123095000Y25377500D03*
X125495000Y25377500D03*
X127095000Y33677500D03*
D28*
X120945000Y29927500D03*
D29*
X125495000Y33677500D03*
D28*
X129245000Y31527500D03*
X120945000Y28327500D03*
D29*
X123095000Y33677500D03*
D28*
X120945000Y31527500D03*
D29*
X127895000Y25377500D03*
D28*
X129245000Y30727500D03*
D29*
X122295000Y25377500D03*
X124695000Y33677500D03*
D28*
X129245000Y29927500D03*
D29*
X127095000Y25377500D03*
D28*
X120945000Y29127500D03*
D10*
X148113750Y40225000D03*
X148113750Y42325000D03*
D16*
X41910000Y27165000D03*
X41910000Y28715000D03*
D22*
X130810000Y24867500D03*
X130810000Y26567500D03*
D23*
X122415000Y21272500D03*
X123965000Y21272500D03*
X75705000Y38100000D03*
X74155000Y38100000D03*
D13*
X118847500Y25082500D03*
X120547500Y25082500D03*
D22*
X42545000Y25297500D03*
X42545000Y23597500D03*
D26*
X64767500Y27735074D03*
X62867500Y27735074D03*
D20*
X116685000Y21748750D03*
X119535000Y21748750D03*
D13*
X128372500Y39687500D03*
X130072500Y39687500D03*
X48475000Y25082500D03*
X46775000Y25082500D03*
D15*
X48718824Y38417500D03*
X51518824Y38417500D03*
D13*
X148646250Y33813750D03*
X146946250Y33813750D03*
X120547500Y33972500D03*
X118847500Y33972500D03*
D11*
X132715000Y26667500D03*
X132715000Y24767500D03*
D23*
X145713750Y33813750D03*
X144163750Y33813750D03*
D13*
X118960000Y29845000D03*
X117260000Y29845000D03*
G04 --- BOARD END --- *
%TF.MD5,6d7dbcdda90e718107f2abe387f834c6*%
M02*
