G04 --- HEADER BEGIN --- *
%TF.GenerationSoftware,LibrePCB,LibrePCB,0.1.3*%
%TF.CreationDate,2020-03-08T21:05:15*%
%TF.ProjectId,Hydro Battery Charger - default,71762d7e-e7f1-403c-8020-db9670c01e9b,v3*%
%TF.Part,Single*%
%FSLAX66Y66*%
%MOMM*%
G01*
G74*
G04 --- HEADER END --- *
G04 --- APERTURE LIST BEGIN --- *
%ADD10C,0.2*%
%ADD11C,0.0*%
%ADD12C,0.4*%
%ADD13C,0.5*%
%ADD14C,0.3*%
%ADD15C,1.7*%
%ADD16C,2.0*%
%ADD17R,2.39X1.787*%
%ADD18C,2.5*%
%ADD19O,3.2X2.0*%
%ADD20O,3.2X1.7*%
%ADD21O,4.2X3.0*%
%ADD22O,4.2X2.74*%
%ADD23C,4.2*%
%ADD24R,2.0X2.0*%
%ADD25R,1.787X2.39*%
%ADD26O,2.232X4.264*%
%ADD27O,2.0X2.7*%
%ADD28R,2.0X2.7*%
%ADD29O,2.0X3.0*%
%ADD30O,3.0X4.2*%
%ADD31O,2.74X1.7*%
%ADD32O,2.0X3.2*%
%ADD33O,1.7X3.2*%
G04 --- APERTURE LIST END --- *
G04 --- BOARD BEGIN --- *
D10*
X80030000Y51100000D02*
X80030000Y51360000D01*
G75*
G02*
X83220000Y51000000I1461807J-1360238D01*
G01*
X80030000Y48900000D02*
X80030000Y48640000D01*
G03*
X83220000Y49000000I1461807J1360238D01*
G01*
X91500000Y36900000D02*
X87500000Y36900000D01*
X86400000Y39200000D02*
X86400000Y40800000D01*
X92600000Y40800000D02*
X92600000Y39200000D01*
X87500000Y43100000D02*
X91500000Y43100000D01*
D11*
X95619750Y18415000D02*
X96466750Y18415000D01*
X96466750Y17992000D01*
X95619750Y17992000D01*
X95619750Y18415000D01*
G36*
X95619750Y18415000D02*
X96466750Y18415000D01*
X96466750Y17992000D01*
X95619750Y17992000D01*
X95619750Y18415000D01*
G37*
X93292750Y21166000D02*
X93714750Y21166000D01*
X93714750Y22013000D01*
X93292750Y22013000D01*
X93292750Y21166000D01*
G36*
X93292750Y21166000D02*
X93714750Y21166000D01*
X93714750Y22013000D01*
X93292750Y22013000D01*
X93292750Y21166000D01*
G37*
X92445750Y21166000D02*
X92868750Y21166000D01*
X92868750Y22013000D01*
X92445750Y22013000D01*
X92445750Y21166000D01*
G36*
X92445750Y21166000D02*
X92868750Y21166000D01*
X92868750Y22013000D01*
X92445750Y22013000D01*
X92445750Y21166000D01*
G37*
X91387750Y20108000D02*
X90540750Y20108000D01*
X90540750Y19685000D01*
X91387750Y19685000D01*
X91387750Y20108000D01*
G36*
X91387750Y20108000D02*
X90540750Y20108000D01*
X90540750Y19685000D01*
X91387750Y19685000D01*
X91387750Y20108000D01*
G37*
X93292750Y16934000D02*
X93714750Y16934000D01*
X93714750Y16087000D01*
X93292750Y16087000D01*
X93292750Y16934000D01*
G36*
X93292750Y16934000D02*
X93714750Y16934000D01*
X93714750Y16087000D01*
X93292750Y16087000D01*
X93292750Y16934000D01*
G37*
X92233750Y20743000D02*
X94773750Y20743000D01*
G02*
X95196750Y20320000I0J-423000D01*
G01*
X95196750Y17780000D01*
G02*
X94773750Y17357000I-423000J0D01*
G01*
X92233750Y17357000D01*
G02*
X91810750Y17780000I0J423000D01*
G01*
X91810750Y19980000D01*
X92240750Y19980000D01*
G03*
X92573750Y19646600I333200J-200D01*
G01*
G03*
X92907150Y19980000I0J333400D01*
G01*
G03*
X92573750Y20313000I-333200J-200D01*
G01*
G03*
X92240750Y19980000I0J-333000D01*
G01*
X91810750Y19980000D01*
X91810750Y20320000D01*
G02*
X92233750Y20743000I423000J0D01*
G01*
G36*
X92233750Y20743000D02*
X94773750Y20743000D01*
G02*
X95196750Y20320000I0J-423000D01*
G01*
X95196750Y17780000D01*
G02*
X94773750Y17357000I-423000J0D01*
G01*
X92233750Y17357000D01*
G02*
X91810750Y17780000I0J423000D01*
G01*
X91810750Y19980000D01*
X92240750Y19980000D01*
G03*
X92573750Y19646600I333200J-200D01*
G01*
G03*
X92907150Y19980000I0J333400D01*
G01*
G03*
X92573750Y20313000I-333200J-200D01*
G01*
G03*
X92240750Y19980000I0J-333000D01*
G01*
X91810750Y19980000D01*
X91810750Y20320000D01*
G02*
X92233750Y20743000I423000J0D01*
G01*
G37*
X95619750Y20108000D02*
X96466750Y20108000D01*
X96466750Y19685000D01*
X95619750Y19685000D01*
X95619750Y20108000D01*
G36*
X95619750Y20108000D02*
X96466750Y20108000D01*
X96466750Y19685000D01*
X95619750Y19685000D01*
X95619750Y20108000D01*
G37*
X94138750Y21166000D02*
X94561750Y21166000D01*
X94561750Y22013000D01*
X94138750Y22013000D01*
X94138750Y21166000D01*
G36*
X94138750Y21166000D02*
X94561750Y21166000D01*
X94561750Y22013000D01*
X94138750Y22013000D01*
X94138750Y21166000D01*
G37*
X91387750Y19261000D02*
X90540750Y19261000D01*
X90540750Y18839000D01*
X91387750Y18839000D01*
X91387750Y19261000D01*
G36*
X91387750Y19261000D02*
X90540750Y19261000D01*
X90540750Y18839000D01*
X91387750Y18839000D01*
X91387750Y19261000D01*
G37*
X92445750Y16934000D02*
X92868750Y16934000D01*
X92868750Y16087000D01*
X92445750Y16087000D01*
X92445750Y16934000D01*
G36*
X92445750Y16934000D02*
X92868750Y16934000D01*
X92868750Y16087000D01*
X92445750Y16087000D01*
X92445750Y16934000D01*
G37*
X91387750Y18415000D02*
X90540750Y18415000D01*
X90540750Y17992000D01*
X91387750Y17992000D01*
X91387750Y18415000D01*
G36*
X91387750Y18415000D02*
X90540750Y18415000D01*
X90540750Y17992000D01*
X91387750Y17992000D01*
X91387750Y18415000D01*
G37*
X94138750Y16934000D02*
X94561750Y16934000D01*
X94561750Y16087000D01*
X94138750Y16087000D01*
X94138750Y16934000D01*
G36*
X94138750Y16934000D02*
X94561750Y16934000D01*
X94561750Y16087000D01*
X94138750Y16087000D01*
X94138750Y16934000D01*
G37*
X95619750Y19261000D02*
X96466750Y19261000D01*
X96466750Y18839000D01*
X95619750Y18839000D01*
X95619750Y19261000D01*
G36*
X95619750Y19261000D02*
X96466750Y19261000D01*
X96466750Y18839000D01*
X95619750Y18839000D01*
X95619750Y19261000D01*
G37*
D10*
X97416250Y18948750D02*
X97416250Y20448750D01*
X97916250Y19377083D01*
X98416250Y20448750D01*
X98416250Y18948750D01*
X99631250Y18948750D02*
X99631250Y19733750D01*
X99559583Y19877083D01*
X99416250Y19948750D01*
X99131250Y19948750D01*
X98987917Y19877083D01*
X99631250Y19020417D02*
X99487917Y18948750D01*
X99131250Y18948750D01*
X98987917Y19020417D01*
X98916250Y19163750D01*
X98916250Y19305417D01*
X98987917Y19448750D01*
X99131250Y19520417D01*
X99487917Y19520417D01*
X99631250Y19592083D01*
X100846250Y18948750D02*
X100846250Y20448750D01*
X100846250Y19020417D02*
X100702917Y18948750D01*
X100416250Y18948750D01*
X100274583Y19020417D01*
X100202917Y19092083D01*
X100131250Y19233750D01*
X100131250Y19663750D01*
X100202917Y19805417D01*
X100274583Y19877083D01*
X100416250Y19948750D01*
X100702917Y19948750D01*
X100846250Y19877083D01*
X101989583Y19020417D02*
X101846250Y18948750D01*
X101561250Y18948750D01*
X101417917Y19020417D01*
X101346250Y19163750D01*
X101346250Y19733750D01*
X101417917Y19877083D01*
X101561250Y19948750D01*
X101846250Y19948750D01*
X101989583Y19877083D01*
X102061250Y19733750D01*
X102061250Y19592083D01*
X101346250Y19448750D01*
X103661249Y20448750D02*
X104017916Y18948750D01*
X104304582Y20020417D01*
X104589582Y18948750D01*
X104946249Y20448750D01*
X105517916Y18948750D02*
X105517916Y19948750D01*
X105517916Y20448750D02*
X105446249Y20377083D01*
X105517916Y20305417D01*
X105589582Y20377083D01*
X105517916Y20448750D01*
X105517916Y20305417D01*
X106089582Y19948750D02*
X106661249Y19948750D01*
X106304582Y20448750D02*
X106304582Y19163750D01*
X106374582Y19020417D01*
X106517915Y18948750D01*
X106661249Y18948750D01*
X107161249Y18948750D02*
X107161249Y20448750D01*
X107804582Y18948750D02*
X107804582Y19733750D01*
X107732916Y19877083D01*
X107589582Y19948750D01*
X107376249Y19948750D01*
X107232916Y19877083D01*
X107161249Y19805417D01*
X98131250Y16698750D02*
X97416250Y16698750D01*
X97416250Y18198750D01*
X98702917Y16698750D02*
X98702917Y17698750D01*
X98702917Y18198750D02*
X98631250Y18127083D01*
X98702917Y18055417D01*
X98774583Y18127083D01*
X98702917Y18198750D01*
X98702917Y18055417D01*
X99274583Y16698750D02*
X99274583Y18198750D01*
X99274583Y17627083D02*
X99417916Y17698750D01*
X99702916Y17698750D01*
X99846250Y17627083D01*
X99917916Y17555417D01*
X99989583Y17413750D01*
X99989583Y16983750D01*
X99917916Y16842083D01*
X99846250Y16770417D01*
X99702916Y16698750D01*
X99417916Y16698750D01*
X99274583Y16770417D01*
X100489583Y16698750D02*
X100489583Y17698750D01*
X100489583Y17413750D02*
X100561250Y17555417D01*
X100632916Y17627083D01*
X100774583Y17698750D01*
X100917916Y17698750D01*
X102061249Y16770417D02*
X101917916Y16698750D01*
X101632916Y16698750D01*
X101489583Y16770417D01*
X101417916Y16913750D01*
X101417916Y17483750D01*
X101489583Y17627083D01*
X101632916Y17698750D01*
X101917916Y17698750D01*
X102061249Y17627083D01*
X102132916Y17483750D01*
X102132916Y17342083D01*
X101417916Y17198750D01*
X102632916Y16698750D02*
X102632916Y18198750D01*
X103204583Y18198750D01*
X103347916Y18127083D01*
X103417916Y18055417D01*
X103489583Y17913750D01*
X103489583Y17698750D01*
X103417916Y17555417D01*
X103347916Y17483750D01*
X103204583Y17413750D01*
X102632916Y17413750D01*
X104917916Y16842083D02*
X104846250Y16770417D01*
X104632916Y16698750D01*
X104489583Y16698750D01*
X104274583Y16770417D01*
X104132916Y16913750D01*
X104061250Y17055417D01*
X103989583Y17342083D01*
X103989583Y17555417D01*
X104061250Y17842083D01*
X104132916Y17983750D01*
X104274583Y18127083D01*
X104489583Y18198750D01*
X104632916Y18198750D01*
X104846250Y18127083D01*
X104917916Y18055417D01*
X105917916Y17483750D02*
X106132916Y17413750D01*
X106202916Y17342083D01*
X106274583Y17198750D01*
X106274583Y16983750D01*
X106202916Y16842083D01*
X106132916Y16770417D01*
X105989583Y16698750D01*
X105417916Y16698750D01*
X105417916Y18198750D01*
X105917916Y18198750D01*
X106061249Y18127083D01*
X106132916Y18055417D01*
X106202916Y17913750D01*
X106202916Y17770417D01*
X106132916Y17627083D01*
X106061249Y17555417D01*
X105917916Y17483750D01*
X105417916Y17483750D01*
X90500000Y54750000D02*
X88500000Y54750000D01*
X93600000Y55000000D02*
X93600000Y56620000D01*
G03*
X91000000Y65050000I-4089848J3354549D01*
G01*
X85400000Y55000000D02*
X85400000Y56620000D01*
G02*
X88000000Y65050000I4089848J3354549D01*
G01*
X80030000Y61100000D02*
X80030000Y61360000D01*
G02*
X83220000Y61000000I1461807J-1360238D01*
G01*
X80030000Y58900000D02*
X80030000Y58640000D01*
G03*
X83220000Y59000000I1461807J1360238D01*
G01*
D12*
X800000Y26300000D02*
X800000Y73700000D01*
X78200000Y73700000D01*
X78200000Y26300000D01*
X800000Y26300000D01*
D10*
X80030000Y41100000D02*
X80030000Y41360000D01*
G02*
X83220000Y41000000I1461807J-1360238D01*
G01*
X80030000Y38900000D02*
X80030000Y38640000D01*
G03*
X83220000Y39000000I1461807J1360238D01*
G01*
X87500000Y53100000D02*
X91500000Y53100000D01*
X92600000Y50800000D02*
X92600000Y49200000D01*
X86400000Y49200000D02*
X86400000Y50800000D01*
X91500000Y46900000D02*
X87500000Y46900000D01*
D13*
X9525000Y12509722D02*
X11049444Y12509722D01*
X10287222Y11747500D02*
X10287222Y13271944D01*
D14*
X1452500Y7770000D02*
X1667500Y7700000D01*
X1737500Y7628333D01*
X1809167Y7485000D01*
X1809167Y7270000D01*
X1737500Y7128333D01*
X1667500Y7056667D01*
X1524167Y6985000D01*
X952500Y6985000D01*
X952500Y8485000D01*
X1452500Y8485000D01*
X1595833Y8413333D01*
X1667500Y8341667D01*
X1737500Y8200000D01*
X1737500Y8056667D01*
X1667500Y7913333D01*
X1595833Y7841667D01*
X1452500Y7770000D01*
X952500Y7770000D01*
X3124167Y6985000D02*
X3124167Y7770000D01*
X3052500Y7913333D01*
X2909167Y7985000D01*
X2624167Y7985000D01*
X2480834Y7913333D01*
X3124167Y7056667D02*
X2980834Y6985000D01*
X2624167Y6985000D01*
X2480834Y7056667D01*
X2409167Y7200000D01*
X2409167Y7341667D01*
X2480834Y7485000D01*
X2624167Y7556667D01*
X2980834Y7556667D01*
X3124167Y7628333D01*
X3724167Y7985000D02*
X4295834Y7985000D01*
X3939167Y8485000D02*
X3939167Y7200000D01*
X4009167Y7056667D01*
X4152500Y6985000D01*
X4295834Y6985000D01*
X4895834Y7985000D02*
X5467501Y7985000D01*
X5110834Y8485000D02*
X5110834Y7200000D01*
X5180834Y7056667D01*
X5324167Y6985000D01*
X5467501Y6985000D01*
X6710834Y7056667D02*
X6567501Y6985000D01*
X6282501Y6985000D01*
X6139168Y7056667D01*
X6067501Y7200000D01*
X6067501Y7770000D01*
X6139168Y7913333D01*
X6282501Y7985000D01*
X6567501Y7985000D01*
X6710834Y7913333D01*
X6782501Y7770000D01*
X6782501Y7628333D01*
X6067501Y7485000D01*
X7382501Y6985000D02*
X7382501Y7985000D01*
X7382501Y7700000D02*
X7454168Y7841667D01*
X7525834Y7913333D01*
X7667501Y7985000D01*
X7810834Y7985000D01*
X8410834Y7985000D02*
X8767501Y6985000D01*
X9125834Y7985000D02*
X8767501Y6985000D01*
X8625834Y6628333D01*
X8554167Y6556667D01*
X8410834Y6485000D01*
X1809167Y92233333D02*
X1667500Y92305000D01*
X1452500Y92305000D01*
X1237500Y92233333D01*
X1095833Y92090000D01*
X1024167Y91948333D01*
X952500Y91661667D01*
X952500Y91448333D01*
X1024167Y91161667D01*
X1095833Y91020000D01*
X1237500Y90876667D01*
X1452500Y90805000D01*
X1595833Y90805000D01*
X1809167Y90876667D01*
X1880833Y90948333D01*
X1880833Y91448333D01*
X1595833Y91448333D01*
X3124166Y90876667D02*
X2980833Y90805000D01*
X2695833Y90805000D01*
X2552500Y90876667D01*
X2480833Y91020000D01*
X2480833Y91590000D01*
X2552500Y91733333D01*
X2695833Y91805000D01*
X2980833Y91805000D01*
X3124166Y91733333D01*
X3195833Y91590000D01*
X3195833Y91448333D01*
X2480833Y91305000D01*
X3795833Y91805000D02*
X3795833Y90805000D01*
X3795833Y91661667D02*
X3867500Y91733333D01*
X4010833Y91805000D01*
X4224166Y91805000D01*
X4367500Y91733333D01*
X4439166Y91590000D01*
X4439166Y90805000D01*
X5682499Y90876667D02*
X5539166Y90805000D01*
X5254166Y90805000D01*
X5110833Y90876667D01*
X5039166Y91020000D01*
X5039166Y91590000D01*
X5110833Y91733333D01*
X5254166Y91805000D01*
X5539166Y91805000D01*
X5682499Y91733333D01*
X5754166Y91590000D01*
X5754166Y91448333D01*
X5039166Y91305000D01*
X6354166Y90805000D02*
X6354166Y91805000D01*
X6354166Y91520000D02*
X6425833Y91661667D01*
X6497499Y91733333D01*
X6639166Y91805000D01*
X6782499Y91805000D01*
X8097499Y90805000D02*
X8097499Y91590000D01*
X8025832Y91733333D01*
X7882499Y91805000D01*
X7597499Y91805000D01*
X7454166Y91733333D01*
X8097499Y90876667D02*
X7954166Y90805000D01*
X7597499Y90805000D01*
X7454166Y90876667D01*
X7382499Y91020000D01*
X7382499Y91161667D01*
X7454166Y91305000D01*
X7597499Y91376667D01*
X7954166Y91376667D01*
X8097499Y91448333D01*
X8697499Y91805000D02*
X9269166Y91805000D01*
X8912499Y92305000D02*
X8912499Y91020000D01*
X8982499Y90876667D01*
X9125832Y90805000D01*
X9269166Y90805000D01*
X10154166Y90805000D02*
X10012499Y90876667D01*
X9940833Y90948333D01*
X9869166Y91090000D01*
X9869166Y91520000D01*
X9940833Y91661667D01*
X10012499Y91733333D01*
X10154166Y91805000D01*
X10369166Y91805000D01*
X10512499Y91733333D01*
X10584166Y91661667D01*
X10654166Y91520000D01*
X10654166Y91090000D01*
X10584166Y90948333D01*
X10512499Y90876667D01*
X10369166Y90805000D01*
X10154166Y90805000D01*
X11254166Y90805000D02*
X11254166Y91805000D01*
X11254166Y91520000D02*
X11325833Y91661667D01*
X11397499Y91733333D01*
X11539166Y91805000D01*
X11682499Y91805000D01*
D13*
X10032778Y16827500D02*
X10032778Y18351944D01*
D14*
X82106087Y10953750D02*
X82106087Y12653750D01*
X82106087Y11843417D02*
X83076976Y11843417D01*
X83076976Y10953750D02*
X83076976Y12653750D01*
X83716976Y12087083D02*
X84121198Y10953750D01*
X84527309Y12087083D02*
X84121198Y10953750D01*
X83960643Y10549528D01*
X83879420Y10468306D01*
X83716976Y10387083D01*
X85977642Y10953750D02*
X85977642Y12653750D01*
X85977642Y11034972D02*
X85815198Y10953750D01*
X85490309Y10953750D01*
X85329753Y11034972D01*
X85248531Y11116194D01*
X85167309Y11276750D01*
X85167309Y11764083D01*
X85248531Y11924639D01*
X85329753Y12005861D01*
X85490309Y12087083D01*
X85815198Y12087083D01*
X85977642Y12005861D01*
X86617642Y10953750D02*
X86617642Y12087083D01*
X86617642Y11764083D02*
X86698864Y11924639D01*
X86780086Y12005861D01*
X86940642Y12087083D01*
X87103086Y12087083D01*
X88066086Y10953750D02*
X87905530Y11034972D01*
X87824308Y11116194D01*
X87743086Y11276750D01*
X87743086Y11764083D01*
X87824308Y11924639D01*
X87905530Y12005861D01*
X88066086Y12087083D01*
X88309753Y12087083D01*
X88472197Y12005861D01*
X88553419Y11924639D01*
X88632753Y11764083D01*
X88632753Y11276750D01*
X88553419Y11116194D01*
X88472197Y11034972D01*
X88309753Y10953750D01*
X88066086Y10953750D01*
X91159419Y11843417D02*
X91403085Y11764083D01*
X91482419Y11682861D01*
X91563641Y11520417D01*
X91563641Y11276750D01*
X91482419Y11116194D01*
X91403085Y11034972D01*
X91240641Y10953750D01*
X90592752Y10953750D01*
X90592752Y12653750D01*
X91159419Y12653750D01*
X91321863Y12572528D01*
X91403085Y12491306D01*
X91482419Y12330750D01*
X91482419Y12168306D01*
X91403085Y12005861D01*
X91321863Y11924639D01*
X91159419Y11843417D01*
X90592752Y11843417D01*
X93013974Y10953750D02*
X93013974Y11843417D01*
X92932752Y12005861D01*
X92770308Y12087083D01*
X92447308Y12087083D01*
X92284863Y12005861D01*
X93013974Y11034972D02*
X92851530Y10953750D01*
X92447308Y10953750D01*
X92284863Y11034972D01*
X92203641Y11197417D01*
X92203641Y11357972D01*
X92284863Y11520417D01*
X92447308Y11601639D01*
X92851530Y11601639D01*
X93013974Y11682861D01*
X93653974Y12087083D02*
X94301863Y12087083D01*
X93897641Y12653750D02*
X93897641Y11197417D01*
X93976974Y11034972D01*
X94139418Y10953750D01*
X94301863Y10953750D01*
X94941863Y12087083D02*
X95589752Y12087083D01*
X95185530Y12653750D02*
X95185530Y11197417D01*
X95264863Y11034972D01*
X95427307Y10953750D01*
X95589752Y10953750D01*
X96958863Y11034972D02*
X96796419Y10953750D01*
X96473419Y10953750D01*
X96310974Y11034972D01*
X96229752Y11197417D01*
X96229752Y11843417D01*
X96310974Y12005861D01*
X96473419Y12087083D01*
X96796419Y12087083D01*
X96958863Y12005861D01*
X97040085Y11843417D01*
X97040085Y11682861D01*
X96229752Y11520417D01*
X97680085Y10953750D02*
X97680085Y12087083D01*
X97680085Y11764083D02*
X97761307Y11924639D01*
X97842529Y12005861D01*
X98003085Y12087083D01*
X98165529Y12087083D01*
X98805529Y12087083D02*
X99209751Y10953750D01*
X99615862Y12087083D02*
X99209751Y10953750D01*
X99049196Y10549528D01*
X98967973Y10468306D01*
X98805529Y10387083D01*
X102627972Y11116194D02*
X102546750Y11034972D01*
X102304972Y10953750D01*
X102142528Y10953750D01*
X101898861Y11034972D01*
X101738305Y11197417D01*
X101657083Y11357972D01*
X101575861Y11682861D01*
X101575861Y11924639D01*
X101657083Y12249528D01*
X101738305Y12410083D01*
X101898861Y12572528D01*
X102142528Y12653750D01*
X102304972Y12653750D01*
X102546750Y12572528D01*
X102627972Y12491306D01*
X103267972Y10953750D02*
X103267972Y12653750D01*
X103997083Y10953750D02*
X103997083Y11843417D01*
X103915861Y12005861D01*
X103753416Y12087083D01*
X103511639Y12087083D01*
X103349194Y12005861D01*
X103267972Y11924639D01*
X105447416Y10953750D02*
X105447416Y11843417D01*
X105366194Y12005861D01*
X105203750Y12087083D01*
X104880750Y12087083D01*
X104718305Y12005861D01*
X105447416Y11034972D02*
X105284972Y10953750D01*
X104880750Y10953750D01*
X104718305Y11034972D01*
X104637083Y11197417D01*
X104637083Y11357972D01*
X104718305Y11520417D01*
X104880750Y11601639D01*
X105284972Y11601639D01*
X105447416Y11682861D01*
X106087416Y10953750D02*
X106087416Y12087083D01*
X106087416Y11764083D02*
X106168638Y11924639D01*
X106249860Y12005861D01*
X106410416Y12087083D01*
X106572860Y12087083D01*
X108023193Y12087083D02*
X108023193Y10710083D01*
X107941971Y10549528D01*
X107860749Y10468306D01*
X107698304Y10387083D01*
X107456527Y10387083D01*
X107294082Y10468306D01*
X108023193Y11034972D02*
X107860749Y10953750D01*
X107535860Y10953750D01*
X107375304Y11034972D01*
X107294082Y11116194D01*
X107212860Y11276750D01*
X107212860Y11764083D01*
X107294082Y11924639D01*
X107375304Y12005861D01*
X107535860Y12087083D01*
X107860749Y12087083D01*
X108023193Y12005861D01*
X109392304Y11034972D02*
X109229860Y10953750D01*
X108906860Y10953750D01*
X108744415Y11034972D01*
X108663193Y11197417D01*
X108663193Y11843417D01*
X108744415Y12005861D01*
X108906860Y12087083D01*
X109229860Y12087083D01*
X109392304Y12005861D01*
X109473526Y11843417D01*
X109473526Y11682861D01*
X108663193Y11520417D01*
X110113526Y10953750D02*
X110113526Y12087083D01*
X110113526Y11764083D02*
X110194748Y11924639D01*
X110275970Y12005861D01*
X110436526Y12087083D01*
X110598970Y12087083D01*
X112558969Y12087083D02*
X112963191Y10953750D01*
X113369302Y12087083D01*
X114009302Y12653750D02*
X115061413Y12653750D01*
X114494746Y12005861D01*
X114738413Y12005861D01*
X114898969Y11924639D01*
X114980191Y11843417D01*
X115061413Y11682861D01*
X115061413Y11276750D01*
X114980191Y11116194D01*
X114898969Y11034972D01*
X114738413Y10953750D01*
X114252969Y10953750D01*
X114090524Y11034972D01*
X114009302Y11116194D01*
D13*
X9207500Y83947222D02*
X10731944Y83947222D01*
X9969722Y83185000D02*
X9969722Y84709444D01*
D10*
X89926918Y8731250D02*
X90051140Y8731250D01*
X90175363Y8669139D01*
X90237474Y8607028D01*
X90298140Y8484250D01*
X90360251Y8235806D01*
X90360251Y7926694D01*
X90298140Y7678250D01*
X90237474Y7555472D01*
X90175363Y7493361D01*
X90051140Y7431250D01*
X89926918Y7431250D01*
X89804140Y7493361D01*
X89742029Y7555472D01*
X89679918Y7678250D01*
X89617807Y7926694D01*
X89617807Y8235806D01*
X89679918Y8484250D01*
X89742029Y8607028D01*
X89804140Y8669139D01*
X89926918Y8731250D01*
X90820251Y8731250D02*
X91624807Y8731250D01*
X91191473Y8235806D01*
X91377807Y8235806D01*
X91500584Y8173694D01*
X91562695Y8111583D01*
X91624807Y7988806D01*
X91624807Y7678250D01*
X91562695Y7555472D01*
X91500584Y7493361D01*
X91377807Y7431250D01*
X91006584Y7431250D01*
X90882362Y7493361D01*
X90820251Y7555472D01*
X93198474Y8793361D02*
X92084807Y7122139D01*
X93720585Y8607028D02*
X93782696Y8669139D01*
X93905474Y8731250D01*
X94216030Y8731250D01*
X94338807Y8669139D01*
X94400918Y8607028D01*
X94463030Y8484250D01*
X94463030Y8360028D01*
X94400918Y8173694D01*
X93658474Y7431250D01*
X94463030Y7431250D01*
X95232141Y8731250D02*
X95356363Y8731250D01*
X95480586Y8669139D01*
X95542697Y8607028D01*
X95603363Y8484250D01*
X95665474Y8235806D01*
X95665474Y7926694D01*
X95603363Y7678250D01*
X95542697Y7555472D01*
X95480586Y7493361D01*
X95356363Y7431250D01*
X95232141Y7431250D01*
X95109363Y7493361D01*
X95047252Y7555472D01*
X94985141Y7678250D01*
X94923030Y7926694D01*
X94923030Y8235806D01*
X94985141Y8484250D01*
X95047252Y8607028D01*
X95109363Y8669139D01*
X95232141Y8731250D01*
X96187585Y8607028D02*
X96249696Y8669139D01*
X96372474Y8731250D01*
X96683030Y8731250D01*
X96805807Y8669139D01*
X96867918Y8607028D01*
X96930030Y8484250D01*
X96930030Y8360028D01*
X96867918Y8173694D01*
X96125474Y7431250D01*
X96930030Y7431250D01*
X97699141Y8731250D02*
X97823363Y8731250D01*
X97947586Y8669139D01*
X98009697Y8607028D01*
X98070363Y8484250D01*
X98132474Y8235806D01*
X98132474Y7926694D01*
X98070363Y7678250D01*
X98009697Y7555472D01*
X97947586Y7493361D01*
X97823363Y7431250D01*
X97699141Y7431250D01*
X97576363Y7493361D01*
X97514252Y7555472D01*
X97452141Y7678250D01*
X97390030Y7926694D01*
X97390030Y8235806D01*
X97452141Y8484250D01*
X97514252Y8607028D01*
X97576363Y8669139D01*
X97699141Y8731250D01*
X99572473Y8731250D02*
X99572473Y7678250D01*
X99634584Y7555472D01*
X99696695Y7493361D01*
X99819473Y7431250D01*
X100067917Y7431250D01*
X100192140Y7493361D01*
X100252806Y7555472D01*
X100314917Y7678250D01*
X100314917Y8731250D01*
X100837028Y7555472D02*
X100899139Y7493361D01*
X100837028Y7431250D01*
X100774917Y7493361D01*
X100837028Y7555472D01*
X100837028Y7431250D01*
X102772471Y8111583D02*
X102958805Y8050917D01*
X103019471Y7988806D01*
X103081582Y7864583D01*
X103081582Y7678250D01*
X103019471Y7555472D01*
X102958805Y7493361D01*
X102834582Y7431250D01*
X102339138Y7431250D01*
X102339138Y8731250D01*
X102772471Y8731250D01*
X102896694Y8669139D01*
X102958805Y8607028D01*
X103019471Y8484250D01*
X103019471Y8360028D01*
X102958805Y8235806D01*
X102896694Y8173694D01*
X102772471Y8111583D01*
X102339138Y8111583D01*
X103541582Y7431250D02*
X103541582Y8297917D01*
X103541582Y8050917D02*
X103603693Y8173694D01*
X103665804Y8235806D01*
X103788582Y8297917D01*
X103912804Y8297917D01*
X104930360Y8297917D02*
X104930360Y7431250D01*
X104372804Y8297917D02*
X104372804Y7617583D01*
X104434915Y7493361D01*
X104559137Y7431250D01*
X104744026Y7431250D01*
X104868248Y7493361D01*
X104930360Y7555472D01*
X105390360Y7431250D02*
X105390360Y8731250D01*
X105947916Y7431250D02*
X105947916Y8111583D01*
X105885804Y8235806D01*
X105761582Y8297917D01*
X105576693Y8297917D01*
X105452471Y8235806D01*
X105390360Y8173694D01*
X106470027Y7431250D02*
X106470027Y8297917D01*
X106470027Y8731250D02*
X106407916Y8669139D01*
X106470027Y8607028D01*
X106532138Y8669139D01*
X106470027Y8731250D01*
X106470027Y8607028D01*
X106992138Y8297917D02*
X106992138Y7431250D01*
X106992138Y8173694D02*
X107054249Y8235806D01*
X107178471Y8297917D01*
X107363360Y8297917D01*
X107487582Y8235806D01*
X107549694Y8111583D01*
X107549694Y7431250D01*
D13*
X10032778Y86677500D02*
X10032778Y88201944D01*
D10*
X80321389Y52401250D02*
X79844722Y52401250D01*
X79844722Y53401250D01*
X80721389Y52924583D02*
X81054722Y52924583D01*
X81198056Y52401250D02*
X80721389Y52401250D01*
X80721389Y53401250D01*
X81198056Y53401250D01*
X81598056Y52401250D02*
X81598056Y53401250D01*
X81835834Y53401250D01*
X81979167Y53353472D01*
X82074723Y53257917D01*
X82121389Y53163472D01*
X82169167Y52972361D01*
X82169167Y52830139D01*
X82121389Y52639028D01*
X82074723Y52544583D01*
X81979167Y52449028D01*
X81835834Y52401250D01*
X81598056Y52401250D01*
X83140278Y52401250D02*
X82569167Y52401250D01*
X82854723Y52401250D02*
X82854723Y53401250D01*
X82759167Y53257917D01*
X82664723Y53163472D01*
X82569167Y53115694D01*
X88705000Y43540278D02*
X88848333Y43492500D01*
X89086111Y43492500D01*
X89181667Y43540278D01*
X89228333Y43588056D01*
X89276111Y43682500D01*
X89276111Y43778056D01*
X89228333Y43873611D01*
X89181667Y43921389D01*
X89086111Y43969167D01*
X88895000Y44015833D01*
X88800556Y44063611D01*
X88752778Y44111389D01*
X88705000Y44206944D01*
X88705000Y44302500D01*
X88752778Y44396944D01*
X88800556Y44444722D01*
X88895000Y44492500D01*
X89133889Y44492500D01*
X89276111Y44444722D01*
X89723889Y44396944D02*
X89771667Y44444722D01*
X89866111Y44492500D01*
X90105000Y44492500D01*
X90199444Y44444722D01*
X90247222Y44396944D01*
X90295000Y44302500D01*
X90295000Y44206944D01*
X90247222Y44063611D01*
X89676111Y43492500D01*
X90295000Y43492500D01*
X96167500Y59618611D02*
X95690833Y59285278D01*
X96167500Y59047500D02*
X95167500Y59047500D01*
X95167500Y59428611D01*
X95215278Y59524167D01*
X95263056Y59570833D01*
X95357500Y59618611D01*
X95500833Y59618611D01*
X95596389Y59570833D01*
X95644167Y59524167D01*
X95690833Y59428611D01*
X95690833Y59047500D01*
X95263056Y60066389D02*
X95215278Y60114167D01*
X95167500Y60208611D01*
X95167500Y60447500D01*
X95215278Y60541944D01*
X95263056Y60589722D01*
X95357500Y60637500D01*
X95453056Y60637500D01*
X95596389Y60589722D01*
X96167500Y60018611D01*
X96167500Y60637500D01*
X95167500Y61275278D02*
X95167500Y61370833D01*
X95215278Y61466389D01*
X95263056Y61514167D01*
X95357500Y61560833D01*
X95548611Y61608611D01*
X95786389Y61608611D01*
X95977500Y61560833D01*
X96071944Y61514167D01*
X96119722Y61466389D01*
X96167500Y61370833D01*
X96167500Y61275278D01*
X96119722Y61180833D01*
X96071944Y61133056D01*
X95977500Y61085278D01*
X95786389Y61037500D01*
X95548611Y61037500D01*
X95357500Y61085278D01*
X95263056Y61133056D01*
X95215278Y61180833D01*
X95167500Y61275278D01*
X80298750Y62402500D02*
X79822083Y62402500D01*
X79822083Y63402500D01*
X80698750Y62925833D02*
X81032083Y62925833D01*
X81175417Y62402500D02*
X80698750Y62402500D01*
X80698750Y63402500D01*
X81175417Y63402500D01*
X81575417Y62402500D02*
X81575417Y63402500D01*
X81813195Y63402500D01*
X81956528Y63354722D01*
X82052084Y63259167D01*
X82098750Y63164722D01*
X82146528Y62973611D01*
X82146528Y62831389D01*
X82098750Y62640278D01*
X82052084Y62545833D01*
X81956528Y62450278D01*
X81813195Y62402500D01*
X81575417Y62402500D01*
X82546528Y63402500D02*
X83165417Y63402500D01*
X82832084Y63021389D01*
X82975417Y63021389D01*
X83069861Y62973611D01*
X83117639Y62925833D01*
X83165417Y62831389D01*
X83165417Y62592500D01*
X83117639Y62498056D01*
X83069861Y62450278D01*
X82975417Y62402500D01*
X82689861Y62402500D01*
X82594306Y62450278D01*
X82546528Y62498056D01*
X2009861Y75288750D02*
X2009861Y74478750D01*
X2057639Y74384306D01*
X2105417Y74336528D01*
X2199861Y74288750D01*
X2390972Y74288750D01*
X2486528Y74336528D01*
X2533194Y74384306D01*
X2580972Y74478750D01*
X2580972Y75288750D01*
X2980972Y75288750D02*
X3647639Y75288750D01*
X3218750Y74288750D01*
X80296250Y42400000D02*
X79819583Y42400000D01*
X79819583Y43400000D01*
X80696250Y42923333D02*
X81029583Y42923333D01*
X81172917Y42400000D02*
X80696250Y42400000D01*
X80696250Y43400000D01*
X81172917Y43400000D01*
X81572917Y42400000D02*
X81572917Y43400000D01*
X81810695Y43400000D01*
X81954028Y43352222D01*
X82049584Y43256667D01*
X82096250Y43162222D01*
X82144028Y42971111D01*
X82144028Y42828889D01*
X82096250Y42637778D01*
X82049584Y42543333D01*
X81954028Y42447778D01*
X81810695Y42400000D01*
X81572917Y42400000D01*
X82591806Y43304444D02*
X82639584Y43352222D01*
X82734028Y43400000D01*
X82972917Y43400000D01*
X83067361Y43352222D01*
X83115139Y43304444D01*
X83162917Y43210000D01*
X83162917Y43114444D01*
X83115139Y42971111D01*
X82544028Y42400000D01*
X83162917Y42400000D01*
X88658889Y53464028D02*
X88802222Y53416250D01*
X89040000Y53416250D01*
X89135556Y53464028D01*
X89182222Y53511806D01*
X89230000Y53606250D01*
X89230000Y53701806D01*
X89182222Y53797361D01*
X89135556Y53845139D01*
X89040000Y53892917D01*
X88848889Y53939583D01*
X88754445Y53987361D01*
X88706667Y54035139D01*
X88658889Y54130694D01*
X88658889Y54226250D01*
X88706667Y54320694D01*
X88754445Y54368472D01*
X88848889Y54416250D01*
X89087778Y54416250D01*
X89230000Y54368472D01*
X90201111Y53416250D02*
X89630000Y53416250D01*
X89915556Y53416250D02*
X89915556Y54416250D01*
X89820000Y54272917D01*
X89725556Y54178472D01*
X89630000Y54130694D01*
%LPC*%
D15*
X80230000Y50000000D03*
X82770000Y50000000D03*
D16*
X92750000Y37755000D03*
X86250000Y42245000D03*
X92750000Y42245000D03*
X86250000Y37755000D03*
D17*
X40481250Y56515000D03*
D18*
X89500000Y65000000D03*
X92000000Y55000000D03*
X87000000Y55000000D03*
D19*
X14605000Y12697500D03*
X14605000Y6847500D03*
X14605000Y29347500D03*
X14605000Y23497500D03*
D20*
X31432500Y20637500D03*
X31432500Y23177500D03*
X31432500Y25717500D03*
D21*
X14922500Y90328750D03*
X30162500Y90328750D03*
D17*
X67627500Y56197500D03*
D15*
X80230000Y60000000D03*
X82770000Y60000000D03*
D17*
X37306250Y56515000D03*
D22*
X7000000Y76920000D03*
X7000000Y82000000D03*
X7000000Y87080000D03*
D17*
X56038750Y24130000D03*
X20320000Y24447500D03*
D23*
X44450000Y10240000D03*
X44450000Y20240000D03*
D16*
X8030000Y51276250D03*
X10570000Y56356250D03*
X8030000Y58896250D03*
X8030000Y41116250D03*
X10570000Y53816250D03*
X10570000Y46196250D03*
X8030000Y46196250D03*
X8030000Y48736250D03*
X8030000Y53816250D03*
X10570000Y48736250D03*
X10570000Y38576250D03*
X10570000Y43656250D03*
X10570000Y51276250D03*
D24*
X10570000Y61436250D03*
D16*
X8030000Y61436250D03*
X8030000Y38576250D03*
X10570000Y58896250D03*
X10570000Y41116250D03*
X8030000Y43656250D03*
X8030000Y56356250D03*
D25*
X53657500Y55245000D03*
X14922500Y93345000D03*
D26*
X77152500Y56197500D03*
X72072500Y56197500D03*
D27*
X21160000Y71000000D03*
X31320000Y71000000D03*
X33860000Y71000000D03*
X16080000Y71000000D03*
X36400000Y71000000D03*
X44020000Y71000000D03*
X46560000Y71000000D03*
X28780000Y71000000D03*
X18620000Y71000000D03*
X23700000Y71000000D03*
X13540000Y71000000D03*
X38940000Y71000000D03*
X49100000Y71000000D03*
X41480000Y71000000D03*
D28*
X11000000Y71000000D03*
D27*
X26240000Y71000000D03*
D29*
X39907500Y63817500D03*
X67407500Y63817500D03*
D23*
X46037500Y89772500D03*
X46037500Y79772500D03*
D15*
X80230000Y40000000D03*
X82770000Y40000000D03*
D30*
X23495000Y10160000D03*
X23495000Y25400000D03*
D23*
X68580000Y89772500D03*
X68580000Y79772500D03*
D17*
X29368750Y87312500D03*
D31*
X67627500Y52720000D03*
X67627500Y38720000D03*
D32*
X27942500Y82073750D03*
X33792500Y82073750D03*
X11292500Y82073750D03*
X17142500Y82073750D03*
D18*
X19685000Y57230000D03*
X22185000Y67230000D03*
X17185000Y67230000D03*
D33*
X63182500Y56197500D03*
X60642500Y56197500D03*
X58102500Y56197500D03*
D23*
X66992500Y10240000D03*
X66992500Y20240000D03*
D22*
X7000000Y17540000D03*
X7000000Y12460000D03*
D17*
X34290000Y65405000D03*
D16*
X86250000Y52245000D03*
X92750000Y47755000D03*
X86250000Y47755000D03*
X92750000Y52245000D03*
D29*
X38320000Y32385000D03*
X65820000Y32385000D03*
D11*
X0Y100000000D02*
X120000000Y100000000D01*
X120000000Y96000000D01*
X0Y96000000D01*
X0Y100000000D01*
G36*
X0Y100000000D02*
X120000000Y100000000D01*
X120000000Y96000000D01*
X0Y96000000D01*
X0Y100000000D01*
G37*
X0Y0D02*
X120000000Y0D01*
X120000000Y4000000D01*
X0Y4000000D01*
X0Y0D01*
G36*
X0Y0D02*
X120000000Y0D01*
X120000000Y4000000D01*
X0Y4000000D01*
X0Y0D01*
G37*
G04 --- BOARD END --- *
%TF.MD5,200611cb8f011a591628cb7fe01ad49d*%
M02*
