G04 --- HEADER BEGIN --- *
%TF.GenerationSoftware,LibrePCB,LibrePCB,0.1.3*%
%TF.CreationDate,2020-03-08T21:05:15*%
%TF.ProjectId,Hydro Battery Charger - default,71762d7e-e7f1-403c-8020-db9670c01e9b,v3*%
%TF.Part,Single*%
%FSLAX66Y66*%
%MOMM*%
G01*
G74*
G04 --- HEADER END --- *
G04 --- APERTURE LIST BEGIN --- *
%ADD10C,1.7*%
%ADD11R,1.7X1.5*%
%ADD12C,2.0*%
%ADD13R,1.735X0.68*%
%ADD14R,2.39X1.787*%
%ADD15R,1.2X1.3*%
%ADD16C,2.5*%
%ADD17R,0.8X1.3*%
%ADD18R,1.0X0.95*%
%ADD19O,3.2X2.0*%
%ADD20R,2.9X1.4*%
%ADD21R,3.4X5.2*%
%ADD22O,3.2X1.7*%
%ADD23R,1.3X1.2*%
%ADD24R,1.6X1.2*%
%ADD25R,0.68X1.735*%
%ADD26R,3.3X2.6*%
%ADD27O,4.2X3.0*%
%ADD28R,1.2X1.6*%
%ADD29R,1.8X1.25*%
%ADD30R,5.7X4.05*%
%ADD31O,4.2X2.74*%
%ADD32R,0.95X1.0*%
%ADD33C,4.2*%
%ADD34R,2.0X2.0*%
%ADD35R,1.787X2.39*%
%ADD36O,2.232X4.264*%
%ADD37R,3.6X2.1*%
%ADD38O,2.0X2.7*%
%ADD39R,2.0X2.7*%
%ADD40O,2.0X3.0*%
%ADD41R,0.65X1.4*%
%ADD42R,1.4X0.65*%
%ADD43O,3.0X4.2*%
%ADD44O,2.74X1.7*%
%ADD45O,2.0X3.2*%
%ADD46O,1.7X3.2*%
%ADD47R,1.5X1.7*%
%ADD48C,0.0*%
G04 --- APERTURE LIST END --- *
G04 --- BOARD BEGIN --- *
D10*
X80230000Y50000000D03*
X82770000Y50000000D03*
D11*
X25558750Y33335000D03*
X25558750Y31435000D03*
D12*
X92750000Y37755000D03*
X86250000Y42245000D03*
X92750000Y42245000D03*
X86250000Y37755000D03*
D13*
X32745500Y32385000D03*
X27579500Y29845000D03*
X32745500Y33655000D03*
X27579500Y32385000D03*
X27579500Y31115000D03*
X32745500Y31115000D03*
X27579500Y33655000D03*
X32745500Y29845000D03*
D14*
X40481250Y56515000D03*
D15*
X22383750Y38791250D03*
X22383750Y37091250D03*
D16*
X89500000Y65000000D03*
X92000000Y55000000D03*
X87000000Y55000000D03*
D17*
X35081250Y62995000D03*
X33181250Y60195000D03*
X34131250Y60195000D03*
X35081250Y60195000D03*
X33181250Y62995000D03*
D18*
X28733750Y67926250D03*
X28733750Y66376250D03*
D19*
X14605000Y12697500D03*
X14605000Y6847500D03*
X14605000Y29347500D03*
X14605000Y23497500D03*
D20*
X35560000Y38881250D03*
X35560000Y42081250D03*
D21*
X3352800Y23495000D03*
X8077200Y23495000D03*
D15*
X18097500Y37091250D03*
X18097500Y38791250D03*
D22*
X31432500Y20637500D03*
X31432500Y23177500D03*
X31432500Y25717500D03*
D18*
X82796250Y43002500D03*
X82796250Y41452500D03*
D23*
X14978750Y44608750D03*
X13278750Y44608750D03*
D24*
X25093750Y67307500D03*
X27293750Y66357500D03*
X25093750Y65407500D03*
D18*
X33496250Y44468750D03*
X33496250Y46018750D03*
D25*
X36517500Y49096750D03*
X36507500Y43930750D03*
X37777500Y43930750D03*
X39047500Y43930750D03*
X35237500Y43930750D03*
D26*
X37147500Y46513750D03*
D25*
X39057500Y49096750D03*
X35247500Y49096750D03*
X37787500Y49096750D03*
D27*
X14922500Y90328750D03*
X30162500Y90328750D03*
D28*
X46516250Y54621250D03*
X47466250Y56821250D03*
X48416250Y54621250D03*
D29*
X32861250Y40326250D03*
X32861250Y43176250D03*
D30*
X46873868Y50011154D03*
X46873868Y40061154D03*
D15*
X16668750Y37091250D03*
X16668750Y38791250D03*
D18*
X82796250Y46850000D03*
X82796250Y48400000D03*
X34131250Y36055000D03*
X34131250Y37605000D03*
D14*
X67627500Y56197500D03*
D29*
X10477500Y74457500D03*
X10477500Y77307500D03*
D18*
X35401250Y36055000D03*
X35401250Y37605000D03*
D23*
X14978750Y41751250D03*
X13278750Y41751250D03*
X51015000Y57150000D03*
X49315000Y57150000D03*
D18*
X82796250Y44151250D03*
X82796250Y45701250D03*
X34925000Y52051250D03*
X34925000Y50501250D03*
D10*
X80230000Y60000000D03*
X82770000Y60000000D03*
D28*
X8892500Y66210000D03*
X9842500Y68410000D03*
X10792500Y66210000D03*
D14*
X37306250Y56515000D03*
D31*
X7000000Y76920000D03*
X7000000Y82000000D03*
X7000000Y87080000D03*
D18*
X55880000Y71895000D03*
X55880000Y70345000D03*
X9366250Y26688750D03*
X9366250Y28238750D03*
D14*
X56038750Y24130000D03*
X20320000Y24447500D03*
D15*
X20955000Y37091250D03*
X20955000Y38791250D03*
D29*
X34925000Y32071250D03*
X34925000Y34921250D03*
D32*
X24942500Y38893750D03*
X26492500Y38893750D03*
D33*
X44450000Y10240000D03*
X44450000Y20240000D03*
D12*
X8030000Y51276250D03*
X10570000Y56356250D03*
X8030000Y58896250D03*
X8030000Y41116250D03*
X10570000Y53816250D03*
X10570000Y46196250D03*
X8030000Y46196250D03*
X8030000Y48736250D03*
X8030000Y53816250D03*
X10570000Y48736250D03*
X10570000Y38576250D03*
X10570000Y43656250D03*
X10570000Y51276250D03*
D34*
X10570000Y61436250D03*
D12*
X8030000Y61436250D03*
X8030000Y38576250D03*
X10570000Y58896250D03*
X10570000Y41116250D03*
X8030000Y43656250D03*
X8030000Y56356250D03*
D35*
X53657500Y55245000D03*
D15*
X36353750Y51220000D03*
X36353750Y52920000D03*
D32*
X11607500Y63817500D03*
X13157500Y63817500D03*
D35*
X14922500Y93345000D03*
D36*
X77152500Y56197500D03*
X72072500Y56197500D03*
D37*
X20320000Y31927500D03*
X20320000Y27127500D03*
D32*
X38595000Y52070000D03*
X40145000Y52070000D03*
D37*
X33972500Y94792500D03*
X33972500Y89992500D03*
D38*
X21160000Y71000000D03*
X31320000Y71000000D03*
X33860000Y71000000D03*
X16080000Y71000000D03*
X36400000Y71000000D03*
X44020000Y71000000D03*
X46560000Y71000000D03*
X28780000Y71000000D03*
X18620000Y71000000D03*
X23700000Y71000000D03*
X13540000Y71000000D03*
X38940000Y71000000D03*
X49100000Y71000000D03*
X41480000Y71000000D03*
D39*
X11000000Y71000000D03*
D38*
X26240000Y71000000D03*
D40*
X39907500Y63817500D03*
X67407500Y63817500D03*
D28*
X12226250Y66210000D03*
X13176250Y68410000D03*
X14126250Y66210000D03*
D23*
X43441250Y53022500D03*
X45141250Y53022500D03*
D11*
X36671250Y58898750D03*
X36671250Y60798750D03*
D33*
X46037500Y89772500D03*
X46037500Y79772500D03*
D23*
X13278750Y43180000D03*
X14978750Y43180000D03*
D17*
X43815000Y57280000D03*
X43815000Y54480000D03*
X44765000Y57280000D03*
X44765000Y54480000D03*
X42865000Y54480000D03*
X42865000Y57280000D03*
D41*
X21983750Y49393750D03*
X25183750Y49393750D03*
X21183750Y49393750D03*
D42*
X26533750Y46443750D03*
X26533750Y48043750D03*
D41*
X20383750Y41093750D03*
D42*
X26533750Y42443750D03*
X26533750Y44043750D03*
D41*
X19583750Y49393750D03*
X23583750Y41093750D03*
D42*
X18233750Y44843750D03*
D41*
X20383750Y49393750D03*
D42*
X18233750Y44043750D03*
D41*
X19583750Y41093750D03*
X25183750Y41093750D03*
D42*
X18233750Y46443750D03*
X18233750Y43243750D03*
X18233750Y45643750D03*
X26533750Y47243750D03*
D41*
X22783750Y41093750D03*
D42*
X26533750Y45643750D03*
D41*
X24383750Y49393750D03*
X21183750Y41093750D03*
D42*
X26533750Y43243750D03*
D41*
X24383750Y41093750D03*
D42*
X18233750Y48043750D03*
D41*
X23583750Y49393750D03*
D42*
X18233750Y42443750D03*
X26533750Y44843750D03*
D41*
X22783750Y49393750D03*
D42*
X18233750Y47243750D03*
D41*
X21983750Y41093750D03*
D10*
X80230000Y40000000D03*
X82770000Y40000000D03*
D43*
X23495000Y10160000D03*
X23495000Y25400000D03*
D18*
X33496250Y48558750D03*
X33496250Y47008750D03*
D33*
X68580000Y89772500D03*
X68580000Y79772500D03*
D23*
X17406250Y50958750D03*
X19106250Y50958750D03*
D14*
X29368750Y87312500D03*
D18*
X32226250Y44468750D03*
X32226250Y46018750D03*
D32*
X54432500Y57467500D03*
X52882500Y57467500D03*
D44*
X67627500Y52720000D03*
X67627500Y38720000D03*
D15*
X19526250Y37091250D03*
X19526250Y38791250D03*
X33496250Y49791250D03*
X33496250Y51491250D03*
D11*
X36671250Y64291250D03*
X36671250Y62391250D03*
D45*
X27942500Y82073750D03*
X33792500Y82073750D03*
X11292500Y82073750D03*
X17142500Y82073750D03*
D29*
X55880000Y76990000D03*
X55880000Y74140000D03*
D23*
X15455000Y73342500D03*
X13755000Y73342500D03*
D16*
X19685000Y57230000D03*
X22185000Y67230000D03*
X17185000Y67230000D03*
D23*
X39585000Y50641250D03*
X37885000Y50641250D03*
D46*
X63182500Y56197500D03*
X60642500Y56197500D03*
X58102500Y56197500D03*
D20*
X38735000Y42085036D03*
X38735000Y38885036D03*
D33*
X66992500Y10240000D03*
X66992500Y20240000D03*
D31*
X7000000Y17540000D03*
X7000000Y12460000D03*
D14*
X34290000Y65405000D03*
D12*
X86250000Y52245000D03*
X92750000Y47755000D03*
X86250000Y47755000D03*
X92750000Y52245000D03*
D40*
X38320000Y32385000D03*
X65820000Y32385000D03*
D15*
X27622500Y40696250D03*
X27622500Y38996250D03*
D47*
X19206250Y52863750D03*
X17306250Y52863750D03*
D15*
X23812500Y38791250D03*
X23812500Y37091250D03*
D48*
X0Y0D02*
X120000000Y0D01*
X120000000Y4000000D01*
X0Y4000000D01*
X0Y0D01*
G36*
X0Y0D02*
X120000000Y0D01*
X120000000Y4000000D01*
X0Y4000000D01*
X0Y0D01*
G37*
X0Y100000000D02*
X120000000Y100000000D01*
X120000000Y96000000D01*
X0Y96000000D01*
X0Y100000000D01*
G36*
X0Y100000000D02*
X120000000Y100000000D01*
X120000000Y96000000D01*
X0Y96000000D01*
X0Y100000000D01*
G37*
G04 --- BOARD END --- *
%TF.MD5,4076fb0ad556f428ce11911241e9401c*%
M02*
