G04 --- HEADER BEGIN --- *
%TF.GenerationSoftware,LibrePCB,LibrePCB,0.1.4*%
%TF.CreationDate,2020-06-28T21:35:14*%
%TF.ProjectId,Hydro Battery Charger - default,71762d7e-e7f1-403c-8020-db9670c01e9b,v4*%
%TF.Part,Single*%
%FSLAX66Y66*%
%MOMM*%
G01*
G74*
G04 --- HEADER END --- *
G04 --- APERTURE LIST BEGIN --- *
%ADD10C,0.2*%
%ADD11C,0.0*%
%ADD12C,0.4*%
%ADD13C,0.5*%
%ADD14C,0.3*%
%ADD15C,1.7*%
%ADD16C,2.0*%
%ADD17R,2.39X1.787*%
%ADD18C,2.5*%
%ADD19O,3.2X2.0*%
%ADD20O,3.2X1.7*%
%ADD21O,4.2X3.0*%
%ADD22O,4.2X2.74*%
%ADD23C,4.2*%
%ADD24R,2.0X2.0*%
%ADD25R,1.787X2.39*%
%ADD26O,2.232X4.264*%
%ADD27O,2.39X1.787*%
%ADD28C,3.4*%
%ADD29C,2.7*%
%ADD30O,2.0X2.7*%
%ADD31R,2.0X2.7*%
%ADD32O,2.0X3.0*%
%ADD33O,3.0X4.2*%
%ADD34O,2.74X1.7*%
%ADD35O,2.0X3.2*%
%ADD36O,1.7X3.2*%
G04 --- APERTURE LIST END --- *
G04 --- BOARD BEGIN --- *
D10*
X80030000Y51100000D02*
X80030000Y51360000D01*
G75*
G02*
X83220000Y51000000I1461807J-1360238D01*
G01*
X80030000Y48900000D02*
X80030000Y48640000D01*
G03*
X83220000Y49000000I1461807J1360238D01*
G01*
X91500000Y41900000D02*
X87500000Y41900000D01*
X86400000Y44200000D02*
X86400000Y45800000D01*
X92600000Y45800000D02*
X92600000Y44200000D01*
X87500000Y48100000D02*
X91500000Y48100000D01*
D11*
X87999750Y86677500D02*
X88846750Y86677500D01*
X88846750Y86254500D01*
X87999750Y86254500D01*
X87999750Y86677500D01*
G36*
X87999750Y86677500D02*
X88846750Y86677500D01*
X88846750Y86254500D01*
X87999750Y86254500D01*
X87999750Y86677500D01*
G37*
X85672750Y89428500D02*
X86094750Y89428500D01*
X86094750Y90275500D01*
X85672750Y90275500D01*
X85672750Y89428500D01*
G36*
X85672750Y89428500D02*
X86094750Y89428500D01*
X86094750Y90275500D01*
X85672750Y90275500D01*
X85672750Y89428500D01*
G37*
X84825750Y89428500D02*
X85248750Y89428500D01*
X85248750Y90275500D01*
X84825750Y90275500D01*
X84825750Y89428500D01*
G36*
X84825750Y89428500D02*
X85248750Y89428500D01*
X85248750Y90275500D01*
X84825750Y90275500D01*
X84825750Y89428500D01*
G37*
X83767750Y88370500D02*
X82920750Y88370500D01*
X82920750Y87947500D01*
X83767750Y87947500D01*
X83767750Y88370500D01*
G36*
X83767750Y88370500D02*
X82920750Y88370500D01*
X82920750Y87947500D01*
X83767750Y87947500D01*
X83767750Y88370500D01*
G37*
X85672750Y85196500D02*
X86094750Y85196500D01*
X86094750Y84349500D01*
X85672750Y84349500D01*
X85672750Y85196500D01*
G36*
X85672750Y85196500D02*
X86094750Y85196500D01*
X86094750Y84349500D01*
X85672750Y84349500D01*
X85672750Y85196500D01*
G37*
X84613750Y89005500D02*
X87153750Y89005500D01*
G02*
X87576750Y88582500I0J-423000D01*
G01*
X87576750Y86042500D01*
G02*
X87153750Y85619500I-423000J0D01*
G01*
X84613750Y85619500D01*
G02*
X84190750Y86042500I0J423000D01*
G01*
X84190750Y88242500D01*
X84620750Y88242500D01*
G03*
X84953750Y87909100I333200J-200D01*
G01*
G03*
X85287150Y88242500I0J333400D01*
G01*
G03*
X84953750Y88575500I-333200J-200D01*
G01*
G03*
X84620750Y88242500I0J-333000D01*
G01*
X84190750Y88242500D01*
X84190750Y88582500D01*
G02*
X84613750Y89005500I423000J0D01*
G01*
G36*
X84613750Y89005500D02*
X87153750Y89005500D01*
G02*
X87576750Y88582500I0J-423000D01*
G01*
X87576750Y86042500D01*
G02*
X87153750Y85619500I-423000J0D01*
G01*
X84613750Y85619500D01*
G02*
X84190750Y86042500I0J423000D01*
G01*
X84190750Y88242500D01*
X84620750Y88242500D01*
G03*
X84953750Y87909100I333200J-200D01*
G01*
G03*
X85287150Y88242500I0J333400D01*
G01*
G03*
X84953750Y88575500I-333200J-200D01*
G01*
G03*
X84620750Y88242500I0J-333000D01*
G01*
X84190750Y88242500D01*
X84190750Y88582500D01*
G02*
X84613750Y89005500I423000J0D01*
G01*
G37*
X87999750Y88370500D02*
X88846750Y88370500D01*
X88846750Y87947500D01*
X87999750Y87947500D01*
X87999750Y88370500D01*
G36*
X87999750Y88370500D02*
X88846750Y88370500D01*
X88846750Y87947500D01*
X87999750Y87947500D01*
X87999750Y88370500D01*
G37*
X86518750Y89428500D02*
X86941750Y89428500D01*
X86941750Y90275500D01*
X86518750Y90275500D01*
X86518750Y89428500D01*
G36*
X86518750Y89428500D02*
X86941750Y89428500D01*
X86941750Y90275500D01*
X86518750Y90275500D01*
X86518750Y89428500D01*
G37*
X83767750Y87523500D02*
X82920750Y87523500D01*
X82920750Y87101500D01*
X83767750Y87101500D01*
X83767750Y87523500D01*
G36*
X83767750Y87523500D02*
X82920750Y87523500D01*
X82920750Y87101500D01*
X83767750Y87101500D01*
X83767750Y87523500D01*
G37*
X84825750Y85196500D02*
X85248750Y85196500D01*
X85248750Y84349500D01*
X84825750Y84349500D01*
X84825750Y85196500D01*
G36*
X84825750Y85196500D02*
X85248750Y85196500D01*
X85248750Y84349500D01*
X84825750Y84349500D01*
X84825750Y85196500D01*
G37*
X83767750Y86677500D02*
X82920750Y86677500D01*
X82920750Y86254500D01*
X83767750Y86254500D01*
X83767750Y86677500D01*
G36*
X83767750Y86677500D02*
X82920750Y86677500D01*
X82920750Y86254500D01*
X83767750Y86254500D01*
X83767750Y86677500D01*
G37*
X86518750Y85196500D02*
X86941750Y85196500D01*
X86941750Y84349500D01*
X86518750Y84349500D01*
X86518750Y85196500D01*
G36*
X86518750Y85196500D02*
X86941750Y85196500D01*
X86941750Y84349500D01*
X86518750Y84349500D01*
X86518750Y85196500D01*
G37*
X87999750Y87523500D02*
X88846750Y87523500D01*
X88846750Y87101500D01*
X87999750Y87101500D01*
X87999750Y87523500D01*
G36*
X87999750Y87523500D02*
X88846750Y87523500D01*
X88846750Y87101500D01*
X87999750Y87101500D01*
X87999750Y87523500D01*
G37*
D10*
X89796250Y87211250D02*
X89796250Y88711250D01*
X90296250Y87639583D01*
X90796250Y88711250D01*
X90796250Y87211250D01*
X92011250Y87211250D02*
X92011250Y87996250D01*
X91939583Y88139583D01*
X91796250Y88211250D01*
X91511250Y88211250D01*
X91367917Y88139583D01*
X92011250Y87282917D02*
X91867917Y87211250D01*
X91511250Y87211250D01*
X91367917Y87282917D01*
X91296250Y87426250D01*
X91296250Y87567917D01*
X91367917Y87711250D01*
X91511250Y87782917D01*
X91867917Y87782917D01*
X92011250Y87854583D01*
X93226250Y87211250D02*
X93226250Y88711250D01*
X93226250Y87282917D02*
X93082917Y87211250D01*
X92796250Y87211250D01*
X92654583Y87282917D01*
X92582917Y87354583D01*
X92511250Y87496250D01*
X92511250Y87926250D01*
X92582917Y88067917D01*
X92654583Y88139583D01*
X92796250Y88211250D01*
X93082917Y88211250D01*
X93226250Y88139583D01*
X94369583Y87282917D02*
X94226250Y87211250D01*
X93941250Y87211250D01*
X93797917Y87282917D01*
X93726250Y87426250D01*
X93726250Y87996250D01*
X93797917Y88139583D01*
X93941250Y88211250D01*
X94226250Y88211250D01*
X94369583Y88139583D01*
X94441250Y87996250D01*
X94441250Y87854583D01*
X93726250Y87711250D01*
X96041249Y88711250D02*
X96397916Y87211250D01*
X96684582Y88282917D01*
X96969582Y87211250D01*
X97326249Y88711250D01*
X97897916Y87211250D02*
X97897916Y88211250D01*
X97897916Y88711250D02*
X97826249Y88639583D01*
X97897916Y88567917D01*
X97969582Y88639583D01*
X97897916Y88711250D01*
X97897916Y88567917D01*
X98469582Y88211250D02*
X99041249Y88211250D01*
X98684582Y88711250D02*
X98684582Y87426250D01*
X98754582Y87282917D01*
X98897915Y87211250D01*
X99041249Y87211250D01*
X99541249Y87211250D02*
X99541249Y88711250D01*
X100184582Y87211250D02*
X100184582Y87996250D01*
X100112916Y88139583D01*
X99969582Y88211250D01*
X99756249Y88211250D01*
X99612916Y88139583D01*
X99541249Y88067917D01*
X90511250Y84961250D02*
X89796250Y84961250D01*
X89796250Y86461250D01*
X91082917Y84961250D02*
X91082917Y85961250D01*
X91082917Y86461250D02*
X91011250Y86389583D01*
X91082917Y86317917D01*
X91154583Y86389583D01*
X91082917Y86461250D01*
X91082917Y86317917D01*
X91654583Y84961250D02*
X91654583Y86461250D01*
X91654583Y85889583D02*
X91797916Y85961250D01*
X92082916Y85961250D01*
X92226250Y85889583D01*
X92297916Y85817917D01*
X92369583Y85676250D01*
X92369583Y85246250D01*
X92297916Y85104583D01*
X92226250Y85032917D01*
X92082916Y84961250D01*
X91797916Y84961250D01*
X91654583Y85032917D01*
X92869583Y84961250D02*
X92869583Y85961250D01*
X92869583Y85676250D02*
X92941250Y85817917D01*
X93012916Y85889583D01*
X93154583Y85961250D01*
X93297916Y85961250D01*
X94441249Y85032917D02*
X94297916Y84961250D01*
X94012916Y84961250D01*
X93869583Y85032917D01*
X93797916Y85176250D01*
X93797916Y85746250D01*
X93869583Y85889583D01*
X94012916Y85961250D01*
X94297916Y85961250D01*
X94441249Y85889583D01*
X94512916Y85746250D01*
X94512916Y85604583D01*
X93797916Y85461250D01*
X95012916Y84961250D02*
X95012916Y86461250D01*
X95584583Y86461250D01*
X95727916Y86389583D01*
X95797916Y86317917D01*
X95869583Y86176250D01*
X95869583Y85961250D01*
X95797916Y85817917D01*
X95727916Y85746250D01*
X95584583Y85676250D01*
X95012916Y85676250D01*
X97297916Y85104583D02*
X97226250Y85032917D01*
X97012916Y84961250D01*
X96869583Y84961250D01*
X96654583Y85032917D01*
X96512916Y85176250D01*
X96441250Y85317917D01*
X96369583Y85604583D01*
X96369583Y85817917D01*
X96441250Y86104583D01*
X96512916Y86246250D01*
X96654583Y86389583D01*
X96869583Y86461250D01*
X97012916Y86461250D01*
X97226250Y86389583D01*
X97297916Y86317917D01*
X98297916Y85746250D02*
X98512916Y85676250D01*
X98582916Y85604583D01*
X98654583Y85461250D01*
X98654583Y85246250D01*
X98582916Y85104583D01*
X98512916Y85032917D01*
X98369583Y84961250D01*
X97797916Y84961250D01*
X97797916Y86461250D01*
X98297916Y86461250D01*
X98441249Y86389583D01*
X98512916Y86317917D01*
X98582916Y86176250D01*
X98582916Y86032917D01*
X98512916Y85889583D01*
X98441249Y85817917D01*
X98297916Y85746250D01*
X97797916Y85746250D01*
X80030000Y61100000D02*
X80030000Y61360000D01*
G02*
X83220000Y61000000I1461807J-1360238D01*
G01*
X80030000Y58900000D02*
X80030000Y58640000D01*
G03*
X83220000Y59000000I1461807J1360238D01*
G01*
D12*
X800000Y26300000D02*
X800000Y73700000D01*
X78200000Y73700000D01*
X78200000Y26300000D01*
X800000Y26300000D01*
D10*
X80030000Y41100000D02*
X80030000Y41360000D01*
G02*
X83220000Y41000000I1461807J-1360238D01*
G01*
X80030000Y38900000D02*
X80030000Y38640000D01*
G03*
X83220000Y39000000I1461807J1360238D01*
G01*
X87500000Y58100000D02*
X91500000Y58100000D01*
X92600000Y55800000D02*
X92600000Y54200000D01*
X86400000Y54200000D02*
X86400000Y55800000D01*
X91500000Y51900000D02*
X87500000Y51900000D01*
D13*
X9525000Y12509722D02*
X11049444Y12509722D01*
X10287222Y11747500D02*
X10287222Y13271944D01*
D14*
X1452500Y7770000D02*
X1667500Y7700000D01*
X1737500Y7628333D01*
X1809167Y7485000D01*
X1809167Y7270000D01*
X1737500Y7128333D01*
X1667500Y7056667D01*
X1524167Y6985000D01*
X952500Y6985000D01*
X952500Y8485000D01*
X1452500Y8485000D01*
X1595833Y8413333D01*
X1667500Y8341667D01*
X1737500Y8200000D01*
X1737500Y8056667D01*
X1667500Y7913333D01*
X1595833Y7841667D01*
X1452500Y7770000D01*
X952500Y7770000D01*
X3124167Y6985000D02*
X3124167Y7770000D01*
X3052500Y7913333D01*
X2909167Y7985000D01*
X2624167Y7985000D01*
X2480834Y7913333D01*
X3124167Y7056667D02*
X2980834Y6985000D01*
X2624167Y6985000D01*
X2480834Y7056667D01*
X2409167Y7200000D01*
X2409167Y7341667D01*
X2480834Y7485000D01*
X2624167Y7556667D01*
X2980834Y7556667D01*
X3124167Y7628333D01*
X3724167Y7985000D02*
X4295834Y7985000D01*
X3939167Y8485000D02*
X3939167Y7200000D01*
X4009167Y7056667D01*
X4152500Y6985000D01*
X4295834Y6985000D01*
X4895834Y7985000D02*
X5467501Y7985000D01*
X5110834Y8485000D02*
X5110834Y7200000D01*
X5180834Y7056667D01*
X5324167Y6985000D01*
X5467501Y6985000D01*
X6710834Y7056667D02*
X6567501Y6985000D01*
X6282501Y6985000D01*
X6139168Y7056667D01*
X6067501Y7200000D01*
X6067501Y7770000D01*
X6139168Y7913333D01*
X6282501Y7985000D01*
X6567501Y7985000D01*
X6710834Y7913333D01*
X6782501Y7770000D01*
X6782501Y7628333D01*
X6067501Y7485000D01*
X7382501Y6985000D02*
X7382501Y7985000D01*
X7382501Y7700000D02*
X7454168Y7841667D01*
X7525834Y7913333D01*
X7667501Y7985000D01*
X7810834Y7985000D01*
X8410834Y7985000D02*
X8767501Y6985000D01*
X9125834Y7985000D02*
X8767501Y6985000D01*
X8625834Y6628333D01*
X8554167Y6556667D01*
X8410834Y6485000D01*
X1809167Y92233333D02*
X1667500Y92305000D01*
X1452500Y92305000D01*
X1237500Y92233333D01*
X1095833Y92090000D01*
X1024167Y91948333D01*
X952500Y91661667D01*
X952500Y91448333D01*
X1024167Y91161667D01*
X1095833Y91020000D01*
X1237500Y90876667D01*
X1452500Y90805000D01*
X1595833Y90805000D01*
X1809167Y90876667D01*
X1880833Y90948333D01*
X1880833Y91448333D01*
X1595833Y91448333D01*
X3124166Y90876667D02*
X2980833Y90805000D01*
X2695833Y90805000D01*
X2552500Y90876667D01*
X2480833Y91020000D01*
X2480833Y91590000D01*
X2552500Y91733333D01*
X2695833Y91805000D01*
X2980833Y91805000D01*
X3124166Y91733333D01*
X3195833Y91590000D01*
X3195833Y91448333D01*
X2480833Y91305000D01*
X3795833Y91805000D02*
X3795833Y90805000D01*
X3795833Y91661667D02*
X3867500Y91733333D01*
X4010833Y91805000D01*
X4224166Y91805000D01*
X4367500Y91733333D01*
X4439166Y91590000D01*
X4439166Y90805000D01*
X5682499Y90876667D02*
X5539166Y90805000D01*
X5254166Y90805000D01*
X5110833Y90876667D01*
X5039166Y91020000D01*
X5039166Y91590000D01*
X5110833Y91733333D01*
X5254166Y91805000D01*
X5539166Y91805000D01*
X5682499Y91733333D01*
X5754166Y91590000D01*
X5754166Y91448333D01*
X5039166Y91305000D01*
X6354166Y90805000D02*
X6354166Y91805000D01*
X6354166Y91520000D02*
X6425833Y91661667D01*
X6497499Y91733333D01*
X6639166Y91805000D01*
X6782499Y91805000D01*
X8097499Y90805000D02*
X8097499Y91590000D01*
X8025832Y91733333D01*
X7882499Y91805000D01*
X7597499Y91805000D01*
X7454166Y91733333D01*
X8097499Y90876667D02*
X7954166Y90805000D01*
X7597499Y90805000D01*
X7454166Y90876667D01*
X7382499Y91020000D01*
X7382499Y91161667D01*
X7454166Y91305000D01*
X7597499Y91376667D01*
X7954166Y91376667D01*
X8097499Y91448333D01*
X8697499Y91805000D02*
X9269166Y91805000D01*
X8912499Y92305000D02*
X8912499Y91020000D01*
X8982499Y90876667D01*
X9125832Y90805000D01*
X9269166Y90805000D01*
X10154166Y90805000D02*
X10012499Y90876667D01*
X9940833Y90948333D01*
X9869166Y91090000D01*
X9869166Y91520000D01*
X9940833Y91661667D01*
X10012499Y91733333D01*
X10154166Y91805000D01*
X10369166Y91805000D01*
X10512499Y91733333D01*
X10584166Y91661667D01*
X10654166Y91520000D01*
X10654166Y91090000D01*
X10584166Y90948333D01*
X10512499Y90876667D01*
X10369166Y90805000D01*
X10154166Y90805000D01*
X11254166Y90805000D02*
X11254166Y91805000D01*
X11254166Y91520000D02*
X11325833Y91661667D01*
X11397499Y91733333D01*
X11539166Y91805000D01*
X11682499Y91805000D01*
D13*
X10032778Y16827500D02*
X10032778Y18351944D01*
D10*
X103505000Y75882500D02*
X103505000Y77382500D01*
X103861667Y77382500D01*
X104076667Y77310833D01*
X104220000Y77167500D01*
X104290000Y77025833D01*
X104361667Y76739167D01*
X104361667Y76525833D01*
X104290000Y76239167D01*
X104220000Y76097500D01*
X104076667Y75954167D01*
X103861667Y75882500D01*
X103505000Y75882500D01*
X105218334Y77382500D02*
X105505000Y77382500D01*
X105646667Y77310833D01*
X105790000Y77167500D01*
X105861667Y76882500D01*
X105861667Y76382500D01*
X105790000Y76097500D01*
X105646667Y75954167D01*
X105505000Y75882500D01*
X105218334Y75882500D01*
X105076667Y75954167D01*
X104933334Y76097500D01*
X104861667Y76382500D01*
X104861667Y76882500D01*
X104933334Y77167500D01*
X105076667Y77310833D01*
X105218334Y77382500D01*
X106361667Y77382500D02*
X106361667Y76167500D01*
X106433334Y76025833D01*
X106505000Y75954167D01*
X106646667Y75882500D01*
X106933334Y75882500D01*
X107076667Y75954167D01*
X107146667Y76025833D01*
X107218334Y76167500D01*
X107218334Y77382500D01*
X107718334Y77382500D02*
X108575001Y77382500D01*
X108146667Y75882500D02*
X108146667Y77382500D01*
X109146668Y77239167D02*
X109218334Y77310833D01*
X109360001Y77382500D01*
X109718334Y77382500D01*
X109860001Y77310833D01*
X109931668Y77239167D01*
X110003334Y77097500D01*
X110003334Y76954167D01*
X109931668Y76739167D01*
X109075001Y75882500D01*
X110003334Y75882500D01*
D14*
X80518587Y12065000D02*
X80518587Y13765000D01*
X80518587Y12954667D02*
X81489476Y12954667D01*
X81489476Y12065000D02*
X81489476Y13765000D01*
X82129476Y13198333D02*
X82533698Y12065000D01*
X82939809Y13198333D02*
X82533698Y12065000D01*
X82373143Y11660778D01*
X82291920Y11579556D01*
X82129476Y11498333D01*
X84390142Y12065000D02*
X84390142Y13765000D01*
X84390142Y12146222D02*
X84227698Y12065000D01*
X83902809Y12065000D01*
X83742253Y12146222D01*
X83661031Y12227444D01*
X83579809Y12388000D01*
X83579809Y12875333D01*
X83661031Y13035889D01*
X83742253Y13117111D01*
X83902809Y13198333D01*
X84227698Y13198333D01*
X84390142Y13117111D01*
X85030142Y12065000D02*
X85030142Y13198333D01*
X85030142Y12875333D02*
X85111364Y13035889D01*
X85192586Y13117111D01*
X85353142Y13198333D01*
X85515586Y13198333D01*
X86478586Y12065000D02*
X86318030Y12146222D01*
X86236808Y12227444D01*
X86155586Y12388000D01*
X86155586Y12875333D01*
X86236808Y13035889D01*
X86318030Y13117111D01*
X86478586Y13198333D01*
X86722253Y13198333D01*
X86884697Y13117111D01*
X86965919Y13035889D01*
X87045253Y12875333D01*
X87045253Y12388000D01*
X86965919Y12227444D01*
X86884697Y12146222D01*
X86722253Y12065000D01*
X86478586Y12065000D01*
X89571919Y12954667D02*
X89815585Y12875333D01*
X89894919Y12794111D01*
X89976141Y12631667D01*
X89976141Y12388000D01*
X89894919Y12227444D01*
X89815585Y12146222D01*
X89653141Y12065000D01*
X89005252Y12065000D01*
X89005252Y13765000D01*
X89571919Y13765000D01*
X89734363Y13683778D01*
X89815585Y13602556D01*
X89894919Y13442000D01*
X89894919Y13279556D01*
X89815585Y13117111D01*
X89734363Y13035889D01*
X89571919Y12954667D01*
X89005252Y12954667D01*
X91426474Y12065000D02*
X91426474Y12954667D01*
X91345252Y13117111D01*
X91182808Y13198333D01*
X90859808Y13198333D01*
X90697363Y13117111D01*
X91426474Y12146222D02*
X91264030Y12065000D01*
X90859808Y12065000D01*
X90697363Y12146222D01*
X90616141Y12308667D01*
X90616141Y12469222D01*
X90697363Y12631667D01*
X90859808Y12712889D01*
X91264030Y12712889D01*
X91426474Y12794111D01*
X92066474Y13198333D02*
X92714363Y13198333D01*
X92310141Y13765000D02*
X92310141Y12308667D01*
X92389474Y12146222D01*
X92551918Y12065000D01*
X92714363Y12065000D01*
X93354363Y13198333D02*
X94002252Y13198333D01*
X93598030Y13765000D02*
X93598030Y12308667D01*
X93677363Y12146222D01*
X93839807Y12065000D01*
X94002252Y12065000D01*
X95371363Y12146222D02*
X95208919Y12065000D01*
X94885919Y12065000D01*
X94723474Y12146222D01*
X94642252Y12308667D01*
X94642252Y12954667D01*
X94723474Y13117111D01*
X94885919Y13198333D01*
X95208919Y13198333D01*
X95371363Y13117111D01*
X95452585Y12954667D01*
X95452585Y12794111D01*
X94642252Y12631667D01*
X96092585Y12065000D02*
X96092585Y13198333D01*
X96092585Y12875333D02*
X96173807Y13035889D01*
X96255029Y13117111D01*
X96415585Y13198333D01*
X96578029Y13198333D01*
X97218029Y13198333D02*
X97622251Y12065000D01*
X98028362Y13198333D02*
X97622251Y12065000D01*
X97461696Y11660778D01*
X97380473Y11579556D01*
X97218029Y11498333D01*
X101040472Y12227444D02*
X100959250Y12146222D01*
X100717472Y12065000D01*
X100555028Y12065000D01*
X100311361Y12146222D01*
X100150805Y12308667D01*
X100069583Y12469222D01*
X99988361Y12794111D01*
X99988361Y13035889D01*
X100069583Y13360778D01*
X100150805Y13521333D01*
X100311361Y13683778D01*
X100555028Y13765000D01*
X100717472Y13765000D01*
X100959250Y13683778D01*
X101040472Y13602556D01*
X101680472Y12065000D02*
X101680472Y13765000D01*
X102409583Y12065000D02*
X102409583Y12954667D01*
X102328361Y13117111D01*
X102165916Y13198333D01*
X101924139Y13198333D01*
X101761694Y13117111D01*
X101680472Y13035889D01*
X103859916Y12065000D02*
X103859916Y12954667D01*
X103778694Y13117111D01*
X103616250Y13198333D01*
X103293250Y13198333D01*
X103130805Y13117111D01*
X103859916Y12146222D02*
X103697472Y12065000D01*
X103293250Y12065000D01*
X103130805Y12146222D01*
X103049583Y12308667D01*
X103049583Y12469222D01*
X103130805Y12631667D01*
X103293250Y12712889D01*
X103697472Y12712889D01*
X103859916Y12794111D01*
X104499916Y12065000D02*
X104499916Y13198333D01*
X104499916Y12875333D02*
X104581138Y13035889D01*
X104662360Y13117111D01*
X104822916Y13198333D01*
X104985360Y13198333D01*
X106435693Y13198333D02*
X106435693Y11821333D01*
X106354471Y11660778D01*
X106273249Y11579556D01*
X106110804Y11498333D01*
X105869027Y11498333D01*
X105706582Y11579556D01*
X106435693Y12146222D02*
X106273249Y12065000D01*
X105948360Y12065000D01*
X105787804Y12146222D01*
X105706582Y12227444D01*
X105625360Y12388000D01*
X105625360Y12875333D01*
X105706582Y13035889D01*
X105787804Y13117111D01*
X105948360Y13198333D01*
X106273249Y13198333D01*
X106435693Y13117111D01*
X107804804Y12146222D02*
X107642360Y12065000D01*
X107319360Y12065000D01*
X107156915Y12146222D01*
X107075693Y12308667D01*
X107075693Y12954667D01*
X107156915Y13117111D01*
X107319360Y13198333D01*
X107642360Y13198333D01*
X107804804Y13117111D01*
X107886026Y12954667D01*
X107886026Y12794111D01*
X107075693Y12631667D01*
X108526026Y12065000D02*
X108526026Y13198333D01*
X108526026Y12875333D02*
X108607248Y13035889D01*
X108688470Y13117111D01*
X108849026Y13198333D01*
X109011470Y13198333D01*
X110971469Y13198333D02*
X111375691Y12065000D01*
X111781802Y13198333D01*
X113232135Y13198333D02*
X113232135Y12065000D01*
X112826024Y13846222D02*
X112421802Y12631667D01*
X113473913Y12631667D01*
D13*
X9207500Y83947222D02*
X10731944Y83947222D01*
X9969722Y83185000D02*
X9969722Y84709444D01*
D10*
X88370474Y9842500D02*
X88494696Y9842500D01*
X88618919Y9780389D01*
X88681030Y9718278D01*
X88741696Y9595500D01*
X88803807Y9347056D01*
X88803807Y9037944D01*
X88741696Y8789500D01*
X88681030Y8666722D01*
X88618919Y8604611D01*
X88494696Y8542500D01*
X88370474Y8542500D01*
X88247696Y8604611D01*
X88185585Y8666722D01*
X88123474Y8789500D01*
X88061363Y9037944D01*
X88061363Y9347056D01*
X88123474Y9595500D01*
X88185585Y9718278D01*
X88247696Y9780389D01*
X88370474Y9842500D01*
X89883474Y9842500D02*
X89635029Y9842500D01*
X89510807Y9780389D01*
X89450140Y9718278D01*
X89325918Y9533389D01*
X89263807Y9284944D01*
X89263807Y8789500D01*
X89325918Y8666722D01*
X89388029Y8604611D01*
X89510807Y8542500D01*
X89759251Y8542500D01*
X89883474Y8604611D01*
X89944140Y8666722D01*
X90006251Y8789500D01*
X90006251Y9100056D01*
X89944140Y9222833D01*
X89883474Y9284944D01*
X89759251Y9347056D01*
X89510807Y9347056D01*
X89388029Y9284944D01*
X89325918Y9222833D01*
X89263807Y9100056D01*
X91579918Y9904611D02*
X90466251Y8233389D01*
X92102029Y9718278D02*
X92164140Y9780389D01*
X92286918Y9842500D01*
X92597474Y9842500D01*
X92720251Y9780389D01*
X92782362Y9718278D01*
X92844474Y9595500D01*
X92844474Y9471278D01*
X92782362Y9284944D01*
X92039918Y8542500D01*
X92844474Y8542500D01*
X93613585Y9842500D02*
X93737807Y9842500D01*
X93862030Y9780389D01*
X93924141Y9718278D01*
X93984807Y9595500D01*
X94046918Y9347056D01*
X94046918Y9037944D01*
X93984807Y8789500D01*
X93924141Y8666722D01*
X93862030Y8604611D01*
X93737807Y8542500D01*
X93613585Y8542500D01*
X93490807Y8604611D01*
X93428696Y8666722D01*
X93366585Y8789500D01*
X93304474Y9037944D01*
X93304474Y9347056D01*
X93366585Y9595500D01*
X93428696Y9718278D01*
X93490807Y9780389D01*
X93613585Y9842500D01*
X94569029Y9718278D02*
X94631140Y9780389D01*
X94753918Y9842500D01*
X95064474Y9842500D01*
X95187251Y9780389D01*
X95249362Y9718278D01*
X95311474Y9595500D01*
X95311474Y9471278D01*
X95249362Y9284944D01*
X94506918Y8542500D01*
X95311474Y8542500D01*
X96080585Y9842500D02*
X96204807Y9842500D01*
X96329030Y9780389D01*
X96391141Y9718278D01*
X96451807Y9595500D01*
X96513918Y9347056D01*
X96513918Y9037944D01*
X96451807Y8789500D01*
X96391141Y8666722D01*
X96329030Y8604611D01*
X96204807Y8542500D01*
X96080585Y8542500D01*
X95957807Y8604611D01*
X95895696Y8666722D01*
X95833585Y8789500D01*
X95771474Y9037944D01*
X95771474Y9347056D01*
X95833585Y9595500D01*
X95895696Y9718278D01*
X95957807Y9780389D01*
X96080585Y9842500D01*
X97953917Y9842500D02*
X97953917Y8789500D01*
X98016028Y8666722D01*
X98078139Y8604611D01*
X98200917Y8542500D01*
X98449361Y8542500D01*
X98573584Y8604611D01*
X98634250Y8666722D01*
X98696361Y8789500D01*
X98696361Y9842500D01*
X99218472Y8666722D02*
X99280583Y8604611D01*
X99218472Y8542500D01*
X99156361Y8604611D01*
X99218472Y8666722D01*
X99218472Y8542500D01*
X101153915Y9222833D02*
X101340249Y9162167D01*
X101400915Y9100056D01*
X101463026Y8975833D01*
X101463026Y8789500D01*
X101400915Y8666722D01*
X101340249Y8604611D01*
X101216026Y8542500D01*
X100720582Y8542500D01*
X100720582Y9842500D01*
X101153915Y9842500D01*
X101278138Y9780389D01*
X101340249Y9718278D01*
X101400915Y9595500D01*
X101400915Y9471278D01*
X101340249Y9347056D01*
X101278138Y9284944D01*
X101153915Y9222833D01*
X100720582Y9222833D01*
X101923026Y8542500D02*
X101923026Y9409167D01*
X101923026Y9162167D02*
X101985137Y9284944D01*
X102047248Y9347056D01*
X102170026Y9409167D01*
X102294248Y9409167D01*
X103311804Y9409167D02*
X103311804Y8542500D01*
X102754248Y9409167D02*
X102754248Y8728833D01*
X102816359Y8604611D01*
X102940581Y8542500D01*
X103125470Y8542500D01*
X103249692Y8604611D01*
X103311804Y8666722D01*
X103771804Y8542500D02*
X103771804Y9842500D01*
X104329360Y8542500D02*
X104329360Y9222833D01*
X104267248Y9347056D01*
X104143026Y9409167D01*
X103958137Y9409167D01*
X103833915Y9347056D01*
X103771804Y9284944D01*
X104851471Y8542500D02*
X104851471Y9409167D01*
X104851471Y9842500D02*
X104789360Y9780389D01*
X104851471Y9718278D01*
X104913582Y9780389D01*
X104851471Y9842500D01*
X104851471Y9718278D01*
X105373582Y9409167D02*
X105373582Y8542500D01*
X105373582Y9284944D02*
X105435693Y9347056D01*
X105559915Y9409167D01*
X105744804Y9409167D01*
X105869026Y9347056D01*
X105931138Y9222833D01*
X105931138Y8542500D01*
X107219167Y87312083D02*
X107077500Y87383750D01*
X106862500Y87383750D01*
X106647500Y87312083D01*
X106505833Y87168750D01*
X106434167Y87027083D01*
X106362500Y86740417D01*
X106362500Y86527083D01*
X106434167Y86240417D01*
X106505833Y86098750D01*
X106647500Y85955417D01*
X106862500Y85883750D01*
X107005833Y85883750D01*
X107219167Y85955417D01*
X107290833Y86027083D01*
X107290833Y86527083D01*
X107005833Y86527083D01*
X107790833Y85883750D02*
X107790833Y87383750D01*
X108647500Y85883750D01*
X108647500Y87383750D01*
X109147500Y85883750D02*
X109147500Y87383750D01*
X109504167Y87383750D01*
X109719167Y87312083D01*
X109862500Y87168750D01*
X109932500Y87027083D01*
X110004167Y86740417D01*
X110004167Y86527083D01*
X109932500Y86240417D01*
X109862500Y86098750D01*
X109719167Y85955417D01*
X109504167Y85883750D01*
X109147500Y85883750D01*
X103822500Y80803750D02*
X103822500Y82303750D01*
X104179167Y82303750D01*
X104394167Y82232083D01*
X104537500Y82088750D01*
X104607500Y81947083D01*
X104679167Y81660417D01*
X104679167Y81447083D01*
X104607500Y81160417D01*
X104537500Y81018750D01*
X104394167Y80875417D01*
X104179167Y80803750D01*
X103822500Y80803750D01*
X105535834Y82303750D02*
X105822500Y82303750D01*
X105964167Y82232083D01*
X106107500Y82088750D01*
X106179167Y81803750D01*
X106179167Y81303750D01*
X106107500Y81018750D01*
X105964167Y80875417D01*
X105822500Y80803750D01*
X105535834Y80803750D01*
X105394167Y80875417D01*
X105250834Y81018750D01*
X105179167Y81303750D01*
X105179167Y81803750D01*
X105250834Y82088750D01*
X105394167Y82232083D01*
X105535834Y82303750D01*
X106679167Y82303750D02*
X106679167Y81088750D01*
X106750834Y80947083D01*
X106822500Y80875417D01*
X106964167Y80803750D01*
X107250834Y80803750D01*
X107394167Y80875417D01*
X107464167Y80947083D01*
X107535834Y81088750D01*
X107535834Y82303750D01*
X108035834Y82303750D02*
X108892501Y82303750D01*
X108464167Y80803750D02*
X108464167Y82303750D01*
X110249168Y80803750D02*
X109392501Y80803750D01*
X109820834Y80803750D02*
X109820834Y82303750D01*
X109677501Y82088750D01*
X109535834Y81947083D01*
X109392501Y81875417D01*
D13*
X10032778Y86677500D02*
X10032778Y88201944D01*
D10*
X80321389Y52401250D02*
X79844722Y52401250D01*
X79844722Y53401250D01*
X80721389Y52924583D02*
X81054722Y52924583D01*
X81198056Y52401250D02*
X80721389Y52401250D01*
X80721389Y53401250D01*
X81198056Y53401250D01*
X81598056Y52401250D02*
X81598056Y53401250D01*
X81835834Y53401250D01*
X81979167Y53353472D01*
X82074723Y53257917D01*
X82121389Y53163472D01*
X82169167Y52972361D01*
X82169167Y52830139D01*
X82121389Y52639028D01*
X82074723Y52544583D01*
X81979167Y52449028D01*
X81835834Y52401250D01*
X81598056Y52401250D01*
X83140278Y52401250D02*
X82569167Y52401250D01*
X82854723Y52401250D02*
X82854723Y53401250D01*
X82759167Y53257917D01*
X82664723Y53163472D01*
X82569167Y53115694D01*
X88705000Y48540278D02*
X88848333Y48492500D01*
X89086111Y48492500D01*
X89181667Y48540278D01*
X89228333Y48588056D01*
X89276111Y48682500D01*
X89276111Y48778056D01*
X89228333Y48873611D01*
X89181667Y48921389D01*
X89086111Y48969167D01*
X88895000Y49015833D01*
X88800556Y49063611D01*
X88752778Y49111389D01*
X88705000Y49206944D01*
X88705000Y49302500D01*
X88752778Y49396944D01*
X88800556Y49444722D01*
X88895000Y49492500D01*
X89133889Y49492500D01*
X89276111Y49444722D01*
X89723889Y49396944D02*
X89771667Y49444722D01*
X89866111Y49492500D01*
X90105000Y49492500D01*
X90199444Y49444722D01*
X90247222Y49396944D01*
X90295000Y49302500D01*
X90295000Y49206944D01*
X90247222Y49063611D01*
X89676111Y48492500D01*
X90295000Y48492500D01*
X80298750Y62402500D02*
X79822083Y62402500D01*
X79822083Y63402500D01*
X80698750Y62925833D02*
X81032083Y62925833D01*
X81175417Y62402500D02*
X80698750Y62402500D01*
X80698750Y63402500D01*
X81175417Y63402500D01*
X81575417Y62402500D02*
X81575417Y63402500D01*
X81813195Y63402500D01*
X81956528Y63354722D01*
X82052084Y63259167D01*
X82098750Y63164722D01*
X82146528Y62973611D01*
X82146528Y62831389D01*
X82098750Y62640278D01*
X82052084Y62545833D01*
X81956528Y62450278D01*
X81813195Y62402500D01*
X81575417Y62402500D01*
X82546528Y63402500D02*
X83165417Y63402500D01*
X82832084Y63021389D01*
X82975417Y63021389D01*
X83069861Y62973611D01*
X83117639Y62925833D01*
X83165417Y62831389D01*
X83165417Y62592500D01*
X83117639Y62498056D01*
X83069861Y62450278D01*
X82975417Y62402500D01*
X82689861Y62402500D01*
X82594306Y62450278D01*
X82546528Y62498056D01*
X2009861Y75288750D02*
X2009861Y74478750D01*
X2057639Y74384306D01*
X2105417Y74336528D01*
X2199861Y74288750D01*
X2390972Y74288750D01*
X2486528Y74336528D01*
X2533194Y74384306D01*
X2580972Y74478750D01*
X2580972Y75288750D01*
X2980972Y75288750D02*
X3647639Y75288750D01*
X3218750Y74288750D01*
X80296250Y42400000D02*
X79819583Y42400000D01*
X79819583Y43400000D01*
X80696250Y42923333D02*
X81029583Y42923333D01*
X81172917Y42400000D02*
X80696250Y42400000D01*
X80696250Y43400000D01*
X81172917Y43400000D01*
X81572917Y42400000D02*
X81572917Y43400000D01*
X81810695Y43400000D01*
X81954028Y43352222D01*
X82049584Y43256667D01*
X82096250Y43162222D01*
X82144028Y42971111D01*
X82144028Y42828889D01*
X82096250Y42637778D01*
X82049584Y42543333D01*
X81954028Y42447778D01*
X81810695Y42400000D01*
X81572917Y42400000D01*
X82591806Y43304444D02*
X82639584Y43352222D01*
X82734028Y43400000D01*
X82972917Y43400000D01*
X83067361Y43352222D01*
X83115139Y43304444D01*
X83162917Y43210000D01*
X83162917Y43114444D01*
X83115139Y42971111D01*
X82544028Y42400000D01*
X83162917Y42400000D01*
X88658889Y58464028D02*
X88802222Y58416250D01*
X89040000Y58416250D01*
X89135556Y58464028D01*
X89182222Y58511806D01*
X89230000Y58606250D01*
X89230000Y58701806D01*
X89182222Y58797361D01*
X89135556Y58845139D01*
X89040000Y58892917D01*
X88848889Y58939583D01*
X88754445Y58987361D01*
X88706667Y59035139D01*
X88658889Y59130694D01*
X88658889Y59226250D01*
X88706667Y59320694D01*
X88754445Y59368472D01*
X88848889Y59416250D01*
X89087778Y59416250D01*
X89230000Y59368472D01*
X90201111Y58416250D02*
X89630000Y58416250D01*
X89915556Y58416250D02*
X89915556Y59416250D01*
X89820000Y59272917D01*
X89725556Y59178472D01*
X89630000Y59130694D01*
%LPC*%
D15*
X80230000Y50000000D03*
X82770000Y50000000D03*
D16*
X92750000Y42755000D03*
X86250000Y47245000D03*
X92750000Y47245000D03*
X86250000Y42755000D03*
D17*
X40481250Y56515000D03*
D18*
X114950000Y44500000D03*
X117450000Y42000000D03*
X114950000Y39500000D03*
D19*
X14605000Y12697500D03*
X14605000Y6847500D03*
X14605000Y29347500D03*
X14605000Y23497500D03*
D20*
X31432500Y20637500D03*
X31432500Y23177500D03*
X31432500Y25717500D03*
D21*
X14922500Y90328750D03*
X30162500Y90328750D03*
D17*
X67627500Y56197500D03*
D15*
X80230000Y60000000D03*
X82770000Y60000000D03*
D17*
X37306250Y56515000D03*
D22*
X7000000Y76920000D03*
X7000000Y82000000D03*
X7000000Y87080000D03*
D17*
X56038750Y24130000D03*
X20320000Y24447500D03*
D23*
X44450000Y10240000D03*
X44450000Y20240000D03*
D16*
X8030000Y51276250D03*
X10570000Y56356250D03*
X8030000Y58896250D03*
X8030000Y41116250D03*
X10570000Y53816250D03*
X10570000Y46196250D03*
X8030000Y46196250D03*
X8030000Y48736250D03*
X8030000Y53816250D03*
X10570000Y48736250D03*
X10570000Y38576250D03*
X10570000Y43656250D03*
X10570000Y51276250D03*
D24*
X10570000Y61436250D03*
D16*
X8030000Y61436250D03*
X8030000Y38576250D03*
X10570000Y58896250D03*
X10570000Y41116250D03*
X8030000Y43656250D03*
X8030000Y56356250D03*
D25*
X53657500Y55245000D03*
X14922500Y93345000D03*
D26*
X77152500Y56197500D03*
X72072500Y56197500D03*
D17*
X107791250Y68897500D03*
D27*
X107791250Y63817500D03*
X107791250Y66357500D03*
D22*
X113000000Y86700000D03*
X113000000Y76540000D03*
X113000000Y66380000D03*
X113000000Y81620000D03*
X113000000Y61300000D03*
X113000000Y71460000D03*
D28*
X102380000Y27700000D03*
D29*
X115080000Y20460000D03*
D28*
X102380000Y23000000D03*
D29*
X115080000Y25540000D03*
D28*
X102380000Y18300000D03*
D30*
X21160000Y71000000D03*
X31320000Y71000000D03*
X33860000Y71000000D03*
X16080000Y71000000D03*
X36400000Y71000000D03*
X44020000Y71000000D03*
X46560000Y71000000D03*
X28780000Y71000000D03*
X18620000Y71000000D03*
X23700000Y71000000D03*
X13540000Y71000000D03*
X38940000Y71000000D03*
X49100000Y71000000D03*
X41480000Y71000000D03*
D31*
X11000000Y71000000D03*
D30*
X26240000Y71000000D03*
D32*
X39907500Y63817500D03*
X67407500Y63817500D03*
D23*
X46037500Y89772500D03*
X46037500Y79772500D03*
D15*
X80230000Y40000000D03*
X82770000Y40000000D03*
D33*
X23495000Y10160000D03*
X23495000Y25400000D03*
D23*
X68580000Y89772500D03*
X68580000Y79772500D03*
D17*
X29368750Y87312500D03*
D34*
X67627500Y52720000D03*
X67627500Y38720000D03*
D35*
X27942500Y82073750D03*
X33792500Y82073750D03*
X11292500Y82073750D03*
X17142500Y82073750D03*
D18*
X19685000Y57230000D03*
X22185000Y67230000D03*
X17185000Y67230000D03*
D36*
X63182500Y56197500D03*
X60642500Y56197500D03*
X58102500Y56197500D03*
D23*
X66992500Y10240000D03*
X66992500Y20240000D03*
D22*
X7000000Y17540000D03*
X7000000Y12460000D03*
D17*
X34290000Y65405000D03*
D16*
X86250000Y57245000D03*
X92750000Y52755000D03*
X86250000Y52755000D03*
X92750000Y57245000D03*
D32*
X38320000Y32385000D03*
X65820000Y32385000D03*
D11*
X0Y100000000D02*
X120000000Y100000000D01*
X120000000Y96000000D01*
X0Y96000000D01*
X0Y100000000D01*
G36*
X0Y100000000D02*
X120000000Y100000000D01*
X120000000Y96000000D01*
X0Y96000000D01*
X0Y100000000D01*
G37*
X0Y0D02*
X120000000Y0D01*
X120000000Y4000000D01*
X0Y4000000D01*
X0Y0D01*
G36*
X0Y0D02*
X120000000Y0D01*
X120000000Y4000000D01*
X0Y4000000D01*
X0Y0D01*
G37*
G04 --- BOARD END --- *
%TF.MD5,7f32acf399504982e12238c95b39b74b*%
M02*
