G04 --- HEADER BEGIN --- *
%TF.GenerationSoftware,LibrePCB,LibrePCB,0.1.4*%
%TF.CreationDate,2020-06-28T21:35:14*%
%TF.ProjectId,Hydro Battery Charger - default,71762d7e-e7f1-403c-8020-db9670c01e9b,v4*%
%TF.Part,Single*%
%FSLAX66Y66*%
%MOMM*%
G01*
G74*
G04 --- HEADER END --- *
G04 --- APERTURE LIST BEGIN --- *
%ADD10C,1.7*%
%ADD11C,2.0*%
%ADD12R,2.39X1.787*%
%ADD13C,2.5*%
%ADD14O,3.2X2.0*%
%ADD15O,3.2X1.7*%
%ADD16O,4.2X3.0*%
%ADD17O,4.2X2.74*%
%ADD18C,4.2*%
%ADD19R,2.0X2.0*%
%ADD20R,1.787X2.39*%
%ADD21O,2.232X4.264*%
%ADD22O,2.39X1.787*%
%ADD23C,3.4*%
%ADD24C,2.7*%
%ADD25O,2.0X2.7*%
%ADD26R,2.0X2.7*%
%ADD27O,2.0X3.0*%
%ADD28O,3.0X4.2*%
%ADD29O,2.74X1.7*%
%ADD30O,2.0X3.2*%
%ADD31O,1.7X3.2*%
%ADD32C,0.0*%
G04 --- APERTURE LIST END --- *
G04 --- BOARD BEGIN --- *
D10*
X80230000Y50000000D03*
X82770000Y50000000D03*
D11*
X92750000Y42755000D03*
X86250000Y47245000D03*
X92750000Y47245000D03*
X86250000Y42755000D03*
D12*
X40481250Y56515000D03*
D13*
X114950000Y44500000D03*
X117450000Y42000000D03*
X114950000Y39500000D03*
D14*
X14605000Y12697500D03*
X14605000Y6847500D03*
X14605000Y29347500D03*
X14605000Y23497500D03*
D15*
X31432500Y20637500D03*
X31432500Y23177500D03*
X31432500Y25717500D03*
D16*
X14922500Y90328750D03*
X30162500Y90328750D03*
D12*
X67627500Y56197500D03*
D10*
X80230000Y60000000D03*
X82770000Y60000000D03*
D12*
X37306250Y56515000D03*
D17*
X7000000Y76920000D03*
X7000000Y82000000D03*
X7000000Y87080000D03*
D12*
X56038750Y24130000D03*
X20320000Y24447500D03*
D18*
X44450000Y10240000D03*
X44450000Y20240000D03*
D11*
X8030000Y51276250D03*
X10570000Y56356250D03*
X8030000Y58896250D03*
X8030000Y41116250D03*
X10570000Y53816250D03*
X10570000Y46196250D03*
X8030000Y46196250D03*
X8030000Y48736250D03*
X8030000Y53816250D03*
X10570000Y48736250D03*
X10570000Y38576250D03*
X10570000Y43656250D03*
X10570000Y51276250D03*
D19*
X10570000Y61436250D03*
D11*
X8030000Y61436250D03*
X8030000Y38576250D03*
X10570000Y58896250D03*
X10570000Y41116250D03*
X8030000Y43656250D03*
X8030000Y56356250D03*
D20*
X53657500Y55245000D03*
X14922500Y93345000D03*
D21*
X77152500Y56197500D03*
X72072500Y56197500D03*
D12*
X107791250Y68897500D03*
D22*
X107791250Y63817500D03*
X107791250Y66357500D03*
D17*
X113000000Y86700000D03*
X113000000Y76540000D03*
X113000000Y66380000D03*
X113000000Y81620000D03*
X113000000Y61300000D03*
X113000000Y71460000D03*
D23*
X102380000Y27700000D03*
D24*
X115080000Y20460000D03*
D23*
X102380000Y23000000D03*
D24*
X115080000Y25540000D03*
D23*
X102380000Y18300000D03*
D25*
X21160000Y71000000D03*
X31320000Y71000000D03*
X33860000Y71000000D03*
X16080000Y71000000D03*
X36400000Y71000000D03*
X44020000Y71000000D03*
X46560000Y71000000D03*
X28780000Y71000000D03*
X18620000Y71000000D03*
X23700000Y71000000D03*
X13540000Y71000000D03*
X38940000Y71000000D03*
X49100000Y71000000D03*
X41480000Y71000000D03*
D26*
X11000000Y71000000D03*
D25*
X26240000Y71000000D03*
D27*
X39907500Y63817500D03*
X67407500Y63817500D03*
D18*
X46037500Y89772500D03*
X46037500Y79772500D03*
D10*
X80230000Y40000000D03*
X82770000Y40000000D03*
D28*
X23495000Y10160000D03*
X23495000Y25400000D03*
D18*
X68580000Y89772500D03*
X68580000Y79772500D03*
D12*
X29368750Y87312500D03*
D29*
X67627500Y52720000D03*
X67627500Y38720000D03*
D30*
X27942500Y82073750D03*
X33792500Y82073750D03*
X11292500Y82073750D03*
X17142500Y82073750D03*
D13*
X19685000Y57230000D03*
X22185000Y67230000D03*
X17185000Y67230000D03*
D31*
X63182500Y56197500D03*
X60642500Y56197500D03*
X58102500Y56197500D03*
D18*
X66992500Y10240000D03*
X66992500Y20240000D03*
D17*
X7000000Y17540000D03*
X7000000Y12460000D03*
D12*
X34290000Y65405000D03*
D11*
X86250000Y57245000D03*
X92750000Y52755000D03*
X86250000Y52755000D03*
X92750000Y57245000D03*
D27*
X38320000Y32385000D03*
X65820000Y32385000D03*
D32*
X0Y100000000D02*
X120000000Y100000000D01*
X120000000Y96000000D01*
X0Y96000000D01*
X0Y100000000D01*
G36*
X0Y100000000D02*
X120000000Y100000000D01*
X120000000Y96000000D01*
X0Y96000000D01*
X0Y100000000D01*
G37*
X0Y0D02*
X120000000Y0D01*
X120000000Y4000000D01*
X0Y4000000D01*
X0Y0D01*
G36*
X0Y0D02*
X120000000Y0D01*
X120000000Y4000000D01*
X0Y4000000D01*
X0Y0D01*
G37*
G04 --- BOARD END --- *
%TF.MD5,46c0aeacf4f67cabf23a90087900dc69*%
M02*
