G04 --- HEADER BEGIN --- *
%TF.GenerationSoftware,LibrePCB,LibrePCB,0.1.4*%
%TF.CreationDate,2020-06-28T21:35:14*%
%TF.ProjectId,Hydro Battery Charger - default,71762d7e-e7f1-403c-8020-db9670c01e9b,v4*%
%TF.Part,Single*%
%FSLAX66Y66*%
%MOMM*%
G01*
G74*
G04 --- HEADER END --- *
G04 --- APERTURE LIST BEGIN --- *
%ADD10C,1.5*%
%ADD11C,1.8*%
%ADD12R,2.19X1.587*%
%ADD13C,2.3*%
%ADD14O,3.0X1.8*%
%ADD15O,3.0X1.5*%
%ADD16O,4.0X2.8*%
%ADD17O,4.0X2.54*%
%ADD18C,4.0*%
%ADD19R,1.8X1.8*%
%ADD20R,1.587X2.19*%
%ADD21O,2.032X4.064*%
%ADD22O,2.19X1.587*%
%ADD23C,3.2*%
%ADD24C,2.5*%
%ADD25O,1.8X2.5*%
%ADD26R,1.8X2.5*%
%ADD27O,1.8X2.8*%
%ADD28O,2.8X4.0*%
%ADD29O,2.54X1.5*%
%ADD30O,1.8X3.0*%
%ADD31O,1.5X3.0*%
%ADD32C,0.7*%
%ADD33C,1.0*%
%ADD34C,0.6*%
%ADD35C,0.5*%
%ADD36C,0.4*%
%ADD37C,0.3*%
%ADD38C,0.8*%
%ADD39C,0.0*%
G04 --- APERTURE LIST END --- *
G04 --- BOARD BEGIN --- *
D10*
X80230000Y50000000D03*
X82770000Y50000000D03*
D11*
X92750000Y42755000D03*
X86250000Y47245000D03*
X92750000Y47245000D03*
X86250000Y42755000D03*
D12*
X40481250Y56515000D03*
D13*
X114950000Y44500000D03*
X117450000Y42000000D03*
X114950000Y39500000D03*
D14*
X14605000Y12697500D03*
X14605000Y6847500D03*
X14605000Y29347500D03*
X14605000Y23497500D03*
D15*
X31432500Y20637500D03*
X31432500Y23177500D03*
X31432500Y25717500D03*
D16*
X14922500Y90328750D03*
X30162500Y90328750D03*
D12*
X67627500Y56197500D03*
D10*
X80230000Y60000000D03*
X82770000Y60000000D03*
D12*
X37306250Y56515000D03*
D17*
X7000000Y76920000D03*
X7000000Y82000000D03*
X7000000Y87080000D03*
D12*
X56038750Y24130000D03*
X20320000Y24447500D03*
D18*
X44450000Y10240000D03*
X44450000Y20240000D03*
D11*
X8030000Y51276250D03*
X10570000Y56356250D03*
X8030000Y58896250D03*
X8030000Y41116250D03*
X10570000Y53816250D03*
X10570000Y46196250D03*
X8030000Y46196250D03*
X8030000Y48736250D03*
X8030000Y53816250D03*
X10570000Y48736250D03*
X10570000Y38576250D03*
X10570000Y43656250D03*
X10570000Y51276250D03*
D19*
X10570000Y61436250D03*
D11*
X8030000Y61436250D03*
X8030000Y38576250D03*
X10570000Y58896250D03*
X10570000Y41116250D03*
X8030000Y43656250D03*
X8030000Y56356250D03*
D20*
X53657500Y55245000D03*
X14922500Y93345000D03*
D21*
X77152500Y56197500D03*
X72072500Y56197500D03*
D12*
X107791250Y68897500D03*
D22*
X107791250Y63817500D03*
X107791250Y66357500D03*
D17*
X113000000Y86700000D03*
X113000000Y76540000D03*
X113000000Y66380000D03*
X113000000Y81620000D03*
X113000000Y61300000D03*
X113000000Y71460000D03*
D23*
X102380000Y27700000D03*
D24*
X115080000Y20460000D03*
D23*
X102380000Y23000000D03*
D24*
X115080000Y25540000D03*
D23*
X102380000Y18300000D03*
D25*
X21160000Y71000000D03*
X31320000Y71000000D03*
X33860000Y71000000D03*
X16080000Y71000000D03*
X36400000Y71000000D03*
X44020000Y71000000D03*
X46560000Y71000000D03*
X28780000Y71000000D03*
X18620000Y71000000D03*
X23700000Y71000000D03*
X13540000Y71000000D03*
X38940000Y71000000D03*
X49100000Y71000000D03*
X41480000Y71000000D03*
D26*
X11000000Y71000000D03*
D25*
X26240000Y71000000D03*
D27*
X39907500Y63817500D03*
X67407500Y63817500D03*
D18*
X46037500Y89772500D03*
X46037500Y79772500D03*
D10*
X80230000Y40000000D03*
X82770000Y40000000D03*
D28*
X23495000Y10160000D03*
X23495000Y25400000D03*
D18*
X68580000Y89772500D03*
X68580000Y79772500D03*
D12*
X29368750Y87312500D03*
D29*
X67627500Y52720000D03*
X67627500Y38720000D03*
D30*
X27942500Y82073750D03*
X33792500Y82073750D03*
X11292500Y82073750D03*
X17142500Y82073750D03*
D13*
X19685000Y57230000D03*
X22185000Y67230000D03*
X17185000Y67230000D03*
D31*
X63182500Y56197500D03*
X60642500Y56197500D03*
X58102500Y56197500D03*
D18*
X66992500Y10240000D03*
X66992500Y20240000D03*
D17*
X7000000Y17540000D03*
X7000000Y12460000D03*
D12*
X34290000Y65405000D03*
D11*
X86250000Y57245000D03*
X92750000Y52755000D03*
X86250000Y52755000D03*
X92750000Y57245000D03*
D27*
X38320000Y32385000D03*
X65820000Y32385000D03*
D32*
X29210000Y55562500D03*
X29051250Y47942500D03*
X48260000Y43656250D03*
X28733750Y68738750D03*
X46513750Y62706250D03*
X78827500Y40005000D03*
X3175000Y43656250D03*
X24765000Y46037500D03*
X7620000Y22225000D03*
X43021250Y28257500D03*
X60642500Y29527500D03*
X85090000Y40957500D03*
X87701250Y43727500D03*
X59213750Y4921250D03*
X92233750Y27781250D03*
X18097500Y33496250D03*
X110331250Y95091250D03*
X30321250Y56673750D03*
X25241250Y51752500D03*
X31432500Y38893750D03*
X18097500Y39846250D03*
X23812500Y39925625D03*
X99536250Y35401250D03*
X18097500Y32543750D03*
X20002500Y73977500D03*
X27940000Y54292500D03*
X81280000Y45720000D03*
X36195000Y95567500D03*
X21590000Y43815000D03*
X1111250Y18415000D03*
X19526250Y36036250D03*
X55403750Y32067500D03*
X22542500Y33496250D03*
X51435000Y95091250D03*
X33496250Y57785000D03*
X96202500Y41433750D03*
X25400000Y61436250D03*
X35919890Y46037500D03*
X34808640Y46037500D03*
X18891250Y33496250D03*
X102235000Y42386250D03*
X99695000Y94773750D03*
X88265000Y39528750D03*
X61277500Y49212500D03*
X48577500Y64770000D03*
X90646250Y50165000D03*
X49847500Y45402500D03*
X13176250Y4603750D03*
X2698750Y36036250D03*
X60960000Y94615000D03*
X26511250Y37306250D03*
X19843750Y33496250D03*
X3016250Y51435000D03*
X28098750Y46672500D03*
X77628750Y46990000D03*
X112553750Y23018750D03*
X98425000Y34448750D03*
X24844375Y39925625D03*
X78898750Y44450000D03*
X28098750Y45720000D03*
X97313750Y45720000D03*
X1111250Y24288750D03*
X45243750Y43656250D03*
X89852500Y94615000D03*
X1111250Y76200000D03*
X17145000Y49847500D03*
X21272500Y42386250D03*
X48260000Y45402500D03*
X12858750Y39211250D03*
X11112500Y64770000D03*
X25876250Y41116250D03*
X11747500Y64770000D03*
D33*
X16827500Y58420000D03*
X16827500Y59372500D03*
D32*
X3016250Y61912500D03*
X22860000Y42386250D03*
X26987500Y67945000D03*
X12382500Y45561250D03*
X30480000Y47942500D03*
X54292500Y70008750D03*
X86360000Y19526250D03*
X24606250Y76358750D03*
X36195000Y94615000D03*
X9683750Y36195000D03*
X39052500Y53340000D03*
X16192500Y42068750D03*
X25082500Y46355000D03*
X50800000Y70326250D03*
X39052500Y4762500D03*
X27622500Y41910000D03*
X42068750Y45402500D03*
X35919890Y46513750D03*
X34808640Y46513750D03*
X1270000Y95408750D03*
X118427500Y5556250D03*
X33178750Y35083750D03*
X70167500Y49053750D03*
D33*
X29051250Y33655000D03*
X32861250Y39211250D03*
X100806250Y33337500D03*
D32*
X118427500Y73977500D03*
X36830000Y35877500D03*
X24447500Y52863750D03*
X1111250Y21113750D03*
X38258750Y28098750D03*
X2857500Y39687500D03*
X39412390Y46990000D03*
X38459890Y46990000D03*
X31115000Y37782500D03*
X1428750Y87788750D03*
X51593750Y43815000D03*
X6667500Y20002500D03*
X39412390Y46037500D03*
X38459890Y46037500D03*
X20955000Y47942500D03*
D33*
X41592500Y53181250D03*
D32*
X55403750Y28098750D03*
X16510000Y73183750D03*
X51117500Y67151250D03*
X1111250Y21907500D03*
X115728750Y30956250D03*
X31908750Y51435000D03*
X39412390Y46513750D03*
X38459890Y46513750D03*
X40322500Y53340000D03*
X45243750Y45402500D03*
X1111250Y4445000D03*
X118427500Y45878750D03*
X1111250Y22701250D03*
X51593750Y5080000D03*
X18256250Y49688750D03*
X69850000Y94456250D03*
X30480000Y37147500D03*
X19685000Y42545000D03*
D33*
X55880000Y73025000D03*
D32*
X7620000Y24765000D03*
X1111250Y25082500D03*
X22383750Y36036250D03*
X31908750Y50482500D03*
D33*
X51117500Y55880000D03*
X42862500Y58578750D03*
D32*
X31750000Y47942500D03*
X34131250Y59055000D03*
X30003750Y5080000D03*
X14128750Y57150000D03*
X1111250Y25876250D03*
X53657500Y43656250D03*
X81438750Y31591250D03*
X46672500Y45402500D03*
X24606250Y74136250D03*
D34*
X30480000Y41910000D03*
D32*
X31750000Y94615000D03*
X34131250Y38258750D03*
X21748750Y33496250D03*
X28416250Y41910000D03*
X22860000Y40005000D03*
X36353750Y50006250D03*
X115570000Y14922500D03*
X64928750Y49212500D03*
X28257500Y63976250D03*
X23018750Y4921250D03*
X60642500Y37306250D03*
X57467500Y49212500D03*
X22542500Y32543750D03*
X26670000Y62865000D03*
X20637500Y39846250D03*
X25241250Y36036250D03*
D33*
X43497500Y41592500D03*
X46196250Y53022500D03*
D32*
X37465000Y51752500D03*
X91122500Y46355000D03*
X3016250Y58737500D03*
X12382500Y44608750D03*
X8572500Y20002500D03*
X31115000Y95091250D03*
X25400000Y68738750D03*
X20002500Y76358750D03*
X17145000Y54292500D03*
X37941250Y34766250D03*
X36830000Y95091250D03*
X109537500Y42545000D03*
X3016250Y55086250D03*
X97790000Y4921250D03*
X7620000Y23495000D03*
X47466250Y67468750D03*
X55562500Y45402500D03*
X36353750Y25082500D03*
X35919890Y46990000D03*
X34808640Y46990000D03*
X108902500Y5080000D03*
X102235000Y45720000D03*
X35242500Y56038750D03*
X118110000Y56197500D03*
X76041250Y49212500D03*
X78898750Y45720000D03*
X109537500Y45720000D03*
X53975000Y45402500D03*
X67786250Y4921250D03*
X16192500Y76835000D03*
X88106250Y4921250D03*
X35401250Y38258750D03*
X7620000Y20002500D03*
X42068750Y46831250D03*
X34131250Y63023750D03*
X18097500Y36036250D03*
X26670000Y53181250D03*
X79216250Y4921250D03*
X79216250Y27940000D03*
X31750000Y57943750D03*
X22701250Y57943750D03*
X3016250Y47625000D03*
X22542500Y31591250D03*
X49053750Y28416250D03*
X41116250Y95250000D03*
X43021250Y32067500D03*
X1111250Y23495000D03*
X18097500Y31591250D03*
X72866250Y49053750D03*
X20796250Y33496250D03*
X24130000Y62388750D03*
X118586250Y95091250D03*
X118427500Y85566250D03*
X1111250Y81121250D03*
X81597500Y94773750D03*
X16668750Y36036250D03*
X39528750Y58737500D03*
X49847500Y43656250D03*
X118268750Y64770000D03*
X14446250Y39211250D03*
X34766250Y38258750D03*
X16668750Y39846250D03*
X10001250Y28892500D03*
X19843750Y45085000D03*
X74930000Y45085000D03*
X16986250Y95408750D03*
X11430000Y68421250D03*
X31750000Y95567500D03*
X95408750Y43656250D03*
X20637500Y44450000D03*
X84296250Y45402500D03*
X42703750Y62547500D03*
X20955000Y36036250D03*
X1270000Y10318750D03*
X22701250Y48101250D03*
X16510000Y48736250D03*
X71437500Y39370000D03*
X60642500Y34290000D03*
X28098750Y44767500D03*
X76200000Y45085000D03*
X49053750Y32067500D03*
X87312500Y50165000D03*
X44926250Y65405000D03*
X25082500Y43815000D03*
X46513750Y43815000D03*
X29686250Y38100000D03*
X26193750Y29845000D03*
X28257500Y95408750D03*
X51593750Y45402500D03*
X21590000Y47942500D03*
X1270000Y15240000D03*
D35*
X45807500Y68738750D02*
X46442500Y69373750D01*
X46442500Y69373750D02*
X46442500Y70961250D01*
X28733750Y68738750D02*
X45807500Y68738750D01*
X46560000Y71000000D02*
X46442500Y70961250D01*
D36*
X25241250Y51752500D02*
X11112500Y51752500D01*
X10570000Y51276250D02*
X11112500Y51752500D01*
D37*
X21113750Y40640000D02*
X22860000Y38893750D01*
X22860000Y38893750D02*
X31432500Y38893750D01*
X18097500Y39846250D02*
X18891250Y40640000D01*
X18891250Y40640000D02*
X21113750Y40640000D01*
X53816250Y35401250D02*
X61436250Y43021250D01*
X80010000Y35401250D02*
X99536250Y35401250D01*
X24130000Y40798750D02*
X23812500Y40481250D01*
X41433750Y35401250D02*
X53816250Y35401250D01*
X31273750Y40322500D02*
X31750000Y40798750D01*
X37941250Y38893750D02*
X41433750Y35401250D01*
X23812500Y40481250D02*
X23812500Y39925625D01*
X61436250Y43021250D02*
X72390000Y43021250D01*
X25082500Y40798750D02*
X25558750Y40322500D01*
X37465000Y40798750D02*
X37941250Y40322500D01*
X25082500Y40798750D02*
X24130000Y40798750D01*
X37941250Y40322500D02*
X37941250Y38893750D01*
X31750000Y40798750D02*
X37465000Y40798750D01*
X25558750Y40322500D02*
X31273750Y40322500D01*
X72390000Y43021250D02*
X80010000Y35401250D01*
X43656250Y39846250D02*
X51593750Y39846250D01*
X42386250Y41116250D02*
X43656250Y39846250D01*
X39687500Y45243750D02*
X42386250Y42545000D01*
X32226250Y46672500D02*
X33655000Y45243750D01*
X42386250Y42545000D02*
X42386250Y41116250D01*
X77152500Y47466250D02*
X77628750Y46990000D01*
X33655000Y45243750D02*
X39687500Y45243750D01*
X59213750Y47466250D02*
X77152500Y47466250D01*
X28098750Y46672500D02*
X32226250Y46672500D01*
X51593750Y39846250D02*
X59213750Y47466250D01*
X25082500Y39687500D02*
X31750000Y39687500D01*
X36988750Y40163750D02*
X37306250Y39846250D01*
X37306250Y38417500D02*
X40957500Y34766250D01*
X32226250Y40163750D02*
X36988750Y40163750D01*
X61753750Y42386250D02*
X71913750Y42386250D01*
X24844375Y39925625D02*
X25082500Y39687500D01*
X71913750Y42386250D02*
X79851250Y34448750D01*
X54133750Y34766250D02*
X61753750Y42386250D01*
X37306250Y39846250D02*
X37306250Y38417500D01*
X40957500Y34766250D02*
X54133750Y34766250D01*
X79851250Y34448750D02*
X98425000Y34448750D01*
X31750000Y39687500D02*
X32226250Y40163750D01*
X33178750Y44608750D02*
X39370000Y44608750D01*
X78422500Y44450000D02*
X76041250Y46831250D01*
X39370000Y44608750D02*
X41751250Y42227500D01*
X59531250Y46831250D02*
X76041250Y46831250D01*
X32067500Y45720000D02*
X33178750Y44608750D01*
X51911250Y39211250D02*
X59531250Y46831250D01*
X41751250Y42227500D02*
X41751250Y40798750D01*
X41751250Y40798750D02*
X43338750Y39211250D01*
X43338750Y39211250D02*
X51911250Y39211250D01*
X28098750Y45720000D02*
X32067500Y45720000D01*
X78898750Y44450000D02*
X78422500Y44450000D01*
X38100000Y42068750D02*
X39211250Y40957500D01*
X85248750Y45878750D02*
X84455000Y46672500D01*
X92686250Y57308750D02*
X86250000Y57245000D01*
X23495000Y43180000D02*
X23812500Y42862500D01*
X39211250Y39528750D02*
X42068750Y36671250D01*
X42068750Y36671250D02*
X53181250Y36671250D01*
X22066250Y43180000D02*
X21272500Y42386250D01*
X60801250Y44291250D02*
X73342500Y44291250D01*
X84455000Y46672500D02*
X84455000Y55562500D01*
X75247500Y42386250D02*
X73342500Y44291250D01*
X26670000Y42862500D02*
X26828750Y42703750D01*
X39211250Y40957500D02*
X39211250Y39528750D01*
X86250000Y57245000D02*
X86042500Y57150000D01*
X53181250Y36671250D02*
X60801250Y44291250D01*
X23812500Y42862500D02*
X26670000Y42862500D01*
X22066250Y43180000D02*
X23495000Y43180000D01*
X82637500Y42386250D02*
X75247500Y42386250D01*
X26828750Y42703750D02*
X30797500Y42703750D01*
X92750000Y57245000D02*
X92686250Y57308750D01*
X82637500Y42386250D02*
X85248750Y44997500D01*
X30797500Y42703750D02*
X31432500Y42068750D01*
X85248750Y44997500D02*
X85248750Y45878750D01*
X84455000Y55562500D02*
X86042500Y57150000D01*
X31432500Y42068750D02*
X38100000Y42068750D01*
D38*
X10570000Y61436250D02*
X10593750Y64770000D01*
D37*
X30797500Y41116250D02*
X31115000Y41433750D01*
X92750000Y52755000D02*
X92750000Y47347500D01*
X72866250Y43656250D02*
X74930000Y41592500D01*
X74930000Y41592500D02*
X83026250Y41592500D01*
X92710000Y45591250D02*
X92750000Y47347500D01*
X86250000Y52755000D02*
X86250000Y47356250D01*
D38*
X12858750Y59372500D02*
X10570000Y61436250D01*
D37*
X38576250Y39211250D02*
X41751250Y36036250D01*
X83026250Y41592500D02*
X86201250Y44767500D01*
X114950000Y44500000D02*
X93771250Y44500000D01*
D38*
X16827500Y59372500D02*
X12858750Y59372500D01*
D37*
X53498750Y36036250D02*
X61118750Y43656250D01*
X37782500Y41433750D02*
X38576250Y40640000D01*
X38576250Y40640000D02*
X38576250Y39211250D01*
X92750000Y47245000D02*
X86263750Y47245000D01*
X86250000Y47245000D02*
X86201250Y47307500D01*
X61118750Y43656250D02*
X72866250Y43656250D01*
D38*
X16827500Y59372500D02*
X28257500Y59372500D01*
D37*
X25876250Y41116250D02*
X30797500Y41116250D01*
X86250000Y47356250D02*
X86201250Y47307500D01*
D38*
X10593750Y64770000D02*
X11747500Y64770000D01*
D37*
X93771250Y44500000D02*
X92710000Y45591250D01*
D38*
X16827500Y59372500D02*
X16827500Y58420000D01*
D37*
X41751250Y36036250D02*
X53498750Y36036250D01*
X86201250Y44767500D02*
X86201250Y47307500D01*
X31115000Y41433750D02*
X37782500Y41433750D01*
X86263750Y47245000D02*
X86201250Y47307500D01*
D38*
X28257500Y59372500D02*
X34290000Y65405000D01*
D37*
X92750000Y47347500D02*
X92750000Y47245000D01*
D35*
X40640000Y33813750D02*
X54451250Y33813750D01*
X36036250Y39370000D02*
X36512500Y38893750D01*
D38*
X29051250Y33655000D02*
X29051250Y23177500D01*
D35*
X36512500Y38893750D02*
X36512500Y37941250D01*
X33020000Y39370000D02*
X36036250Y39370000D01*
X32861250Y39211250D02*
X33020000Y39370000D01*
X54451250Y33813750D02*
X62071250Y41433750D01*
X62071250Y41433750D02*
X71437500Y41433750D01*
X71437500Y41433750D02*
X79533750Y33337500D01*
D38*
X32861250Y39211250D02*
X32861250Y37465000D01*
X31432500Y23177500D02*
X29051250Y23177500D01*
X32861250Y37465000D02*
X29051250Y33655000D01*
D35*
X79533750Y33337500D02*
X100806250Y33337500D01*
X36512500Y37941250D02*
X40640000Y33813750D01*
D36*
X24447500Y52863750D02*
X11588750Y52863750D01*
X10570000Y53816250D02*
X11588750Y52863750D01*
D38*
X10882500Y72707500D02*
X10882500Y70961250D01*
X11358750Y73183750D02*
X10882500Y72707500D01*
X16510000Y73183750D02*
X11358750Y73183750D01*
X10882500Y70961250D02*
X11000000Y71000000D01*
D36*
X26035000Y50006250D02*
X23018750Y46990000D01*
X19050000Y46990000D02*
X18097500Y46037500D01*
X27781250Y50006250D02*
X26035000Y50006250D01*
X19685000Y42545000D02*
X18097500Y44132500D01*
X38735000Y60960000D02*
X47466250Y60960000D01*
X55880000Y69373750D02*
X55880000Y73025000D01*
X23018750Y46990000D02*
X19050000Y46990000D01*
X27781250Y50006250D02*
X38735000Y60960000D01*
X47466250Y60960000D02*
X55880000Y69373750D01*
X18097500Y46037500D02*
X18097500Y44132500D01*
D35*
X48418750Y58578750D02*
X51117500Y55880000D01*
X42862500Y58578750D02*
X48418750Y58578750D01*
D36*
X14050000Y57230000D02*
X14128750Y57150000D01*
X19685000Y57230000D02*
X14050000Y57230000D01*
X12541250Y43656250D02*
X10570000Y43656250D01*
X36353750Y50006250D02*
X35560000Y49212500D01*
X23495000Y46196250D02*
X26511250Y49212500D01*
X20478750Y41275000D02*
X21590000Y41275000D01*
X22860000Y40005000D02*
X21590000Y41275000D01*
X20478750Y43180000D02*
X20478750Y41275000D01*
X18891250Y44767500D02*
X20478750Y43180000D01*
X26511250Y49212500D02*
X35560000Y49212500D01*
X18891250Y45561250D02*
X19526250Y46196250D01*
X20478750Y41275000D02*
X14922500Y41275000D01*
X19526250Y46196250D02*
X23495000Y46196250D01*
X18891250Y45561250D02*
X18891250Y44767500D01*
X14922500Y41275000D02*
X12541250Y43656250D01*
X24447500Y36036250D02*
X25241250Y36036250D01*
X20637500Y39846250D02*
X24447500Y36036250D01*
D33*
X44767500Y53022500D02*
X46196250Y53022500D01*
X37465000Y56356250D02*
X37306250Y56515000D01*
X37465000Y51752500D02*
X43497500Y51752500D01*
X43497500Y51752500D02*
X44767500Y53022500D01*
X43497500Y51752500D02*
X43497500Y41592500D01*
X37465000Y51752500D02*
X37465000Y56356250D01*
D37*
X40481250Y56515000D02*
X46990000Y56515000D01*
X55403750Y48101250D02*
X77946250Y48101250D01*
X46990000Y56515000D02*
X55403750Y48101250D01*
X77946250Y48101250D02*
X78898750Y47148750D01*
X78898750Y47148750D02*
X78898750Y45720000D01*
D34*
X13540000Y71000000D02*
X13540000Y69327500D01*
X20478750Y68897500D02*
X22185000Y67230000D01*
X13970000Y68897500D02*
X20478750Y68897500D01*
X13540000Y69327500D02*
X13970000Y68897500D01*
D37*
X22701250Y57943750D02*
X31750000Y57943750D01*
D36*
X23700000Y71000000D02*
X23741250Y69532500D01*
X24130000Y69127500D02*
X23741250Y69532500D01*
X24130000Y62388750D02*
X24130000Y69127500D01*
X10001250Y33178750D02*
X10001250Y28892500D01*
X16668750Y39846250D02*
X10001250Y33178750D01*
D37*
X32226250Y43338750D02*
X38735000Y43338750D01*
X52546250Y37941250D02*
X60166250Y45561250D01*
X74453750Y45561250D02*
X74930000Y45085000D01*
X19843750Y45085000D02*
X20161250Y45402500D01*
X24447500Y45243750D02*
X26352500Y45243750D01*
X40481250Y41592500D02*
X40481250Y40163750D01*
X31591250Y43973750D02*
X32226250Y43338750D01*
X38735000Y43338750D02*
X40481250Y41592500D01*
X27622500Y43973750D02*
X31591250Y43973750D01*
X40481250Y40163750D02*
X42703750Y37941250D01*
X20161250Y45402500D02*
X24288750Y45402500D01*
X26352500Y45243750D02*
X27622500Y43973750D01*
X60166250Y45561250D02*
X74453750Y45561250D01*
X42703750Y37941250D02*
X52546250Y37941250D01*
X24288750Y45402500D02*
X24447500Y45243750D01*
X52863750Y37306250D02*
X60483750Y44926250D01*
X26035000Y44608750D02*
X27305000Y43338750D01*
X39846250Y39846250D02*
X42386250Y37306250D01*
X95408750Y43656250D02*
X112871250Y43656250D01*
X20955000Y44767500D02*
X20637500Y44450000D01*
X26035000Y44608750D02*
X24130000Y44608750D01*
X27305000Y43338750D02*
X31273750Y43338750D01*
X60483750Y44926250D02*
X73818750Y44926250D01*
X114458750Y42068750D02*
X117316250Y42068750D01*
X75565000Y43180000D02*
X82073750Y43180000D01*
X23971250Y44767500D02*
X20955000Y44767500D01*
X82073750Y43180000D02*
X84296250Y45402500D01*
X38417500Y42703750D02*
X39846250Y41275000D01*
X112871250Y43656250D02*
X114458750Y42068750D01*
X31908750Y42703750D02*
X38417500Y42703750D01*
X39846250Y41275000D02*
X39846250Y39846250D01*
X117450000Y42000000D02*
X117316250Y42068750D01*
X42386250Y37306250D02*
X52863750Y37306250D01*
X24130000Y44608750D02*
X23971250Y44767500D01*
X75565000Y43180000D02*
X73818750Y44926250D01*
X31273750Y43338750D02*
X31908750Y42703750D01*
D36*
X16510000Y48736250D02*
X22066250Y48736250D01*
X22066250Y48736250D02*
X22701250Y48101250D01*
D37*
X41116250Y40481250D02*
X43021250Y38576250D01*
X52228750Y38576250D02*
X59848750Y46196250D01*
X28098750Y44767500D02*
X31908750Y44767500D01*
X59848750Y46196250D02*
X75088750Y46196250D01*
X31908750Y44767500D02*
X32702500Y43973750D01*
X41116250Y41910000D02*
X41116250Y40481250D01*
X75088750Y46196250D02*
X76200000Y45085000D01*
X32702500Y43973750D02*
X39052500Y43973750D01*
X43021250Y38576250D02*
X52228750Y38576250D01*
X39052500Y43973750D02*
X41116250Y41910000D01*
D35*
X26193750Y34290000D02*
X26193750Y29845000D01*
X26193750Y34290000D02*
X29686250Y38100000D01*
D39*
G36*
X18055853Y80506253D02*
X18097500Y80587462D01*
X18097500Y83561250D01*
X18078000Y83620577D01*
X17997500Y83661250D01*
X5021250Y83661250D01*
X4961923Y83641750D01*
X4921250Y83561250D01*
X4921250Y80743803D01*
X4940750Y80684476D01*
X5020045Y80643810D01*
X17996295Y80487469D01*
X18055853Y80506253D01*
G37*
G36*
X119459327Y519500D02*
X119500000Y600000D01*
X119500000Y9460007D01*
X119480500Y9519334D01*
X119418026Y9558369D01*
X119265202Y9586375D01*
X119262255Y9587008D01*
X119206579Y9600731D01*
X119203637Y9601552D01*
X118895255Y9697647D01*
X118892410Y9698629D01*
X118838756Y9718976D01*
X118835994Y9720121D01*
X118541430Y9852693D01*
X118538690Y9854027D01*
X118487920Y9880674D01*
X118485284Y9882160D01*
X118208845Y10049274D01*
X118206320Y10050906D01*
X118159109Y10083493D01*
X118156671Y10085287D01*
X117902403Y10284493D01*
X117900082Y10286427D01*
X117857137Y10324473D01*
X117854955Y10326527D01*
X117626527Y10554955D01*
X117624473Y10557137D01*
X117586427Y10600082D01*
X117584493Y10602403D01*
X117385287Y10856671D01*
X117383493Y10859109D01*
X117350906Y10906320D01*
X117349274Y10908845D01*
X117182160Y11185284D01*
X117180674Y11187920D01*
X117154027Y11238690D01*
X117152693Y11241430D01*
X117020121Y11535994D01*
X117018976Y11538756D01*
X116998629Y11592410D01*
X116997647Y11595255D01*
X116901543Y11903666D01*
X116900740Y11906545D01*
X116887010Y11962248D01*
X116886374Y11965210D01*
X116828146Y12282949D01*
X116827696Y12285907D01*
X116820778Y12342875D01*
X116820508Y12345850D01*
X116800958Y12669047D01*
X116800888Y12670604D01*
X116800023Y12699252D01*
X116800000Y12700735D01*
X116800000Y19575709D01*
X116780500Y19635036D01*
X116729605Y19671226D01*
X116667164Y19670164D01*
X116613397Y19625709D01*
X116527787Y19477428D01*
X116523583Y19471262D01*
X116365171Y19272620D01*
X116360098Y19267153D01*
X116173848Y19094337D01*
X116168020Y19089689D01*
X115958090Y18946562D01*
X115951630Y18942832D01*
X115722712Y18832591D01*
X115715773Y18829868D01*
X115472986Y18754979D01*
X115465713Y18753319D01*
X115214474Y18715450D01*
X115207039Y18714893D01*
X114952960Y18714893D01*
X114945525Y18715450D01*
X114694286Y18753319D01*
X114687013Y18754979D01*
X114444227Y18829868D01*
X114437288Y18832591D01*
X114208374Y18942830D01*
X114201904Y18946566D01*
X113991979Y19089689D01*
X113986151Y19094337D01*
X113799901Y19267153D01*
X113794828Y19272620D01*
X113636416Y19471262D01*
X113632212Y19477428D01*
X113505173Y19697465D01*
X113501936Y19704188D01*
X113409114Y19940694D01*
X113406915Y19947823D01*
X113350379Y20195525D01*
X113349266Y20202914D01*
X113330280Y20456264D01*
X113330280Y20463736D01*
X113349266Y20717085D01*
X113350379Y20724474D01*
X113406915Y20972176D01*
X113409114Y20979305D01*
X113501936Y21215811D01*
X113505173Y21222534D01*
X113632212Y21442571D01*
X113636416Y21448737D01*
X113794828Y21647379D01*
X113799901Y21652846D01*
X113986151Y21825662D01*
X113991979Y21830310D01*
X114201904Y21973433D01*
X114208374Y21977169D01*
X114437288Y22087408D01*
X114444227Y22090131D01*
X114687013Y22165020D01*
X114694286Y22166680D01*
X114945525Y22204549D01*
X114952960Y22205106D01*
X115207039Y22205106D01*
X115214474Y22204549D01*
X115465713Y22166680D01*
X115472986Y22165020D01*
X115715773Y22090131D01*
X115722712Y22087408D01*
X115951630Y21977167D01*
X115958090Y21973437D01*
X116168020Y21830310D01*
X116173848Y21825662D01*
X116360098Y21652846D01*
X116365171Y21647379D01*
X116523583Y21448737D01*
X116527787Y21442571D01*
X116613397Y21294290D01*
X116659949Y21252661D01*
X116722120Y21246767D01*
X116775664Y21278907D01*
X116800000Y21344290D01*
X116800000Y24655709D01*
X116780500Y24715036D01*
X116729605Y24751226D01*
X116667164Y24750164D01*
X116613397Y24705709D01*
X116527787Y24557428D01*
X116523583Y24551262D01*
X116365171Y24352620D01*
X116360098Y24347153D01*
X116173848Y24174337D01*
X116168020Y24169689D01*
X115958090Y24026562D01*
X115951630Y24022832D01*
X115722712Y23912591D01*
X115715773Y23909868D01*
X115472986Y23834979D01*
X115465713Y23833319D01*
X115214474Y23795450D01*
X115207039Y23794893D01*
X114952960Y23794893D01*
X114945525Y23795450D01*
X114694286Y23833319D01*
X114687013Y23834979D01*
X114444227Y23909868D01*
X114437288Y23912591D01*
X114208374Y24022830D01*
X114201904Y24026566D01*
X113991979Y24169689D01*
X113986151Y24174337D01*
X113799901Y24347153D01*
X113794828Y24352620D01*
X113636416Y24551262D01*
X113632212Y24557428D01*
X113505173Y24777465D01*
X113501936Y24784188D01*
X113409114Y25020694D01*
X113406915Y25027823D01*
X113350379Y25275525D01*
X113349266Y25282914D01*
X113330280Y25536264D01*
X113330280Y25543736D01*
X113349266Y25797085D01*
X113350379Y25804474D01*
X113406915Y26052176D01*
X113409114Y26059305D01*
X113501936Y26295811D01*
X113505173Y26302534D01*
X113632212Y26522571D01*
X113636416Y26528737D01*
X113794828Y26727379D01*
X113799901Y26732846D01*
X113986151Y26905662D01*
X113991979Y26910310D01*
X114201904Y27053433D01*
X114208374Y27057169D01*
X114437288Y27167408D01*
X114444227Y27170131D01*
X114687013Y27245020D01*
X114694286Y27246680D01*
X114945525Y27284549D01*
X114952960Y27285106D01*
X115207039Y27285106D01*
X115214474Y27284549D01*
X115465713Y27246680D01*
X115472986Y27245020D01*
X115715773Y27170131D01*
X115722712Y27167408D01*
X115951630Y27057167D01*
X115958090Y27053437D01*
X116168020Y26910310D01*
X116173848Y26905662D01*
X116360098Y26732846D01*
X116365171Y26727379D01*
X116523583Y26528737D01*
X116527787Y26522571D01*
X116613397Y26374290D01*
X116659949Y26332661D01*
X116722120Y26326767D01*
X116775664Y26358907D01*
X116800000Y26424290D01*
X116800000Y33299265D01*
X116800023Y33300748D01*
X116800888Y33329396D01*
X116800958Y33330953D01*
X116820508Y33654148D01*
X116820778Y33657123D01*
X116827694Y33714079D01*
X116828148Y33717061D01*
X116886373Y34034781D01*
X116887011Y34037757D01*
X116900731Y34093420D01*
X116901552Y34096362D01*
X116997647Y34404744D01*
X116998629Y34407589D01*
X117018976Y34461243D01*
X117020121Y34464005D01*
X117152693Y34758569D01*
X117154027Y34761309D01*
X117180674Y34812079D01*
X117182160Y34814715D01*
X117349274Y35091154D01*
X117350906Y35093679D01*
X117383493Y35140890D01*
X117385287Y35143328D01*
X117584493Y35397596D01*
X117586427Y35399917D01*
X117624473Y35442862D01*
X117626527Y35445044D01*
X117854955Y35673472D01*
X117857137Y35675526D01*
X117900082Y35713572D01*
X117902403Y35715506D01*
X118156671Y35914712D01*
X118159109Y35916506D01*
X118206320Y35949093D01*
X118208845Y35950725D01*
X118485284Y36117839D01*
X118487920Y36119325D01*
X118538690Y36145972D01*
X118541430Y36147306D01*
X118835994Y36279878D01*
X118838756Y36281023D01*
X118892410Y36301370D01*
X118895255Y36302352D01*
X119203666Y36398456D01*
X119206545Y36399259D01*
X119262266Y36412994D01*
X119265189Y36413621D01*
X119418026Y36441630D01*
X119472866Y36471505D01*
X119500000Y36539992D01*
X119500000Y49112500D01*
X119480500Y49171827D01*
X119400000Y49212500D01*
X93500000Y49212500D01*
X93440673Y49193000D01*
X93400000Y49112500D01*
X93400000Y48539248D01*
X93419500Y48479921D01*
X93452405Y48451301D01*
X93512083Y48419005D01*
X93518996Y48414488D01*
X93694925Y48277558D01*
X93700998Y48271968D01*
X93851994Y48107941D01*
X93857062Y48101429D01*
X93978999Y47914791D01*
X93982925Y47907538D01*
X94072480Y47703372D01*
X94075161Y47695564D01*
X94129890Y47479440D01*
X94131247Y47471310D01*
X94149658Y47249127D01*
X94149658Y47240873D01*
X94131247Y47018689D01*
X94129890Y47010559D01*
X94075161Y46794435D01*
X94072480Y46786627D01*
X93982925Y46582461D01*
X93978999Y46575208D01*
X93857062Y46388570D01*
X93851994Y46382058D01*
X93700998Y46218031D01*
X93694925Y46212441D01*
X93518996Y46075511D01*
X93512088Y46070997D01*
X93420393Y46021375D01*
X93377497Y45975988D01*
X93368013Y45935704D01*
X93366993Y45890917D01*
X93395278Y45818922D01*
X94016361Y45180282D01*
X94088050Y45150000D01*
X113373949Y45150000D01*
X113433276Y45169500D01*
X113464046Y45206612D01*
X113519435Y45321630D01*
X113523165Y45328090D01*
X113657873Y45525671D01*
X113662521Y45531499D01*
X113825170Y45706793D01*
X113830637Y45711866D01*
X114017596Y45860960D01*
X114023763Y45865165D01*
X114230841Y45984722D01*
X114237584Y45987969D01*
X114460169Y46075328D01*
X114467298Y46077527D01*
X114700429Y46130737D01*
X114707818Y46131850D01*
X114946264Y46149720D01*
X114953736Y46149720D01*
X115192181Y46131850D01*
X115199570Y46130737D01*
X115432701Y46077527D01*
X115439830Y46075328D01*
X115662415Y45987969D01*
X115669158Y45984722D01*
X115876236Y45865165D01*
X115882403Y45860960D01*
X116069361Y45711866D01*
X116074828Y45706793D01*
X116237478Y45531499D01*
X116242126Y45525671D01*
X116376834Y45328090D01*
X116380564Y45321630D01*
X116484314Y45106190D01*
X116487046Y45099228D01*
X116557527Y44870739D01*
X116559189Y44863455D01*
X116594829Y44627001D01*
X116595386Y44619566D01*
X116595386Y44380433D01*
X116594829Y44372998D01*
X116559189Y44136544D01*
X116557527Y44129260D01*
X116487046Y43900771D01*
X116484314Y43893809D01*
X116380564Y43678371D01*
X116376834Y43671910D01*
X116242126Y43474328D01*
X116237478Y43468500D01*
X116074829Y43293206D01*
X116069362Y43288133D01*
X115882403Y43139039D01*
X115876236Y43134834D01*
X115669158Y43015277D01*
X115662415Y43012030D01*
X115439830Y42924671D01*
X115432701Y42922472D01*
X115405409Y42916243D01*
X115351908Y42884030D01*
X115327951Y42826359D01*
X115342880Y42765719D01*
X115390874Y42725762D01*
X115427661Y42718750D01*
X115907057Y42718750D01*
X115966384Y42738250D01*
X115997154Y42775362D01*
X116019435Y42821630D01*
X116023165Y42828090D01*
X116157873Y43025671D01*
X116162521Y43031499D01*
X116325170Y43206793D01*
X116330637Y43211866D01*
X116517596Y43360960D01*
X116523763Y43365165D01*
X116730841Y43484722D01*
X116737584Y43487969D01*
X116960169Y43575328D01*
X116967298Y43577527D01*
X117200429Y43630737D01*
X117207818Y43631850D01*
X117446264Y43649720D01*
X117453736Y43649720D01*
X117692181Y43631850D01*
X117699570Y43630737D01*
X117932701Y43577527D01*
X117939830Y43575328D01*
X118162415Y43487969D01*
X118169158Y43484722D01*
X118376236Y43365165D01*
X118382403Y43360960D01*
X118569361Y43211866D01*
X118574828Y43206793D01*
X118737478Y43031499D01*
X118742126Y43025671D01*
X118876834Y42828090D01*
X118880564Y42821630D01*
X118984314Y42606190D01*
X118987046Y42599228D01*
X119057527Y42370739D01*
X119059189Y42363455D01*
X119094829Y42127001D01*
X119095386Y42119566D01*
X119095386Y41880433D01*
X119094829Y41872998D01*
X119059189Y41636544D01*
X119057527Y41629260D01*
X118987046Y41400771D01*
X118984314Y41393809D01*
X118880564Y41178371D01*
X118876834Y41171910D01*
X118742126Y40974328D01*
X118737478Y40968500D01*
X118574829Y40793206D01*
X118569362Y40788133D01*
X118382403Y40639039D01*
X118376236Y40634834D01*
X118169158Y40515277D01*
X118162415Y40512030D01*
X117939830Y40424671D01*
X117932701Y40422472D01*
X117699570Y40369262D01*
X117692181Y40368149D01*
X117453736Y40350280D01*
X117446264Y40350280D01*
X117207818Y40368149D01*
X117200429Y40369262D01*
X116967298Y40422472D01*
X116960169Y40424671D01*
X116737584Y40512030D01*
X116730841Y40515277D01*
X116523763Y40634834D01*
X116517596Y40639039D01*
X116330638Y40788133D01*
X116325171Y40793206D01*
X116162521Y40968500D01*
X116157873Y40974328D01*
X116023165Y41171910D01*
X116019435Y41178370D01*
X115930937Y41362138D01*
X115887627Y41407130D01*
X115840840Y41418750D01*
X114461778Y41418750D01*
X114455746Y41419115D01*
X114448192Y41420032D01*
X114430099Y41420578D01*
X114425547Y41420303D01*
X114413551Y41421028D01*
X114364611Y41429997D01*
X114358637Y41430906D01*
X114309195Y41436908D01*
X114297539Y41439781D01*
X114293249Y41441408D01*
X114275823Y41446266D01*
X114271322Y41447091D01*
X114259861Y41450663D01*
X114214480Y41471087D01*
X114208900Y41473399D01*
X114162332Y41491060D01*
X114151697Y41496641D01*
X114147927Y41499244D01*
X114132159Y41508138D01*
X114127992Y41510013D01*
X114117718Y41516224D01*
X114078543Y41546915D01*
X114073679Y41550494D01*
X114032696Y41578783D01*
X114023710Y41586745D01*
X114020675Y41590170D01*
X114007497Y41602575D01*
X114001507Y41607268D01*
X113997001Y41611260D01*
X112631300Y42976961D01*
X112560589Y43006250D01*
X95984779Y43006250D01*
X95926001Y42987152D01*
X95837990Y42923208D01*
X95828961Y42917996D01*
X95676205Y42849984D01*
X95666287Y42846761D01*
X95502721Y42811995D01*
X95492361Y42810906D01*
X95325138Y42810906D01*
X95314778Y42811995D01*
X95151212Y42846761D01*
X95141294Y42849984D01*
X94988539Y42917996D01*
X94979510Y42923208D01*
X94844231Y43021493D01*
X94836480Y43028472D01*
X94724589Y43152740D01*
X94718467Y43161167D01*
X94634857Y43305983D01*
X94630616Y43315508D01*
X94578942Y43474545D01*
X94576776Y43484735D01*
X94559298Y43651036D01*
X94559298Y43661464D01*
X94567505Y43739547D01*
X94554314Y43800588D01*
X94507480Y43841899D01*
X94468053Y43850000D01*
X93866346Y43850000D01*
X93807019Y43830500D01*
X93770829Y43779605D01*
X93771891Y43717164D01*
X93792774Y43682272D01*
X93851988Y43617948D01*
X93857062Y43611429D01*
X93978999Y43424791D01*
X93982925Y43417538D01*
X94072480Y43213372D01*
X94075161Y43205564D01*
X94129890Y42989440D01*
X94131247Y42981310D01*
X94149658Y42759127D01*
X94149658Y42750873D01*
X94131247Y42528689D01*
X94129890Y42520559D01*
X94075161Y42304435D01*
X94072480Y42296627D01*
X93982925Y42092461D01*
X93978999Y42085208D01*
X93857062Y41898570D01*
X93851994Y41892058D01*
X93700998Y41728031D01*
X93694925Y41722441D01*
X93518996Y41585511D01*
X93512083Y41580994D01*
X93316009Y41474885D01*
X93308465Y41471576D01*
X93097584Y41399180D01*
X93089605Y41397159D01*
X92869686Y41360461D01*
X92861480Y41359781D01*
X92638519Y41359781D01*
X92630313Y41360461D01*
X92410394Y41397159D01*
X92402415Y41399180D01*
X92191534Y41471576D01*
X92183990Y41474885D01*
X91987916Y41580994D01*
X91981003Y41585511D01*
X91805074Y41722441D01*
X91799001Y41728031D01*
X91648005Y41892058D01*
X91642937Y41898570D01*
X91521000Y42085208D01*
X91517074Y42092461D01*
X91427519Y42296627D01*
X91424838Y42304435D01*
X91370109Y42520559D01*
X91368752Y42528689D01*
X91350342Y42750873D01*
X91350342Y42759127D01*
X91368752Y42981310D01*
X91370109Y42989440D01*
X91424838Y43205564D01*
X91427519Y43213372D01*
X91517074Y43417538D01*
X91521000Y43424791D01*
X91642937Y43611429D01*
X91648005Y43617941D01*
X91799001Y43781968D01*
X91805074Y43787558D01*
X91981003Y43924488D01*
X91987916Y43929005D01*
X92183990Y44035114D01*
X92191534Y44038423D01*
X92402415Y44110819D01*
X92410394Y44112840D01*
X92630313Y44149538D01*
X92638519Y44150218D01*
X92861480Y44150218D01*
X92869686Y44149538D01*
X92969750Y44132840D01*
X93031478Y44142309D01*
X93075552Y44186553D01*
X93084782Y44248317D01*
X93057899Y44301194D01*
X92246134Y45135908D01*
X92242197Y45140478D01*
X92235572Y45149181D01*
X92224002Y45161932D01*
X92218213Y45167301D01*
X92210456Y45176470D01*
X92184937Y45215302D01*
X92180937Y45220953D01*
X92152771Y45257954D01*
X92146708Y45268307D01*
X92143560Y45275570D01*
X92135378Y45290719D01*
X92131047Y45297310D01*
X92125707Y45308073D01*
X92110221Y45351891D01*
X92107689Y45358337D01*
X92089200Y45400996D01*
X92085790Y45412499D01*
X92084474Y45420292D01*
X92080154Y45436965D01*
X92077525Y45444402D01*
X92074917Y45456128D01*
X92070366Y45502389D01*
X92069450Y45509252D01*
X92061709Y45555089D01*
X92061151Y45567079D01*
X92061738Y45574958D01*
X92061534Y45592176D01*
X92060464Y45603054D01*
X92060238Y45609067D01*
X92068358Y45965583D01*
X92050214Y46025339D01*
X92015978Y46055808D01*
X91987910Y46070997D01*
X91981006Y46075508D01*
X91805074Y46212441D01*
X91799001Y46218031D01*
X91648005Y46382058D01*
X91642937Y46388570D01*
X91537668Y46549695D01*
X91488894Y46588696D01*
X91453952Y46595000D01*
X87546047Y46595000D01*
X87486720Y46575500D01*
X87462331Y46549695D01*
X87357062Y46388570D01*
X87351994Y46382058D01*
X87200998Y46218031D01*
X87194925Y46212441D01*
X87018996Y46075511D01*
X87012083Y46070994D01*
X86903655Y46012316D01*
X86860759Y45966930D01*
X86851250Y45924369D01*
X86851250Y44770528D01*
X86850886Y44764502D01*
X86849969Y44756955D01*
X86849423Y44738858D01*
X86849699Y44734290D01*
X86848975Y44722309D01*
X86840001Y44673342D01*
X86839092Y44667370D01*
X86833090Y44617943D01*
X86830219Y44606291D01*
X86828592Y44602002D01*
X86823734Y44584574D01*
X86822909Y44580073D01*
X86819337Y44568612D01*
X86798907Y44523217D01*
X86796595Y44517637D01*
X86778938Y44471080D01*
X86773359Y44460449D01*
X86770759Y44456682D01*
X86761872Y44440924D01*
X86759993Y44436749D01*
X86753777Y44426466D01*
X86723061Y44387261D01*
X86719481Y44382396D01*
X86691216Y44341447D01*
X86683252Y44332458D01*
X86679831Y44329427D01*
X86667424Y44316247D01*
X86662732Y44310258D01*
X86658736Y44305747D01*
X86611274Y44258285D01*
X86583112Y44202545D01*
X86593510Y44140967D01*
X86649515Y44092992D01*
X86808465Y44038424D01*
X86816009Y44035114D01*
X87012083Y43929005D01*
X87018996Y43924488D01*
X87194925Y43787558D01*
X87200998Y43781968D01*
X87351994Y43617941D01*
X87357062Y43611429D01*
X87478999Y43424791D01*
X87482925Y43417538D01*
X87572480Y43213372D01*
X87575161Y43205564D01*
X87629890Y42989440D01*
X87631247Y42981310D01*
X87649658Y42759127D01*
X87649658Y42750873D01*
X87631247Y42528689D01*
X87629890Y42520559D01*
X87575161Y42304435D01*
X87572480Y42296627D01*
X87482925Y42092461D01*
X87478999Y42085208D01*
X87357062Y41898570D01*
X87351994Y41892058D01*
X87200998Y41728031D01*
X87194925Y41722441D01*
X87018996Y41585511D01*
X87012083Y41580994D01*
X86816009Y41474885D01*
X86808465Y41471576D01*
X86597584Y41399180D01*
X86589605Y41397159D01*
X86369686Y41360461D01*
X86361480Y41359781D01*
X86138519Y41359781D01*
X86130313Y41360461D01*
X85910394Y41397159D01*
X85902415Y41399180D01*
X85691534Y41471576D01*
X85683990Y41474885D01*
X85487916Y41580994D01*
X85481003Y41585511D01*
X85305074Y41722441D01*
X85299001Y41728031D01*
X85148005Y41892058D01*
X85142937Y41898570D01*
X85021000Y42085208D01*
X85017074Y42092461D01*
X84927519Y42296627D01*
X84924837Y42304437D01*
X84914008Y42347204D01*
X84880542Y42399930D01*
X84822320Y42422519D01*
X84746357Y42393368D01*
X83503102Y41150113D01*
X83474940Y41094373D01*
X83485338Y41032795D01*
X83516455Y40997487D01*
X83569909Y40960059D01*
X83576569Y40954470D01*
X83724470Y40806569D01*
X83730059Y40799908D01*
X83850027Y40628576D01*
X83854375Y40621045D01*
X83942771Y40431480D01*
X83945744Y40423311D01*
X83999879Y40221279D01*
X84001390Y40212704D01*
X84019619Y40004355D01*
X84019619Y39995645D01*
X84001390Y39787295D01*
X83999879Y39778720D01*
X83945744Y39576688D01*
X83942771Y39568519D01*
X83854375Y39378954D01*
X83850026Y39371422D01*
X83730059Y39200091D01*
X83724472Y39193432D01*
X83576569Y39045529D01*
X83569908Y39039940D01*
X83398576Y38919972D01*
X83391045Y38915624D01*
X83201480Y38827228D01*
X83193311Y38824255D01*
X82991277Y38770120D01*
X82982705Y38768609D01*
X82774355Y38750381D01*
X82765645Y38750381D01*
X82557294Y38768609D01*
X82548722Y38770120D01*
X82346688Y38824255D01*
X82338519Y38827228D01*
X82148954Y38915624D01*
X82141422Y38919973D01*
X81970091Y39039940D01*
X81963432Y39045527D01*
X81815527Y39193432D01*
X81809940Y39200091D01*
X81689973Y39371422D01*
X81685624Y39378954D01*
X81597228Y39568519D01*
X81594255Y39576688D01*
X81540120Y39778722D01*
X81538609Y39787294D01*
X81520381Y39995645D01*
X81520381Y40004355D01*
X81538609Y40212705D01*
X81540120Y40221277D01*
X81594255Y40423311D01*
X81597228Y40431480D01*
X81685624Y40621045D01*
X81689972Y40628576D01*
X81799601Y40785142D01*
X81817657Y40844925D01*
X81796724Y40903762D01*
X81717686Y40942500D01*
X75629410Y40942500D01*
X75570083Y40923000D01*
X75533893Y40872105D01*
X75534955Y40809664D01*
X75558699Y40771789D01*
X80249949Y36080539D01*
X80320660Y36051250D01*
X98960221Y36051250D01*
X99018999Y36070348D01*
X99107010Y36134290D01*
X99116039Y36139503D01*
X99268794Y36207515D01*
X99278712Y36210738D01*
X99442278Y36245504D01*
X99452638Y36246593D01*
X99619861Y36246593D01*
X99630221Y36245504D01*
X99793787Y36210738D01*
X99803705Y36207515D01*
X99956461Y36139503D01*
X99965490Y36134291D01*
X100100768Y36036006D01*
X100108519Y36029027D01*
X100220410Y35904759D01*
X100226532Y35896332D01*
X100310142Y35751516D01*
X100314383Y35741991D01*
X100366057Y35582954D01*
X100368223Y35572764D01*
X100385702Y35406464D01*
X100385702Y35396036D01*
X100368223Y35229735D01*
X100366057Y35219545D01*
X100314383Y35060508D01*
X100310142Y35050983D01*
X100226532Y34906167D01*
X100220410Y34897740D01*
X100108519Y34773472D01*
X100100768Y34766493D01*
X99965490Y34668208D01*
X99956461Y34662996D01*
X99803705Y34594984D01*
X99793787Y34591761D01*
X99630221Y34556995D01*
X99619861Y34555906D01*
X99452638Y34555906D01*
X99442278Y34556995D01*
X99394171Y34567220D01*
X99332086Y34560481D01*
X99286105Y34518222D01*
X99273928Y34458955D01*
X99274452Y34453968D01*
X99274452Y34443536D01*
X99256973Y34277235D01*
X99254806Y34267042D01*
X99239002Y34218401D01*
X99239215Y34155952D01*
X99276436Y34105806D01*
X99334108Y34087500D01*
X100115629Y34087500D01*
X100179069Y34110199D01*
X100246888Y34165857D01*
X100255009Y34171284D01*
X100419231Y34259062D01*
X100428269Y34262806D01*
X100606457Y34316859D01*
X100616052Y34318767D01*
X100801356Y34337018D01*
X100811144Y34337018D01*
X100996447Y34318767D01*
X101006042Y34316859D01*
X101184230Y34262806D01*
X101193268Y34259062D01*
X101357486Y34171286D01*
X101365618Y34165852D01*
X101509558Y34047723D01*
X101516473Y34040808D01*
X101634602Y33896868D01*
X101640036Y33888736D01*
X101727812Y33724518D01*
X101731556Y33715480D01*
X101785609Y33537292D01*
X101787517Y33527697D01*
X101805768Y33342394D01*
X101805768Y33332606D01*
X101787517Y33147302D01*
X101785609Y33137707D01*
X101731556Y32959519D01*
X101727812Y32950481D01*
X101640036Y32786263D01*
X101634602Y32778131D01*
X101516473Y32634191D01*
X101509558Y32627276D01*
X101365618Y32509147D01*
X101357486Y32503713D01*
X101193268Y32415937D01*
X101184230Y32412193D01*
X101006038Y32358139D01*
X100996456Y32356233D01*
X100811134Y32337981D01*
X100801366Y32337981D01*
X100616043Y32356233D01*
X100606461Y32358139D01*
X100428269Y32412193D01*
X100419231Y32415937D01*
X100255013Y32503713D01*
X100246881Y32509147D01*
X100179067Y32564801D01*
X100115627Y32587500D01*
X79536564Y32587500D01*
X79530951Y32587815D01*
X79497477Y32591587D01*
X79486281Y32592216D01*
X79455388Y32592216D01*
X79444303Y32593465D01*
X79414185Y32600339D01*
X79403130Y32602217D01*
X79372442Y32605675D01*
X79361556Y32608160D01*
X79332403Y32618361D01*
X79321625Y32621466D01*
X79291514Y32628338D01*
X79280977Y32632025D01*
X79253152Y32645425D01*
X79242792Y32649716D01*
X79213637Y32659918D01*
X79203582Y32664760D01*
X79177426Y32681195D01*
X79167611Y32686620D01*
X79139787Y32700019D01*
X79130333Y32705960D01*
X79106189Y32725214D01*
X79097043Y32731703D01*
X79070887Y32748138D01*
X79062165Y32755093D01*
X79040311Y32776947D01*
X79031949Y32784419D01*
X79005607Y32805426D01*
X79001444Y32809146D01*
X71156129Y40654461D01*
X71085418Y40683750D01*
X62423332Y40683750D01*
X62352621Y40654461D01*
X54983556Y33285396D01*
X54979393Y33281676D01*
X54953046Y33260665D01*
X54944684Y33253193D01*
X54922840Y33231349D01*
X54914110Y33224387D01*
X54887963Y33207958D01*
X54878816Y33201468D01*
X54854665Y33182208D01*
X54845217Y33176272D01*
X54817380Y33162866D01*
X54807566Y33157442D01*
X54781410Y33141007D01*
X54771365Y33136170D01*
X54742208Y33125967D01*
X54731850Y33121676D01*
X54704027Y33108278D01*
X54693481Y33104588D01*
X54663374Y33097716D01*
X54652596Y33094611D01*
X54623443Y33084410D01*
X54612557Y33081925D01*
X54581869Y33078467D01*
X54570814Y33076589D01*
X54540696Y33069715D01*
X54529611Y33068466D01*
X54498719Y33068466D01*
X54487523Y33067837D01*
X54454049Y33064065D01*
X54448436Y33063750D01*
X40642814Y33063750D01*
X40637201Y33064065D01*
X40603727Y33067837D01*
X40592531Y33068466D01*
X40561638Y33068466D01*
X40550553Y33069715D01*
X40520435Y33076589D01*
X40509380Y33078467D01*
X40478692Y33081925D01*
X40467806Y33084410D01*
X40438653Y33094611D01*
X40427875Y33097716D01*
X40397764Y33104588D01*
X40387227Y33108275D01*
X40359402Y33121675D01*
X40349042Y33125966D01*
X40319887Y33136168D01*
X40309832Y33141010D01*
X40283676Y33157445D01*
X40273861Y33162870D01*
X40246037Y33176269D01*
X40236583Y33182210D01*
X40212439Y33201464D01*
X40203293Y33207953D01*
X40177137Y33224388D01*
X40168415Y33231343D01*
X40146561Y33253197D01*
X40138199Y33260669D01*
X40111857Y33281676D01*
X40107694Y33285396D01*
X35984150Y37408940D01*
X35980419Y37413115D01*
X35959414Y37439454D01*
X35951942Y37447816D01*
X35930098Y37469660D01*
X35923140Y37478385D01*
X35906709Y37504536D01*
X35900218Y37513683D01*
X35880957Y37537835D01*
X35875024Y37547278D01*
X35861616Y37575119D01*
X35856192Y37584933D01*
X35839757Y37611089D01*
X35834920Y37621134D01*
X35824717Y37650291D01*
X35820426Y37660649D01*
X35807028Y37688472D01*
X35803338Y37699018D01*
X35796466Y37729125D01*
X35793361Y37739903D01*
X35783160Y37769056D01*
X35780675Y37779942D01*
X35777217Y37810630D01*
X35775339Y37821685D01*
X35768465Y37851803D01*
X35767216Y37862888D01*
X35767216Y37893781D01*
X35766587Y37904977D01*
X35762815Y37938451D01*
X35762500Y37944064D01*
X35762500Y38520000D01*
X35743000Y38579327D01*
X35662500Y38620000D01*
X33861250Y38620000D01*
X33801923Y38600500D01*
X33761250Y38520000D01*
X33761250Y37467622D01*
X33760976Y37462391D01*
X33754138Y37397336D01*
X33753727Y37392117D01*
X33750442Y37329441D01*
X33748812Y37319148D01*
X33746089Y37308984D01*
X33743231Y37293564D01*
X33742130Y37283090D01*
X33739962Y37272895D01*
X33720565Y37213200D01*
X33719077Y37208177D01*
X33702827Y37147527D01*
X33699093Y37137799D01*
X33694316Y37128424D01*
X33688310Y37113924D01*
X33685062Y37103927D01*
X33680819Y37094398D01*
X33649434Y37040039D01*
X33646935Y37035436D01*
X33618433Y36979496D01*
X33612751Y36970747D01*
X33606135Y36962576D01*
X33597249Y36949647D01*
X33591985Y36940529D01*
X33585864Y36932105D01*
X33543858Y36885454D01*
X33540457Y36881472D01*
X33499294Y36830639D01*
X33495793Y36826751D01*
X30007545Y33338503D01*
X29982562Y33296820D01*
X29976554Y33277014D01*
X29972815Y33267987D01*
X29963058Y33249733D01*
X29951250Y33202593D01*
X29951250Y26907455D01*
X29970750Y26848128D01*
X30021645Y26811938D01*
X30093512Y26816824D01*
X30251019Y26890271D01*
X30259188Y26893244D01*
X30461220Y26947379D01*
X30469795Y26948890D01*
X30680310Y26967308D01*
X30684694Y26967500D01*
X32180306Y26967500D01*
X32184690Y26967308D01*
X32395204Y26948890D01*
X32403779Y26947379D01*
X32605811Y26893244D01*
X32613980Y26890271D01*
X32803545Y26801875D01*
X32811076Y26797527D01*
X32982408Y26677559D01*
X32989069Y26671970D01*
X33136970Y26524069D01*
X33142559Y26517408D01*
X33262527Y26346076D01*
X33266875Y26338545D01*
X33355271Y26148980D01*
X33358244Y26140811D01*
X33412379Y25938779D01*
X33413890Y25930204D01*
X33432119Y25721855D01*
X33432119Y25713145D01*
X33413890Y25504795D01*
X33412379Y25496220D01*
X33358244Y25294188D01*
X33355271Y25286019D01*
X33266875Y25096454D01*
X33262526Y25088922D01*
X33142559Y24917591D01*
X33136972Y24910932D01*
X33002910Y24776870D01*
X32974748Y24721130D01*
X32985146Y24659552D01*
X33041567Y24611435D01*
X33142136Y24577403D01*
X33148644Y24574674D01*
X33223538Y24536834D01*
X33228272Y24534106D01*
X33312377Y24479308D01*
X33321885Y24471251D01*
X33408196Y24377137D01*
X33416129Y24365557D01*
X33473928Y24248633D01*
X33476607Y24242084D01*
X33493762Y24189894D01*
X33495627Y24182209D01*
X33519372Y24033923D01*
X33520000Y24026028D01*
X33520000Y22327318D01*
X33519787Y22322697D01*
X33512030Y22238970D01*
X33509614Y22227599D01*
X33507736Y22222050D01*
X33507193Y22159603D01*
X33543804Y22109010D01*
X33602461Y22090000D01*
X34358972Y22090000D01*
X34429683Y22119289D01*
X37713687Y25403293D01*
X37721241Y25409492D01*
X37875291Y25512425D01*
X37883907Y25517031D01*
X37945547Y25542562D01*
X37954895Y25545398D01*
X38136604Y25581542D01*
X38146336Y25582500D01*
X59441472Y25582500D01*
X59512183Y25611789D01*
X62335711Y28435317D01*
X62365000Y28506028D01*
X62365000Y39585182D01*
X62365213Y39589803D01*
X62372970Y39673530D01*
X62375387Y39684904D01*
X62417592Y39809624D01*
X62420326Y39816144D01*
X62458166Y39891038D01*
X62460894Y39895772D01*
X62515692Y39979877D01*
X62523749Y39989385D01*
X62617863Y40075696D01*
X62629443Y40083629D01*
X62746367Y40141428D01*
X62752916Y40144107D01*
X62805106Y40161262D01*
X62812791Y40163127D01*
X62961077Y40186872D01*
X62968972Y40187500D01*
X70065182Y40187500D01*
X70069803Y40187287D01*
X70153530Y40179530D01*
X70164904Y40177113D01*
X70289624Y40134908D01*
X70296144Y40132174D01*
X70371038Y40094334D01*
X70375772Y40091606D01*
X70459877Y40036808D01*
X70469385Y40028751D01*
X70555696Y39934637D01*
X70563629Y39923057D01*
X70621428Y39806133D01*
X70624107Y39799584D01*
X70641262Y39747394D01*
X70643127Y39739709D01*
X70666872Y39591423D01*
X70667500Y39583528D01*
X70667500Y16612318D01*
X70667287Y16607697D01*
X70659530Y16523970D01*
X70657113Y16512596D01*
X70614908Y16387876D01*
X70612174Y16381356D01*
X70574334Y16306462D01*
X70571606Y16301728D01*
X70516808Y16217623D01*
X70508751Y16208115D01*
X70414637Y16121804D01*
X70403057Y16113871D01*
X70286133Y16056072D01*
X70279584Y16053393D01*
X70227394Y16036238D01*
X70219709Y16034373D01*
X70071423Y16010628D01*
X70063528Y16010000D01*
X32113836Y16010000D01*
X32104104Y16010958D01*
X31922395Y16047102D01*
X31913047Y16049938D01*
X31851407Y16075469D01*
X31842791Y16080075D01*
X31688741Y16183008D01*
X31681187Y16189207D01*
X29524207Y18346187D01*
X29518008Y18353741D01*
X29415075Y18507791D01*
X29410469Y18516407D01*
X29384938Y18578047D01*
X29382102Y18587395D01*
X29345958Y18769104D01*
X29345000Y18778836D01*
X29345000Y21487682D01*
X29345213Y21492303D01*
X29352970Y21576030D01*
X29355386Y21587401D01*
X29357264Y21592950D01*
X29357807Y21655397D01*
X29321196Y21705990D01*
X29262539Y21725000D01*
X13119818Y21725000D01*
X13115197Y21725213D01*
X13031470Y21732970D01*
X13020096Y21735387D01*
X12895376Y21777592D01*
X12888856Y21780326D01*
X12813962Y21818166D01*
X12809228Y21820894D01*
X12725123Y21875692D01*
X12715615Y21883749D01*
X12629304Y21977863D01*
X12621371Y21989443D01*
X12563572Y22106367D01*
X12560893Y22112916D01*
X12543738Y22165106D01*
X12541873Y22172791D01*
X12518128Y22321077D01*
X12517500Y22328972D01*
X12517500Y30116164D01*
X12518458Y30125896D01*
X12554602Y30307605D01*
X12557438Y30316953D01*
X12582969Y30378593D01*
X12587575Y30387209D01*
X12690508Y30541259D01*
X12696707Y30548813D01*
X12948687Y30800793D01*
X12956241Y30806992D01*
X13110291Y30909925D01*
X13118907Y30914531D01*
X13180547Y30940062D01*
X13189895Y30942898D01*
X13371604Y30979042D01*
X13381336Y30980000D01*
X15987414Y30980000D01*
X15997146Y30979042D01*
X16178855Y30942898D01*
X16188203Y30940062D01*
X16249843Y30914531D01*
X16258459Y30909925D01*
X16412509Y30806992D01*
X16420063Y30800793D01*
X18592817Y28628039D01*
X18663528Y28598750D01*
X22019914Y28598750D01*
X22029646Y28597792D01*
X22211355Y28561648D01*
X22220703Y28558812D01*
X22282343Y28533281D01*
X22290959Y28528675D01*
X22445009Y28425742D01*
X22452563Y28419543D01*
X22879067Y27993039D01*
X22949778Y27963750D01*
X24083664Y27963750D01*
X24093396Y27962792D01*
X24275105Y27926648D01*
X24284453Y27923812D01*
X24346093Y27898281D01*
X24354709Y27893675D01*
X24508759Y27790742D01*
X24516313Y27784543D01*
X27641567Y24659289D01*
X27712278Y24630000D01*
X28051250Y24630000D01*
X28110577Y24649500D01*
X28151250Y24730000D01*
X28151250Y33202591D01*
X28139442Y33249731D01*
X28129687Y33267981D01*
X28125943Y33277019D01*
X28071889Y33455211D01*
X28069983Y33464793D01*
X28051731Y33650116D01*
X28051731Y33659884D01*
X28069983Y33845206D01*
X28071889Y33854788D01*
X28125943Y34032980D01*
X28129687Y34042018D01*
X28217463Y34206236D01*
X28222897Y34214368D01*
X28341026Y34358308D01*
X28347941Y34365223D01*
X28491881Y34483352D01*
X28500013Y34488786D01*
X28664237Y34576565D01*
X28673264Y34580304D01*
X28693070Y34586312D01*
X28734753Y34611295D01*
X31931961Y37808503D01*
X31961250Y37879214D01*
X31961250Y38049834D01*
X31941750Y38109161D01*
X31890855Y38145351D01*
X31820576Y38141189D01*
X31699947Y38087481D01*
X31690037Y38084261D01*
X31526471Y38049495D01*
X31516111Y38048406D01*
X31348888Y38048406D01*
X31338528Y38049495D01*
X31174962Y38084261D01*
X31165044Y38087484D01*
X31012289Y38155496D01*
X31003260Y38160708D01*
X30915248Y38224652D01*
X30856470Y38243750D01*
X30632202Y38243750D01*
X30572875Y38224250D01*
X30536685Y38173355D01*
X30532750Y38133296D01*
X30535702Y38105212D01*
X30535702Y38094786D01*
X30518223Y37928485D01*
X30516057Y37918295D01*
X30464383Y37759258D01*
X30460142Y37749733D01*
X30376532Y37604917D01*
X30370410Y37596490D01*
X30258519Y37472222D01*
X30250768Y37465243D01*
X30115490Y37366958D01*
X30106469Y37361750D01*
X29991105Y37310387D01*
X29958064Y37286604D01*
X26970035Y34026937D01*
X26943750Y33959365D01*
X26943750Y30263444D01*
X26957147Y30213445D01*
X26967640Y30195270D01*
X26971883Y30185741D01*
X27023557Y30026704D01*
X27025723Y30016514D01*
X27043202Y29850214D01*
X27043202Y29839786D01*
X27025723Y29673485D01*
X27023557Y29663295D01*
X26971883Y29504258D01*
X26967642Y29494733D01*
X26884032Y29349917D01*
X26877910Y29341490D01*
X26766019Y29217222D01*
X26758268Y29210243D01*
X26622990Y29111958D01*
X26613961Y29106746D01*
X26461205Y29038734D01*
X26451287Y29035511D01*
X26287721Y29000745D01*
X26277361Y28999656D01*
X26110138Y28999656D01*
X26099778Y29000745D01*
X25936212Y29035511D01*
X25926294Y29038734D01*
X25773539Y29106746D01*
X25764510Y29111958D01*
X25629231Y29210243D01*
X25621480Y29217222D01*
X25509589Y29341490D01*
X25503467Y29349917D01*
X25419857Y29494733D01*
X25415616Y29504258D01*
X25363942Y29663295D01*
X25361776Y29673485D01*
X25344298Y29839786D01*
X25344298Y29850214D01*
X25361776Y30016514D01*
X25363942Y30026704D01*
X25415616Y30185741D01*
X25419859Y30195271D01*
X25430353Y30213447D01*
X25443750Y30263446D01*
X25443750Y34287186D01*
X25444065Y34292787D01*
X25445772Y34307943D01*
X25446306Y34323478D01*
X25445766Y34335908D01*
X25446534Y34347053D01*
X25455403Y34395533D01*
X25456407Y34402333D01*
X25461925Y34451310D01*
X25464409Y34462192D01*
X25468517Y34473934D01*
X25472495Y34488960D01*
X25474736Y34501206D01*
X25477961Y34511890D01*
X25497396Y34557181D01*
X25499888Y34563587D01*
X25516168Y34610113D01*
X25521009Y34620166D01*
X25527630Y34630703D01*
X25534853Y34644470D01*
X25539759Y34655903D01*
X25545281Y34665601D01*
X25574316Y34705445D01*
X25578170Y34711136D01*
X25604385Y34752857D01*
X25611348Y34761589D01*
X25620143Y34770384D01*
X25630250Y34782201D01*
X25639235Y34794531D01*
X25642783Y34798866D01*
X28646986Y38076178D01*
X28672701Y38133088D01*
X28659638Y38194156D01*
X28612892Y38235566D01*
X28573271Y38243750D01*
X23471372Y38243750D01*
X23412045Y38224250D01*
X23375855Y38173355D01*
X23376917Y38110914D01*
X23400661Y38073039D01*
X24689536Y36784164D01*
X24745276Y36756002D01*
X24810246Y36768272D01*
X24821039Y36774503D01*
X24973794Y36842515D01*
X24983712Y36845738D01*
X25147278Y36880504D01*
X25157638Y36881593D01*
X25324861Y36881593D01*
X25335221Y36880504D01*
X25498787Y36845738D01*
X25508705Y36842515D01*
X25661461Y36774503D01*
X25670490Y36769291D01*
X25805768Y36671006D01*
X25813519Y36664027D01*
X25925410Y36539759D01*
X25931532Y36531332D01*
X26015142Y36386516D01*
X26019383Y36376991D01*
X26071057Y36217954D01*
X26073223Y36207764D01*
X26090702Y36041464D01*
X26090702Y36031036D01*
X26073223Y35864735D01*
X26071057Y35854545D01*
X26019383Y35695508D01*
X26015142Y35685983D01*
X25931532Y35541167D01*
X25925410Y35532740D01*
X25813519Y35408472D01*
X25805768Y35401493D01*
X25670490Y35303208D01*
X25661461Y35297996D01*
X25508705Y35229984D01*
X25498787Y35226761D01*
X25335221Y35191995D01*
X25324861Y35190906D01*
X25157638Y35190906D01*
X25147278Y35191995D01*
X24983712Y35226761D01*
X24973794Y35229984D01*
X24821039Y35297996D01*
X24812010Y35303209D01*
X24792818Y35317152D01*
X24734040Y35336250D01*
X24450314Y35336250D01*
X24444701Y35336565D01*
X24414013Y35340023D01*
X24402817Y35340652D01*
X24374736Y35340652D01*
X24363653Y35341901D01*
X24336277Y35348149D01*
X24325221Y35350027D01*
X24297314Y35353171D01*
X24286435Y35355654D01*
X24259924Y35364930D01*
X24249152Y35368033D01*
X24221787Y35374279D01*
X24211242Y35377970D01*
X24185955Y35390148D01*
X24175591Y35394441D01*
X24149082Y35403716D01*
X24139026Y35408559D01*
X24115249Y35423499D01*
X24105433Y35428924D01*
X24080133Y35441108D01*
X24070687Y35447043D01*
X24048732Y35464552D01*
X24039585Y35471043D01*
X24015810Y35485981D01*
X24007085Y35492939D01*
X23987224Y35512800D01*
X23978862Y35520272D01*
X23954712Y35539531D01*
X23950549Y35543251D01*
X20498789Y38995011D01*
X20448869Y39022115D01*
X20379962Y39036761D01*
X20370044Y39039984D01*
X20217289Y39107996D01*
X20208260Y39113208D01*
X20072981Y39211493D01*
X20065230Y39218472D01*
X19953339Y39342740D01*
X19947217Y39351167D01*
X19863607Y39495983D01*
X19859366Y39505508D01*
X19807692Y39664545D01*
X19805526Y39674735D01*
X19788048Y39841036D01*
X19788048Y39851462D01*
X19791000Y39879546D01*
X19777809Y39940587D01*
X19730976Y39981899D01*
X19691548Y39990000D01*
X19201910Y39990000D01*
X19131199Y39960711D01*
X18964407Y39793919D01*
X18935666Y39733661D01*
X18929473Y39674735D01*
X18927307Y39664545D01*
X18875633Y39505508D01*
X18871392Y39495983D01*
X18787782Y39351167D01*
X18781660Y39342740D01*
X18669769Y39218472D01*
X18662018Y39211493D01*
X18526740Y39113208D01*
X18517711Y39107996D01*
X18364955Y39039984D01*
X18355037Y39036761D01*
X18191471Y39001995D01*
X18181111Y39000906D01*
X18013888Y39000906D01*
X18003528Y39001995D01*
X17839962Y39036761D01*
X17830044Y39039984D01*
X17677289Y39107996D01*
X17668260Y39113208D01*
X17532981Y39211493D01*
X17525225Y39218476D01*
X17457440Y39293761D01*
X17403251Y39324803D01*
X17341213Y39317642D01*
X17308810Y39293762D01*
X17241019Y39218472D01*
X17233268Y39211493D01*
X17097990Y39113208D01*
X17088961Y39107996D01*
X16936205Y39039984D01*
X16926287Y39036761D01*
X16857381Y39022115D01*
X16807461Y38995011D01*
X10730539Y32918089D01*
X10701250Y32847378D01*
X10701250Y29397544D01*
X10714648Y29347544D01*
X10775140Y29242770D01*
X10779383Y29233240D01*
X10831057Y29074204D01*
X10833223Y29064014D01*
X10850702Y28897714D01*
X10850702Y28887286D01*
X10833223Y28720985D01*
X10831057Y28710795D01*
X10779383Y28551758D01*
X10775142Y28542233D01*
X10691532Y28397417D01*
X10685410Y28388990D01*
X10573519Y28264722D01*
X10565768Y28257743D01*
X10430490Y28159458D01*
X10421461Y28154246D01*
X10268705Y28086234D01*
X10258787Y28083011D01*
X10095221Y28048245D01*
X10084861Y28047156D01*
X9917638Y28047156D01*
X9907278Y28048245D01*
X9743712Y28083011D01*
X9733794Y28086234D01*
X9581039Y28154246D01*
X9572010Y28159458D01*
X9436731Y28257743D01*
X9428980Y28264722D01*
X9317089Y28388990D01*
X9310967Y28397417D01*
X9227357Y28542233D01*
X9223116Y28551758D01*
X9171442Y28710795D01*
X9169276Y28720985D01*
X9151798Y28887286D01*
X9151798Y28897714D01*
X9169276Y29064014D01*
X9171442Y29074204D01*
X9223116Y29233241D01*
X9227357Y29242766D01*
X9287853Y29347548D01*
X9301250Y29397548D01*
X9301250Y33175936D01*
X9301565Y33181549D01*
X9305023Y33212237D01*
X9305652Y33223433D01*
X9305652Y33251513D01*
X9306901Y33262596D01*
X9313149Y33289972D01*
X9315027Y33301028D01*
X9318171Y33328935D01*
X9320654Y33339814D01*
X9329930Y33366325D01*
X9333033Y33377097D01*
X9339279Y33404462D01*
X9342970Y33415007D01*
X9355148Y33440294D01*
X9359441Y33450658D01*
X9368716Y33477167D01*
X9373559Y33487223D01*
X9388499Y33511000D01*
X9393924Y33520816D01*
X9406106Y33546112D01*
X9412044Y33555562D01*
X9429552Y33577517D01*
X9436042Y33586664D01*
X9450978Y33610435D01*
X9457940Y33619165D01*
X9477797Y33639022D01*
X9485269Y33647384D01*
X9504531Y33671538D01*
X9508251Y33675701D01*
X15812177Y39979627D01*
X15835954Y40023419D01*
X15837324Y40022974D01*
X15890616Y40186991D01*
X15894857Y40196516D01*
X15978467Y40341332D01*
X15984589Y40349759D01*
X16037108Y40408087D01*
X16062314Y40465224D01*
X16048707Y40526174D01*
X16001594Y40567166D01*
X15962793Y40575000D01*
X14925314Y40575000D01*
X14919701Y40575315D01*
X14889004Y40578774D01*
X14877808Y40579403D01*
X14849737Y40579403D01*
X14838650Y40580652D01*
X14811284Y40586898D01*
X14800230Y40588776D01*
X14772320Y40591921D01*
X14761425Y40594407D01*
X14734911Y40603684D01*
X14724141Y40606787D01*
X14696786Y40613031D01*
X14686239Y40616722D01*
X14660961Y40628895D01*
X14650603Y40633186D01*
X14624077Y40642468D01*
X14614028Y40647307D01*
X14590238Y40662255D01*
X14580426Y40667678D01*
X14555138Y40679857D01*
X14545689Y40685794D01*
X14523750Y40703290D01*
X14514604Y40709780D01*
X14490814Y40724728D01*
X14482084Y40731690D01*
X14462219Y40751555D01*
X14453857Y40759027D01*
X14429713Y40778281D01*
X14425550Y40782001D01*
X12280590Y42926961D01*
X12209879Y42956250D01*
X11833381Y42956250D01*
X11774054Y42936750D01*
X11749665Y42910945D01*
X11677061Y42799817D01*
X11672000Y42793314D01*
X11520998Y42629281D01*
X11514925Y42623691D01*
X11338993Y42486758D01*
X11332089Y42482247D01*
X11317212Y42474196D01*
X11274317Y42428809D01*
X11266713Y42366824D01*
X11317214Y42298301D01*
X11332088Y42290252D01*
X11338996Y42285738D01*
X11514925Y42148808D01*
X11520998Y42143218D01*
X11671994Y41979191D01*
X11677062Y41972679D01*
X11798999Y41786041D01*
X11802925Y41778788D01*
X11892480Y41574622D01*
X11895161Y41566814D01*
X11949890Y41350690D01*
X11951247Y41342560D01*
X11969658Y41120377D01*
X11969658Y41112123D01*
X11951247Y40889939D01*
X11949890Y40881809D01*
X11895161Y40665685D01*
X11892480Y40657877D01*
X11802925Y40453711D01*
X11798999Y40446458D01*
X11677062Y40259820D01*
X11671994Y40253308D01*
X11520998Y40089281D01*
X11514925Y40083691D01*
X11338996Y39946761D01*
X11332088Y39942247D01*
X11317214Y39934198D01*
X11274318Y39888812D01*
X11266712Y39826827D01*
X11317212Y39758303D01*
X11332089Y39750252D01*
X11338993Y39745741D01*
X11514925Y39608808D01*
X11520998Y39603218D01*
X11671994Y39439191D01*
X11677062Y39432679D01*
X11798999Y39246041D01*
X11802925Y39238788D01*
X11892480Y39034622D01*
X11895161Y39026814D01*
X11949890Y38810690D01*
X11951247Y38802560D01*
X11969658Y38580377D01*
X11969658Y38572123D01*
X11951247Y38349939D01*
X11949890Y38341809D01*
X11895161Y38125685D01*
X11892480Y38117877D01*
X11802925Y37913711D01*
X11798999Y37906458D01*
X11677062Y37719820D01*
X11671994Y37713308D01*
X11520998Y37549281D01*
X11514925Y37543691D01*
X11338996Y37406761D01*
X11332083Y37402244D01*
X11136009Y37296135D01*
X11128465Y37292826D01*
X10917584Y37220430D01*
X10909605Y37218409D01*
X10689686Y37181711D01*
X10681480Y37181031D01*
X10458519Y37181031D01*
X10450313Y37181711D01*
X10230394Y37218409D01*
X10222415Y37220430D01*
X10011534Y37292826D01*
X10003990Y37296135D01*
X9807916Y37402244D01*
X9801003Y37406761D01*
X9625074Y37543691D01*
X9619001Y37549281D01*
X9468005Y37713308D01*
X9462937Y37719820D01*
X9341000Y37906458D01*
X9337074Y37913711D01*
X9247519Y38117877D01*
X9244838Y38125685D01*
X9190109Y38341809D01*
X9188752Y38349939D01*
X9170342Y38572123D01*
X9170342Y38580377D01*
X9188752Y38802560D01*
X9190109Y38810690D01*
X9244838Y39026814D01*
X9247519Y39034622D01*
X9337074Y39238788D01*
X9341000Y39246041D01*
X9462937Y39432679D01*
X9468005Y39439191D01*
X9619001Y39603218D01*
X9625074Y39608808D01*
X9801006Y39745741D01*
X9807910Y39750252D01*
X9822787Y39758303D01*
X9865682Y39803690D01*
X9873286Y39865675D01*
X9822785Y39934198D01*
X9807911Y39942247D01*
X9801003Y39946761D01*
X9625074Y40083691D01*
X9619001Y40089281D01*
X9468005Y40253308D01*
X9462937Y40259820D01*
X9341000Y40446458D01*
X9337074Y40453711D01*
X9247519Y40657877D01*
X9244838Y40665685D01*
X9190109Y40881809D01*
X9188752Y40889939D01*
X9170342Y41112123D01*
X9170342Y41120377D01*
X9188752Y41342560D01*
X9190109Y41350690D01*
X9244838Y41566814D01*
X9247519Y41574622D01*
X9337074Y41778788D01*
X9341000Y41786041D01*
X9462937Y41972679D01*
X9468005Y41979191D01*
X9619001Y42143218D01*
X9625074Y42148808D01*
X9801003Y42285738D01*
X9807911Y42290252D01*
X9822785Y42298301D01*
X9865681Y42343687D01*
X9873287Y42405672D01*
X9822787Y42474196D01*
X9807910Y42482247D01*
X9801006Y42486758D01*
X9625074Y42623691D01*
X9619001Y42629281D01*
X9468005Y42793308D01*
X9462937Y42799820D01*
X9341000Y42986458D01*
X9337074Y42993711D01*
X9247519Y43197877D01*
X9244838Y43205685D01*
X9190109Y43421809D01*
X9188752Y43429939D01*
X9170342Y43652123D01*
X9170342Y43660377D01*
X9188752Y43882560D01*
X9190109Y43890690D01*
X9244838Y44106814D01*
X9247519Y44114622D01*
X9337074Y44318788D01*
X9341000Y44326041D01*
X9462937Y44512679D01*
X9468005Y44519191D01*
X9619001Y44683218D01*
X9625074Y44688808D01*
X9801003Y44825738D01*
X9807911Y44830252D01*
X9822785Y44838301D01*
X9865681Y44883687D01*
X9873287Y44945672D01*
X9822787Y45014196D01*
X9807910Y45022247D01*
X9801006Y45026758D01*
X9625074Y45163691D01*
X9619001Y45169281D01*
X9468005Y45333308D01*
X9462937Y45339820D01*
X9341000Y45526458D01*
X9337074Y45533711D01*
X9247519Y45737877D01*
X9244838Y45745685D01*
X9190109Y45961809D01*
X9188752Y45969939D01*
X9170342Y46192123D01*
X9170342Y46200377D01*
X9188752Y46422560D01*
X9190109Y46430690D01*
X9244838Y46646814D01*
X9247519Y46654622D01*
X9337074Y46858788D01*
X9341000Y46866041D01*
X9462937Y47052679D01*
X9468005Y47059191D01*
X9619001Y47223218D01*
X9625074Y47228808D01*
X9801003Y47365738D01*
X9807911Y47370252D01*
X9822785Y47378301D01*
X9865681Y47423687D01*
X9873287Y47485672D01*
X9822787Y47554196D01*
X9807910Y47562247D01*
X9801006Y47566758D01*
X9625074Y47703691D01*
X9619001Y47709281D01*
X9468005Y47873308D01*
X9462937Y47879820D01*
X9341000Y48066458D01*
X9337074Y48073711D01*
X9247519Y48277877D01*
X9244838Y48285685D01*
X9190109Y48501809D01*
X9188752Y48509939D01*
X9170342Y48732123D01*
X9170342Y48740377D01*
X9188752Y48962560D01*
X9190109Y48970690D01*
X9244838Y49186814D01*
X9247519Y49194622D01*
X9337074Y49398788D01*
X9341000Y49406041D01*
X9462937Y49592679D01*
X9468005Y49599191D01*
X9619001Y49763218D01*
X9625074Y49768808D01*
X9801003Y49905738D01*
X9807911Y49910252D01*
X9822785Y49918301D01*
X9865681Y49963687D01*
X9873287Y50025672D01*
X9822787Y50094196D01*
X9807910Y50102247D01*
X9801006Y50106758D01*
X9625074Y50243691D01*
X9619001Y50249281D01*
X9468005Y50413308D01*
X9462937Y50419820D01*
X9341000Y50606458D01*
X9337074Y50613711D01*
X9247519Y50817877D01*
X9244838Y50825685D01*
X9190109Y51041809D01*
X9188752Y51049939D01*
X9170342Y51272123D01*
X9170342Y51280377D01*
X9188752Y51502560D01*
X9190109Y51510690D01*
X9244838Y51726814D01*
X9247519Y51734622D01*
X9337074Y51938788D01*
X9341000Y51946041D01*
X9462937Y52132679D01*
X9468005Y52139191D01*
X9619001Y52303218D01*
X9625074Y52308808D01*
X9801003Y52445738D01*
X9807911Y52450252D01*
X9822785Y52458301D01*
X9865681Y52503687D01*
X9873287Y52565672D01*
X9822787Y52634196D01*
X9807910Y52642247D01*
X9801006Y52646758D01*
X9625074Y52783691D01*
X9619001Y52789281D01*
X9468005Y52953308D01*
X9462937Y52959820D01*
X9341000Y53146458D01*
X9337074Y53153711D01*
X9247519Y53357877D01*
X9244838Y53365685D01*
X9190109Y53581809D01*
X9188752Y53589939D01*
X9170342Y53812123D01*
X9170342Y53820377D01*
X9188752Y54042560D01*
X9190109Y54050690D01*
X9244838Y54266814D01*
X9247519Y54274622D01*
X9337074Y54478788D01*
X9341000Y54486041D01*
X9462937Y54672679D01*
X9468005Y54679191D01*
X9619001Y54843218D01*
X9625074Y54848808D01*
X9801006Y54985741D01*
X9807910Y54990252D01*
X9822787Y54998303D01*
X9865682Y55043690D01*
X9873286Y55105675D01*
X9822785Y55174198D01*
X9807911Y55182247D01*
X9801003Y55186761D01*
X9625074Y55323691D01*
X9619001Y55329281D01*
X9468005Y55493308D01*
X9462937Y55499820D01*
X9341000Y55686458D01*
X9337074Y55693711D01*
X9247519Y55897877D01*
X9244838Y55905685D01*
X9190109Y56121809D01*
X9188752Y56129939D01*
X9170342Y56352123D01*
X9170342Y56360377D01*
X9188752Y56582560D01*
X9190109Y56590690D01*
X9244838Y56806814D01*
X9247519Y56814622D01*
X9337074Y57018788D01*
X9341000Y57026041D01*
X9462937Y57212679D01*
X9468005Y57219191D01*
X9619001Y57383218D01*
X9625074Y57388808D01*
X9801003Y57525738D01*
X9807911Y57530252D01*
X9822785Y57538301D01*
X9865681Y57583687D01*
X9873287Y57645672D01*
X9822787Y57714196D01*
X9807910Y57722247D01*
X9801006Y57726758D01*
X9625074Y57863691D01*
X9619001Y57869281D01*
X9468005Y58033308D01*
X9462937Y58039820D01*
X9341000Y58226458D01*
X9337074Y58233711D01*
X9247519Y58437877D01*
X9244838Y58445685D01*
X9190109Y58661809D01*
X9188752Y58669939D01*
X9170342Y58892123D01*
X9170342Y58900377D01*
X9188752Y59122560D01*
X9190109Y59130690D01*
X9244838Y59346814D01*
X9247519Y59354622D01*
X9337074Y59558788D01*
X9341000Y59566041D01*
X9462937Y59752679D01*
X9468005Y59759191D01*
X9568651Y59868522D01*
X9594485Y59925378D01*
X9581551Y59986474D01*
X9534892Y60027982D01*
X9495078Y60036250D01*
X9186013Y60036250D01*
X9181248Y60037816D01*
X9170000Y60060078D01*
X9170000Y60358314D01*
X9150500Y60417641D01*
X9099605Y60453831D01*
X9037164Y60452769D01*
X8996428Y60426043D01*
X8980998Y60409282D01*
X8974925Y60403691D01*
X8798996Y60266761D01*
X8792083Y60262244D01*
X8596009Y60156135D01*
X8588465Y60152826D01*
X8377584Y60080430D01*
X8369605Y60078409D01*
X8149686Y60041711D01*
X8141480Y60041031D01*
X7918519Y60041031D01*
X7910313Y60041711D01*
X7690394Y60078409D01*
X7682415Y60080430D01*
X7471534Y60152826D01*
X7463990Y60156135D01*
X7267916Y60262244D01*
X7261003Y60266761D01*
X7085074Y60403691D01*
X7079001Y60409281D01*
X6928005Y60573308D01*
X6922937Y60579820D01*
X6801000Y60766458D01*
X6797074Y60773711D01*
X6707519Y60977877D01*
X6704838Y60985685D01*
X6650109Y61201809D01*
X6648752Y61209939D01*
X6630342Y61432123D01*
X6630342Y61440377D01*
X6648752Y61662560D01*
X6650109Y61670690D01*
X6704838Y61886814D01*
X6707519Y61894622D01*
X6797074Y62098788D01*
X6801000Y62106041D01*
X6922937Y62292679D01*
X6928005Y62299191D01*
X7079001Y62463218D01*
X7085074Y62468808D01*
X7261003Y62605738D01*
X7267916Y62610255D01*
X7463990Y62716364D01*
X7471534Y62719673D01*
X7682415Y62792069D01*
X7690394Y62794090D01*
X7910313Y62830788D01*
X7918519Y62831468D01*
X8141480Y62831468D01*
X8149686Y62830788D01*
X8369605Y62794090D01*
X8377584Y62792069D01*
X8588465Y62719673D01*
X8596009Y62716364D01*
X8792083Y62610255D01*
X8798996Y62605738D01*
X8974925Y62468808D01*
X8980998Y62463217D01*
X8996428Y62446456D01*
X9050956Y62416015D01*
X9112912Y62423860D01*
X9158131Y62466932D01*
X9170000Y62514185D01*
X9170000Y62820237D01*
X9171566Y62825002D01*
X9193828Y62836250D01*
X9580661Y62836250D01*
X9639988Y62855750D01*
X9680658Y62935538D01*
X9693754Y64773790D01*
X9694065Y64779013D01*
X9698055Y64814538D01*
X9698680Y64825699D01*
X9698680Y64858837D01*
X9699768Y64869195D01*
X9708137Y64908564D01*
X9709697Y64918196D01*
X9714187Y64958177D01*
X9716427Y64968362D01*
X9726892Y64999805D01*
X9729824Y65010592D01*
X9736710Y65042989D01*
X9739934Y65052911D01*
X9756296Y65089663D01*
X9759824Y65098755D01*
X9772534Y65136942D01*
X9776841Y65146433D01*
X9793611Y65175008D01*
X9798721Y65184949D01*
X9812195Y65215211D01*
X9817408Y65224240D01*
X9841056Y65256790D01*
X9846398Y65264951D01*
X9866770Y65299663D01*
X9872954Y65308047D01*
X9895296Y65332507D01*
X9902363Y65341171D01*
X9921835Y65367973D01*
X9928815Y65375725D01*
X9958724Y65402655D01*
X9965647Y65409529D01*
X9992777Y65439232D01*
X10000575Y65446154D01*
X10027512Y65465432D01*
X10036228Y65472439D01*
X10060852Y65494612D01*
X10069283Y65500737D01*
X10104133Y65520858D01*
X10112333Y65526141D01*
X10145051Y65549557D01*
X10154114Y65554704D01*
X10184480Y65567966D01*
X10194456Y65573005D01*
X10223148Y65589570D01*
X10232669Y65593809D01*
X10270938Y65606244D01*
X10280055Y65609706D01*
X10316940Y65625814D01*
X10326872Y65628963D01*
X10359329Y65635621D01*
X10370134Y65638475D01*
X10401642Y65648712D01*
X10411841Y65650880D01*
X10451857Y65655086D01*
X10461496Y65656577D01*
X10500916Y65664663D01*
X10511299Y65665679D01*
X10544413Y65665443D01*
X10555578Y65665988D01*
X10591141Y65669726D01*
X10596372Y65670000D01*
X11744878Y65670000D01*
X11750109Y65669726D01*
X11929410Y65650880D01*
X11939600Y65648714D01*
X12108577Y65593810D01*
X12118102Y65589569D01*
X12271971Y65500733D01*
X12280398Y65494611D01*
X12412434Y65375725D01*
X12419413Y65367974D01*
X12523844Y65224236D01*
X12529051Y65215219D01*
X12601321Y65052897D01*
X12604539Y65042993D01*
X12641480Y64869197D01*
X12642569Y64858837D01*
X12642569Y64681162D01*
X12641480Y64670802D01*
X12604540Y64497011D01*
X12601317Y64487093D01*
X12529054Y64324789D01*
X12523842Y64315760D01*
X12419413Y64172025D01*
X12412434Y64164274D01*
X12280398Y64045388D01*
X12271971Y64039266D01*
X12118102Y63950430D01*
X12108577Y63946189D01*
X11939600Y63891285D01*
X11929410Y63889119D01*
X11750109Y63870274D01*
X11744878Y63870000D01*
X11586651Y63870000D01*
X11527324Y63850500D01*
X11486654Y63770712D01*
X11480714Y62936962D01*
X11499790Y62877498D01*
X11580711Y62836250D01*
X11953987Y62836250D01*
X11958752Y62834684D01*
X11970000Y62812422D01*
X11970000Y61430206D01*
X12003034Y61355939D01*
X13176056Y60298233D01*
X13243022Y60272500D01*
X16375093Y60272500D01*
X16422233Y60284308D01*
X16440481Y60294062D01*
X16449519Y60297806D01*
X16627707Y60351859D01*
X16637302Y60353767D01*
X16822606Y60372018D01*
X16832394Y60372018D01*
X17017697Y60353767D01*
X17027292Y60351859D01*
X17205480Y60297806D01*
X17214518Y60294062D01*
X17232766Y60284308D01*
X17279906Y60272500D01*
X17872110Y60272500D01*
X17931437Y60292000D01*
X17967627Y60342895D01*
X17966565Y60405336D01*
X17940565Y60445397D01*
X17864870Y60516480D01*
X17860573Y60521055D01*
X17664453Y60758123D01*
X17660780Y60763179D01*
X17495915Y61022964D01*
X17492896Y61028456D01*
X17361893Y61306851D01*
X17359589Y61312672D01*
X17264512Y61605290D01*
X17262954Y61611358D01*
X17205300Y61913589D01*
X17204516Y61919792D01*
X17185197Y62226869D01*
X17185197Y62233131D01*
X17204516Y62540207D01*
X17205300Y62546410D01*
X17262954Y62848641D01*
X17264512Y62854709D01*
X17359589Y63147327D01*
X17361893Y63153148D01*
X17492896Y63431543D01*
X17495915Y63437035D01*
X17660780Y63696820D01*
X17664453Y63701876D01*
X17860573Y63938944D01*
X17864870Y63943519D01*
X18089154Y64154136D01*
X18093979Y64158128D01*
X18342893Y64338973D01*
X18348180Y64342329D01*
X18617801Y64490555D01*
X18623469Y64493222D01*
X18909533Y64606483D01*
X18915510Y64608425D01*
X19213499Y64684936D01*
X19219669Y64686113D01*
X19524906Y64724672D01*
X19531161Y64725066D01*
X19838838Y64725066D01*
X19845093Y64724672D01*
X20150330Y64686113D01*
X20156500Y64684936D01*
X20454489Y64608425D01*
X20460466Y64606483D01*
X20746530Y64493222D01*
X20752198Y64490555D01*
X21021819Y64342329D01*
X21027106Y64338973D01*
X21276020Y64158128D01*
X21280845Y64154136D01*
X21505129Y63943519D01*
X21509426Y63938944D01*
X21705546Y63701876D01*
X21709219Y63696820D01*
X21874084Y63437035D01*
X21877103Y63431543D01*
X22008106Y63153148D01*
X22010410Y63147327D01*
X22105487Y62854709D01*
X22107045Y62848641D01*
X22164699Y62546410D01*
X22165483Y62540207D01*
X22184803Y62233131D01*
X22184803Y62226869D01*
X22165483Y61919792D01*
X22164699Y61913589D01*
X22107045Y61611358D01*
X22105487Y61605290D01*
X22010410Y61312672D01*
X22008106Y61306851D01*
X21877103Y61028456D01*
X21874084Y61022964D01*
X21709219Y60763179D01*
X21705546Y60758123D01*
X21509426Y60521055D01*
X21505129Y60516480D01*
X21429434Y60445397D01*
X21399535Y60390569D01*
X21407994Y60328695D01*
X21451512Y60283904D01*
X21497889Y60272500D01*
X27843286Y60272500D01*
X27913997Y60301789D01*
X32665711Y65053503D01*
X32695000Y65124214D01*
X32695000Y66682487D01*
X32696566Y66687252D01*
X32718828Y66698500D01*
X35868987Y66698500D01*
X35873752Y66696934D01*
X35885000Y66674672D01*
X35885000Y64127513D01*
X35883434Y64122748D01*
X35861172Y64111500D01*
X34310714Y64111500D01*
X34240003Y64082211D01*
X28922253Y58764461D01*
X28894091Y58708721D01*
X28904489Y58647143D01*
X28949393Y58603742D01*
X28992964Y58593750D01*
X31173971Y58593750D01*
X31232749Y58612848D01*
X31320760Y58676790D01*
X31329789Y58682003D01*
X31482544Y58750015D01*
X31492462Y58753238D01*
X31656028Y58788004D01*
X31666388Y58789093D01*
X31833611Y58789093D01*
X31843971Y58788004D01*
X32007537Y58753238D01*
X32017455Y58750015D01*
X32170211Y58682003D01*
X32179240Y58676791D01*
X32314518Y58578506D01*
X32322269Y58571527D01*
X32434160Y58447259D01*
X32440282Y58438832D01*
X32523892Y58294016D01*
X32528133Y58284491D01*
X32579807Y58125454D01*
X32581973Y58115264D01*
X32599452Y57948964D01*
X32599452Y57938536D01*
X32581973Y57772235D01*
X32579807Y57762045D01*
X32528133Y57603008D01*
X32523892Y57593483D01*
X32440282Y57448667D01*
X32434160Y57440240D01*
X32322269Y57315972D01*
X32314518Y57308993D01*
X32179240Y57210708D01*
X32170211Y57205496D01*
X32017455Y57137484D01*
X32007537Y57134261D01*
X31843971Y57099495D01*
X31833611Y57098406D01*
X31666388Y57098406D01*
X31656028Y57099495D01*
X31492462Y57134261D01*
X31482544Y57137484D01*
X31329789Y57205496D01*
X31320760Y57210708D01*
X31232748Y57274652D01*
X31173970Y57293750D01*
X23277279Y57293750D01*
X23218501Y57274652D01*
X23130490Y57210708D01*
X23121461Y57205496D01*
X22968705Y57137484D01*
X22958787Y57134261D01*
X22795221Y57099495D01*
X22784861Y57098406D01*
X22617638Y57098406D01*
X22607278Y57099495D01*
X22443712Y57134261D01*
X22433794Y57137484D01*
X22281039Y57205496D01*
X22272010Y57210708D01*
X22136731Y57308993D01*
X22128980Y57315972D01*
X22017089Y57440240D01*
X22010967Y57448667D01*
X21927357Y57593483D01*
X21923116Y57603008D01*
X21871442Y57762045D01*
X21869276Y57772235D01*
X21851798Y57938536D01*
X21851798Y57948964D01*
X21869276Y58115264D01*
X21871442Y58125454D01*
X21923116Y58284491D01*
X21927359Y58294020D01*
X21943802Y58322501D01*
X21956578Y58383630D01*
X21930596Y58440419D01*
X21857199Y58472500D01*
X21006319Y58472500D01*
X20946992Y58453000D01*
X20910802Y58402105D01*
X20911864Y58339664D01*
X20928136Y58310151D01*
X21045960Y58162403D01*
X21050165Y58156236D01*
X21169722Y57949158D01*
X21172969Y57942415D01*
X21260328Y57719830D01*
X21262527Y57712701D01*
X21315737Y57479570D01*
X21316850Y57472181D01*
X21334720Y57233736D01*
X21334720Y57226264D01*
X21316850Y56987818D01*
X21315737Y56980429D01*
X21262527Y56747298D01*
X21260328Y56740169D01*
X21172969Y56517584D01*
X21169722Y56510841D01*
X21050165Y56303763D01*
X21045960Y56297596D01*
X20896866Y56110638D01*
X20891793Y56105171D01*
X20716499Y55942521D01*
X20710671Y55937873D01*
X20513090Y55803165D01*
X20506630Y55799435D01*
X20291190Y55695685D01*
X20284228Y55692953D01*
X20055739Y55622472D01*
X20048455Y55620810D01*
X19812001Y55585170D01*
X19804566Y55584613D01*
X19565433Y55584613D01*
X19557998Y55585170D01*
X19321544Y55620810D01*
X19314260Y55622472D01*
X19085771Y55692953D01*
X19078809Y55695685D01*
X18863371Y55799435D01*
X18856910Y55803165D01*
X18659328Y55937873D01*
X18653500Y55942521D01*
X18478206Y56105170D01*
X18473133Y56110637D01*
X18324039Y56297596D01*
X18319834Y56303763D01*
X18218083Y56480000D01*
X18171532Y56521629D01*
X18131481Y56530000D01*
X14746071Y56530000D01*
X14687293Y56510902D01*
X14557990Y56416958D01*
X14548961Y56411746D01*
X14396205Y56343734D01*
X14386287Y56340511D01*
X14222721Y56305745D01*
X14212361Y56304656D01*
X14045138Y56304656D01*
X14034778Y56305745D01*
X13871212Y56340511D01*
X13861294Y56343734D01*
X13708539Y56411746D01*
X13699510Y56416958D01*
X13564231Y56515243D01*
X13556480Y56522222D01*
X13444589Y56646490D01*
X13438467Y56654917D01*
X13354857Y56799733D01*
X13350616Y56809258D01*
X13298942Y56968295D01*
X13296776Y56978485D01*
X13279298Y57144786D01*
X13279298Y57155214D01*
X13296776Y57321514D01*
X13298942Y57331704D01*
X13350616Y57490741D01*
X13354857Y57500266D01*
X13438467Y57645082D01*
X13444589Y57653509D01*
X13556480Y57777777D01*
X13564231Y57784756D01*
X13699510Y57883041D01*
X13708539Y57888253D01*
X13861294Y57956265D01*
X13871212Y57959488D01*
X14034778Y57994254D01*
X14045138Y57995343D01*
X14212361Y57995343D01*
X14222721Y57994254D01*
X14386292Y57959487D01*
X14396196Y57956269D01*
X14435780Y57938645D01*
X14476454Y57930000D01*
X15801339Y57930000D01*
X15860666Y57949500D01*
X15896856Y58000395D01*
X15897033Y58059028D01*
X15848140Y58220208D01*
X15846233Y58229793D01*
X15831213Y58382301D01*
X15805992Y58439432D01*
X15731694Y58472500D01*
X12861373Y58472500D01*
X12856141Y58472774D01*
X12816698Y58476920D01*
X12806316Y58477468D01*
X12769277Y58477494D01*
X12758909Y58478592D01*
X12723380Y58486170D01*
X12712971Y58487822D01*
X12676841Y58491619D01*
X12666644Y58493786D01*
X12631410Y58505234D01*
X12621372Y58507928D01*
X12585144Y58515656D01*
X12575240Y58518882D01*
X12542067Y58533680D01*
X12532229Y58537461D01*
X12497675Y58548688D01*
X12488147Y58552930D01*
X12456066Y58571452D01*
X12446804Y58576175D01*
X12412977Y58591264D01*
X12403959Y58596480D01*
X12374578Y58617858D01*
X12365742Y58623601D01*
X12334278Y58641767D01*
X12325851Y58647889D01*
X12298322Y58672677D01*
X12290244Y58679223D01*
X12258171Y58702560D01*
X12254114Y58705850D01*
X12125022Y58822251D01*
X12067903Y58847498D01*
X12006943Y58833935D01*
X11958398Y58756242D01*
X11951247Y58669939D01*
X11949890Y58661809D01*
X11895161Y58445685D01*
X11892480Y58437877D01*
X11802925Y58233711D01*
X11798999Y58226458D01*
X11677062Y58039820D01*
X11671994Y58033308D01*
X11520998Y57869281D01*
X11514925Y57863691D01*
X11338993Y57726758D01*
X11332089Y57722247D01*
X11317212Y57714196D01*
X11274317Y57668809D01*
X11266713Y57606824D01*
X11317214Y57538301D01*
X11332088Y57530252D01*
X11338996Y57525738D01*
X11514925Y57388808D01*
X11520998Y57383218D01*
X11671994Y57219191D01*
X11677062Y57212679D01*
X11798999Y57026041D01*
X11802925Y57018788D01*
X11892480Y56814622D01*
X11895161Y56806814D01*
X11949890Y56590690D01*
X11951247Y56582560D01*
X11969658Y56360377D01*
X11969658Y56352123D01*
X11951247Y56129939D01*
X11949890Y56121809D01*
X11895161Y55905685D01*
X11892480Y55897877D01*
X11802925Y55693711D01*
X11798999Y55686458D01*
X11677062Y55499820D01*
X11671994Y55493308D01*
X11520998Y55329281D01*
X11514925Y55323691D01*
X11338996Y55186761D01*
X11332088Y55182247D01*
X11317214Y55174198D01*
X11274318Y55128812D01*
X11266712Y55066827D01*
X11317212Y54998303D01*
X11332089Y54990252D01*
X11338993Y54985741D01*
X11514925Y54848808D01*
X11520998Y54843218D01*
X11671994Y54679191D01*
X11677062Y54672679D01*
X11798999Y54486041D01*
X11802925Y54478788D01*
X11892480Y54274622D01*
X11895161Y54266814D01*
X11949890Y54050690D01*
X11951247Y54042560D01*
X11969658Y53820377D01*
X11969658Y53812123D01*
X11958047Y53672008D01*
X11972580Y53611273D01*
X12020313Y53571004D01*
X12057705Y53563750D01*
X23940292Y53563750D01*
X23999071Y53582848D01*
X24018265Y53596794D01*
X24027289Y53602003D01*
X24180044Y53670015D01*
X24189962Y53673238D01*
X24353528Y53708004D01*
X24363888Y53709093D01*
X24531111Y53709093D01*
X24541471Y53708004D01*
X24705037Y53673238D01*
X24714955Y53670015D01*
X24867711Y53602003D01*
X24876740Y53596791D01*
X25012018Y53498506D01*
X25019769Y53491527D01*
X25131660Y53367259D01*
X25137782Y53358832D01*
X25221392Y53214016D01*
X25225633Y53204491D01*
X25277307Y53045454D01*
X25279473Y53035264D01*
X25296952Y52868964D01*
X25296952Y52858536D01*
X25280287Y52699979D01*
X25293479Y52638938D01*
X25358948Y52591711D01*
X25498787Y52561988D01*
X25508705Y52558765D01*
X25661461Y52490753D01*
X25670490Y52485541D01*
X25805768Y52387256D01*
X25813519Y52380277D01*
X25925410Y52256009D01*
X25931532Y52247582D01*
X26015142Y52102766D01*
X26019383Y52093241D01*
X26071057Y51934204D01*
X26073223Y51924014D01*
X26090702Y51757714D01*
X26090702Y51747286D01*
X26073223Y51580985D01*
X26071057Y51570795D01*
X26019383Y51411758D01*
X26015142Y51402233D01*
X25931532Y51257417D01*
X25925410Y51248990D01*
X25813519Y51124722D01*
X25805768Y51117743D01*
X25670490Y51019458D01*
X25661461Y51014246D01*
X25508705Y50946234D01*
X25498787Y50943011D01*
X25335221Y50908245D01*
X25324861Y50907156D01*
X25157638Y50907156D01*
X25147278Y50908245D01*
X24983712Y50943011D01*
X24973794Y50946234D01*
X24821039Y51014246D01*
X24812010Y51019459D01*
X24792818Y51033402D01*
X24734040Y51052500D01*
X12030431Y51052500D01*
X11971104Y51033000D01*
X11933491Y50977049D01*
X11895160Y50825682D01*
X11892480Y50817877D01*
X11802925Y50613711D01*
X11798999Y50606458D01*
X11677062Y50419820D01*
X11671994Y50413308D01*
X11520998Y50249281D01*
X11514925Y50243691D01*
X11338993Y50106758D01*
X11332089Y50102247D01*
X11317212Y50094196D01*
X11274317Y50048809D01*
X11266713Y49986824D01*
X11317214Y49918301D01*
X11332088Y49910252D01*
X11338996Y49905738D01*
X11514925Y49768808D01*
X11520998Y49763218D01*
X11671994Y49599191D01*
X11677062Y49592679D01*
X11798999Y49406041D01*
X11802925Y49398788D01*
X11892480Y49194622D01*
X11895161Y49186814D01*
X11949890Y48970690D01*
X11951247Y48962560D01*
X11969658Y48740377D01*
X11969658Y48732123D01*
X11951247Y48509939D01*
X11949890Y48501809D01*
X11895161Y48285685D01*
X11892480Y48277877D01*
X11802925Y48073711D01*
X11798999Y48066458D01*
X11677062Y47879820D01*
X11671994Y47873308D01*
X11520998Y47709281D01*
X11514925Y47703691D01*
X11338993Y47566758D01*
X11332089Y47562247D01*
X11317212Y47554196D01*
X11274317Y47508809D01*
X11266713Y47446824D01*
X11317214Y47378301D01*
X11332088Y47370252D01*
X11338996Y47365738D01*
X11514925Y47228808D01*
X11520998Y47223218D01*
X11671994Y47059191D01*
X11677062Y47052679D01*
X11798999Y46866041D01*
X11802925Y46858788D01*
X11892480Y46654622D01*
X11895161Y46646814D01*
X11949890Y46430690D01*
X11951247Y46422560D01*
X11969658Y46200377D01*
X11969658Y46192123D01*
X11951247Y45969939D01*
X11949890Y45961809D01*
X11895161Y45745685D01*
X11892480Y45737877D01*
X11802925Y45533711D01*
X11798999Y45526458D01*
X11677062Y45339820D01*
X11671994Y45333308D01*
X11520998Y45169281D01*
X11514925Y45163691D01*
X11338993Y45026758D01*
X11332089Y45022247D01*
X11317212Y45014196D01*
X11274317Y44968809D01*
X11266713Y44906824D01*
X11317214Y44838301D01*
X11332088Y44830252D01*
X11338996Y44825738D01*
X11514925Y44688808D01*
X11520998Y44683218D01*
X11671994Y44519191D01*
X11677055Y44512687D01*
X11749662Y44401555D01*
X11798436Y44362554D01*
X11833379Y44356250D01*
X12538436Y44356250D01*
X12544048Y44355935D01*
X12574735Y44352477D01*
X12585932Y44351848D01*
X12614014Y44351848D01*
X12625098Y44350599D01*
X12652483Y44344349D01*
X12663538Y44342471D01*
X12691429Y44339328D01*
X12702320Y44336843D01*
X12728816Y44327572D01*
X12739588Y44324469D01*
X12766964Y44318220D01*
X12777505Y44314531D01*
X12802811Y44302345D01*
X12813169Y44298055D01*
X12839672Y44288781D01*
X12849718Y44283943D01*
X12873495Y44269003D01*
X12883310Y44263579D01*
X12908612Y44251394D01*
X12918062Y44245456D01*
X12940022Y44227944D01*
X12949169Y44221454D01*
X12972935Y44206521D01*
X12981665Y44199559D01*
X13001520Y44179704D01*
X13009882Y44172232D01*
X13034037Y44152969D01*
X13038200Y44149249D01*
X15183160Y42004289D01*
X15253871Y41975000D01*
X18864765Y41975000D01*
X18924092Y41994500D01*
X18960282Y42045395D01*
X18951367Y42125000D01*
X18911110Y42194726D01*
X18906866Y42204258D01*
X18853574Y42368275D01*
X18852201Y42367829D01*
X18828427Y42411624D01*
X17604501Y43635550D01*
X17600781Y43639713D01*
X17581526Y43663858D01*
X17574054Y43672220D01*
X17554190Y43692084D01*
X17547228Y43700814D01*
X17532288Y43724591D01*
X17525798Y43733738D01*
X17508294Y43755688D01*
X17502355Y43765139D01*
X17490176Y43790428D01*
X17484754Y43800239D01*
X17469806Y43824030D01*
X17464967Y43834078D01*
X17455688Y43860596D01*
X17451397Y43870956D01*
X17439220Y43896243D01*
X17435531Y43906783D01*
X17429285Y43934151D01*
X17426180Y43944929D01*
X17416906Y43971433D01*
X17414421Y43982319D01*
X17411277Y44010221D01*
X17409399Y44021275D01*
X17403151Y44048650D01*
X17401902Y44059737D01*
X17401902Y44087817D01*
X17401273Y44099013D01*
X17397815Y44129701D01*
X17397500Y44135314D01*
X17397500Y46034686D01*
X17397815Y46040299D01*
X17401273Y46070987D01*
X17401902Y46082183D01*
X17401902Y46110262D01*
X17403151Y46121347D01*
X17409399Y46148722D01*
X17411277Y46159777D01*
X17414421Y46187680D01*
X17416906Y46198569D01*
X17426181Y46225075D01*
X17429286Y46235851D01*
X17435532Y46263217D01*
X17439220Y46273757D01*
X17451398Y46299045D01*
X17455689Y46309405D01*
X17464967Y46335919D01*
X17469807Y46345970D01*
X17484752Y46369755D01*
X17490176Y46379568D01*
X17502360Y46404867D01*
X17508289Y46414304D01*
X17525798Y46436259D01*
X17532288Y46445407D01*
X17547228Y46469185D01*
X17554189Y46477914D01*
X17574055Y46497780D01*
X17581527Y46506142D01*
X17600781Y46530286D01*
X17604501Y46534449D01*
X18553051Y47482999D01*
X18557214Y47486719D01*
X18581358Y47505973D01*
X18589720Y47513445D01*
X18609585Y47533310D01*
X18618314Y47540271D01*
X18642092Y47555211D01*
X18651240Y47561701D01*
X18673190Y47579205D01*
X18682643Y47585145D01*
X18707923Y47597319D01*
X18717740Y47602744D01*
X18741530Y47617692D01*
X18751580Y47622532D01*
X18778091Y47631809D01*
X18788451Y47636100D01*
X18813744Y47648280D01*
X18824280Y47651967D01*
X18851651Y47658214D01*
X18862429Y47661319D01*
X18888939Y47670595D01*
X18899814Y47673078D01*
X18927727Y47676223D01*
X18938782Y47678101D01*
X18966154Y47684348D01*
X18977237Y47685597D01*
X19005308Y47685597D01*
X19016505Y47686226D01*
X19047202Y47689685D01*
X19052814Y47690000D01*
X21808387Y47690000D01*
X21867714Y47709500D01*
X21903904Y47760395D01*
X21903493Y47820902D01*
X21869824Y47924525D01*
X21868451Y47924079D01*
X21844677Y47967874D01*
X21805590Y48006961D01*
X21734879Y48036250D01*
X17017210Y48036250D01*
X16958432Y48017152D01*
X16939240Y48003209D01*
X16930211Y47997996D01*
X16777455Y47929984D01*
X16767537Y47926761D01*
X16603971Y47891995D01*
X16593611Y47890906D01*
X16426388Y47890906D01*
X16416028Y47891995D01*
X16252462Y47926761D01*
X16242544Y47929984D01*
X16089789Y47997996D01*
X16080760Y48003208D01*
X15945481Y48101493D01*
X15937730Y48108472D01*
X15825839Y48232740D01*
X15819717Y48241167D01*
X15736107Y48385983D01*
X15731866Y48395508D01*
X15680192Y48554545D01*
X15678026Y48564735D01*
X15660548Y48731036D01*
X15660548Y48741464D01*
X15678026Y48907764D01*
X15680192Y48917954D01*
X15731866Y49076991D01*
X15736107Y49086516D01*
X15819717Y49231332D01*
X15825839Y49239759D01*
X15937730Y49364027D01*
X15945481Y49371006D01*
X16080760Y49469291D01*
X16089789Y49474503D01*
X16242544Y49542515D01*
X16252462Y49545738D01*
X16416028Y49580504D01*
X16426388Y49581593D01*
X16593611Y49581593D01*
X16603971Y49580504D01*
X16767537Y49545738D01*
X16777455Y49542515D01*
X16930211Y49474503D01*
X16939235Y49469294D01*
X16958429Y49455348D01*
X17017208Y49436250D01*
X22063436Y49436250D01*
X22069048Y49435935D01*
X22099735Y49432477D01*
X22110932Y49431848D01*
X22139014Y49431848D01*
X22150098Y49430599D01*
X22177483Y49424349D01*
X22188538Y49422471D01*
X22216429Y49419328D01*
X22227320Y49416843D01*
X22253816Y49407572D01*
X22264588Y49404469D01*
X22291964Y49398220D01*
X22302505Y49394531D01*
X22327811Y49382345D01*
X22338169Y49378055D01*
X22364672Y49368781D01*
X22374718Y49363943D01*
X22398495Y49349003D01*
X22408310Y49343579D01*
X22433612Y49331394D01*
X22443062Y49325456D01*
X22465022Y49307944D01*
X22474169Y49301454D01*
X22497935Y49286521D01*
X22506665Y49279559D01*
X22526520Y49259704D01*
X22534882Y49252232D01*
X22559037Y49232969D01*
X22563200Y49229249D01*
X22839961Y48952488D01*
X22889881Y48925384D01*
X22958787Y48910738D01*
X22968705Y48907515D01*
X23121461Y48839503D01*
X23130490Y48834291D01*
X23265768Y48736006D01*
X23273519Y48729027D01*
X23385410Y48604759D01*
X23391535Y48596328D01*
X23415534Y48554760D01*
X23462085Y48513130D01*
X23524256Y48507236D01*
X23572848Y48534048D01*
X25538049Y50499249D01*
X25542212Y50502969D01*
X25566366Y50522231D01*
X25574728Y50529703D01*
X25594588Y50549563D01*
X25603311Y50556519D01*
X25627087Y50571459D01*
X25636231Y50577947D01*
X25658187Y50595456D01*
X25667635Y50601392D01*
X25692933Y50613575D01*
X25702749Y50619000D01*
X25726526Y50633940D01*
X25736582Y50638783D01*
X25763091Y50648058D01*
X25773455Y50652351D01*
X25798742Y50664529D01*
X25809287Y50668220D01*
X25836652Y50674466D01*
X25847424Y50677569D01*
X25873928Y50686843D01*
X25884820Y50689328D01*
X25912721Y50692472D01*
X25923776Y50694350D01*
X25951151Y50700598D01*
X25962236Y50701847D01*
X25990308Y50701847D01*
X26001505Y50702476D01*
X26032202Y50705935D01*
X26037814Y50706250D01*
X27449878Y50706250D01*
X27520589Y50735539D01*
X38238049Y61452999D01*
X38242212Y61456719D01*
X38266366Y61475981D01*
X38274728Y61483453D01*
X38294588Y61503313D01*
X38303311Y61510269D01*
X38327087Y61525209D01*
X38336231Y61531697D01*
X38358187Y61549206D01*
X38367635Y61555142D01*
X38392933Y61567325D01*
X38402749Y61572750D01*
X38426526Y61587690D01*
X38436582Y61592533D01*
X38463091Y61601808D01*
X38473455Y61606101D01*
X38498742Y61618279D01*
X38509287Y61621970D01*
X38536652Y61628216D01*
X38547424Y61631319D01*
X38573928Y61640593D01*
X38584820Y61643078D01*
X38612721Y61646222D01*
X38623776Y61648100D01*
X38651151Y61654348D01*
X38662236Y61655597D01*
X38690308Y61655597D01*
X38701505Y61656226D01*
X38732202Y61659685D01*
X38737814Y61660000D01*
X47134878Y61660000D01*
X47205589Y61689289D01*
X55150711Y69634411D01*
X55180000Y69705122D01*
X55180000Y70543750D01*
X55160500Y70603077D01*
X55080000Y70643750D01*
X52883641Y70643750D01*
X52849686Y70657814D01*
X49876789Y73630711D01*
X49806078Y73660000D01*
X28277391Y73660000D01*
X28243436Y73674064D01*
X24318039Y77599461D01*
X24247328Y77628750D01*
X15498750Y77628750D01*
X15439423Y77609250D01*
X15398750Y77528750D01*
X15398750Y72882263D01*
X15397184Y72877498D01*
X15374922Y72866250D01*
X14019533Y72866250D01*
X13960206Y72846750D01*
X13924016Y72795855D01*
X13925078Y72733414D01*
X13987063Y72671668D01*
X14098465Y72633423D01*
X14106009Y72630114D01*
X14302083Y72524005D01*
X14308996Y72519488D01*
X14484925Y72382558D01*
X14490998Y72376968D01*
X14641994Y72212941D01*
X14647055Y72206437D01*
X14726282Y72085172D01*
X14775056Y72046171D01*
X14837458Y72043711D01*
X14893715Y72085172D01*
X14972937Y72206429D01*
X14978005Y72212941D01*
X15129001Y72376968D01*
X15135074Y72382558D01*
X15311003Y72519488D01*
X15317916Y72524005D01*
X15513990Y72630114D01*
X15521534Y72633423D01*
X15732415Y72705819D01*
X15740394Y72707840D01*
X15960313Y72744538D01*
X15968519Y72745218D01*
X16191480Y72745218D01*
X16199686Y72744538D01*
X16419605Y72707840D01*
X16427584Y72705819D01*
X16638465Y72633423D01*
X16646009Y72630114D01*
X16842083Y72524005D01*
X16848996Y72519488D01*
X17024925Y72382558D01*
X17030998Y72376968D01*
X17181994Y72212941D01*
X17187055Y72206437D01*
X17266282Y72085172D01*
X17315056Y72046171D01*
X17377458Y72043711D01*
X17433715Y72085172D01*
X17512937Y72206429D01*
X17518005Y72212941D01*
X17669001Y72376968D01*
X17675074Y72382558D01*
X17851003Y72519488D01*
X17857916Y72524005D01*
X18053990Y72630114D01*
X18061534Y72633423D01*
X18272415Y72705819D01*
X18280394Y72707840D01*
X18500313Y72744538D01*
X18508519Y72745218D01*
X18731480Y72745218D01*
X18739686Y72744538D01*
X18959605Y72707840D01*
X18967584Y72705819D01*
X19178465Y72633423D01*
X19186009Y72630114D01*
X19382083Y72524005D01*
X19388996Y72519488D01*
X19564925Y72382558D01*
X19570998Y72376968D01*
X19721994Y72212941D01*
X19727062Y72206429D01*
X19848999Y72019791D01*
X19852925Y72012538D01*
X19942480Y71808372D01*
X19945161Y71800564D01*
X19999890Y71584440D01*
X20001247Y71576310D01*
X20019829Y71352060D01*
X20020000Y71347939D01*
X20020000Y70652061D01*
X20019829Y70647940D01*
X20001247Y70423689D01*
X19999890Y70415559D01*
X19945161Y70199435D01*
X19942480Y70191627D01*
X19852925Y69987461D01*
X19849004Y69980217D01*
X19765363Y69852195D01*
X19749239Y69791862D01*
X19772053Y69733729D01*
X19849080Y69697500D01*
X20476127Y69697500D01*
X20481359Y69697226D01*
X20533503Y69691745D01*
X20539870Y69691281D01*
X20589575Y69689248D01*
X20599891Y69687736D01*
X20612543Y69684501D01*
X20626859Y69681933D01*
X20639861Y69680566D01*
X20650071Y69678396D01*
X20697417Y69663012D01*
X20703549Y69661233D01*
X20751769Y69648905D01*
X20761546Y69645280D01*
X20773251Y69639484D01*
X20786724Y69633994D01*
X20799157Y69629954D01*
X20808676Y69625716D01*
X20851793Y69600822D01*
X20857423Y69597807D01*
X20902028Y69575722D01*
X20910839Y69570143D01*
X20921085Y69562039D01*
X20933118Y69553870D01*
X20944441Y69547332D01*
X20952870Y69541209D01*
X20989868Y69507896D01*
X20994745Y69503779D01*
X21035856Y69471262D01*
X21039770Y69467819D01*
X21673253Y68848722D01*
X21729312Y68821202D01*
X21772623Y68824683D01*
X21814261Y68837527D01*
X21821544Y68839189D01*
X22057998Y68874829D01*
X22065433Y68875386D01*
X22304566Y68875386D01*
X22312001Y68874829D01*
X22548455Y68839189D01*
X22555739Y68837527D01*
X22784228Y68767046D01*
X22791190Y68764314D01*
X23006630Y68660564D01*
X23013090Y68656834D01*
X23210671Y68522126D01*
X23216499Y68517478D01*
X23261983Y68475275D01*
X23318737Y68449216D01*
X23379883Y68461910D01*
X23421575Y68508405D01*
X23430000Y68548580D01*
X23430000Y68805682D01*
X23402143Y68874930D01*
X23238205Y69045722D01*
X23234548Y69049987D01*
X23227576Y69059106D01*
X23216826Y69071042D01*
X23210531Y69076992D01*
X23203324Y69085526D01*
X23176976Y69124955D01*
X23173274Y69130131D01*
X23144452Y69167829D01*
X23138712Y69177394D01*
X23135106Y69185290D01*
X23127289Y69199308D01*
X23122478Y69206509D01*
X23117353Y69216428D01*
X23100436Y69260740D01*
X23097978Y69266610D01*
X23078272Y69309767D01*
X23074802Y69320378D01*
X23073045Y69328869D01*
X23068543Y69344273D01*
X23065449Y69352378D01*
X23061259Y69368620D01*
X23058821Y69367991D01*
X23011367Y69436244D01*
X22937916Y69475994D01*
X22931003Y69480511D01*
X22755074Y69617441D01*
X22749001Y69623031D01*
X22598005Y69787058D01*
X22592937Y69793570D01*
X22471000Y69980208D01*
X22467074Y69987461D01*
X22377519Y70191627D01*
X22374838Y70199435D01*
X22320109Y70415559D01*
X22318752Y70423689D01*
X22300171Y70647940D01*
X22300000Y70652061D01*
X22300000Y71347939D01*
X22300171Y71352060D01*
X22318752Y71576310D01*
X22320109Y71584440D01*
X22374838Y71800564D01*
X22377519Y71808372D01*
X22467074Y72012538D01*
X22471000Y72019791D01*
X22592937Y72206429D01*
X22598005Y72212941D01*
X22749001Y72376968D01*
X22755074Y72382558D01*
X22931003Y72519488D01*
X22937916Y72524005D01*
X23133990Y72630114D01*
X23141534Y72633423D01*
X23352415Y72705819D01*
X23360394Y72707840D01*
X23580313Y72744538D01*
X23588519Y72745218D01*
X23811480Y72745218D01*
X23819686Y72744538D01*
X24039605Y72707840D01*
X24047584Y72705819D01*
X24258465Y72633423D01*
X24266009Y72630114D01*
X24462083Y72524005D01*
X24468996Y72519488D01*
X24644925Y72382558D01*
X24650998Y72376968D01*
X24801994Y72212941D01*
X24807055Y72206437D01*
X24886282Y72085172D01*
X24935056Y72046171D01*
X24997458Y72043711D01*
X25053715Y72085172D01*
X25132937Y72206429D01*
X25138005Y72212941D01*
X25289001Y72376968D01*
X25295074Y72382558D01*
X25471003Y72519488D01*
X25477916Y72524005D01*
X25673990Y72630114D01*
X25681534Y72633423D01*
X25892415Y72705819D01*
X25900394Y72707840D01*
X26120313Y72744538D01*
X26128519Y72745218D01*
X26351480Y72745218D01*
X26359686Y72744538D01*
X26579605Y72707840D01*
X26587584Y72705819D01*
X26798465Y72633423D01*
X26806009Y72630114D01*
X27002083Y72524005D01*
X27008996Y72519488D01*
X27184925Y72382558D01*
X27190998Y72376968D01*
X27341994Y72212941D01*
X27347055Y72206437D01*
X27426282Y72085172D01*
X27475056Y72046171D01*
X27537458Y72043711D01*
X27593715Y72085172D01*
X27672937Y72206429D01*
X27678005Y72212941D01*
X27829001Y72376968D01*
X27835074Y72382558D01*
X28011003Y72519488D01*
X28017916Y72524005D01*
X28213990Y72630114D01*
X28221534Y72633423D01*
X28432415Y72705819D01*
X28440394Y72707840D01*
X28660313Y72744538D01*
X28668519Y72745218D01*
X28891480Y72745218D01*
X28899686Y72744538D01*
X29119605Y72707840D01*
X29127584Y72705819D01*
X29338465Y72633423D01*
X29346009Y72630114D01*
X29542083Y72524005D01*
X29548996Y72519488D01*
X29724925Y72382558D01*
X29730998Y72376968D01*
X29881994Y72212941D01*
X29887055Y72206437D01*
X29966282Y72085172D01*
X30015056Y72046171D01*
X30077458Y72043711D01*
X30133715Y72085172D01*
X30212937Y72206429D01*
X30218005Y72212941D01*
X30369001Y72376968D01*
X30375074Y72382558D01*
X30551003Y72519488D01*
X30557916Y72524005D01*
X30753990Y72630114D01*
X30761534Y72633423D01*
X30972415Y72705819D01*
X30980394Y72707840D01*
X31200313Y72744538D01*
X31208519Y72745218D01*
X31431480Y72745218D01*
X31439686Y72744538D01*
X31659605Y72707840D01*
X31667584Y72705819D01*
X31878465Y72633423D01*
X31886009Y72630114D01*
X32082083Y72524005D01*
X32088996Y72519488D01*
X32264925Y72382558D01*
X32270998Y72376968D01*
X32421994Y72212941D01*
X32427055Y72206437D01*
X32506282Y72085172D01*
X32555056Y72046171D01*
X32617458Y72043711D01*
X32673715Y72085172D01*
X32752937Y72206429D01*
X32758005Y72212941D01*
X32909001Y72376968D01*
X32915074Y72382558D01*
X33091003Y72519488D01*
X33097916Y72524005D01*
X33293990Y72630114D01*
X33301534Y72633423D01*
X33512415Y72705819D01*
X33520394Y72707840D01*
X33740313Y72744538D01*
X33748519Y72745218D01*
X33971480Y72745218D01*
X33979686Y72744538D01*
X34199605Y72707840D01*
X34207584Y72705819D01*
X34418465Y72633423D01*
X34426009Y72630114D01*
X34622083Y72524005D01*
X34628996Y72519488D01*
X34804925Y72382558D01*
X34810998Y72376968D01*
X34961994Y72212941D01*
X34967055Y72206437D01*
X35046282Y72085172D01*
X35095056Y72046171D01*
X35157458Y72043711D01*
X35213715Y72085172D01*
X35292937Y72206429D01*
X35298005Y72212941D01*
X35449001Y72376968D01*
X35455074Y72382558D01*
X35631003Y72519488D01*
X35637916Y72524005D01*
X35833990Y72630114D01*
X35841534Y72633423D01*
X36052415Y72705819D01*
X36060394Y72707840D01*
X36280313Y72744538D01*
X36288519Y72745218D01*
X36511480Y72745218D01*
X36519686Y72744538D01*
X36739605Y72707840D01*
X36747584Y72705819D01*
X36958465Y72633423D01*
X36966009Y72630114D01*
X37162083Y72524005D01*
X37168996Y72519488D01*
X37344925Y72382558D01*
X37350998Y72376968D01*
X37501994Y72212941D01*
X37507055Y72206437D01*
X37586282Y72085172D01*
X37635056Y72046171D01*
X37697458Y72043711D01*
X37753715Y72085172D01*
X37832937Y72206429D01*
X37838005Y72212941D01*
X37989001Y72376968D01*
X37995074Y72382558D01*
X38171003Y72519488D01*
X38177916Y72524005D01*
X38373990Y72630114D01*
X38381534Y72633423D01*
X38592415Y72705819D01*
X38600394Y72707840D01*
X38820313Y72744538D01*
X38828519Y72745218D01*
X39051480Y72745218D01*
X39059686Y72744538D01*
X39279605Y72707840D01*
X39287584Y72705819D01*
X39498465Y72633423D01*
X39506009Y72630114D01*
X39702083Y72524005D01*
X39708996Y72519488D01*
X39884925Y72382558D01*
X39890998Y72376968D01*
X40041994Y72212941D01*
X40047055Y72206437D01*
X40126282Y72085172D01*
X40175056Y72046171D01*
X40237458Y72043711D01*
X40293715Y72085172D01*
X40372937Y72206429D01*
X40378005Y72212941D01*
X40529001Y72376968D01*
X40535074Y72382558D01*
X40711003Y72519488D01*
X40717916Y72524005D01*
X40913990Y72630114D01*
X40921534Y72633423D01*
X41132415Y72705819D01*
X41140394Y72707840D01*
X41360313Y72744538D01*
X41368519Y72745218D01*
X41591480Y72745218D01*
X41599686Y72744538D01*
X41819605Y72707840D01*
X41827584Y72705819D01*
X42038465Y72633423D01*
X42046009Y72630114D01*
X42242083Y72524005D01*
X42248996Y72519488D01*
X42424925Y72382558D01*
X42430998Y72376968D01*
X42581994Y72212941D01*
X42587055Y72206437D01*
X42666282Y72085172D01*
X42715056Y72046171D01*
X42777458Y72043711D01*
X42833715Y72085172D01*
X42912937Y72206429D01*
X42918005Y72212941D01*
X43069001Y72376968D01*
X43075074Y72382558D01*
X43251003Y72519488D01*
X43257916Y72524005D01*
X43453990Y72630114D01*
X43461534Y72633423D01*
X43672415Y72705819D01*
X43680394Y72707840D01*
X43900313Y72744538D01*
X43908519Y72745218D01*
X44131480Y72745218D01*
X44139686Y72744538D01*
X44359605Y72707840D01*
X44367584Y72705819D01*
X44578465Y72633423D01*
X44586009Y72630114D01*
X44782083Y72524005D01*
X44788996Y72519488D01*
X44964925Y72382558D01*
X44970998Y72376968D01*
X45121994Y72212941D01*
X45127055Y72206437D01*
X45206282Y72085172D01*
X45255056Y72046171D01*
X45317458Y72043711D01*
X45373715Y72085172D01*
X45452937Y72206429D01*
X45458005Y72212941D01*
X45609001Y72376968D01*
X45615074Y72382558D01*
X45791003Y72519488D01*
X45797916Y72524005D01*
X45993990Y72630114D01*
X46001534Y72633423D01*
X46212415Y72705819D01*
X46220394Y72707840D01*
X46440313Y72744538D01*
X46448519Y72745218D01*
X46671480Y72745218D01*
X46679686Y72744538D01*
X46899605Y72707840D01*
X46907584Y72705819D01*
X47118465Y72633423D01*
X47126009Y72630114D01*
X47322083Y72524005D01*
X47328996Y72519488D01*
X47504925Y72382558D01*
X47510998Y72376968D01*
X47661994Y72212941D01*
X47667062Y72206429D01*
X47788999Y72019791D01*
X47792925Y72012538D01*
X47882480Y71808372D01*
X47885161Y71800564D01*
X47939890Y71584440D01*
X47941247Y71576310D01*
X47959829Y71352060D01*
X47960000Y71347939D01*
X47960000Y70652061D01*
X47959829Y70647940D01*
X47941247Y70423689D01*
X47939890Y70415559D01*
X47885161Y70199435D01*
X47882480Y70191627D01*
X47792925Y69987461D01*
X47788999Y69980208D01*
X47667062Y69793570D01*
X47661994Y69787058D01*
X47510998Y69623031D01*
X47504925Y69617441D01*
X47328993Y69480508D01*
X47322085Y69475994D01*
X47242283Y69432808D01*
X47199387Y69387422D01*
X47190507Y69356060D01*
X47188412Y69337471D01*
X47187783Y69326272D01*
X47187783Y69295390D01*
X47186534Y69284305D01*
X47179661Y69254192D01*
X47177783Y69243137D01*
X47174324Y69212438D01*
X47171841Y69201563D01*
X47161638Y69172404D01*
X47158533Y69161626D01*
X47151661Y69131519D01*
X47147973Y69120977D01*
X47134576Y69093158D01*
X47130285Y69082798D01*
X47120081Y69053636D01*
X47115240Y69043584D01*
X47098802Y69017422D01*
X47093379Y69007609D01*
X47079981Y68979789D01*
X47074042Y68970337D01*
X47054789Y68946195D01*
X47048299Y68937048D01*
X47031865Y68910893D01*
X47024900Y68902159D01*
X47003053Y68880312D01*
X46995581Y68871950D01*
X46974574Y68845608D01*
X46970854Y68841445D01*
X46339805Y68210396D01*
X46335642Y68206676D01*
X46309300Y68185669D01*
X46300938Y68178197D01*
X46279089Y68156348D01*
X46270364Y68149391D01*
X46244203Y68132952D01*
X46235061Y68126464D01*
X46210917Y68107210D01*
X46201470Y68101275D01*
X46173646Y68087875D01*
X46163832Y68082451D01*
X46137665Y68066010D01*
X46127613Y68061169D01*
X46098444Y68050962D01*
X46088086Y68046672D01*
X46060267Y68033276D01*
X46049731Y68029589D01*
X46019628Y68022718D01*
X46008852Y68019613D01*
X45979695Y68009410D01*
X45968806Y68006925D01*
X45938109Y68003466D01*
X45927054Y68001588D01*
X45896945Y67994716D01*
X45885860Y67993467D01*
X45854978Y67993467D01*
X45843782Y67992838D01*
X45810299Y67989065D01*
X45804686Y67988750D01*
X29148837Y67988750D01*
X29108163Y67980105D01*
X29001196Y67932480D01*
X28991292Y67929262D01*
X28827721Y67894495D01*
X28817361Y67893406D01*
X28650138Y67893406D01*
X28639778Y67894495D01*
X28476212Y67929261D01*
X28466294Y67932484D01*
X28313539Y68000496D01*
X28304510Y68005708D01*
X28169231Y68103993D01*
X28161480Y68110972D01*
X28049589Y68235240D01*
X28043467Y68243667D01*
X27959857Y68388483D01*
X27955616Y68398008D01*
X27903942Y68557045D01*
X27901776Y68567235D01*
X27884298Y68733536D01*
X27884298Y68743964D01*
X27901776Y68910264D01*
X27903942Y68920454D01*
X27955616Y69079491D01*
X27959857Y69089016D01*
X28043467Y69233832D01*
X28049593Y69242264D01*
X28095717Y69293490D01*
X28120924Y69350627D01*
X28107317Y69411577D01*
X28068997Y69448351D01*
X28017911Y69475997D01*
X28011003Y69480511D01*
X27835074Y69617441D01*
X27829001Y69623031D01*
X27678005Y69787058D01*
X27672937Y69793570D01*
X27593715Y69914827D01*
X27544941Y69953829D01*
X27482540Y69956288D01*
X27426282Y69914827D01*
X27347055Y69793562D01*
X27341994Y69787058D01*
X27190998Y69623031D01*
X27184925Y69617441D01*
X27008996Y69480511D01*
X27002083Y69475994D01*
X26806009Y69369885D01*
X26798465Y69366576D01*
X26587584Y69294180D01*
X26579605Y69292159D01*
X26359686Y69255461D01*
X26351480Y69254781D01*
X26128519Y69254781D01*
X26120313Y69255461D01*
X25900394Y69292159D01*
X25892415Y69294180D01*
X25681534Y69366576D01*
X25673990Y69369885D01*
X25477916Y69475994D01*
X25471003Y69480511D01*
X25295074Y69617441D01*
X25289001Y69623031D01*
X25138005Y69787058D01*
X25132937Y69793570D01*
X25053715Y69914827D01*
X25004941Y69953829D01*
X24942540Y69956288D01*
X24886282Y69914827D01*
X24807055Y69793562D01*
X24801994Y69787058D01*
X24696311Y69672255D01*
X24670477Y69615399D01*
X24685210Y69551326D01*
X24699555Y69528495D01*
X24704786Y69520960D01*
X24726793Y69492175D01*
X24732538Y69482601D01*
X24740802Y69464502D01*
X24747098Y69452830D01*
X24757692Y69435970D01*
X24762531Y69425924D01*
X24774506Y69391698D01*
X24777929Y69383189D01*
X24792979Y69350228D01*
X24796446Y69339630D01*
X24800478Y69320135D01*
X24804017Y69307361D01*
X24810596Y69288559D01*
X24813078Y69277684D01*
X24817136Y69241663D01*
X24818579Y69232605D01*
X24825918Y69197118D01*
X24826940Y69186004D01*
X24826533Y69166117D01*
X24827141Y69152874D01*
X24829685Y69130298D01*
X24830000Y69124686D01*
X24830000Y62893794D01*
X24843398Y62843794D01*
X24903890Y62739020D01*
X24908133Y62729490D01*
X24959807Y62570454D01*
X24961973Y62560264D01*
X24979452Y62393964D01*
X24979452Y62383536D01*
X24961973Y62217235D01*
X24959807Y62207045D01*
X24908133Y62048008D01*
X24903892Y62038483D01*
X24820282Y61893667D01*
X24814160Y61885240D01*
X24702269Y61760972D01*
X24694518Y61753993D01*
X24559240Y61655708D01*
X24550211Y61650496D01*
X24397455Y61582484D01*
X24387537Y61579261D01*
X24223971Y61544495D01*
X24213611Y61543406D01*
X24046388Y61543406D01*
X24036028Y61544495D01*
X23872462Y61579261D01*
X23862544Y61582484D01*
X23709789Y61650496D01*
X23700760Y61655708D01*
X23565481Y61753993D01*
X23557730Y61760972D01*
X23445839Y61885240D01*
X23439717Y61893667D01*
X23356107Y62038483D01*
X23351866Y62048008D01*
X23300192Y62207045D01*
X23298026Y62217235D01*
X23280548Y62383536D01*
X23280548Y62393964D01*
X23298026Y62560264D01*
X23300192Y62570454D01*
X23351866Y62729491D01*
X23356107Y62739016D01*
X23416603Y62843798D01*
X23430000Y62893798D01*
X23430000Y65911419D01*
X23410500Y65970746D01*
X23359605Y66006936D01*
X23297164Y66005874D01*
X23261983Y65984724D01*
X23216499Y65942521D01*
X23210671Y65937873D01*
X23013090Y65803165D01*
X23006630Y65799435D01*
X22791190Y65695685D01*
X22784228Y65692953D01*
X22555739Y65622472D01*
X22548455Y65620810D01*
X22312001Y65585170D01*
X22304566Y65584613D01*
X22065433Y65584613D01*
X22057998Y65585170D01*
X21821544Y65620810D01*
X21814260Y65622472D01*
X21585771Y65692953D01*
X21578809Y65695685D01*
X21363371Y65799435D01*
X21356910Y65803165D01*
X21159328Y65937873D01*
X21153500Y65942521D01*
X20978206Y66105170D01*
X20973133Y66110637D01*
X20824039Y66297596D01*
X20819834Y66303763D01*
X20700277Y66510841D01*
X20697030Y66517584D01*
X20609671Y66740169D01*
X20607472Y66747298D01*
X20554262Y66980429D01*
X20553149Y66987818D01*
X20535280Y67226264D01*
X20535280Y67233736D01*
X20553149Y67472181D01*
X20554262Y67479570D01*
X20583885Y67609357D01*
X20578075Y67671536D01*
X20556286Y67703127D01*
X20181893Y68069018D01*
X20111999Y68097500D01*
X13972622Y68097500D01*
X13967391Y68097774D01*
X13910145Y68103791D01*
X13904925Y68104202D01*
X13850088Y68107076D01*
X13839783Y68108708D01*
X13832169Y68110748D01*
X13816737Y68113608D01*
X13808888Y68114433D01*
X13798679Y68116602D01*
X13746406Y68133586D01*
X13741390Y68135072D01*
X13688367Y68149281D01*
X13678638Y68153015D01*
X13671615Y68156594D01*
X13657110Y68162602D01*
X13649598Y68165043D01*
X13640072Y68169284D01*
X13592487Y68196757D01*
X13587887Y68199254D01*
X13538962Y68224183D01*
X13530214Y68229864D01*
X13524085Y68234827D01*
X13511161Y68243709D01*
X13504314Y68247663D01*
X13495874Y68253795D01*
X13455046Y68290557D01*
X13451065Y68293958D01*
X13406350Y68330167D01*
X13402462Y68333668D01*
X12976168Y68759962D01*
X12972667Y68763850D01*
X12936458Y68808565D01*
X12933057Y68812546D01*
X12896295Y68853374D01*
X12890163Y68861814D01*
X12886209Y68868661D01*
X12877327Y68881585D01*
X12872364Y68887714D01*
X12866683Y68896462D01*
X12841754Y68945387D01*
X12839257Y68949987D01*
X12811784Y68997572D01*
X12807543Y69007098D01*
X12805102Y69014610D01*
X12799094Y69029115D01*
X12795515Y69036138D01*
X12791781Y69045867D01*
X12777572Y69098890D01*
X12776086Y69103906D01*
X12759102Y69156179D01*
X12756933Y69166388D01*
X12756108Y69174237D01*
X12753248Y69189669D01*
X12751208Y69197283D01*
X12749576Y69207588D01*
X12746702Y69262425D01*
X12746291Y69267645D01*
X12740274Y69324891D01*
X12740000Y69330122D01*
X12740000Y69455754D01*
X12701421Y69534668D01*
X12595074Y69617441D01*
X12589001Y69623031D01*
X12438005Y69787058D01*
X12432937Y69793570D01*
X12311000Y69980208D01*
X12307074Y69987461D01*
X12217519Y70191627D01*
X12214838Y70199435D01*
X12160109Y70415559D01*
X12158752Y70423689D01*
X12140171Y70647940D01*
X12140000Y70652061D01*
X12140000Y71347939D01*
X12140171Y71352060D01*
X12158752Y71576310D01*
X12160109Y71584440D01*
X12214838Y71800564D01*
X12217519Y71808372D01*
X12307074Y72012538D01*
X12311000Y72019791D01*
X12432937Y72206429D01*
X12438005Y72212941D01*
X12589001Y72376968D01*
X12595074Y72382558D01*
X12771003Y72519488D01*
X12777916Y72524005D01*
X12973990Y72630114D01*
X12981534Y72633423D01*
X13092936Y72671668D01*
X13142717Y72709375D01*
X13160421Y72769264D01*
X13139142Y72827976D01*
X13060466Y72866250D01*
X600000Y72866250D01*
X540673Y72846750D01*
X500000Y72766250D01*
X500000Y600000D01*
X519500Y540673D01*
X600000Y500000D01*
X4346161Y500000D01*
X4346161Y27504933D01*
X4339906Y27505327D01*
X4034669Y27543886D01*
X4028499Y27545063D01*
X3730510Y27621574D01*
X3724533Y27623516D01*
X3438469Y27736777D01*
X3432801Y27739444D01*
X3163180Y27887670D01*
X3157893Y27891026D01*
X2908979Y28071871D01*
X2904154Y28075863D01*
X2679870Y28286480D01*
X2675573Y28291055D01*
X2479453Y28528123D01*
X2475780Y28533179D01*
X2310915Y28792964D01*
X2307896Y28798456D01*
X2176893Y29076851D01*
X2174589Y29082672D01*
X2079512Y29375290D01*
X2077954Y29381358D01*
X2020300Y29683589D01*
X2019516Y29689792D01*
X2000197Y29996869D01*
X2000197Y30003131D01*
X2019516Y30310207D01*
X2020300Y30316410D01*
X2077954Y30618641D01*
X2079512Y30624709D01*
X2174589Y30917327D01*
X2176893Y30923148D01*
X2307896Y31201543D01*
X2310915Y31207035D01*
X2475780Y31466820D01*
X2479453Y31471876D01*
X2675573Y31708944D01*
X2679870Y31713519D01*
X2904154Y31924136D01*
X2908979Y31928128D01*
X3157893Y32108973D01*
X3163180Y32112329D01*
X3432801Y32260555D01*
X3438469Y32263222D01*
X3724533Y32376483D01*
X3730510Y32378425D01*
X4028499Y32454936D01*
X4034669Y32456113D01*
X4339906Y32494672D01*
X4346161Y32495066D01*
X4346161Y32495066D01*
X4346161Y67504933D01*
X4339906Y67505327D01*
X4034669Y67543886D01*
X4028499Y67545063D01*
X3730510Y67621574D01*
X3724533Y67623516D01*
X3438469Y67736777D01*
X3432801Y67739444D01*
X3163180Y67887670D01*
X3157893Y67891026D01*
X2908979Y68071871D01*
X2904154Y68075863D01*
X2679870Y68286480D01*
X2675573Y68291055D01*
X2479453Y68528123D01*
X2475780Y68533179D01*
X2310915Y68792964D01*
X2307896Y68798456D01*
X2176893Y69076851D01*
X2174589Y69082672D01*
X2079512Y69375290D01*
X2077954Y69381358D01*
X2020300Y69683589D01*
X2019516Y69689792D01*
X2000197Y69996869D01*
X2000197Y70003131D01*
X2019516Y70310207D01*
X2020300Y70316410D01*
X2077954Y70618641D01*
X2079512Y70624709D01*
X2174589Y70917327D01*
X2176893Y70923148D01*
X2307896Y71201543D01*
X2310915Y71207035D01*
X2475780Y71466820D01*
X2479453Y71471876D01*
X2675573Y71708944D01*
X2679870Y71713519D01*
X2904154Y71924136D01*
X2908979Y71928128D01*
X3157893Y72108973D01*
X3163180Y72112329D01*
X3432801Y72260555D01*
X3438469Y72263222D01*
X3724533Y72376483D01*
X3730510Y72378425D01*
X4028499Y72454936D01*
X4034669Y72456113D01*
X4339906Y72494672D01*
X4346161Y72495066D01*
X4653838Y72495066D01*
X4660093Y72494672D01*
X4965330Y72456113D01*
X4971500Y72454936D01*
X5269489Y72378425D01*
X5275466Y72376483D01*
X5561530Y72263222D01*
X5567198Y72260555D01*
X5836819Y72112329D01*
X5842106Y72108973D01*
X6091020Y71928128D01*
X6095845Y71924136D01*
X6320129Y71713519D01*
X6324426Y71708944D01*
X6520546Y71471876D01*
X6524219Y71466820D01*
X6689084Y71207035D01*
X6692103Y71201543D01*
X6823106Y70923148D01*
X6825410Y70917327D01*
X6920487Y70624709D01*
X6922045Y70618641D01*
X6979699Y70316410D01*
X6980483Y70310207D01*
X6999803Y70003131D01*
X6999803Y69996869D01*
X6980483Y69689792D01*
X6979699Y69683589D01*
X6922045Y69381358D01*
X6920487Y69375290D01*
X6825410Y69082672D01*
X6823106Y69076851D01*
X6692103Y68798456D01*
X6689084Y68792964D01*
X6524219Y68533179D01*
X6520546Y68528123D01*
X6324426Y68291055D01*
X6320129Y68286480D01*
X6095845Y68075863D01*
X6091020Y68071871D01*
X5842106Y67891026D01*
X5836819Y67887670D01*
X5567198Y67739444D01*
X5561530Y67736777D01*
X5275466Y67623516D01*
X5269489Y67621574D01*
X4971500Y67545063D01*
X4965330Y67543886D01*
X4660093Y67505327D01*
X4653838Y67504933D01*
X4346161Y67504933D01*
X4346161Y32495066D01*
X4653838Y32495066D01*
X4660093Y32494672D01*
X4965330Y32456113D01*
X4971500Y32454936D01*
X5269489Y32378425D01*
X5275466Y32376483D01*
X5561530Y32263222D01*
X5567198Y32260555D01*
X5836819Y32112329D01*
X5842106Y32108973D01*
X6091020Y31928128D01*
X6095845Y31924136D01*
X6320129Y31713519D01*
X6324426Y31708944D01*
X6520546Y31471876D01*
X6524219Y31466820D01*
X6689084Y31207035D01*
X6692103Y31201543D01*
X6823106Y30923148D01*
X6825410Y30917327D01*
X6920487Y30624709D01*
X6922045Y30618641D01*
X6979699Y30316410D01*
X6980483Y30310207D01*
X6999803Y30003131D01*
X6999803Y29996869D01*
X6980483Y29689792D01*
X6979699Y29683589D01*
X6922045Y29381358D01*
X6920487Y29375290D01*
X6825410Y29082672D01*
X6823106Y29076851D01*
X6692103Y28798456D01*
X6689084Y28792964D01*
X6524219Y28533179D01*
X6520546Y28528123D01*
X6324426Y28291055D01*
X6320129Y28286480D01*
X6095845Y28075863D01*
X6091020Y28071871D01*
X5842106Y27891026D01*
X5836819Y27887670D01*
X5567198Y27739444D01*
X5561530Y27736777D01*
X5275466Y27623516D01*
X5269489Y27621574D01*
X4971500Y27545063D01*
X4965330Y27543886D01*
X4660093Y27505327D01*
X4653838Y27504933D01*
X4346161Y27504933D01*
X4346161Y500000D01*
X13119818Y500000D01*
X13119818Y5215000D01*
X13115197Y5215213D01*
X13031470Y5222970D01*
X13020096Y5225387D01*
X12895376Y5267592D01*
X12888856Y5270326D01*
X12813962Y5308166D01*
X12809228Y5310894D01*
X12725123Y5365692D01*
X12715615Y5373749D01*
X12629304Y5467863D01*
X12621371Y5479443D01*
X12563572Y5596367D01*
X12560893Y5602916D01*
X12543738Y5655106D01*
X12541873Y5662791D01*
X12518128Y5811077D01*
X12517500Y5818972D01*
X12517500Y7688972D01*
X12488211Y7759683D01*
X9664683Y10583211D01*
X9593972Y10612500D01*
X5023568Y10612500D01*
X5018947Y10612713D01*
X4935220Y10620470D01*
X4923846Y10622887D01*
X4799126Y10665092D01*
X4792606Y10667826D01*
X4717712Y10705666D01*
X4712978Y10708394D01*
X4628873Y10763192D01*
X4619365Y10771249D01*
X4533054Y10865363D01*
X4525121Y10876943D01*
X4467322Y10993867D01*
X4464643Y11000416D01*
X4447488Y11052606D01*
X4445623Y11060291D01*
X4421878Y11208577D01*
X4421250Y11216472D01*
X4421250Y13867682D01*
X4421463Y13872303D01*
X4429220Y13956030D01*
X4431637Y13967404D01*
X4473842Y14092124D01*
X4476576Y14098644D01*
X4514416Y14173538D01*
X4517144Y14178272D01*
X4571942Y14262377D01*
X4579999Y14271885D01*
X4674113Y14358196D01*
X4685693Y14366129D01*
X4802617Y14423928D01*
X4809166Y14426607D01*
X4861356Y14443762D01*
X4869041Y14445627D01*
X5017327Y14469372D01*
X5023568Y14469868D01*
X5023568Y15692500D01*
X5018947Y15692713D01*
X4935220Y15700470D01*
X4923846Y15702887D01*
X4799126Y15745092D01*
X4792606Y15747826D01*
X4717712Y15785666D01*
X4712978Y15788394D01*
X4628873Y15843192D01*
X4619365Y15851249D01*
X4533054Y15945363D01*
X4525121Y15956943D01*
X4467322Y16073867D01*
X4464643Y16080416D01*
X4447488Y16132606D01*
X4445623Y16140291D01*
X4421878Y16288577D01*
X4421250Y16296472D01*
X4421250Y19479914D01*
X4422208Y19489646D01*
X4458352Y19671355D01*
X4461188Y19680703D01*
X4486719Y19742343D01*
X4491325Y19750959D01*
X4594258Y19905009D01*
X4600457Y19912563D01*
X5820711Y21132817D01*
X5850000Y21203528D01*
X5850000Y25138932D01*
X5850213Y25143553D01*
X5857970Y25227280D01*
X5860387Y25238654D01*
X5902592Y25363374D01*
X5905326Y25369894D01*
X5943166Y25444788D01*
X5945894Y25449522D01*
X6000692Y25533627D01*
X6008749Y25543135D01*
X6102863Y25629446D01*
X6114443Y25637379D01*
X6231367Y25695178D01*
X6237916Y25697857D01*
X6290106Y25715012D01*
X6297791Y25716877D01*
X6446077Y25740622D01*
X6453972Y25741250D01*
X8946432Y25741250D01*
X8951053Y25741037D01*
X9034780Y25733280D01*
X9046154Y25730863D01*
X9170874Y25688658D01*
X9177394Y25685924D01*
X9252288Y25648084D01*
X9257022Y25645356D01*
X9341127Y25590558D01*
X9350635Y25582500D01*
X9436946Y25488387D01*
X9444879Y25476807D01*
X9502678Y25359883D01*
X9505357Y25353334D01*
X9522512Y25301144D01*
X9524377Y25293459D01*
X9548122Y25145173D01*
X9548750Y25137278D01*
X9548750Y16294818D01*
X9548537Y16290197D01*
X9540780Y16206470D01*
X9538363Y16195096D01*
X9496158Y16070376D01*
X9493424Y16063856D01*
X9455584Y15988962D01*
X9452856Y15984228D01*
X9398058Y15900123D01*
X9390001Y15890615D01*
X9295887Y15804304D01*
X9284307Y15796371D01*
X9167383Y15738572D01*
X9160834Y15735893D01*
X9108644Y15718738D01*
X9100959Y15716873D01*
X8952673Y15693128D01*
X8944778Y15692500D01*
X5023568Y15692500D01*
X5023568Y14469868D01*
X5025222Y14470000D01*
X16090182Y14470000D01*
X16094803Y14469787D01*
X16178530Y14462030D01*
X16189904Y14459613D01*
X16314624Y14417408D01*
X16321144Y14414674D01*
X16396038Y14376834D01*
X16400772Y14374106D01*
X16484877Y14319308D01*
X16494385Y14311251D01*
X16580696Y14217137D01*
X16588629Y14205557D01*
X16646428Y14088633D01*
X16649107Y14082084D01*
X16666262Y14029894D01*
X16668127Y14022209D01*
X16691872Y13873923D01*
X16692500Y13866028D01*
X16692500Y5817318D01*
X16692287Y5812697D01*
X16684530Y5728970D01*
X16682113Y5717596D01*
X16639908Y5592876D01*
X16637174Y5586356D01*
X16599334Y5511462D01*
X16596606Y5506728D01*
X16541808Y5422623D01*
X16533751Y5413115D01*
X16439637Y5326804D01*
X16428057Y5318871D01*
X16311133Y5261072D01*
X16304584Y5258393D01*
X16252394Y5241238D01*
X16244709Y5239373D01*
X16096423Y5215628D01*
X16088528Y5215000D01*
X13119818Y5215000D01*
X13119818Y500000D01*
X74346161Y500000D01*
X74346161Y27504933D01*
X74339906Y27505327D01*
X74034669Y27543886D01*
X74028499Y27545063D01*
X73730510Y27621574D01*
X73724533Y27623516D01*
X73438469Y27736777D01*
X73432801Y27739444D01*
X73163180Y27887670D01*
X73157893Y27891026D01*
X72908979Y28071871D01*
X72904154Y28075863D01*
X72679870Y28286480D01*
X72675573Y28291055D01*
X72479453Y28528123D01*
X72475780Y28533179D01*
X72310915Y28792964D01*
X72307896Y28798456D01*
X72176893Y29076851D01*
X72174589Y29082672D01*
X72079512Y29375290D01*
X72077954Y29381358D01*
X72020300Y29683589D01*
X72019516Y29689792D01*
X72000197Y29996869D01*
X72000197Y30003131D01*
X72019516Y30310207D01*
X72020300Y30316410D01*
X72077954Y30618641D01*
X72079512Y30624709D01*
X72174589Y30917327D01*
X72176893Y30923148D01*
X72307896Y31201543D01*
X72310915Y31207035D01*
X72475780Y31466820D01*
X72479453Y31471876D01*
X72675573Y31708944D01*
X72679870Y31713519D01*
X72904154Y31924136D01*
X72908979Y31928128D01*
X73157893Y32108973D01*
X73163180Y32112329D01*
X73432801Y32260555D01*
X73438469Y32263222D01*
X73724533Y32376483D01*
X73730510Y32378425D01*
X74028499Y32454936D01*
X74034669Y32456113D01*
X74339906Y32494672D01*
X74346161Y32495066D01*
X74653838Y32495066D01*
X74660093Y32494672D01*
X74965330Y32456113D01*
X74971500Y32454936D01*
X75269489Y32378425D01*
X75275466Y32376483D01*
X75561530Y32263222D01*
X75567198Y32260555D01*
X75836819Y32112329D01*
X75842106Y32108973D01*
X76091020Y31928128D01*
X76095845Y31924136D01*
X76320129Y31713519D01*
X76324426Y31708944D01*
X76520546Y31471876D01*
X76524219Y31466820D01*
X76689084Y31207035D01*
X76692103Y31201543D01*
X76823106Y30923148D01*
X76825410Y30917327D01*
X76920487Y30624709D01*
X76922045Y30618641D01*
X76979699Y30316410D01*
X76980483Y30310207D01*
X76999803Y30003131D01*
X76999803Y29996869D01*
X76980483Y29689792D01*
X76979699Y29683589D01*
X76922045Y29381358D01*
X76920487Y29375290D01*
X76825410Y29082672D01*
X76823106Y29076851D01*
X76692103Y28798456D01*
X76689084Y28792964D01*
X76524219Y28533179D01*
X76520546Y28528123D01*
X76324426Y28291055D01*
X76320129Y28286480D01*
X76095845Y28075863D01*
X76091020Y28071871D01*
X75842106Y27891026D01*
X75836819Y27887670D01*
X75567198Y27739444D01*
X75561530Y27736777D01*
X75275466Y27623516D01*
X75269489Y27621574D01*
X74971500Y27545063D01*
X74965330Y27543886D01*
X74660093Y27505327D01*
X74653838Y27504933D01*
X74346161Y27504933D01*
X74346161Y500000D01*
X85360103Y500000D01*
X85360103Y27904895D01*
X85353312Y27905359D01*
X85076118Y27943459D01*
X85069459Y27944843D01*
X84800043Y28020330D01*
X84793614Y28022615D01*
X84537001Y28134078D01*
X84530940Y28137218D01*
X84291894Y28282585D01*
X84286318Y28286521D01*
X84069288Y28463088D01*
X84064306Y28467741D01*
X83873339Y28672217D01*
X83869035Y28677508D01*
X83707687Y28906086D01*
X83704152Y28911898D01*
X83575422Y29160334D01*
X83572714Y29166570D01*
X83479019Y29430201D01*
X83477176Y29436780D01*
X83420255Y29710700D01*
X83419326Y29717459D01*
X83400233Y29996594D01*
X83400233Y30003406D01*
X83419326Y30282540D01*
X83420255Y30289299D01*
X83477176Y30563219D01*
X83479019Y30569798D01*
X83572714Y30833429D01*
X83575422Y30839665D01*
X83704152Y31088101D01*
X83707687Y31093913D01*
X83869035Y31322491D01*
X83873339Y31327782D01*
X84064306Y31532258D01*
X84069288Y31536911D01*
X84286318Y31713478D01*
X84291894Y31717414D01*
X84530940Y31862781D01*
X84537001Y31865921D01*
X84793614Y31977384D01*
X84800043Y31979669D01*
X85069459Y32055156D01*
X85076118Y32056540D01*
X85353312Y32094640D01*
X85360103Y32095104D01*
X85639896Y32095104D01*
X85646687Y32094640D01*
X85923881Y32056540D01*
X85930540Y32055156D01*
X86199956Y31979669D01*
X86206385Y31977384D01*
X86462998Y31865921D01*
X86469059Y31862781D01*
X86708105Y31717414D01*
X86713681Y31713478D01*
X86930711Y31536911D01*
X86935693Y31532258D01*
X87126660Y31327782D01*
X87130964Y31322491D01*
X87292312Y31093913D01*
X87295847Y31088101D01*
X87424577Y30839665D01*
X87427285Y30833429D01*
X87520980Y30569798D01*
X87522823Y30563219D01*
X87579744Y30289299D01*
X87580673Y30282540D01*
X87599767Y30003406D01*
X87599767Y29996594D01*
X87580673Y29717459D01*
X87579744Y29710700D01*
X87522823Y29436780D01*
X87520980Y29430201D01*
X87427285Y29166570D01*
X87424577Y29160334D01*
X87295847Y28911898D01*
X87292312Y28906086D01*
X87130964Y28677508D01*
X87126660Y28672217D01*
X86935693Y28467741D01*
X86930711Y28463088D01*
X86713681Y28286521D01*
X86708105Y28282585D01*
X86469059Y28137218D01*
X86462998Y28134078D01*
X86206385Y28022615D01*
X86199956Y28020330D01*
X85930540Y27944843D01*
X85923881Y27943459D01*
X85646687Y27905359D01*
X85639896Y27904895D01*
X85360103Y27904895D01*
X85360103Y500000D01*
X102240103Y500000D01*
X102240103Y20904895D01*
X102233312Y20905359D01*
X101956118Y20943459D01*
X101949459Y20944843D01*
X101680043Y21020330D01*
X101673614Y21022615D01*
X101417001Y21134078D01*
X101410940Y21137218D01*
X101171894Y21282585D01*
X101166318Y21286521D01*
X100949288Y21463088D01*
X100944306Y21467741D01*
X100753339Y21672217D01*
X100749035Y21677508D01*
X100587687Y21906086D01*
X100584152Y21911898D01*
X100455422Y22160334D01*
X100452714Y22166570D01*
X100359019Y22430201D01*
X100357176Y22436780D01*
X100300255Y22710700D01*
X100299326Y22717459D01*
X100280233Y22996594D01*
X100280233Y23003406D01*
X100299326Y23282540D01*
X100300255Y23289299D01*
X100357176Y23563219D01*
X100359019Y23569798D01*
X100452714Y23833429D01*
X100455422Y23839665D01*
X100584152Y24088101D01*
X100587687Y24093913D01*
X100749035Y24322491D01*
X100753339Y24327782D01*
X100944306Y24532258D01*
X100949288Y24536911D01*
X101166318Y24713478D01*
X101171894Y24717414D01*
X101410940Y24862781D01*
X101417001Y24865921D01*
X101673614Y24977384D01*
X101680043Y24979669D01*
X101949459Y25055156D01*
X101956118Y25056540D01*
X102233312Y25094640D01*
X102240103Y25095104D01*
X102240103Y25095104D01*
X102240103Y25604895D01*
X102233312Y25605359D01*
X101956118Y25643459D01*
X101949459Y25644843D01*
X101680043Y25720330D01*
X101673614Y25722615D01*
X101417001Y25834078D01*
X101410940Y25837218D01*
X101171894Y25982585D01*
X101166318Y25986521D01*
X100949288Y26163088D01*
X100944306Y26167741D01*
X100753339Y26372217D01*
X100749035Y26377508D01*
X100587687Y26606086D01*
X100584152Y26611898D01*
X100455422Y26860334D01*
X100452714Y26866570D01*
X100359019Y27130201D01*
X100357176Y27136780D01*
X100300255Y27410700D01*
X100299326Y27417459D01*
X100280233Y27696594D01*
X100280233Y27703406D01*
X100299326Y27982540D01*
X100300255Y27989299D01*
X100357176Y28263219D01*
X100359019Y28269798D01*
X100452714Y28533429D01*
X100455422Y28539665D01*
X100584152Y28788101D01*
X100587687Y28793913D01*
X100749035Y29022491D01*
X100753339Y29027782D01*
X100944306Y29232258D01*
X100949288Y29236911D01*
X101166318Y29413478D01*
X101171894Y29417414D01*
X101410940Y29562781D01*
X101417001Y29565921D01*
X101673614Y29677384D01*
X101680043Y29679669D01*
X101949459Y29755156D01*
X101956118Y29756540D01*
X102233312Y29794640D01*
X102240103Y29795104D01*
X102519896Y29795104D01*
X102526687Y29794640D01*
X102803881Y29756540D01*
X102810540Y29755156D01*
X103079956Y29679669D01*
X103086385Y29677384D01*
X103342998Y29565921D01*
X103349059Y29562781D01*
X103588105Y29417414D01*
X103593681Y29413478D01*
X103810711Y29236911D01*
X103815693Y29232258D01*
X104006660Y29027782D01*
X104010964Y29022491D01*
X104172312Y28793913D01*
X104175847Y28788101D01*
X104304577Y28539665D01*
X104307285Y28533429D01*
X104400980Y28269798D01*
X104402823Y28263219D01*
X104459744Y27989299D01*
X104460673Y27982540D01*
X104479767Y27703406D01*
X104479767Y27696594D01*
X104460673Y27417459D01*
X104459744Y27410700D01*
X104402823Y27136780D01*
X104400980Y27130201D01*
X104307285Y26866570D01*
X104304577Y26860334D01*
X104175847Y26611898D01*
X104172312Y26606086D01*
X104010964Y26377508D01*
X104006660Y26372217D01*
X103815693Y26167741D01*
X103810711Y26163088D01*
X103593681Y25986521D01*
X103588105Y25982585D01*
X103349059Y25837218D01*
X103342998Y25834078D01*
X103086385Y25722615D01*
X103079956Y25720330D01*
X102810540Y25644843D01*
X102803881Y25643459D01*
X102526687Y25605359D01*
X102519896Y25604895D01*
X102240103Y25604895D01*
X102240103Y25095104D01*
X102519896Y25095104D01*
X102526687Y25094640D01*
X102803881Y25056540D01*
X102810540Y25055156D01*
X103079956Y24979669D01*
X103086385Y24977384D01*
X103342998Y24865921D01*
X103349059Y24862781D01*
X103588105Y24717414D01*
X103593681Y24713478D01*
X103810711Y24536911D01*
X103815693Y24532258D01*
X104006660Y24327782D01*
X104010964Y24322491D01*
X104172312Y24093913D01*
X104175847Y24088101D01*
X104304577Y23839665D01*
X104307285Y23833429D01*
X104400980Y23569798D01*
X104402823Y23563219D01*
X104459744Y23289299D01*
X104460673Y23282540D01*
X104479767Y23003406D01*
X104479767Y22996594D01*
X104460673Y22717459D01*
X104459744Y22710700D01*
X104402823Y22436780D01*
X104400980Y22430201D01*
X104307285Y22166570D01*
X104304577Y22160334D01*
X104175847Y21911898D01*
X104172312Y21906086D01*
X104010964Y21677508D01*
X104006660Y21672217D01*
X103815693Y21467741D01*
X103810711Y21463088D01*
X103593681Y21286521D01*
X103588105Y21282585D01*
X103349059Y21137218D01*
X103342998Y21134078D01*
X103086385Y21022615D01*
X103079956Y21020330D01*
X102810540Y20944843D01*
X102803881Y20943459D01*
X102526687Y20905359D01*
X102519896Y20904895D01*
X102240103Y20904895D01*
X102240103Y500000D01*
X119400000Y500000D01*
X119459327Y519500D01*
G37*
G36*
X40916827Y57828000D02*
X40957500Y57908500D01*
X40957500Y60160000D01*
X40938000Y60219327D01*
X40857500Y60260000D01*
X39066372Y60260000D01*
X38995661Y60230711D01*
X36744161Y57979211D01*
X36715999Y57923471D01*
X36726397Y57861893D01*
X36771301Y57818492D01*
X36814872Y57808500D01*
X40857500Y57808500D01*
X40916827Y57828000D01*
G37*
G36*
X42444107Y43505936D02*
X42487508Y43550840D01*
X42497500Y43594411D01*
X42497500Y50652500D01*
X42478000Y50711827D01*
X42397500Y50752500D01*
X37467457Y50752500D01*
X37462560Y50752740D01*
X37274793Y50771233D01*
X37265211Y50773139D01*
X37087019Y50827193D01*
X37077981Y50830937D01*
X36913763Y50918713D01*
X36905631Y50924147D01*
X36761691Y51042276D01*
X36754776Y51049191D01*
X36636647Y51193131D01*
X36631213Y51201263D01*
X36543437Y51365481D01*
X36539693Y51374519D01*
X36485639Y51552711D01*
X36483733Y51562293D01*
X36465240Y51750060D01*
X36465000Y51754957D01*
X36465000Y55121500D01*
X36445500Y55180827D01*
X36365000Y55221500D01*
X35727263Y55221500D01*
X35722498Y55223066D01*
X35711250Y55245328D01*
X35711250Y56704878D01*
X35691750Y56764205D01*
X35640855Y56800395D01*
X35578414Y56799333D01*
X35540539Y56775589D01*
X28848161Y50083211D01*
X28819999Y50027471D01*
X28830397Y49965893D01*
X28875301Y49922492D01*
X28918872Y49912500D01*
X35228630Y49912500D01*
X35299341Y49941789D01*
X35497177Y50139625D01*
X35520951Y50183420D01*
X35522324Y50182974D01*
X35575616Y50346991D01*
X35579857Y50356516D01*
X35663467Y50501332D01*
X35669589Y50509759D01*
X35781480Y50634027D01*
X35789231Y50641006D01*
X35924510Y50739291D01*
X35933539Y50744503D01*
X36086294Y50812515D01*
X36096212Y50815738D01*
X36259778Y50850504D01*
X36270138Y50851593D01*
X36437361Y50851593D01*
X36447721Y50850504D01*
X36611287Y50815738D01*
X36621205Y50812515D01*
X36773961Y50744503D01*
X36782990Y50739291D01*
X36918268Y50641006D01*
X36926019Y50634027D01*
X37037910Y50509759D01*
X37044032Y50501332D01*
X37127642Y50356516D01*
X37131883Y50346991D01*
X37183557Y50187954D01*
X37185723Y50177764D01*
X37203202Y50011464D01*
X37203202Y50001036D01*
X37185723Y49834735D01*
X37183557Y49824545D01*
X37131883Y49665508D01*
X37127642Y49655983D01*
X37044032Y49511167D01*
X37037910Y49502740D01*
X36926019Y49378472D01*
X36918268Y49371493D01*
X36782990Y49273208D01*
X36773961Y49267996D01*
X36621205Y49199984D01*
X36611286Y49196761D01*
X36542380Y49182115D01*
X36492459Y49155011D01*
X36056949Y48719501D01*
X36052786Y48715781D01*
X36028642Y48696527D01*
X36020280Y48689055D01*
X36000414Y48669189D01*
X35991685Y48662228D01*
X35967907Y48647288D01*
X35958759Y48640798D01*
X35936809Y48623294D01*
X35927356Y48617354D01*
X35902076Y48605180D01*
X35892259Y48599755D01*
X35868469Y48584807D01*
X35858419Y48579967D01*
X35831908Y48570690D01*
X35821548Y48566399D01*
X35796255Y48554219D01*
X35785719Y48550532D01*
X35758348Y48544285D01*
X35747570Y48541180D01*
X35721066Y48531906D01*
X35710180Y48529421D01*
X35682278Y48526277D01*
X35671224Y48524399D01*
X35643849Y48518151D01*
X35632762Y48516902D01*
X35604683Y48516902D01*
X35593487Y48516273D01*
X35562799Y48512815D01*
X35557186Y48512500D01*
X26842622Y48512500D01*
X26771911Y48483211D01*
X24467085Y46178385D01*
X24438923Y46122645D01*
X24449321Y46061067D01*
X24496756Y46016484D01*
X24533034Y46000157D01*
X24538613Y45997846D01*
X24585164Y45980191D01*
X24595799Y45974609D01*
X24599568Y45972008D01*
X24615333Y45963116D01*
X24619505Y45961238D01*
X24629780Y45955027D01*
X24668973Y45924322D01*
X24673837Y45920743D01*
X24687297Y45911452D01*
X24744104Y45893750D01*
X26349474Y45893750D01*
X26355510Y45893385D01*
X26363059Y45892468D01*
X26381161Y45891921D01*
X26385706Y45892196D01*
X26397701Y45891471D01*
X26446633Y45882504D01*
X26452604Y45881595D01*
X26502050Y45875591D01*
X26513710Y45872717D01*
X26517998Y45871091D01*
X26535439Y45866229D01*
X26539928Y45865407D01*
X26551399Y45861832D01*
X26596773Y45841411D01*
X26602353Y45839099D01*
X26648919Y45821439D01*
X26659546Y45815861D01*
X26663317Y45813258D01*
X26679085Y45804364D01*
X26683259Y45802485D01*
X26693531Y45796276D01*
X26732716Y45765577D01*
X26737580Y45761998D01*
X26778553Y45733716D01*
X26787543Y45725751D01*
X26790578Y45722326D01*
X26803754Y45709923D01*
X26809737Y45705236D01*
X26814253Y45701235D01*
X27114830Y45400658D01*
X27170570Y45372496D01*
X27232148Y45382894D01*
X27275549Y45427798D01*
X27280647Y45502271D01*
X27268942Y45538295D01*
X27266776Y45548485D01*
X27249298Y45714786D01*
X27249298Y45725214D01*
X27266776Y45891514D01*
X27268942Y45901704D01*
X27320616Y46060740D01*
X27324859Y46070269D01*
X27368726Y46146248D01*
X27381503Y46207377D01*
X27368727Y46246248D01*
X27324857Y46322233D01*
X27320616Y46331758D01*
X27268942Y46490795D01*
X27266776Y46500985D01*
X27249298Y46667286D01*
X27249298Y46677714D01*
X27266776Y46844014D01*
X27268942Y46854204D01*
X27320616Y47013241D01*
X27324857Y47022766D01*
X27408467Y47167582D01*
X27414589Y47176009D01*
X27526480Y47300277D01*
X27534231Y47307256D01*
X27669510Y47405541D01*
X27678539Y47410753D01*
X27831294Y47478765D01*
X27841212Y47481988D01*
X28004778Y47516754D01*
X28015138Y47517843D01*
X28182361Y47517843D01*
X28192721Y47516754D01*
X28356287Y47481988D01*
X28366205Y47478765D01*
X28518961Y47410753D01*
X28527990Y47405541D01*
X28616000Y47341598D01*
X28674778Y47322500D01*
X32223224Y47322500D01*
X32229260Y47322135D01*
X32236809Y47321218D01*
X32254911Y47320671D01*
X32259456Y47320946D01*
X32271451Y47320221D01*
X32320383Y47311254D01*
X32326354Y47310345D01*
X32375800Y47304341D01*
X32387460Y47301467D01*
X32391748Y47299841D01*
X32409189Y47294979D01*
X32413678Y47294157D01*
X32425149Y47290582D01*
X32470523Y47270161D01*
X32476103Y47267849D01*
X32522669Y47250189D01*
X32533296Y47244611D01*
X32537067Y47242008D01*
X32552835Y47233114D01*
X32557009Y47231235D01*
X32567281Y47225026D01*
X32606466Y47194327D01*
X32611330Y47190748D01*
X32652303Y47162466D01*
X32661293Y47154501D01*
X32664328Y47151076D01*
X32677504Y47138673D01*
X32683487Y47133986D01*
X32688003Y47129985D01*
X33894949Y45923039D01*
X33965660Y45893750D01*
X39684472Y45893750D01*
X39690498Y45893386D01*
X39698045Y45892469D01*
X39716141Y45891923D01*
X39720710Y45892200D01*
X39732691Y45891475D01*
X39781663Y45882500D01*
X39787636Y45881591D01*
X39837046Y45875592D01*
X39848716Y45872715D01*
X39852985Y45871096D01*
X39870422Y45866235D01*
X39874925Y45865410D01*
X39886398Y45861835D01*
X39931808Y45841398D01*
X39937388Y45839087D01*
X39983910Y45821443D01*
X39994549Y45815860D01*
X39998316Y45813260D01*
X40014073Y45804373D01*
X40018251Y45802492D01*
X40028532Y45796277D01*
X40067735Y45765563D01*
X40072601Y45761983D01*
X40113553Y45733716D01*
X40122538Y45725755D01*
X40125568Y45722335D01*
X40138752Y45709924D01*
X40144747Y45705227D01*
X40149253Y45701236D01*
X42326789Y43523700D01*
X42382529Y43495538D01*
X42444107Y43505936D01*
G37*
G36*
X51353801Y40525539D02*
X58108801Y47280539D01*
X58136963Y47336279D01*
X58126565Y47397857D01*
X58081661Y47441258D01*
X58038090Y47451250D01*
X55406778Y47451250D01*
X55400736Y47451615D01*
X55393193Y47452531D01*
X55375108Y47453078D01*
X55370538Y47452802D01*
X55358557Y47453527D01*
X55309612Y47462496D01*
X55303640Y47463405D01*
X55254199Y47469408D01*
X55242539Y47472282D01*
X55238251Y47473908D01*
X55220810Y47478770D01*
X55216321Y47479592D01*
X55204850Y47483167D01*
X55159476Y47503588D01*
X55153896Y47505900D01*
X55107330Y47523560D01*
X55096703Y47529138D01*
X55092932Y47531741D01*
X55077164Y47540635D01*
X55072992Y47542513D01*
X55062717Y47548724D01*
X55023528Y47579427D01*
X55018662Y47583007D01*
X54977697Y47611283D01*
X54968709Y47619246D01*
X54965673Y47622673D01*
X54952489Y47635083D01*
X54946513Y47639765D01*
X54941997Y47643765D01*
X53402551Y49183211D01*
X53331840Y49212500D01*
X48911013Y49212500D01*
X48906248Y49214066D01*
X48895000Y49236328D01*
X48895000Y53649340D01*
X48865711Y53720051D01*
X47846301Y54739461D01*
X47775590Y54768750D01*
X40973513Y54768750D01*
X40968748Y54770316D01*
X40957500Y54792578D01*
X40957500Y55121500D01*
X40938000Y55180827D01*
X40857500Y55221500D01*
X38565000Y55221500D01*
X38505673Y55202000D01*
X38465000Y55121500D01*
X38465000Y52852500D01*
X38484500Y52793173D01*
X38565000Y52752500D01*
X43041865Y52752500D01*
X43112576Y52781789D01*
X44058664Y53727877D01*
X44062284Y53731158D01*
X44208131Y53850852D01*
X44216263Y53856286D01*
X44380481Y53944062D01*
X44389519Y53947806D01*
X44567707Y54001859D01*
X44577302Y54003767D01*
X44765057Y54022259D01*
X44769950Y54022500D01*
X46193800Y54022500D01*
X46198693Y54022259D01*
X46386447Y54003767D01*
X46396042Y54001859D01*
X46574230Y53947806D01*
X46583268Y53944062D01*
X46747486Y53856286D01*
X46755618Y53850852D01*
X46899558Y53732723D01*
X46906473Y53725808D01*
X47024602Y53581868D01*
X47030036Y53573736D01*
X47117812Y53409518D01*
X47121556Y53400480D01*
X47175609Y53222292D01*
X47177517Y53212697D01*
X47195768Y53027394D01*
X47195768Y53017606D01*
X47177517Y52832302D01*
X47175609Y52822707D01*
X47121556Y52644519D01*
X47117812Y52635481D01*
X47030036Y52471263D01*
X47024602Y52463131D01*
X46906473Y52319191D01*
X46899558Y52312276D01*
X46755618Y52194147D01*
X46747486Y52188713D01*
X46583268Y52100937D01*
X46574230Y52097193D01*
X46396038Y52043139D01*
X46386456Y52041233D01*
X46198690Y52022740D01*
X46193793Y52022500D01*
X45223135Y52022500D01*
X45152424Y51993211D01*
X44526789Y51367576D01*
X44497500Y51296865D01*
X44497500Y41594950D01*
X44497259Y41590057D01*
X44478767Y41402302D01*
X44476859Y41392707D01*
X44422806Y41214519D01*
X44419062Y41205481D01*
X44331286Y41041263D01*
X44325852Y41033131D01*
X44207723Y40889191D01*
X44200808Y40882276D01*
X44056868Y40764147D01*
X44048736Y40758713D01*
X43916292Y40687920D01*
X43873162Y40642756D01*
X43865238Y40580810D01*
X43892721Y40529017D01*
X43896199Y40525539D01*
X43966910Y40496250D01*
X51283090Y40496250D01*
X51353801Y40525539D01*
G37*
G36*
X81833801Y43859289D02*
X83429343Y45454831D01*
X83458084Y45515090D01*
X83464276Y45574006D01*
X83466445Y45584211D01*
X83518116Y45743241D01*
X83522357Y45752766D01*
X83605967Y45897582D01*
X83612089Y45906009D01*
X83723980Y46030277D01*
X83731731Y46037256D01*
X83867014Y46135543D01*
X83876034Y46140751D01*
X83889321Y46146667D01*
X83935588Y46188612D01*
X83947949Y46249826D01*
X83927366Y46299695D01*
X83902471Y46331471D01*
X83896261Y46341744D01*
X83894383Y46345916D01*
X83885491Y46361681D01*
X83882890Y46365450D01*
X83877308Y46376085D01*
X83859653Y46422636D01*
X83857342Y46428216D01*
X83836912Y46473611D01*
X83833342Y46485065D01*
X83832515Y46489578D01*
X83827655Y46507009D01*
X83826031Y46511291D01*
X83823158Y46522948D01*
X83817158Y46572371D01*
X83816249Y46578345D01*
X83807275Y46627309D01*
X83806551Y46639290D01*
X83806827Y46643858D01*
X83806281Y46661955D01*
X83805364Y46669502D01*
X83805000Y46675528D01*
X83805000Y49032538D01*
X83785500Y49091865D01*
X83734605Y49128055D01*
X83672164Y49126993D01*
X83634289Y49103249D01*
X83576569Y49045529D01*
X83569908Y49039940D01*
X83398576Y48919972D01*
X83391045Y48915624D01*
X83201480Y48827228D01*
X83193311Y48824255D01*
X82991277Y48770120D01*
X82982705Y48768609D01*
X82774355Y48750381D01*
X82765645Y48750381D01*
X82557294Y48768609D01*
X82548722Y48770120D01*
X82346688Y48824255D01*
X82338519Y48827228D01*
X82148954Y48915624D01*
X82141422Y48919973D01*
X81970091Y49039940D01*
X81963432Y49045527D01*
X81825748Y49183211D01*
X81755037Y49212500D01*
X55453160Y49212500D01*
X55393833Y49193000D01*
X55357643Y49142105D01*
X55358705Y49079664D01*
X55382449Y49041789D01*
X55643699Y48780539D01*
X55714410Y48751250D01*
X77943221Y48751250D01*
X77949254Y48750885D01*
X77956807Y48749968D01*
X77974896Y48749421D01*
X77979464Y48749697D01*
X77991440Y48748972D01*
X78040375Y48740005D01*
X78046346Y48739096D01*
X78095802Y48733091D01*
X78107463Y48730217D01*
X78111750Y48728591D01*
X78129176Y48723733D01*
X78133677Y48722908D01*
X78145138Y48719336D01*
X78190519Y48698912D01*
X78196099Y48696600D01*
X78242667Y48678939D01*
X78253302Y48673358D01*
X78257072Y48670755D01*
X78272840Y48661861D01*
X78277005Y48659986D01*
X78287283Y48653774D01*
X78326465Y48623077D01*
X78331330Y48619498D01*
X78372295Y48591222D01*
X78381295Y48583249D01*
X78384321Y48579833D01*
X78397495Y48567431D01*
X78403497Y48562728D01*
X78407999Y48558740D01*
X79356236Y47610503D01*
X79360231Y47605993D01*
X79364923Y47600004D01*
X79377331Y47586823D01*
X79380752Y47583792D01*
X79388713Y47574806D01*
X79416992Y47533838D01*
X79420571Y47528975D01*
X79451278Y47489780D01*
X79457491Y47479502D01*
X79459371Y47475326D01*
X79468258Y47459568D01*
X79470860Y47455798D01*
X79476441Y47445164D01*
X79494093Y47398618D01*
X79496405Y47393036D01*
X79516837Y47347640D01*
X79520408Y47336179D01*
X79521233Y47331678D01*
X79526093Y47314242D01*
X79527720Y47309952D01*
X79530590Y47298306D01*
X79536593Y47248871D01*
X79537502Y47242900D01*
X79546473Y47193943D01*
X79547198Y47181962D01*
X79546922Y47177391D01*
X79547469Y47159305D01*
X79548385Y47151762D01*
X79548750Y47145722D01*
X79548750Y46299833D01*
X79574435Y46232920D01*
X79582911Y46223507D01*
X79589033Y46215081D01*
X79672642Y46070266D01*
X79676883Y46060741D01*
X79728557Y45901704D01*
X79730723Y45891514D01*
X79748202Y45725214D01*
X79748202Y45714786D01*
X79730723Y45548485D01*
X79728557Y45538295D01*
X79676883Y45379258D01*
X79672642Y45369733D01*
X79589032Y45224917D01*
X79582906Y45216485D01*
X79524765Y45151913D01*
X79499558Y45094776D01*
X79524764Y45018087D01*
X79582910Y44953509D01*
X79589032Y44945082D01*
X79672642Y44800266D01*
X79676883Y44790741D01*
X79728557Y44631704D01*
X79730723Y44621514D01*
X79748202Y44455214D01*
X79748202Y44444786D01*
X79730723Y44278485D01*
X79728557Y44268295D01*
X79676883Y44109258D01*
X79672642Y44099733D01*
X79603514Y43980000D01*
X79590738Y43918871D01*
X79616720Y43862082D01*
X79690117Y43830000D01*
X81763090Y43830000D01*
X81833801Y43859289D01*
G37*
G36*
X21311774Y43344762D02*
X21604502Y43637490D01*
X21609000Y43641475D01*
X21614992Y43646169D01*
X21628177Y43658581D01*
X21631211Y43662006D01*
X21640194Y43669964D01*
X21681171Y43698248D01*
X21686038Y43701829D01*
X21725222Y43732528D01*
X21735496Y43738739D01*
X21739666Y43740616D01*
X21755431Y43749508D01*
X21759200Y43752109D01*
X21769835Y43757691D01*
X21816386Y43775346D01*
X21821966Y43777657D01*
X21867361Y43798087D01*
X21878815Y43801657D01*
X21883328Y43802484D01*
X21900759Y43807344D01*
X21905038Y43808967D01*
X21916699Y43811841D01*
X21966140Y43817845D01*
X21972109Y43818754D01*
X22021057Y43827723D01*
X22033039Y43828448D01*
X22037609Y43828172D01*
X22055695Y43828719D01*
X22063238Y43829635D01*
X22069278Y43830000D01*
X23491972Y43830000D01*
X23498002Y43829635D01*
X23505556Y43828718D01*
X23523650Y43828172D01*
X23528201Y43828447D01*
X23540200Y43827722D01*
X23589140Y43818754D01*
X23595109Y43817845D01*
X23644550Y43811841D01*
X23656211Y43808967D01*
X23660490Y43807344D01*
X23677921Y43802484D01*
X23682434Y43801657D01*
X23693888Y43798087D01*
X23739283Y43777657D01*
X23744863Y43775346D01*
X23791414Y43757691D01*
X23802049Y43752109D01*
X23805818Y43749508D01*
X23821583Y43740616D01*
X23825755Y43738738D01*
X23836030Y43732527D01*
X23875219Y43701825D01*
X23880083Y43698246D01*
X23921052Y43669966D01*
X23930039Y43662004D01*
X23933072Y43658581D01*
X23946252Y43646174D01*
X23952241Y43641482D01*
X23956752Y43637486D01*
X24052449Y43541789D01*
X24123160Y43512500D01*
X25970590Y43512500D01*
X26029917Y43532000D01*
X26066107Y43582895D01*
X26065045Y43645336D01*
X26041301Y43683211D01*
X25795051Y43929461D01*
X25724340Y43958750D01*
X24133028Y43958750D01*
X24127002Y43959114D01*
X24119455Y43960031D01*
X24101358Y43960577D01*
X24096790Y43960301D01*
X24084809Y43961025D01*
X24035845Y43969999D01*
X24029871Y43970908D01*
X23980448Y43976908D01*
X23968791Y43979781D01*
X23964509Y43981405D01*
X23947078Y43986265D01*
X23942565Y43987092D01*
X23931111Y43990662D01*
X23885716Y44011092D01*
X23880136Y44013403D01*
X23833585Y44031058D01*
X23822950Y44036640D01*
X23819181Y44039241D01*
X23803416Y44048133D01*
X23799244Y44050011D01*
X23788971Y44056221D01*
X23749783Y44086923D01*
X23744917Y44090503D01*
X23731451Y44099798D01*
X23674644Y44117500D01*
X21479385Y44117500D01*
X21420058Y44098000D01*
X21392782Y44067500D01*
X21327782Y43954917D01*
X21321660Y43946490D01*
X21209769Y43822222D01*
X21202018Y43815243D01*
X21071265Y43720246D01*
X21034729Y43669598D01*
X21035366Y43607151D01*
X21051859Y43576996D01*
X21067955Y43556812D01*
X21073889Y43547367D01*
X21086072Y43522070D01*
X21091496Y43512256D01*
X21106444Y43488466D01*
X21111281Y43478422D01*
X21120558Y43451910D01*
X21124849Y43441551D01*
X21137029Y43416258D01*
X21140717Y43405721D01*
X21143570Y43393220D01*
X21175783Y43339720D01*
X21233455Y43315763D01*
X21311774Y43344762D01*
G37*
G36*
X23267421Y40831787D02*
X23290675Y40861468D01*
X23294255Y40866334D01*
X23322533Y40907302D01*
X23330493Y40916287D01*
X23333923Y40919326D01*
X23346325Y40932501D01*
X23351024Y40938498D01*
X23355011Y40942999D01*
X23668252Y41256240D01*
X23672750Y41260225D01*
X23678742Y41264919D01*
X23691927Y41277331D01*
X23694961Y41280756D01*
X23703944Y41288714D01*
X23744921Y41316998D01*
X23749788Y41320579D01*
X23788972Y41351278D01*
X23799246Y41357489D01*
X23803416Y41359366D01*
X23819181Y41368258D01*
X23822950Y41370859D01*
X23833585Y41376441D01*
X23880136Y41394096D01*
X23885716Y41396407D01*
X23931111Y41416837D01*
X23942565Y41420407D01*
X23947078Y41421234D01*
X23964509Y41426094D01*
X23968788Y41427717D01*
X23980449Y41430591D01*
X24029890Y41436595D01*
X24035859Y41437504D01*
X24084807Y41446473D01*
X24096789Y41447198D01*
X24101359Y41446922D01*
X24119445Y41447469D01*
X24126988Y41448385D01*
X24133028Y41448750D01*
X25034364Y41448750D01*
X25093691Y41468250D01*
X25120966Y41498750D01*
X25185962Y41611325D01*
X25192089Y41619759D01*
X25303980Y41744027D01*
X25311731Y41751006D01*
X25447010Y41849291D01*
X25456039Y41854503D01*
X25608794Y41922515D01*
X25618712Y41925738D01*
X25782278Y41960504D01*
X25792638Y41961593D01*
X25959861Y41961593D01*
X25970221Y41960504D01*
X26133787Y41925738D01*
X26143705Y41922515D01*
X26296461Y41854503D01*
X26305490Y41849291D01*
X26393500Y41785348D01*
X26452278Y41766250D01*
X30486840Y41766250D01*
X30557551Y41795539D01*
X30601302Y41839290D01*
X30629464Y41895030D01*
X30601301Y41980712D01*
X30557551Y42024461D01*
X30486841Y42053750D01*
X26831778Y42053750D01*
X26825752Y42054114D01*
X26818205Y42055031D01*
X26800108Y42055577D01*
X26795540Y42055301D01*
X26783559Y42056025D01*
X26734595Y42064999D01*
X26728621Y42065908D01*
X26679198Y42071908D01*
X26667541Y42074781D01*
X26663259Y42076405D01*
X26645828Y42081265D01*
X26641315Y42082092D01*
X26629861Y42085662D01*
X26584466Y42106092D01*
X26578886Y42108403D01*
X26532335Y42126058D01*
X26521700Y42131640D01*
X26517931Y42134241D01*
X26502166Y42143133D01*
X26497994Y42145011D01*
X26487721Y42151221D01*
X26448533Y42181923D01*
X26443667Y42185503D01*
X26430201Y42194798D01*
X26373394Y42212500D01*
X23815528Y42212500D01*
X23809502Y42212864D01*
X23801955Y42213781D01*
X23783858Y42214327D01*
X23779290Y42214051D01*
X23767309Y42214775D01*
X23718345Y42223749D01*
X23712371Y42224658D01*
X23662948Y42230658D01*
X23651291Y42233531D01*
X23647009Y42235155D01*
X23629578Y42240015D01*
X23625065Y42240842D01*
X23613611Y42244412D01*
X23568216Y42264842D01*
X23562636Y42267153D01*
X23516085Y42284808D01*
X23505450Y42290390D01*
X23501681Y42292991D01*
X23485916Y42301883D01*
X23481744Y42303761D01*
X23471471Y42309971D01*
X23432283Y42340673D01*
X23427417Y42344253D01*
X23386451Y42372530D01*
X23377454Y42380500D01*
X23374416Y42383929D01*
X23361246Y42396327D01*
X23355250Y42401025D01*
X23350752Y42405010D01*
X23255051Y42500711D01*
X23184340Y42530000D01*
X22376910Y42530000D01*
X22306199Y42500711D01*
X22139407Y42333919D01*
X22110666Y42273661D01*
X22104473Y42214735D01*
X22102307Y42204545D01*
X22050633Y42045508D01*
X22046389Y42035976D01*
X21998331Y41952738D01*
X21985554Y41891609D01*
X22022585Y41824554D01*
X22030411Y41818313D01*
X22050267Y41798457D01*
X22058629Y41790985D01*
X22082788Y41771719D01*
X22086951Y41767999D01*
X22998713Y40856237D01*
X23048634Y40829133D01*
X23117541Y40814487D01*
X23127450Y40811268D01*
X23148030Y40802105D01*
X23210160Y40795789D01*
X23267421Y40831787D01*
G37*
G36*
X9008077Y16212000D02*
X9048750Y16292500D01*
X9048750Y25141250D01*
X9029250Y25200577D01*
X8948750Y25241250D01*
X6450000Y25241250D01*
X6390673Y25221750D01*
X6350000Y25141250D01*
X6350000Y20974891D01*
X6335936Y20940936D01*
X4950539Y19555539D01*
X4921250Y19484828D01*
X4921250Y16292500D01*
X4940750Y16233173D01*
X5021250Y16192500D01*
X8948750Y16192500D01*
X9008077Y16212000D01*
G37*
G36*
X73143077Y51930750D02*
X73183750Y52011250D01*
X73183750Y58161250D01*
X73164250Y58220577D01*
X73083750Y58261250D01*
X62488750Y58261250D01*
X62429423Y58241750D01*
X62388750Y58161250D01*
X62388750Y52011250D01*
X62408250Y51951923D01*
X62488750Y51911250D01*
X73083750Y51911250D01*
X73143077Y51930750D01*
G37*
G36*
X61395577Y54629500D02*
X61436250Y54710000D01*
X61436250Y59828859D01*
X61450314Y59862814D01*
X62215936Y60628436D01*
X62249891Y60642500D01*
X65998578Y60642500D01*
X66069289Y60671789D01*
X68709461Y63311961D01*
X68738750Y63382672D01*
X68738750Y72211359D01*
X68752814Y72245314D01*
X71090711Y74583211D01*
X71120000Y74653922D01*
X71120000Y81556078D01*
X71090711Y81626789D01*
X69561789Y83155711D01*
X69491078Y83185000D01*
X38119891Y83185000D01*
X38085936Y83199064D01*
X35891564Y85393436D01*
X35877500Y85427391D01*
X35877500Y91657500D01*
X35858000Y91716827D01*
X35777500Y91757500D01*
X28298922Y91757500D01*
X28228211Y91728211D01*
X27016789Y90516789D01*
X26987500Y90446078D01*
X26987500Y81003922D01*
X27016789Y80933211D01*
X31403211Y76546789D01*
X31473922Y76517500D01*
X58876359Y76517500D01*
X58910314Y76503436D01*
X59834686Y75579064D01*
X59848750Y75545109D01*
X59848750Y54710000D01*
X59868250Y54650673D01*
X59948750Y54610000D01*
X61336250Y54610000D01*
X61395577Y54629500D01*
G37*
G36*
X16151827Y5734500D02*
X16192500Y5815000D01*
X16192500Y13870000D01*
X16173000Y13929327D01*
X16092500Y13970000D01*
X5021250Y13970000D01*
X4961923Y13950500D01*
X4921250Y13870000D01*
X4921250Y11212500D01*
X4940750Y11153173D01*
X5021250Y11112500D01*
X9822609Y11112500D01*
X9856564Y11098436D01*
X13003436Y7951564D01*
X13017500Y7917609D01*
X13017500Y5815000D01*
X13037000Y5755673D01*
X13117500Y5715000D01*
X16092500Y5715000D01*
X16151827Y5734500D01*
G37*
G36*
X70126827Y16529500D02*
X70167500Y16610000D01*
X70167500Y39587500D01*
X70148000Y39646827D01*
X70067500Y39687500D01*
X62965000Y39687500D01*
X62905673Y39668000D01*
X62865000Y39587500D01*
X62865000Y28277391D01*
X62850936Y28243436D01*
X59704064Y25096564D01*
X59670109Y25082500D01*
X38141422Y25082500D01*
X38070711Y25053211D01*
X34621564Y21604064D01*
X34587609Y21590000D01*
X29945000Y21590000D01*
X29885673Y21570500D01*
X29845000Y21490000D01*
X29845000Y18773922D01*
X29874289Y18703211D01*
X32038211Y16539289D01*
X32108922Y16510000D01*
X70067500Y16510000D01*
X70126827Y16529500D01*
G37*
G36*
X32979327Y22244500D02*
X33020000Y22325000D01*
X33020000Y24030000D01*
X33000500Y24089327D01*
X32920000Y24130000D01*
X27483641Y24130000D01*
X27449686Y24144064D01*
X24159289Y27434461D01*
X24088578Y27463750D01*
X22721141Y27463750D01*
X22687186Y27477814D01*
X22095539Y28069461D01*
X22024828Y28098750D01*
X18434891Y28098750D01*
X18400936Y28112814D01*
X16063039Y30450711D01*
X15992328Y30480000D01*
X13376422Y30480000D01*
X13305711Y30450711D01*
X13046789Y30191789D01*
X13017500Y30121078D01*
X13017500Y22325000D01*
X13037000Y22265673D01*
X13117500Y22225000D01*
X32920000Y22225000D01*
X32979327Y22244500D01*
G37*
G36*
X81779639Y49073250D02*
X81815829Y49124145D01*
X81802227Y49211108D01*
X81689970Y49371428D01*
X81685624Y49378954D01*
X81597228Y49568519D01*
X81594255Y49576688D01*
X81540120Y49778722D01*
X81538609Y49787294D01*
X81520381Y49995645D01*
X81520381Y50004355D01*
X81538609Y50212705D01*
X81540120Y50221277D01*
X81594255Y50423311D01*
X81597228Y50431480D01*
X81685624Y50621045D01*
X81689972Y50628576D01*
X81809940Y50799908D01*
X81815529Y50806569D01*
X81963432Y50954472D01*
X81970091Y50960059D01*
X82141422Y51080026D01*
X82148954Y51084375D01*
X82338519Y51172771D01*
X82346688Y51175744D01*
X82548720Y51229879D01*
X82557295Y51231390D01*
X82765645Y51249619D01*
X82765645Y51249619D01*
X82765645Y58750381D01*
X82557294Y58768609D01*
X82548722Y58770120D01*
X82346688Y58824255D01*
X82338519Y58827228D01*
X82148954Y58915624D01*
X82141422Y58919973D01*
X81970091Y59039940D01*
X81963432Y59045527D01*
X81815527Y59193432D01*
X81809940Y59200091D01*
X81689973Y59371422D01*
X81685624Y59378954D01*
X81597228Y59568519D01*
X81594255Y59576688D01*
X81540120Y59778722D01*
X81538609Y59787294D01*
X81520381Y59995645D01*
X81520381Y60004355D01*
X81538609Y60212705D01*
X81540120Y60221277D01*
X81594255Y60423311D01*
X81597228Y60431480D01*
X81685624Y60621045D01*
X81689972Y60628576D01*
X81809940Y60799908D01*
X81815529Y60806569D01*
X81963432Y60954472D01*
X81970091Y60960059D01*
X82141422Y61080026D01*
X82148954Y61084375D01*
X82338519Y61172771D01*
X82346688Y61175744D01*
X82548720Y61229879D01*
X82557295Y61231390D01*
X82765645Y61249619D01*
X82774355Y61249619D01*
X82982704Y61231390D01*
X82991279Y61229879D01*
X83193311Y61175744D01*
X83201480Y61172771D01*
X83391045Y61084375D01*
X83398576Y61080027D01*
X83569908Y60960059D01*
X83576569Y60954470D01*
X83724470Y60806569D01*
X83730059Y60799908D01*
X83850027Y60628576D01*
X83854375Y60621045D01*
X83942771Y60431480D01*
X83945744Y60423311D01*
X83999879Y60221279D01*
X84001390Y60212704D01*
X84019619Y60004355D01*
X84019619Y59995645D01*
X84001390Y59787295D01*
X83999879Y59778720D01*
X83945744Y59576688D01*
X83942771Y59568519D01*
X83854375Y59378954D01*
X83850026Y59371422D01*
X83730059Y59200091D01*
X83724472Y59193432D01*
X83576569Y59045529D01*
X83569908Y59039940D01*
X83398576Y58919972D01*
X83391045Y58915624D01*
X83201480Y58827228D01*
X83193311Y58824255D01*
X82991277Y58770120D01*
X82982705Y58768609D01*
X82774355Y58750381D01*
X82765645Y58750381D01*
X82765645Y51249619D01*
X82774355Y51249619D01*
X82982704Y51231390D01*
X82991279Y51229879D01*
X83193311Y51175744D01*
X83201480Y51172771D01*
X83391045Y51084375D01*
X83398576Y51080027D01*
X83569908Y50960059D01*
X83576569Y50954470D01*
X83634289Y50896750D01*
X83690029Y50868588D01*
X83751607Y50878986D01*
X83795008Y50923890D01*
X83805000Y50967461D01*
X83805000Y55559472D01*
X83805364Y55565498D01*
X83806281Y55573045D01*
X83806827Y55591141D01*
X83806550Y55595710D01*
X83807275Y55607691D01*
X83816247Y55656647D01*
X83817156Y55662620D01*
X83823158Y55712051D01*
X83826030Y55723705D01*
X83827656Y55727991D01*
X83832517Y55745430D01*
X83833341Y55749927D01*
X83836916Y55761399D01*
X83857340Y55806778D01*
X83859653Y55812361D01*
X83877307Y55858913D01*
X83882888Y55869546D01*
X83885491Y55873317D01*
X83894378Y55889075D01*
X83896257Y55893249D01*
X83902472Y55903530D01*
X83933174Y55942717D01*
X83936755Y55947584D01*
X83965035Y55988555D01*
X83972998Y55997543D01*
X83976423Y56000578D01*
X83988826Y56013754D01*
X83993513Y56019737D01*
X83997514Y56024253D01*
X84852908Y56879647D01*
X84881070Y56935387D01*
X84879137Y56974906D01*
X84870111Y57010548D01*
X84868752Y57018698D01*
X84850342Y57240873D01*
X84850342Y57249127D01*
X84868752Y57471310D01*
X84870109Y57479440D01*
X84924838Y57695564D01*
X84927519Y57703372D01*
X85017074Y57907538D01*
X85021000Y57914791D01*
X85142937Y58101429D01*
X85148005Y58107941D01*
X85299001Y58271968D01*
X85305074Y58277558D01*
X85360103Y58320388D01*
X85360103Y67904895D01*
X85353312Y67905359D01*
X85076118Y67943459D01*
X85069459Y67944843D01*
X84800043Y68020330D01*
X84793614Y68022615D01*
X84537001Y68134078D01*
X84530940Y68137218D01*
X84291894Y68282585D01*
X84286318Y68286521D01*
X84069288Y68463088D01*
X84064306Y68467741D01*
X83873339Y68672217D01*
X83869035Y68677508D01*
X83707687Y68906086D01*
X83704152Y68911898D01*
X83575422Y69160334D01*
X83572714Y69166570D01*
X83479019Y69430201D01*
X83477176Y69436780D01*
X83420255Y69710700D01*
X83419326Y69717459D01*
X83400233Y69996594D01*
X83400233Y70003406D01*
X83419326Y70282540D01*
X83420255Y70289299D01*
X83477176Y70563219D01*
X83479019Y70569798D01*
X83572714Y70833429D01*
X83575422Y70839665D01*
X83704152Y71088101D01*
X83707687Y71093913D01*
X83869035Y71322491D01*
X83873339Y71327782D01*
X84064306Y71532258D01*
X84069288Y71536911D01*
X84286318Y71713478D01*
X84291894Y71717414D01*
X84530940Y71862781D01*
X84537001Y71865921D01*
X84793614Y71977384D01*
X84800043Y71979669D01*
X85069459Y72055156D01*
X85076118Y72056540D01*
X85353312Y72094640D01*
X85360103Y72095104D01*
X85639896Y72095104D01*
X85646687Y72094640D01*
X85923881Y72056540D01*
X85930540Y72055156D01*
X86199956Y71979669D01*
X86206385Y71977384D01*
X86462998Y71865921D01*
X86469059Y71862781D01*
X86708105Y71717414D01*
X86713681Y71713478D01*
X86930711Y71536911D01*
X86935693Y71532258D01*
X87126660Y71327782D01*
X87130964Y71322491D01*
X87292312Y71093913D01*
X87295847Y71088101D01*
X87424577Y70839665D01*
X87427285Y70833429D01*
X87520980Y70569798D01*
X87522823Y70563219D01*
X87579744Y70289299D01*
X87580673Y70282540D01*
X87599767Y70003406D01*
X87599767Y69996594D01*
X87580673Y69717459D01*
X87579744Y69710700D01*
X87522823Y69436780D01*
X87520980Y69430201D01*
X87427285Y69166570D01*
X87424577Y69160334D01*
X87295847Y68911898D01*
X87292312Y68906086D01*
X87130964Y68677508D01*
X87126660Y68672217D01*
X86935693Y68467741D01*
X86930711Y68463088D01*
X86713681Y68286521D01*
X86708105Y68282585D01*
X86469059Y68137218D01*
X86462998Y68134078D01*
X86206385Y68022615D01*
X86199956Y68020330D01*
X85930540Y67944843D01*
X85923881Y67943459D01*
X85646687Y67905359D01*
X85639896Y67904895D01*
X85360103Y67904895D01*
X85360103Y58320388D01*
X85481003Y58414488D01*
X85487916Y58419005D01*
X85683990Y58525114D01*
X85691534Y58528423D01*
X85902415Y58600819D01*
X85910394Y58602840D01*
X86130313Y58639538D01*
X86138519Y58640218D01*
X86361480Y58640218D01*
X86369686Y58639538D01*
X86589605Y58602840D01*
X86597584Y58600819D01*
X86808465Y58528423D01*
X86816009Y58525114D01*
X87012083Y58419005D01*
X87018996Y58414488D01*
X87194925Y58277558D01*
X87200998Y58271968D01*
X87351994Y58107941D01*
X87357055Y58101437D01*
X87453972Y57953096D01*
X87502746Y57914095D01*
X87538679Y57907796D01*
X91488862Y57946922D01*
X91547994Y57967009D01*
X91571588Y57992222D01*
X91642937Y58101429D01*
X91648005Y58107941D01*
X91799001Y58271968D01*
X91805074Y58277558D01*
X91981003Y58414488D01*
X91987916Y58419005D01*
X92183990Y58525114D01*
X92191534Y58528423D01*
X92402415Y58600819D01*
X92410394Y58602840D01*
X92630313Y58639538D01*
X92638519Y58640218D01*
X92861480Y58640218D01*
X92869686Y58639538D01*
X93089605Y58602840D01*
X93097584Y58600819D01*
X93308465Y58528423D01*
X93316009Y58525114D01*
X93512083Y58419005D01*
X93518996Y58414488D01*
X93694925Y58277558D01*
X93700998Y58271968D01*
X93851994Y58107941D01*
X93857062Y58101429D01*
X93978999Y57914791D01*
X93982925Y57907538D01*
X94072480Y57703372D01*
X94075161Y57695564D01*
X94129890Y57479440D01*
X94131247Y57471310D01*
X94149658Y57249127D01*
X94149658Y57240873D01*
X94131247Y57018689D01*
X94129890Y57010559D01*
X94075161Y56794435D01*
X94072480Y56786627D01*
X93982925Y56582461D01*
X93978999Y56575208D01*
X93857062Y56388570D01*
X93851994Y56382058D01*
X93700998Y56218031D01*
X93694925Y56212441D01*
X93518996Y56075511D01*
X93512083Y56070994D01*
X93316009Y55964885D01*
X93308465Y55961576D01*
X93097584Y55889180D01*
X93089605Y55887159D01*
X92869686Y55850461D01*
X92861480Y55849781D01*
X92638519Y55849781D01*
X92630313Y55850461D01*
X92410394Y55887159D01*
X92402415Y55889180D01*
X92191534Y55961576D01*
X92183990Y55964885D01*
X91987916Y56070994D01*
X91981003Y56075511D01*
X91805074Y56212441D01*
X91799001Y56218031D01*
X91648005Y56382058D01*
X91642937Y56388570D01*
X91521000Y56575208D01*
X91517075Y56582459D01*
X91515357Y56586377D01*
X91473669Y56632875D01*
X91422789Y56646204D01*
X87553474Y56607879D01*
X87494342Y56587792D01*
X87470747Y56562579D01*
X87357055Y56388562D01*
X87351994Y56382058D01*
X87200998Y56218031D01*
X87194925Y56212441D01*
X87018996Y56075511D01*
X87012083Y56070994D01*
X86816009Y55964885D01*
X86808465Y55961576D01*
X86597584Y55889180D01*
X86589605Y55887159D01*
X86369686Y55850461D01*
X86361480Y55849781D01*
X86138519Y55849781D01*
X86130313Y55850461D01*
X85910394Y55887159D01*
X85902415Y55889180D01*
X85811455Y55920406D01*
X85749010Y55921226D01*
X85708274Y55896535D01*
X85134289Y55322550D01*
X85105000Y55251839D01*
X85105000Y53827504D01*
X85124500Y53768177D01*
X85175395Y53731987D01*
X85237836Y53733049D01*
X85278573Y53759776D01*
X85299002Y53781968D01*
X85305074Y53787558D01*
X85481003Y53924488D01*
X85487916Y53929005D01*
X85683990Y54035114D01*
X85691534Y54038423D01*
X85902415Y54110819D01*
X85910394Y54112840D01*
X86130313Y54149538D01*
X86138519Y54150218D01*
X86361480Y54150218D01*
X86369686Y54149538D01*
X86589605Y54112840D01*
X86597584Y54110819D01*
X86808465Y54038423D01*
X86816009Y54035114D01*
X87012083Y53929005D01*
X87018996Y53924488D01*
X87194925Y53787558D01*
X87200998Y53781968D01*
X87351994Y53617941D01*
X87357062Y53611429D01*
X87478999Y53424791D01*
X87482925Y53417538D01*
X87572480Y53213372D01*
X87575161Y53205564D01*
X87629890Y52989440D01*
X87631247Y52981310D01*
X87649658Y52759127D01*
X87649658Y52750873D01*
X87631247Y52528689D01*
X87629890Y52520559D01*
X87575161Y52304435D01*
X87572480Y52296627D01*
X87482925Y52092461D01*
X87478999Y52085208D01*
X87357062Y51898570D01*
X87351994Y51892058D01*
X87200998Y51728031D01*
X87194925Y51722441D01*
X87018996Y51585511D01*
X87012083Y51580994D01*
X86952405Y51548698D01*
X86909509Y51503312D01*
X86900000Y51460751D01*
X86900000Y49153750D01*
X86919500Y49094423D01*
X87000000Y49053750D01*
X92000000Y49053750D01*
X92059327Y49073250D01*
X92100000Y49153750D01*
X92100000Y51460750D01*
X92080500Y51520077D01*
X92047595Y51548697D01*
X91987914Y51580994D01*
X91981006Y51585508D01*
X91805074Y51722441D01*
X91799001Y51728031D01*
X91648005Y51892058D01*
X91642937Y51898570D01*
X91521000Y52085208D01*
X91517074Y52092461D01*
X91427519Y52296627D01*
X91424838Y52304435D01*
X91370109Y52520559D01*
X91368752Y52528689D01*
X91350342Y52750873D01*
X91350342Y52759127D01*
X91368752Y52981310D01*
X91370109Y52989440D01*
X91424838Y53205564D01*
X91427519Y53213372D01*
X91517074Y53417538D01*
X91521000Y53424791D01*
X91642937Y53611429D01*
X91648005Y53617941D01*
X91799001Y53781968D01*
X91805074Y53787558D01*
X91981003Y53924488D01*
X91987916Y53929005D01*
X92183990Y54035114D01*
X92191534Y54038423D01*
X92402415Y54110819D01*
X92410394Y54112840D01*
X92630313Y54149538D01*
X92638519Y54150218D01*
X92861480Y54150218D01*
X92869686Y54149538D01*
X93089605Y54112840D01*
X93097584Y54110819D01*
X93308465Y54038423D01*
X93316009Y54035114D01*
X93512083Y53929005D01*
X93518996Y53924488D01*
X93694925Y53787558D01*
X93700998Y53781968D01*
X93851994Y53617941D01*
X93857062Y53611429D01*
X93978999Y53424791D01*
X93982925Y53417538D01*
X94072480Y53213372D01*
X94075161Y53205564D01*
X94129890Y52989440D01*
X94131247Y52981310D01*
X94149658Y52759127D01*
X94149658Y52750873D01*
X94131247Y52528689D01*
X94129890Y52520559D01*
X94075161Y52304435D01*
X94072480Y52296627D01*
X93982925Y52092461D01*
X93978999Y52085208D01*
X93857062Y51898570D01*
X93851994Y51892058D01*
X93700998Y51728031D01*
X93694925Y51722441D01*
X93518996Y51585511D01*
X93512083Y51580994D01*
X93452405Y51548698D01*
X93409509Y51503312D01*
X93400000Y51460751D01*
X93400000Y49153750D01*
X93419500Y49094423D01*
X93500000Y49053750D01*
X107491945Y49053750D01*
X107491945Y62524000D01*
X107487558Y62524192D01*
X107269491Y62543270D01*
X107260918Y62544781D01*
X107051560Y62600878D01*
X107043391Y62603851D01*
X106846954Y62695452D01*
X106839422Y62699801D01*
X106661880Y62824117D01*
X106655221Y62829704D01*
X106501954Y62982971D01*
X106496367Y62989630D01*
X106372051Y63167172D01*
X106367702Y63174704D01*
X106276101Y63371141D01*
X106273128Y63379310D01*
X106217031Y63588668D01*
X106215520Y63597241D01*
X106196631Y63813145D01*
X106196631Y63821855D01*
X106215520Y64037757D01*
X106217031Y64046332D01*
X106273128Y64255689D01*
X106276101Y64263858D01*
X106367702Y64460295D01*
X106372050Y64467826D01*
X106496367Y64645369D01*
X106501956Y64652030D01*
X106655221Y64805295D01*
X106661880Y64810882D01*
X106839422Y64935198D01*
X106846954Y64939547D01*
X106969880Y64996869D01*
X107015408Y65039616D01*
X107026698Y65101037D01*
X106999346Y65157178D01*
X106969880Y65178131D01*
X106846954Y65235452D01*
X106839422Y65239801D01*
X106661880Y65364117D01*
X106655221Y65369704D01*
X106501954Y65522971D01*
X106496367Y65529630D01*
X106372051Y65707172D01*
X106367702Y65714704D01*
X106276101Y65911141D01*
X106273128Y65919310D01*
X106217031Y66128668D01*
X106215520Y66137241D01*
X106196631Y66353145D01*
X106196631Y66361855D01*
X106215520Y66577757D01*
X106217031Y66586332D01*
X106273128Y66795689D01*
X106276101Y66803858D01*
X106367702Y67000295D01*
X106372050Y67007826D01*
X106496367Y67185369D01*
X106501956Y67192030D01*
X106655221Y67345295D01*
X106661880Y67350882D01*
X106763569Y67422085D01*
X106800983Y67472087D01*
X106801436Y67534535D01*
X106764751Y67585075D01*
X106706212Y67604000D01*
X106212263Y67604000D01*
X106207498Y67605566D01*
X106196250Y67627828D01*
X106196250Y70174987D01*
X106197816Y70179752D01*
X106220078Y70191000D01*
X109370237Y70191000D01*
X109375002Y70189434D01*
X109386250Y70167172D01*
X109386250Y67620013D01*
X109384684Y67615248D01*
X109362422Y67604000D01*
X108876289Y67604000D01*
X108816962Y67584500D01*
X108780772Y67533605D01*
X108781834Y67471164D01*
X108818931Y67422085D01*
X108920619Y67350882D01*
X108927280Y67345293D01*
X109080543Y67192030D01*
X109086132Y67185369D01*
X109210449Y67007826D01*
X109214797Y67000295D01*
X109306398Y66803858D01*
X109309371Y66795689D01*
X109365468Y66586332D01*
X109366979Y66577757D01*
X109385869Y66361855D01*
X109385869Y66353145D01*
X109366979Y66137242D01*
X109365468Y66128667D01*
X109309371Y65919310D01*
X109306398Y65911141D01*
X109214797Y65714704D01*
X109210448Y65707172D01*
X109086132Y65529630D01*
X109080545Y65522971D01*
X108927280Y65369706D01*
X108920619Y65364117D01*
X108743076Y65239800D01*
X108735545Y65235452D01*
X108612620Y65178131D01*
X108567092Y65135385D01*
X108555802Y65073964D01*
X108583153Y65017822D01*
X108612620Y64996869D01*
X108735545Y64939547D01*
X108743076Y64935199D01*
X108920619Y64810882D01*
X108927280Y64805293D01*
X109080543Y64652030D01*
X109086132Y64645369D01*
X109210449Y64467826D01*
X109214797Y64460295D01*
X109306398Y64263858D01*
X109309371Y64255689D01*
X109365468Y64046332D01*
X109366979Y64037757D01*
X109385869Y63821855D01*
X109385869Y63813145D01*
X109366979Y63597242D01*
X109365468Y63588667D01*
X109309371Y63379310D01*
X109306398Y63371141D01*
X109214797Y63174704D01*
X109210448Y63167172D01*
X109086132Y62989630D01*
X109080545Y62982971D01*
X108927280Y62829706D01*
X108920619Y62824117D01*
X108743076Y62699800D01*
X108735545Y62695452D01*
X108539108Y62603851D01*
X108530939Y62600878D01*
X108321582Y62544781D01*
X108313007Y62543270D01*
X108094941Y62524192D01*
X108090556Y62524000D01*
X107491945Y62524000D01*
X107491945Y49053750D01*
X112271876Y49053750D01*
X112271876Y59530000D01*
X112268124Y59530141D01*
X112009933Y59549489D01*
X112002544Y59550602D01*
X111751928Y59607804D01*
X111744799Y59610003D01*
X111505510Y59703917D01*
X111498787Y59707154D01*
X111276162Y59835687D01*
X111269996Y59839891D01*
X111069017Y60000167D01*
X111063550Y60005240D01*
X110888701Y60193682D01*
X110884053Y60199510D01*
X110739245Y60411905D01*
X110735510Y60418374D01*
X110623972Y60649984D01*
X110621252Y60656914D01*
X110545481Y60902557D01*
X110543819Y60909841D01*
X110505506Y61164030D01*
X110504949Y61171465D01*
X110504949Y61428534D01*
X110505506Y61435969D01*
X110543819Y61690158D01*
X110545481Y61697442D01*
X110621248Y61943070D01*
X110623980Y61950031D01*
X110735512Y62181630D01*
X110739242Y62188090D01*
X110884053Y62400489D01*
X110888701Y62406317D01*
X111063550Y62594759D01*
X111069017Y62599832D01*
X111269996Y62760108D01*
X111276162Y62764312D01*
X111498787Y62892845D01*
X111505510Y62896082D01*
X111744799Y62989996D01*
X111751928Y62992195D01*
X112002544Y63049397D01*
X112009933Y63050510D01*
X112268125Y63069859D01*
X112271876Y63070000D01*
X112271876Y63070000D01*
X112271876Y64610000D01*
X112268124Y64610141D01*
X112009933Y64629489D01*
X112002544Y64630602D01*
X111751928Y64687804D01*
X111744799Y64690003D01*
X111505510Y64783917D01*
X111498787Y64787154D01*
X111276162Y64915687D01*
X111269996Y64919891D01*
X111069017Y65080167D01*
X111063550Y65085240D01*
X110888701Y65273682D01*
X110884053Y65279510D01*
X110739245Y65491905D01*
X110735510Y65498374D01*
X110623972Y65729984D01*
X110621252Y65736914D01*
X110545481Y65982557D01*
X110543819Y65989841D01*
X110505506Y66244030D01*
X110504949Y66251465D01*
X110504949Y66508534D01*
X110505506Y66515969D01*
X110543819Y66770158D01*
X110545481Y66777442D01*
X110621248Y67023070D01*
X110623980Y67030031D01*
X110735512Y67261630D01*
X110739242Y67268090D01*
X110884053Y67480489D01*
X110888701Y67486317D01*
X111063550Y67674759D01*
X111069017Y67679832D01*
X111269996Y67840108D01*
X111276162Y67844312D01*
X111498787Y67972845D01*
X111505510Y67976082D01*
X111744799Y68069996D01*
X111751928Y68072195D01*
X112002544Y68129397D01*
X112009933Y68130510D01*
X112268125Y68149859D01*
X112271876Y68150000D01*
X112271876Y68150000D01*
X112271876Y69690000D01*
X112268124Y69690141D01*
X112009933Y69709489D01*
X112002544Y69710602D01*
X111751928Y69767804D01*
X111744799Y69770003D01*
X111505510Y69863917D01*
X111498787Y69867154D01*
X111276162Y69995687D01*
X111269996Y69999891D01*
X111069017Y70160167D01*
X111063550Y70165240D01*
X110888701Y70353682D01*
X110884053Y70359510D01*
X110739245Y70571905D01*
X110735510Y70578374D01*
X110623972Y70809984D01*
X110621252Y70816914D01*
X110545481Y71062557D01*
X110543819Y71069841D01*
X110505506Y71324030D01*
X110504949Y71331465D01*
X110504949Y71588534D01*
X110505506Y71595969D01*
X110543819Y71850158D01*
X110545481Y71857442D01*
X110621248Y72103070D01*
X110623980Y72110031D01*
X110735512Y72341630D01*
X110739242Y72348090D01*
X110884053Y72560489D01*
X110888701Y72566317D01*
X111063550Y72754759D01*
X111069017Y72759832D01*
X111269996Y72920108D01*
X111276162Y72924312D01*
X111498787Y73052845D01*
X111505510Y73056082D01*
X111744799Y73149996D01*
X111751928Y73152195D01*
X112002544Y73209397D01*
X112009933Y73210510D01*
X112268125Y73229859D01*
X112271876Y73230000D01*
X112271876Y73230000D01*
X112271876Y74770000D01*
X112268124Y74770141D01*
X112009933Y74789489D01*
X112002544Y74790602D01*
X111751928Y74847804D01*
X111744799Y74850003D01*
X111505510Y74943917D01*
X111498787Y74947154D01*
X111276162Y75075687D01*
X111269996Y75079891D01*
X111069017Y75240167D01*
X111063550Y75245240D01*
X110888701Y75433682D01*
X110884053Y75439510D01*
X110739245Y75651905D01*
X110735510Y75658374D01*
X110623972Y75889984D01*
X110621252Y75896914D01*
X110545481Y76142557D01*
X110543819Y76149841D01*
X110505506Y76404030D01*
X110504949Y76411465D01*
X110504949Y76668534D01*
X110505506Y76675969D01*
X110543819Y76930158D01*
X110545481Y76937442D01*
X110621248Y77183070D01*
X110623980Y77190031D01*
X110735512Y77421630D01*
X110739242Y77428090D01*
X110884053Y77640489D01*
X110888701Y77646317D01*
X111063550Y77834759D01*
X111069017Y77839832D01*
X111269996Y78000108D01*
X111276162Y78004312D01*
X111498787Y78132845D01*
X111505510Y78136082D01*
X111744799Y78229996D01*
X111751928Y78232195D01*
X112002544Y78289397D01*
X112009933Y78290510D01*
X112268125Y78309859D01*
X112271876Y78310000D01*
X112271876Y78310000D01*
X112271876Y79850000D01*
X112268124Y79850141D01*
X112009933Y79869489D01*
X112002544Y79870602D01*
X111751928Y79927804D01*
X111744799Y79930003D01*
X111505510Y80023917D01*
X111498787Y80027154D01*
X111276162Y80155687D01*
X111269996Y80159891D01*
X111069017Y80320167D01*
X111063550Y80325240D01*
X110888701Y80513682D01*
X110884053Y80519510D01*
X110739245Y80731905D01*
X110735510Y80738374D01*
X110623972Y80969984D01*
X110621252Y80976914D01*
X110545481Y81222557D01*
X110543819Y81229841D01*
X110505506Y81484030D01*
X110504949Y81491465D01*
X110504949Y81748534D01*
X110505506Y81755969D01*
X110543819Y82010158D01*
X110545481Y82017442D01*
X110621248Y82263070D01*
X110623980Y82270031D01*
X110735512Y82501630D01*
X110739242Y82508090D01*
X110884053Y82720489D01*
X110888701Y82726317D01*
X111063550Y82914759D01*
X111069017Y82919832D01*
X111269996Y83080108D01*
X111276162Y83084312D01*
X111498787Y83212845D01*
X111505510Y83216082D01*
X111744799Y83309996D01*
X111751928Y83312195D01*
X112002544Y83369397D01*
X112009933Y83370510D01*
X112268125Y83389859D01*
X112271876Y83390000D01*
X113728124Y83390000D01*
X113731875Y83389859D01*
X113990066Y83370510D01*
X113997455Y83369397D01*
X114248071Y83312195D01*
X114255200Y83309996D01*
X114494489Y83216082D01*
X114501212Y83212845D01*
X114723837Y83084312D01*
X114730003Y83080108D01*
X114930982Y82919832D01*
X114936449Y82914759D01*
X115111298Y82726317D01*
X115115946Y82720489D01*
X115260757Y82508090D01*
X115264487Y82501630D01*
X115376019Y82270031D01*
X115378751Y82263070D01*
X115454518Y82017442D01*
X115456180Y82010158D01*
X115494493Y81755969D01*
X115495050Y81748534D01*
X115495050Y81491465D01*
X115494493Y81484030D01*
X115456180Y81229841D01*
X115454518Y81222557D01*
X115378747Y80976914D01*
X115376027Y80969984D01*
X115264489Y80738374D01*
X115260754Y80731905D01*
X115115946Y80519510D01*
X115111298Y80513682D01*
X114936449Y80325240D01*
X114930982Y80320167D01*
X114730003Y80159891D01*
X114723837Y80155687D01*
X114501212Y80027154D01*
X114494489Y80023917D01*
X114255200Y79930003D01*
X114248071Y79927804D01*
X113997455Y79870602D01*
X113990066Y79869489D01*
X113731876Y79850141D01*
X113728124Y79850000D01*
X112271876Y79850000D01*
X112271876Y78310000D01*
X113728124Y78310000D01*
X113731875Y78309859D01*
X113990066Y78290510D01*
X113997455Y78289397D01*
X114248071Y78232195D01*
X114255200Y78229996D01*
X114494489Y78136082D01*
X114501212Y78132845D01*
X114723837Y78004312D01*
X114730003Y78000108D01*
X114930982Y77839832D01*
X114936449Y77834759D01*
X115111298Y77646317D01*
X115115946Y77640489D01*
X115260757Y77428090D01*
X115264487Y77421630D01*
X115376019Y77190031D01*
X115378751Y77183070D01*
X115454518Y76937442D01*
X115456180Y76930158D01*
X115494493Y76675969D01*
X115495050Y76668534D01*
X115495050Y76411465D01*
X115494493Y76404030D01*
X115456180Y76149841D01*
X115454518Y76142557D01*
X115378747Y75896914D01*
X115376027Y75889984D01*
X115264489Y75658374D01*
X115260754Y75651905D01*
X115115946Y75439510D01*
X115111298Y75433682D01*
X114936449Y75245240D01*
X114930982Y75240167D01*
X114730003Y75079891D01*
X114723837Y75075687D01*
X114501212Y74947154D01*
X114494489Y74943917D01*
X114255200Y74850003D01*
X114248071Y74847804D01*
X113997455Y74790602D01*
X113990066Y74789489D01*
X113731876Y74770141D01*
X113728124Y74770000D01*
X112271876Y74770000D01*
X112271876Y73230000D01*
X113728124Y73230000D01*
X113731875Y73229859D01*
X113990066Y73210510D01*
X113997455Y73209397D01*
X114248071Y73152195D01*
X114255200Y73149996D01*
X114494489Y73056082D01*
X114501212Y73052845D01*
X114723837Y72924312D01*
X114730003Y72920108D01*
X114930982Y72759832D01*
X114936449Y72754759D01*
X115111298Y72566317D01*
X115115946Y72560489D01*
X115260757Y72348090D01*
X115264487Y72341630D01*
X115376019Y72110031D01*
X115378751Y72103070D01*
X115454518Y71857442D01*
X115456180Y71850158D01*
X115494493Y71595969D01*
X115495050Y71588534D01*
X115495050Y71331465D01*
X115494493Y71324030D01*
X115456180Y71069841D01*
X115454518Y71062557D01*
X115378747Y70816914D01*
X115376027Y70809984D01*
X115264489Y70578374D01*
X115260754Y70571905D01*
X115115946Y70359510D01*
X115111298Y70353682D01*
X114936449Y70165240D01*
X114930982Y70160167D01*
X114730003Y69999891D01*
X114723837Y69995687D01*
X114501212Y69867154D01*
X114494489Y69863917D01*
X114255200Y69770003D01*
X114248071Y69767804D01*
X113997455Y69710602D01*
X113990066Y69709489D01*
X113731876Y69690141D01*
X113728124Y69690000D01*
X112271876Y69690000D01*
X112271876Y68150000D01*
X113728124Y68150000D01*
X113731875Y68149859D01*
X113990066Y68130510D01*
X113997455Y68129397D01*
X114248071Y68072195D01*
X114255200Y68069996D01*
X114494489Y67976082D01*
X114501212Y67972845D01*
X114723837Y67844312D01*
X114730003Y67840108D01*
X114930982Y67679832D01*
X114936449Y67674759D01*
X115111298Y67486317D01*
X115115946Y67480489D01*
X115260757Y67268090D01*
X115264487Y67261630D01*
X115376019Y67030031D01*
X115378751Y67023070D01*
X115454518Y66777442D01*
X115456180Y66770158D01*
X115494493Y66515969D01*
X115495050Y66508534D01*
X115495050Y66251465D01*
X115494493Y66244030D01*
X115456180Y65989841D01*
X115454518Y65982557D01*
X115378747Y65736914D01*
X115376027Y65729984D01*
X115264489Y65498374D01*
X115260754Y65491905D01*
X115115946Y65279510D01*
X115111298Y65273682D01*
X114936449Y65085240D01*
X114930982Y65080167D01*
X114730003Y64919891D01*
X114723837Y64915687D01*
X114501212Y64787154D01*
X114494489Y64783917D01*
X114255200Y64690003D01*
X114248071Y64687804D01*
X113997455Y64630602D01*
X113990066Y64629489D01*
X113731876Y64610141D01*
X113728124Y64610000D01*
X112271876Y64610000D01*
X112271876Y63070000D01*
X113728124Y63070000D01*
X113731875Y63069859D01*
X113990066Y63050510D01*
X113997455Y63049397D01*
X114248071Y62992195D01*
X114255200Y62989996D01*
X114494489Y62896082D01*
X114501212Y62892845D01*
X114723837Y62764312D01*
X114730003Y62760108D01*
X114930982Y62599832D01*
X114936449Y62594759D01*
X115111298Y62406317D01*
X115115946Y62400489D01*
X115260757Y62188090D01*
X115264487Y62181630D01*
X115376019Y61950031D01*
X115378751Y61943070D01*
X115454518Y61697442D01*
X115456180Y61690158D01*
X115494493Y61435969D01*
X115495050Y61428534D01*
X115495050Y61171465D01*
X115494493Y61164030D01*
X115456180Y60909841D01*
X115454518Y60902557D01*
X115378747Y60656914D01*
X115376027Y60649984D01*
X115264489Y60418374D01*
X115260754Y60411905D01*
X115115946Y60199510D01*
X115111298Y60193682D01*
X114936449Y60005240D01*
X114930982Y60000167D01*
X114730003Y59839891D01*
X114723837Y59835687D01*
X114501212Y59707154D01*
X114494489Y59703917D01*
X114255200Y59610003D01*
X114248071Y59607804D01*
X113997455Y59550602D01*
X113990066Y59549489D01*
X113731876Y59530141D01*
X113728124Y59530000D01*
X112271876Y59530000D01*
X112271876Y49053750D01*
X119400000Y49053750D01*
X119459327Y49073250D01*
X119500000Y49153750D01*
X119500000Y99400000D01*
X119480500Y99459327D01*
X119400000Y99500000D01*
X600000Y99500000D01*
X540673Y99480500D01*
X500000Y99400000D01*
X500000Y72807500D01*
X519500Y72748173D01*
X600000Y72707500D01*
X2710000Y72707500D01*
X2769327Y72727000D01*
X2810000Y72807500D01*
X2810000Y85708987D01*
X2811566Y85713752D01*
X2833828Y85725000D01*
X20621487Y85725000D01*
X20626252Y85723434D01*
X20637500Y85701172D01*
X20637500Y77570000D01*
X20657000Y77510673D01*
X20737500Y77470000D01*
X24188750Y77470000D01*
X24248077Y77489500D01*
X24288750Y77570000D01*
X24288750Y94122737D01*
X24290316Y94127502D01*
X24312578Y94138750D01*
X39671487Y94138750D01*
X39676252Y94137184D01*
X39687500Y94114922D01*
X39687500Y86877672D01*
X39716789Y86806961D01*
X40610711Y85913039D01*
X40681422Y85883750D01*
X71735109Y85883750D01*
X71769064Y85869686D01*
X75392186Y82246564D01*
X75406250Y82212609D01*
X75406250Y72392662D01*
X75425750Y72333335D01*
X75469438Y72299684D01*
X75561531Y72263222D01*
X75567194Y72260557D01*
X75836819Y72112329D01*
X75842106Y72108973D01*
X76091020Y71928128D01*
X76095845Y71924136D01*
X76320129Y71713519D01*
X76324426Y71708944D01*
X76520546Y71471876D01*
X76524219Y71466820D01*
X76689084Y71207035D01*
X76692103Y71201543D01*
X76823106Y70923148D01*
X76825410Y70917327D01*
X76920487Y70624709D01*
X76922045Y70618641D01*
X76979699Y70316410D01*
X76980483Y70310207D01*
X76999803Y70003131D01*
X76999803Y69996869D01*
X76980483Y69689792D01*
X76979699Y69683589D01*
X76922045Y69381358D01*
X76920487Y69375290D01*
X76825410Y69082672D01*
X76823106Y69076851D01*
X76692103Y68798456D01*
X76689084Y68792964D01*
X76524219Y68533179D01*
X76520546Y68528123D01*
X76324426Y68291055D01*
X76320129Y68286480D01*
X76095845Y68075863D01*
X76091020Y68071871D01*
X75842106Y67891026D01*
X75836819Y67887670D01*
X75567194Y67739442D01*
X75561531Y67736777D01*
X75469438Y67700315D01*
X75421455Y67660344D01*
X75406250Y67607337D01*
X75406250Y49153750D01*
X75425750Y49094423D01*
X75506250Y49053750D01*
X81720312Y49053750D01*
X81779639Y49073250D01*
G37*
G04 --- BOARD END --- *
%TF.MD5,70fa4db5a4d7b5424edb030b167b506c*%
M02*
