G04 --- HEADER BEGIN --- *
%TF.GenerationSoftware,LibrePCB,LibrePCB,0.1.4*%
%TF.CreationDate,2020-06-28T21:35:15*%
%TF.ProjectId,Hydro Battery Charger - default,71762d7e-e7f1-403c-8020-db9670c01e9b,v4*%
%TF.Part,Single*%
%FSLAX66Y66*%
%MOMM*%
G01*
G74*
G04 --- HEADER END --- *
G04 --- APERTURE LIST BEGIN --- *
%ADD10C,0.25*%
%ADD11C,0.2*%
%ADD12C,0.254*%
%ADD13C,0.381X0.381*%
%ADD14C,0.381*%
%ADD15C,0.15*%
%ADD16C,0.1524*%
%ADD17C,0.0*%
%ADD18C,0.508X0.508*%
%ADD19C,0.508*%
%ADD20C,0.3*%
%ADD21C,0.4*%
%ADD22C,0.333*%
%ADD23C,0.5*%
%ADD24C,1.7*%
%ADD25R,1.7X1.5*%
%ADD26C,2.0*%
%ADD27R,1.735X0.68*%
%ADD28R,1.735X0.75*%
%ADD29R,2.39X1.787*%
%ADD30R,1.2X1.3*%
%ADD31C,2.5*%
%ADD32R,0.8X1.3*%
%ADD33R,1.0X0.95*%
%ADD34O,3.2X2.0*%
%ADD35R,2.9X1.4*%
%ADD36R,3.4X5.2*%
%ADD37O,3.2X1.7*%
%ADD38R,1.3X1.2*%
%ADD39R,1.6X1.2*%
%ADD40R,0.68X1.735*%
%ADD41R,3.3X2.6*%
%ADD42O,4.2X3.0*%
%ADD43R,1.2X1.6*%
%ADD44R,1.8X1.25*%
%ADD45R,5.7X4.05*%
%ADD46O,4.2X2.74*%
%ADD47R,0.95X1.0*%
%ADD48C,4.2*%
%ADD49R,2.0X2.0*%
%ADD50R,1.787X2.39*%
%ADD51O,2.232X4.264*%
%ADD52O,2.39X1.787*%
%ADD53C,3.4*%
%ADD54C,2.7*%
%ADD55R,3.6X2.1*%
%ADD56O,2.0X2.7*%
%ADD57R,2.0X2.7*%
%ADD58O,2.0X3.0*%
%ADD59R,0.65X1.4*%
%ADD60R,1.4X0.65*%
%ADD61O,3.0X4.2*%
%ADD62O,2.74X1.7*%
%ADD63O,2.0X3.2*%
%ADD64O,1.7X3.2*%
%ADD65R,1.5X1.7*%
G04 --- APERTURE LIST END --- *
G04 --- BOARD BEGIN --- *
D10*
X31987500Y28920000D02*
X28337500Y28920000D01*
X33387500Y34580000D02*
X28337500Y34580000D01*
X104696250Y82681250D02*
X108346250Y82681250D01*
X103296250Y78291250D02*
X108346250Y78291250D01*
X39086250Y57640000D02*
X39086250Y55390000D01*
X39356250Y55120000D01*
X41606250Y55120000D01*
X41876250Y55390000D01*
X41876250Y57640000D01*
X41606250Y57910000D01*
X39356250Y57910000D01*
X39086250Y57640000D01*
D11*
X41928472Y53768750D02*
X41928472Y54768750D01*
X41547361Y54768750D01*
X41451805Y54720972D01*
X41405139Y54673194D01*
X41357361Y54578750D01*
X41357361Y54435417D01*
X41405139Y54339861D01*
X41451805Y54292083D01*
X41547361Y54245417D01*
X41928472Y54245417D01*
X40957361Y54768750D02*
X40719583Y53768750D01*
X40528472Y54483194D01*
X40338472Y53768750D01*
X40100694Y54768750D01*
X39700694Y53768750D02*
X39700694Y54768750D01*
X39367361Y54054306D01*
X39034027Y54768750D01*
X39034027Y53768750D01*
X114750000Y46500000D02*
X114750000Y47250000D01*
X119750000Y47250000D01*
X119750000Y36750000D01*
X114750000Y36750000D01*
X114750000Y37500000D01*
D12*
X35454250Y61022000D02*
X35454250Y62168000D01*
X32808250Y62168000D01*
X32808250Y61022000D01*
X35454250Y61022000D01*
D13*
X35083750Y61395000D03*
D14*
X35083750Y61395000D03*
D15*
X28258750Y66976250D02*
X28258750Y67326250D01*
X29208750Y66976250D02*
X29208750Y67326250D01*
D11*
X12858750Y29845000D02*
X10874375Y29845000D01*
X10874375Y22860000D01*
X11906250Y22860000D01*
X11906250Y13335000D01*
X10874375Y13335000D01*
X10874375Y6350000D01*
X12858750Y6350000D01*
X16351250Y6350000D02*
X18335625Y6350000D01*
X18335625Y13335000D01*
X17303750Y13335000D01*
X17303750Y22860000D01*
X18335625Y22860000D01*
X18335625Y29845000D01*
X16351250Y29845000D01*
X14160417Y19600833D02*
X15493750Y19600833D01*
X13398194Y20078610D02*
X14827083Y20554166D01*
X14827083Y19316388D01*
X14922639Y18525277D02*
X14922639Y17574166D01*
X15493750Y18716388D02*
X13493750Y18049721D01*
X15493750Y17383055D01*
X13493750Y16783055D02*
X13493750Y15640833D01*
X15493750Y16211944D02*
X13493750Y16211944D01*
D16*
X30035500Y18097500D02*
X32956500Y18224500D01*
X33210500Y18478500D02*
X32956500Y18224500D01*
D17*
X30162500Y24828500D02*
X30162500Y24066500D01*
X29654500Y24066500D01*
X29654500Y24828500D01*
X30162500Y24828500D01*
G36*
X30162500Y24828500D02*
X30162500Y24066500D01*
X29654500Y24066500D01*
X29654500Y24828500D01*
X30162500Y24828500D01*
G37*
X30162500Y19748500D02*
X30162500Y17843500D01*
X29654500Y17843500D01*
X29654500Y19748500D01*
X30162500Y19748500D01*
G36*
X30162500Y19748500D02*
X30162500Y17843500D01*
X29654500Y17843500D01*
X29654500Y19748500D01*
X30162500Y19748500D01*
G37*
X30162500Y28511500D02*
X30162500Y26606500D01*
X29654500Y26606500D01*
X29654500Y28511500D01*
X30162500Y28511500D01*
G36*
X30162500Y28511500D02*
X30162500Y26606500D01*
X29654500Y26606500D01*
X29654500Y28511500D01*
X30162500Y28511500D01*
G37*
X29654500Y28511500D02*
X29654500Y17843500D01*
X28892500Y17843500D01*
X28892500Y28511500D01*
X29654500Y28511500D01*
G36*
X29654500Y28511500D02*
X29654500Y17843500D01*
X28892500Y17843500D01*
X28892500Y28511500D01*
X29654500Y28511500D01*
G37*
X30162500Y22288500D02*
X30162500Y21526500D01*
X29654500Y21526500D01*
X29654500Y22288500D01*
X30162500Y22288500D01*
G36*
X30162500Y22288500D02*
X30162500Y21526500D01*
X29654500Y21526500D01*
X29654500Y22288500D01*
X30162500Y22288500D01*
G37*
D16*
X32956500Y28130500D02*
X30035500Y28257500D01*
X32956500Y28130500D02*
X33210500Y27876500D01*
X33210500Y18478500D02*
X33210500Y27876500D01*
D18*
X32600900Y27673300D03*
D19*
X32600900Y27673300D03*
D15*
X82321250Y42052500D02*
X82321250Y42402500D01*
X83271250Y42052500D02*
X83271250Y42402500D01*
D16*
X26854150Y67779900D02*
X26041350Y67779900D01*
X26041350Y64935100D02*
X26854150Y64935100D01*
X26854150Y64935100D02*
X26854150Y65493900D01*
X26854150Y67221100D02*
X26854150Y67779900D01*
D15*
X33971250Y45418750D02*
X33971250Y45068750D01*
X33021250Y45418750D02*
X33021250Y45068750D01*
D10*
X34317500Y44688750D02*
X34317500Y48338750D01*
X39977500Y43288750D02*
X39977500Y48338750D01*
D17*
X24447500Y94973750D02*
X24447500Y85683750D01*
X25717500Y85683750D01*
X25717500Y94973750D01*
X24447500Y94973750D01*
G36*
X24447500Y94973750D02*
X24447500Y85683750D01*
X25717500Y85683750D01*
X25717500Y94973750D01*
X24447500Y94973750D01*
G37*
D11*
X17842500Y95028750D02*
X17842500Y85628750D01*
X27242500Y85628750D01*
X27242500Y95028750D01*
X17842500Y95028750D01*
D10*
X104696250Y77601250D02*
X108346250Y77601250D01*
X103296250Y73211250D02*
X108346250Y73211250D01*
D16*
X8261350Y67970400D02*
X8261350Y67157600D01*
X11106150Y67157600D02*
X11106150Y67970400D01*
X11106150Y67970400D02*
X10547350Y67970400D01*
X8820150Y67970400D02*
X8261350Y67970400D01*
X46043850Y56381650D02*
X46043850Y55568850D01*
X48888650Y55568850D02*
X48888650Y56381650D01*
X48888650Y56381650D02*
X48329850Y56381650D01*
X46602650Y56381650D02*
X46043850Y56381650D01*
D10*
X31936250Y42376250D02*
X31936250Y41126250D01*
X33786250Y42376250D02*
X33786250Y41126250D01*
D11*
X43373868Y51386154D02*
X42723868Y51386154D01*
G75*
G03*
X40523868Y49186154I0J-2200000D01*
G01*
X40523868Y40886154D01*
G03*
X42723868Y38686154I2200000J0D01*
G01*
X43373868Y38686154D01*
X50373868Y38686154D02*
X51023868Y38686154D01*
G03*
X53223868Y40886154I0J2200000D01*
G01*
X53223868Y49186154D01*
G03*
X51023868Y51386154I-2200000J0D01*
G01*
X50373868Y51386154D01*
D15*
X83271250Y47800000D02*
X83271250Y47450000D01*
X82321250Y47800000D02*
X82321250Y47450000D01*
X34606250Y37005000D02*
X34606250Y36655000D01*
X33656250Y37005000D02*
X33656250Y36655000D01*
D10*
X66232500Y57322500D02*
X66232500Y55072500D01*
X66502500Y54802500D01*
X68752500Y54802500D01*
X69022500Y55072500D01*
X69022500Y57322500D01*
X68752500Y57592500D01*
X66502500Y57592500D01*
X66232500Y57322500D01*
D11*
X71414861Y58531250D02*
X71414861Y59531250D01*
X70843750Y58531250D01*
X70843750Y59531250D01*
X70253750Y59102361D02*
X70348194Y59150139D01*
X70395972Y59197917D01*
X70443750Y59293472D01*
X70443750Y59341250D01*
X70395972Y59435694D01*
X70348194Y59483472D01*
X70253750Y59531250D01*
X70062639Y59531250D01*
X69967083Y59483472D01*
X69920417Y59435694D01*
X69872639Y59341250D01*
X69872639Y59293472D01*
X69920417Y59197917D01*
X69967083Y59150139D01*
X70062639Y59102361D01*
X70253750Y59102361D01*
X70348194Y59054583D01*
X70395972Y59007917D01*
X70443750Y58912361D01*
X70443750Y58721250D01*
X70395972Y58626806D01*
X70348194Y58579028D01*
X70253750Y58531250D01*
X70062639Y58531250D01*
X69967083Y58579028D01*
X69920417Y58626806D01*
X69872639Y58721250D01*
X69872639Y58912361D01*
X69920417Y59007917D01*
X69967083Y59054583D01*
X70062639Y59102361D01*
D10*
X9552500Y76507500D02*
X9552500Y75257500D01*
X11402500Y76507500D02*
X11402500Y75257500D01*
D15*
X35876250Y37005000D02*
X35876250Y36655000D01*
X34926250Y37005000D02*
X34926250Y36655000D01*
X83271250Y45101250D02*
X83271250Y44751250D01*
X82321250Y45101250D02*
X82321250Y44751250D01*
X34450000Y51101250D02*
X34450000Y51451250D01*
X35400000Y51101250D02*
X35400000Y51451250D01*
D10*
X35911250Y57640000D02*
X35911250Y55390000D01*
X36181250Y55120000D01*
X38431250Y55120000D01*
X38701250Y55390000D01*
X38701250Y57640000D01*
X38431250Y57910000D01*
X36181250Y57910000D01*
X35911250Y57640000D01*
D11*
X37904722Y53816250D02*
X38475833Y53816250D01*
X38190277Y53816250D02*
X38190277Y54816250D01*
X38285833Y54672917D01*
X38380277Y54578472D01*
X38475833Y54530694D01*
X37456944Y54720694D02*
X37409166Y54768472D01*
X37314722Y54816250D01*
X37075833Y54816250D01*
X36981389Y54768472D01*
X36933611Y54720694D01*
X36885833Y54626250D01*
X36885833Y54530694D01*
X36933611Y54387361D01*
X37504722Y53816250D01*
X36885833Y53816250D01*
X36485833Y54816250D02*
X36152500Y53816250D01*
X35819166Y54816250D01*
X9100000Y88540000D02*
X9100000Y90320000D01*
X-2900000Y90320000D01*
X-2900000Y73680000D02*
X9100000Y73680000D01*
X9100000Y75460000D01*
X9100000Y78460000D02*
X9100000Y80460000D01*
X9100000Y83540000D02*
X9100000Y85540000D01*
D20*
X10621527Y92223111D02*
X10753750Y92290000D01*
X10954416Y92290000D01*
X11155083Y92223111D01*
X11287305Y92089333D01*
X11354194Y91957111D01*
X11421083Y91689556D01*
X11421083Y91490444D01*
X11354194Y91222889D01*
X11287305Y91090667D01*
X11155083Y90956889D01*
X10954416Y90890000D01*
X10820639Y90890000D01*
X10621527Y90956889D01*
X10554639Y91023778D01*
X10554639Y91490444D01*
X10820639Y91490444D01*
X9374195Y90956889D02*
X9507972Y90890000D01*
X9773972Y90890000D01*
X9907750Y90956889D01*
X9974639Y91090667D01*
X9974639Y91622667D01*
X9907750Y91756444D01*
X9773972Y91823333D01*
X9507972Y91823333D01*
X9374195Y91756444D01*
X9307306Y91622667D01*
X9307306Y91490444D01*
X9974639Y91356667D01*
X8727306Y91823333D02*
X8727306Y90890000D01*
X8727306Y91689556D02*
X8660417Y91756444D01*
X8526639Y91823333D01*
X8327528Y91823333D01*
X8193750Y91756444D01*
X8126862Y91622667D01*
X8126862Y90890000D01*
X6946418Y90956889D02*
X7080195Y90890000D01*
X7346195Y90890000D01*
X7479973Y90956889D01*
X7546862Y91090667D01*
X7546862Y91622667D01*
X7479973Y91756444D01*
X7346195Y91823333D01*
X7080195Y91823333D01*
X6946418Y91756444D01*
X6879529Y91622667D01*
X6879529Y91490444D01*
X7546862Y91356667D01*
X6299529Y90890000D02*
X6299529Y91823333D01*
X6299529Y91557333D02*
X6232640Y91689556D01*
X6165751Y91756444D01*
X6033529Y91823333D01*
X5899751Y91823333D01*
X4652418Y90890000D02*
X4652418Y91622667D01*
X4719307Y91756444D01*
X4853084Y91823333D01*
X5119084Y91823333D01*
X5252862Y91756444D01*
X4652418Y90956889D02*
X4786195Y90890000D01*
X5119084Y90890000D01*
X5252862Y90956889D01*
X5319751Y91090667D01*
X5319751Y91222889D01*
X5252862Y91356667D01*
X5119084Y91423556D01*
X4786195Y91423556D01*
X4652418Y91490444D01*
X4072418Y91823333D02*
X3538862Y91823333D01*
X3871751Y92290000D02*
X3871751Y91090667D01*
X3806418Y90956889D01*
X3672640Y90890000D01*
X3538862Y90890000D01*
X2692862Y90890000D02*
X2825084Y90956889D01*
X2891973Y91023778D01*
X2958862Y91156000D01*
X2958862Y91557333D01*
X2891973Y91689556D01*
X2825084Y91756444D01*
X2692862Y91823333D01*
X2492195Y91823333D01*
X2358418Y91756444D01*
X2291529Y91689556D01*
X2226195Y91557333D01*
X2226195Y91156000D01*
X2291529Y91023778D01*
X2358418Y90956889D01*
X2492195Y90890000D01*
X2692862Y90890000D01*
X1646195Y90890000D02*
X1646195Y91823333D01*
X1646195Y91557333D02*
X1579306Y91689556D01*
X1512417Y91756444D01*
X1380195Y91823333D01*
X1246417Y91823333D01*
D15*
X55405000Y70945000D02*
X55405000Y71295000D01*
X56355000Y70945000D02*
X56355000Y71295000D01*
X9841250Y27638750D02*
X9841250Y27288750D01*
X8891250Y27638750D02*
X8891250Y27288750D01*
D10*
X57433750Y23005000D02*
X57433750Y25255000D01*
X57163750Y25525000D01*
X54913750Y25525000D01*
X54643750Y25255000D01*
X54643750Y23005000D01*
X54913750Y22735000D01*
X57163750Y22735000D01*
X57433750Y23005000D01*
D11*
X54192083Y25130000D02*
X53858750Y24130000D01*
X53525416Y25130000D01*
X53125416Y24130000D02*
X53125416Y25130000D01*
X52887638Y25130000D01*
X52744305Y25082222D01*
X52648749Y24986667D01*
X52602083Y24892222D01*
X52554305Y24701111D01*
X52554305Y24558889D01*
X52602083Y24367778D01*
X52648749Y24273333D01*
X52744305Y24177778D01*
X52887638Y24130000D01*
X53125416Y24130000D01*
X51535416Y24225556D02*
X51583194Y24177778D01*
X51725416Y24130000D01*
X51820972Y24130000D01*
X51964305Y24177778D01*
X52058749Y24273333D01*
X52106527Y24367778D01*
X52154305Y24558889D01*
X52154305Y24701111D01*
X52106527Y24892222D01*
X52058749Y24986667D01*
X51964305Y25082222D01*
X51820972Y25130000D01*
X51725416Y25130000D01*
X51583194Y25082222D01*
X51535416Y25034444D01*
D10*
X18925000Y25572500D02*
X18925000Y23322500D01*
X19195000Y23052500D01*
X21445000Y23052500D01*
X21715000Y23322500D01*
X21715000Y25572500D01*
X21445000Y25842500D01*
X19195000Y25842500D01*
X18925000Y25572500D01*
D11*
X28507778Y23971250D02*
X28174445Y22971250D01*
X27841111Y23971250D01*
X27107778Y23494583D02*
X26964444Y23447917D01*
X26917778Y23400139D01*
X26870000Y23304583D01*
X26870000Y23161250D01*
X26917778Y23066806D01*
X26964444Y23019028D01*
X27060000Y22971250D01*
X27441111Y22971250D01*
X27441111Y23971250D01*
X27107778Y23971250D01*
X27012222Y23923472D01*
X26964444Y23875694D01*
X26917778Y23781250D01*
X26917778Y23685694D01*
X26964444Y23590139D01*
X27012222Y23542361D01*
X27107778Y23494583D01*
X27441111Y23494583D01*
X26374444Y23256806D02*
X25898889Y23256806D01*
X26470000Y22971250D02*
X26136667Y23971250D01*
X25803333Y22971250D01*
X25403333Y23971250D02*
X24832222Y23971250D01*
X25117777Y22971250D02*
X25117777Y23971250D01*
D10*
X34000000Y34121250D02*
X34000000Y32871250D01*
X35850000Y34121250D02*
X35850000Y32871250D01*
D15*
X25892500Y38418750D02*
X25542500Y38418750D01*
X25892500Y39368750D02*
X25542500Y39368750D01*
D11*
X33350000Y15240000D02*
X55550000Y15240000D01*
G02*
X33350000Y15240000I-11100000J0D01*
G01*
D17*
G36*
X33350000Y15240000D02*
X55550000Y15240000D01*
G02*
X33350000Y15240000I-11100000J0D01*
G01*
G37*
D21*
X44450000Y25400000D02*
X44450000Y22860000D01*
D11*
X33350000Y15240000D02*
G02*
X55550000Y15240000I11100000J0D01*
G01*
D21*
X45720000Y24130000D02*
X43180000Y24130000D01*
D11*
X-2000000Y66656250D02*
X6600000Y66656250D01*
X6600000Y33356250D01*
X-2000000Y33356250D01*
D17*
X-1810000Y62071250D02*
X-1810000Y60801250D01*
X-540000Y61436250D01*
X-1810000Y62071250D01*
G36*
X-1810000Y62071250D02*
X-1810000Y60801250D01*
X-540000Y61436250D01*
X-1810000Y62071250D01*
G37*
D11*
X8190972Y36215763D02*
X8238750Y36072430D01*
X8238750Y35834652D01*
X8190972Y35739096D01*
X8143194Y35692430D01*
X8048750Y35644652D01*
X7953194Y35644652D01*
X7857639Y35692430D01*
X7809861Y35739096D01*
X7762083Y35834652D01*
X7715417Y36025763D01*
X7667639Y36120207D01*
X7619861Y36167985D01*
X7524306Y36215763D01*
X7428750Y36215763D01*
X7334306Y36167985D01*
X7286528Y36120207D01*
X7238750Y36025763D01*
X7238750Y35786874D01*
X7286528Y35644652D01*
X7238750Y35244652D02*
X8238750Y35006874D01*
X7524306Y34815763D01*
X8238750Y34625763D01*
X7238750Y34387985D01*
X8238750Y33987985D02*
X7238750Y33987985D01*
X7238750Y33750207D01*
X7286528Y33606874D01*
X7382083Y33511318D01*
X7476528Y33464652D01*
X7667639Y33416874D01*
X7809861Y33416874D01*
X8000972Y33464652D01*
X8095417Y33511318D01*
X8190972Y33606874D01*
X8238750Y33750207D01*
X8238750Y33987985D01*
D10*
X54782500Y56640000D02*
X52532500Y56640000D01*
X52262500Y56370000D01*
X52262500Y54120000D01*
X52532500Y53850000D01*
X54782500Y53850000D01*
X55052500Y54120000D01*
X55052500Y56370000D01*
X54782500Y56640000D01*
D11*
X50641528Y55646806D02*
X50593750Y55741250D01*
X50593750Y55884584D01*
X50641528Y56027917D01*
X50737083Y56122361D01*
X50831528Y56170139D01*
X51022639Y56217917D01*
X51164861Y56217917D01*
X51355972Y56170139D01*
X51450417Y56122361D01*
X51545972Y56027917D01*
X51593750Y55884584D01*
X51593750Y55789028D01*
X51545972Y55646806D01*
X51498194Y55599028D01*
X51164861Y55599028D01*
X51164861Y55789028D01*
X51308194Y55103472D02*
X51308194Y54627917D01*
X51593750Y55199028D02*
X50593750Y54865695D01*
X51593750Y54532361D01*
X50593750Y54132361D02*
X50593750Y53561250D01*
X51593750Y53846805D02*
X50593750Y53846805D01*
X51070417Y53161250D02*
X51070417Y52827917D01*
X51593750Y52684583D02*
X51593750Y53161250D01*
X50593750Y53161250D01*
X50593750Y52684583D01*
D15*
X12557500Y63342500D02*
X12207500Y63342500D01*
X12557500Y64292500D02*
X12207500Y64292500D01*
D10*
X13797500Y91950000D02*
X16047500Y91950000D01*
X16317500Y92220000D01*
X16317500Y94470000D01*
X16047500Y94740000D01*
X13797500Y94740000D01*
X13527500Y94470000D01*
X13527500Y92220000D01*
X13797500Y91950000D01*
D11*
X12224028Y94054444D02*
X12176250Y94148888D01*
X12176250Y94292222D01*
X12224028Y94435555D01*
X12319583Y94529999D01*
X12414028Y94577777D01*
X12605139Y94625555D01*
X12747361Y94625555D01*
X12938472Y94577777D01*
X13032917Y94529999D01*
X13128472Y94435555D01*
X13176250Y94292222D01*
X13176250Y94196666D01*
X13128472Y94054444D01*
X13080694Y94006666D01*
X12747361Y94006666D01*
X12747361Y94196666D01*
X13176250Y93606666D02*
X12176250Y93606666D01*
X13176250Y93035555D01*
X12176250Y93035555D01*
X13176250Y92635555D02*
X12176250Y92635555D01*
X12176250Y92397777D01*
X12224028Y92254444D01*
X12319583Y92158888D01*
X12414028Y92112222D01*
X12605139Y92064444D01*
X12747361Y92064444D01*
X12938472Y92112222D01*
X13032917Y92158888D01*
X13128472Y92254444D01*
X13176250Y92397777D01*
X13176250Y92635555D01*
D17*
X69278500Y54927500D02*
X71183500Y54927500D01*
X71183500Y54419500D01*
X69278500Y54419500D01*
X69278500Y54927500D01*
G36*
X69278500Y54927500D02*
X71183500Y54927500D01*
X71183500Y54419500D01*
X69278500Y54419500D01*
X69278500Y54927500D01*
G37*
D16*
X69659500Y57721500D02*
X69913500Y57975500D01*
D17*
X69278500Y54419500D02*
X79946500Y54419500D01*
X79946500Y53657500D01*
X69278500Y53657500D01*
X69278500Y54419500D01*
G36*
X69278500Y54419500D02*
X79946500Y54419500D01*
X79946500Y53657500D01*
X69278500Y53657500D01*
X69278500Y54419500D01*
G37*
D16*
X79311500Y57975500D02*
X69913500Y57975500D01*
D17*
X75501500Y54927500D02*
X76263500Y54927500D01*
X76263500Y54419500D01*
X75501500Y54419500D01*
X75501500Y54927500D01*
G36*
X75501500Y54927500D02*
X76263500Y54927500D01*
X76263500Y54419500D01*
X75501500Y54419500D01*
X75501500Y54927500D01*
G37*
D16*
X79311500Y57975500D02*
X79565500Y57721500D01*
X79692500Y54800500D02*
X79565500Y57721500D01*
X69659500Y57721500D02*
X69532500Y54800500D01*
D17*
X78041500Y54927500D02*
X79946500Y54927500D01*
X79946500Y54419500D01*
X78041500Y54419500D01*
X78041500Y54927500D01*
G36*
X78041500Y54927500D02*
X79946500Y54927500D01*
X79946500Y54419500D01*
X78041500Y54419500D01*
X78041500Y54927500D01*
G37*
X72961500Y54927500D02*
X73723500Y54927500D01*
X73723500Y54419500D01*
X72961500Y54419500D01*
X72961500Y54927500D01*
G36*
X72961500Y54927500D02*
X73723500Y54927500D01*
X73723500Y54419500D01*
X72961500Y54419500D01*
X72961500Y54927500D01*
G37*
D18*
X70116700Y57365900D03*
D19*
X70116700Y57365900D03*
D10*
X106396250Y70022500D02*
X106396250Y67897500D01*
X106666250Y67627500D01*
X106396250Y67357500D01*
X106396250Y65357500D01*
X106666250Y65087500D01*
X106396250Y64817500D01*
X106396250Y62692500D01*
X106666250Y62422500D01*
X108916250Y62422500D01*
X109186250Y62692500D01*
X109186250Y64817500D01*
X108916250Y65087500D01*
X109186250Y65357500D01*
X109186250Y67357500D01*
X108916250Y67627500D01*
X109186250Y67897500D01*
X109186250Y70022500D01*
X108916250Y70292500D01*
X106666250Y70292500D01*
X106396250Y70022500D01*
D11*
X122900000Y89940000D02*
X110900000Y89940000D01*
X110900000Y88160000D01*
X110900000Y75000000D02*
X110900000Y73000000D01*
X110900000Y80080000D02*
X110900000Y78080000D01*
X110900000Y69920000D02*
X110900000Y67920000D01*
X110900000Y64840000D02*
X110900000Y62840000D01*
X110900000Y85160000D02*
X110900000Y83160000D01*
X110900000Y59840000D02*
X110900000Y58060000D01*
X122900000Y58060000D01*
X115380000Y28000000D02*
X115380000Y29450000D01*
X104680000Y29450000D01*
X104680000Y24730000D02*
X104680000Y26730000D01*
X104680000Y19650000D02*
X104680000Y21650000D01*
X115380000Y18000000D02*
X115380000Y16550000D01*
X104680000Y16550000D01*
D15*
X39545000Y51595000D02*
X39195000Y51595000D01*
X39545000Y52545000D02*
X39195000Y52545000D01*
D11*
X69507500Y69417500D02*
X37807500Y69417500D01*
X37807500Y58217500D01*
X69507500Y58217500D01*
X69507500Y69417500D01*
D16*
X11753850Y67970400D02*
X11753850Y67157600D01*
X14598650Y67157600D02*
X14598650Y67970400D01*
X14598650Y67970400D02*
X14039850Y67970400D01*
X12312650Y67970400D02*
X11753850Y67970400D01*
D11*
X57137500Y84772500D02*
X34937500Y84772500D01*
G02*
X57137500Y84772500I11100000J0D01*
G01*
D17*
G36*
X57137500Y84772500D02*
X34937500Y84772500D01*
G02*
X57137500Y84772500I11100000J0D01*
G01*
G37*
D21*
X46037500Y74612500D02*
X46037500Y77152500D01*
D11*
X57137500Y84772500D02*
G02*
X34937500Y84772500I-11100000J0D01*
G01*
D21*
X44767500Y75882500D02*
X47307500Y75882500D01*
D12*
X45138000Y55307000D02*
X45138000Y56453000D01*
X42492000Y56453000D01*
X42492000Y55307000D01*
X45138000Y55307000D01*
D13*
X44767500Y55680000D03*
D14*
X44767500Y55680000D03*
D10*
X18758750Y48543750D02*
X18758750Y48868750D01*
X19083750Y48868750D01*
X26008750Y41943750D02*
X26008750Y41618750D01*
X25683750Y41618750D01*
X25683750Y40618750D01*
X18758750Y41943750D02*
X18758750Y41618750D01*
X19083750Y41618750D01*
X26008750Y48543750D02*
X26008750Y48868750D01*
X25683750Y48868750D01*
D17*
X97102750Y86201250D02*
X96255750Y86201250D01*
X96255750Y85778250D01*
X97102750Y85778250D01*
X97102750Y86201250D01*
G36*
X97102750Y86201250D02*
X96255750Y86201250D01*
X96255750Y85778250D01*
X97102750Y85778250D01*
X97102750Y86201250D01*
G37*
X99429750Y88952250D02*
X99007750Y88952250D01*
X99007750Y89799250D01*
X99429750Y89799250D01*
X99429750Y88952250D01*
G36*
X99429750Y88952250D02*
X99007750Y88952250D01*
X99007750Y89799250D01*
X99429750Y89799250D01*
X99429750Y88952250D01*
G37*
X100276750Y88952250D02*
X99853750Y88952250D01*
X99853750Y89799250D01*
X100276750Y89799250D01*
X100276750Y88952250D01*
G36*
X100276750Y88952250D02*
X99853750Y88952250D01*
X99853750Y89799250D01*
X100276750Y89799250D01*
X100276750Y88952250D01*
G37*
X101334750Y87894250D02*
X102181750Y87894250D01*
X102181750Y87471250D01*
X101334750Y87471250D01*
X101334750Y87894250D01*
G36*
X101334750Y87894250D02*
X102181750Y87894250D01*
X102181750Y87471250D01*
X101334750Y87471250D01*
X101334750Y87894250D01*
G37*
X99429750Y84720250D02*
X99007750Y84720250D01*
X99007750Y83873250D01*
X99429750Y83873250D01*
X99429750Y84720250D01*
G36*
X99429750Y84720250D02*
X99007750Y84720250D01*
X99007750Y83873250D01*
X99429750Y83873250D01*
X99429750Y84720250D01*
G37*
X100488750Y88529250D02*
X97948750Y88529250D01*
G03*
X97525750Y88106250I0J-423000D01*
G01*
X97525750Y85566250D01*
G03*
X97948750Y85143250I423000J0D01*
G01*
X100488750Y85143250D01*
G03*
X100911750Y85566250I0J423000D01*
G01*
X100911750Y87766250D01*
X100481750Y87766250D01*
G02*
X100148750Y87432850I-333200J-200D01*
G01*
G02*
X99815350Y87766250I0J333400D01*
G01*
G02*
X100148750Y88099250I333200J-200D01*
G01*
G02*
X100481750Y87766250I0J-333000D01*
G01*
X100911750Y87766250D01*
X100911750Y88106250D01*
G03*
X100488750Y88529250I-423000J0D01*
G01*
G36*
X100488750Y88529250D02*
X97948750Y88529250D01*
G03*
X97525750Y88106250I0J-423000D01*
G01*
X97525750Y85566250D01*
G03*
X97948750Y85143250I423000J0D01*
G01*
X100488750Y85143250D01*
G03*
X100911750Y85566250I0J423000D01*
G01*
X100911750Y87766250D01*
X100481750Y87766250D01*
G02*
X100148750Y87432850I-333200J-200D01*
G01*
G02*
X99815350Y87766250I0J333400D01*
G01*
G02*
X100148750Y88099250I333200J-200D01*
G01*
G02*
X100481750Y87766250I0J-333000D01*
G01*
X100911750Y87766250D01*
X100911750Y88106250D01*
G03*
X100488750Y88529250I-423000J0D01*
G01*
G37*
X97102750Y87894250D02*
X96255750Y87894250D01*
X96255750Y87471250D01*
X97102750Y87471250D01*
X97102750Y87894250D01*
G36*
X97102750Y87894250D02*
X96255750Y87894250D01*
X96255750Y87471250D01*
X97102750Y87471250D01*
X97102750Y87894250D01*
G37*
X98583750Y88952250D02*
X98160750Y88952250D01*
X98160750Y89799250D01*
X98583750Y89799250D01*
X98583750Y88952250D01*
G36*
X98583750Y88952250D02*
X98160750Y88952250D01*
X98160750Y89799250D01*
X98583750Y89799250D01*
X98583750Y88952250D01*
G37*
X101334750Y87047250D02*
X102181750Y87047250D01*
X102181750Y86625250D01*
X101334750Y86625250D01*
X101334750Y87047250D01*
G36*
X101334750Y87047250D02*
X102181750Y87047250D01*
X102181750Y86625250D01*
X101334750Y86625250D01*
X101334750Y87047250D01*
G37*
X100276750Y84720250D02*
X99853750Y84720250D01*
X99853750Y83873250D01*
X100276750Y83873250D01*
X100276750Y84720250D01*
G36*
X100276750Y84720250D02*
X99853750Y84720250D01*
X99853750Y83873250D01*
X100276750Y83873250D01*
X100276750Y84720250D01*
G37*
X101334750Y86201250D02*
X102181750Y86201250D01*
X102181750Y85778250D01*
X101334750Y85778250D01*
X101334750Y86201250D01*
G36*
X101334750Y86201250D02*
X102181750Y86201250D01*
X102181750Y85778250D01*
X101334750Y85778250D01*
X101334750Y86201250D01*
G37*
X98583750Y84720250D02*
X98160750Y84720250D01*
X98160750Y83873250D01*
X98583750Y83873250D01*
X98583750Y84720250D01*
G36*
X98583750Y84720250D02*
X98160750Y84720250D01*
X98160750Y83873250D01*
X98583750Y83873250D01*
X98583750Y84720250D01*
G37*
X97102750Y87047250D02*
X96255750Y87047250D01*
X96255750Y86625250D01*
X97102750Y86625250D01*
X97102750Y87047250D01*
G36*
X97102750Y87047250D02*
X96255750Y87047250D01*
X96255750Y86625250D01*
X97102750Y86625250D01*
X97102750Y87047250D01*
G37*
D22*
X94988750Y87252750D02*
X94988750Y88918750D01*
X94433417Y87728486D01*
X93878083Y88918750D01*
X93878083Y87252750D01*
X92417756Y87252750D02*
X92417756Y88124623D01*
X92497354Y88283819D01*
X92656550Y88363417D01*
X92973090Y88363417D01*
X93132285Y88283819D01*
X92417756Y87332348D02*
X92576952Y87252750D01*
X92973090Y87252750D01*
X93132285Y87332348D01*
X93211883Y87491543D01*
X93211883Y87648888D01*
X93132285Y87808083D01*
X92973090Y87887681D01*
X92576952Y87887681D01*
X92417756Y87967279D01*
X90957429Y87252750D02*
X90957429Y88918750D01*
X90957429Y87332348D02*
X91116625Y87252750D01*
X91435016Y87252750D01*
X91592360Y87332348D01*
X91671958Y87411946D01*
X91751556Y87569290D01*
X91751556Y88046877D01*
X91671958Y88204221D01*
X91592360Y88283819D01*
X91435016Y88363417D01*
X91116625Y88363417D01*
X90957429Y88283819D01*
X89576700Y87332348D02*
X89735896Y87252750D01*
X90052436Y87252750D01*
X90211631Y87332348D01*
X90291229Y87491543D01*
X90291229Y88124623D01*
X90211631Y88283819D01*
X90052436Y88363417D01*
X89735896Y88363417D01*
X89576700Y88283819D01*
X89497102Y88124623D01*
X89497102Y87967279D01*
X90291229Y87808083D01*
X87498303Y88918750D02*
X87102165Y87252750D01*
X86783774Y88443014D01*
X86467234Y87252750D01*
X86071096Y88918750D01*
X85325298Y87252750D02*
X85325298Y88363417D01*
X85325298Y88918750D02*
X85404896Y88839152D01*
X85325298Y88759554D01*
X85245700Y88839152D01*
X85325298Y88918750D01*
X85325298Y88759554D01*
X84579500Y88363417D02*
X83944569Y88363417D01*
X84340707Y88918750D02*
X84340707Y87491543D01*
X84262960Y87332348D01*
X84103764Y87252750D01*
X83944569Y87252750D01*
X83278369Y87252750D02*
X83278369Y88918750D01*
X82563840Y87252750D02*
X82563840Y88124623D01*
X82643438Y88283819D01*
X82802633Y88363417D01*
X83039576Y88363417D01*
X83198771Y88283819D01*
X83278369Y88204221D01*
X94194623Y84753750D02*
X94988750Y84753750D01*
X94988750Y86419750D01*
X93448825Y84753750D02*
X93448825Y85864417D01*
X93448825Y86419750D02*
X93528423Y86340152D01*
X93448825Y86260554D01*
X93369227Y86340152D01*
X93448825Y86419750D01*
X93448825Y86260554D01*
X92703027Y84753750D02*
X92703027Y86419750D01*
X92703027Y85784819D02*
X92543831Y85864417D01*
X92227291Y85864417D01*
X92068096Y85784819D01*
X91988498Y85705221D01*
X91908900Y85547877D01*
X91908900Y85070290D01*
X91988498Y84912946D01*
X92068096Y84833348D01*
X92227291Y84753750D01*
X92543831Y84753750D01*
X92703027Y84833348D01*
X91242700Y84753750D02*
X91242700Y85864417D01*
X91242700Y85547877D02*
X91163102Y85705221D01*
X91083504Y85784819D01*
X90926160Y85864417D01*
X90766964Y85864417D01*
X89386235Y84833348D02*
X89545431Y84753750D01*
X89861971Y84753750D01*
X90021166Y84833348D01*
X90100764Y84992543D01*
X90100764Y85625623D01*
X90021166Y85784819D01*
X89861971Y85864417D01*
X89545431Y85864417D01*
X89386235Y85784819D01*
X89306637Y85625623D01*
X89306637Y85468279D01*
X90100764Y85309083D01*
X88640437Y84753750D02*
X88640437Y86419750D01*
X88005506Y86419750D01*
X87846310Y86340152D01*
X87768564Y86260554D01*
X87688966Y86103210D01*
X87688966Y85864417D01*
X87768564Y85705221D01*
X87846310Y85625623D01*
X88005506Y85547877D01*
X88640437Y85547877D01*
X85991697Y84912946D02*
X86071295Y84833348D01*
X86308237Y84753750D01*
X86467433Y84753750D01*
X86706226Y84833348D01*
X86863570Y84992543D01*
X86943168Y85149888D01*
X87022766Y85468279D01*
X87022766Y85705221D01*
X86943168Y86023612D01*
X86863570Y86180957D01*
X86706226Y86340152D01*
X86467433Y86419750D01*
X86308237Y86419750D01*
X86071295Y86340152D01*
X85991697Y86260554D01*
X84770164Y85625623D02*
X84531370Y85547877D01*
X84453624Y85468279D01*
X84374026Y85309083D01*
X84374026Y85070290D01*
X84453624Y84912946D01*
X84531370Y84833348D01*
X84690566Y84753750D01*
X85325497Y84753750D01*
X85325497Y86419750D01*
X84770164Y86419750D01*
X84610968Y86340152D01*
X84531370Y86260554D01*
X84453624Y86103210D01*
X84453624Y85944014D01*
X84531370Y85784819D01*
X84610968Y85705221D01*
X84770164Y85625623D01*
X85325497Y85625623D01*
D15*
X101425000Y74611250D02*
X101775000Y74611250D01*
X101425000Y73661250D02*
X101775000Y73661250D01*
D17*
X18850000Y19685000D02*
X28140000Y19685000D01*
X28140000Y20955000D01*
X18850000Y20955000D01*
X18850000Y19685000D01*
G36*
X18850000Y19685000D02*
X28140000Y19685000D01*
X28140000Y20955000D01*
X18850000Y20955000D01*
X18850000Y19685000D01*
G37*
D11*
X18795000Y13080000D02*
X28195000Y13080000D01*
X28195000Y22480000D01*
X18795000Y22480000D01*
X18795000Y13080000D01*
D15*
X33021250Y47608750D02*
X33021250Y47958750D01*
X33971250Y47608750D02*
X33971250Y47958750D01*
D11*
X79680000Y84772500D02*
X57480000Y84772500D01*
G02*
X79680000Y84772500I11100000J0D01*
G01*
D17*
G36*
X79680000Y84772500D02*
X57480000Y84772500D01*
G02*
X79680000Y84772500I11100000J0D01*
G01*
G37*
D21*
X68580000Y74612500D02*
X68580000Y77152500D01*
D11*
X79680000Y84772500D02*
G02*
X57480000Y84772500I-11100000J0D01*
G01*
D21*
X67310000Y75882500D02*
X69850000Y75882500D01*
D10*
X30763750Y86187500D02*
X30763750Y88437500D01*
X30493750Y88707500D01*
X28243750Y88707500D01*
X27973750Y88437500D01*
X27973750Y86187500D01*
X28243750Y85917500D01*
X30493750Y85917500D01*
X30763750Y86187500D01*
D11*
X34786667Y87201250D02*
X34453334Y86201250D01*
X34120000Y87201250D01*
X33148889Y87153472D02*
X33243333Y87201250D01*
X33386667Y87201250D01*
X33530000Y87153472D01*
X33624444Y87057917D01*
X33672222Y86963472D01*
X33720000Y86772361D01*
X33720000Y86630139D01*
X33672222Y86439028D01*
X33624444Y86344583D01*
X33530000Y86249028D01*
X33386667Y86201250D01*
X33291111Y86201250D01*
X33148889Y86249028D01*
X33101111Y86296806D01*
X33101111Y86630139D01*
X33291111Y86630139D01*
X32701111Y86724583D02*
X32367778Y86724583D01*
X32224444Y86201250D02*
X32701111Y86201250D01*
X32701111Y87201250D01*
X32224444Y87201250D01*
X31824444Y86201250D02*
X31824444Y87201250D01*
X31253333Y86201250D01*
X31253333Y87201250D01*
D15*
X101425000Y79691250D02*
X101775000Y79691250D01*
X101425000Y78741250D02*
X101775000Y78741250D01*
X32701250Y45418750D02*
X32701250Y45068750D01*
X31751250Y45418750D02*
X31751250Y45068750D01*
X53482500Y57942500D02*
X53832500Y57942500D01*
X53482500Y56992500D02*
X53832500Y56992500D01*
D11*
X69627500Y38220000D02*
X81877500Y38220000D01*
X81877500Y53220000D01*
X69627500Y53220000D01*
X65627500Y53220000D02*
X53377500Y53220000D01*
X53377500Y38220000D01*
X65627500Y38220000D01*
X10795000Y80327500D02*
X10795000Y78343125D01*
X17780000Y78343125D01*
X17780000Y79375000D01*
X27305000Y79375000D01*
X27305000Y78343125D01*
X34290000Y78343125D01*
X34290000Y80327500D01*
X34290000Y83820000D02*
X34290000Y85804375D01*
X27305000Y85804375D01*
X27305000Y84772500D01*
X17780000Y84772500D01*
X17780000Y85804375D01*
X10795000Y85804375D01*
X10795000Y83820000D01*
X24045833Y78168333D02*
X24045833Y76835000D01*
X24523610Y78930556D02*
X24999166Y77501667D01*
X23761388Y77501667D01*
X22970277Y77406111D02*
X22019166Y77406111D01*
X23161388Y76835000D02*
X22494721Y78835000D01*
X21828055Y76835000D01*
X21228055Y78835000D02*
X20085833Y78835000D01*
X20656944Y76835000D02*
X20656944Y78835000D01*
D10*
X56805000Y74940000D02*
X56805000Y76190000D01*
X54955000Y74940000D02*
X54955000Y76190000D01*
D11*
X20685000Y67480000D02*
X18685000Y67480000D01*
X23785000Y67230000D02*
X23785000Y65610000D01*
G02*
X21185000Y57180000I-4089848J-3354549D01*
G01*
X15585000Y67230000D02*
X15585000Y65610000D01*
G03*
X18185000Y57180000I4089848J-3354549D01*
G01*
D16*
X65722500Y54800500D02*
X65595500Y57721500D01*
X65341500Y57975500D02*
X65595500Y57721500D01*
D17*
X58991500Y54927500D02*
X59753500Y54927500D01*
X59753500Y54419500D01*
X58991500Y54419500D01*
X58991500Y54927500D01*
G36*
X58991500Y54927500D02*
X59753500Y54927500D01*
X59753500Y54419500D01*
X58991500Y54419500D01*
X58991500Y54927500D01*
G37*
X64071500Y54927500D02*
X65976500Y54927500D01*
X65976500Y54419500D01*
X64071500Y54419500D01*
X64071500Y54927500D01*
G36*
X64071500Y54927500D02*
X65976500Y54927500D01*
X65976500Y54419500D01*
X64071500Y54419500D01*
X64071500Y54927500D01*
G37*
X55308500Y54927500D02*
X57213500Y54927500D01*
X57213500Y54419500D01*
X55308500Y54419500D01*
X55308500Y54927500D01*
G36*
X55308500Y54927500D02*
X57213500Y54927500D01*
X57213500Y54419500D01*
X55308500Y54419500D01*
X55308500Y54927500D01*
G37*
X55308500Y54419500D02*
X65976500Y54419500D01*
X65976500Y53657500D01*
X55308500Y53657500D01*
X55308500Y54419500D01*
G36*
X55308500Y54419500D02*
X65976500Y54419500D01*
X65976500Y53657500D01*
X55308500Y53657500D01*
X55308500Y54419500D01*
G37*
X61531500Y54927500D02*
X62293500Y54927500D01*
X62293500Y54419500D01*
X61531500Y54419500D01*
X61531500Y54927500D01*
G36*
X61531500Y54927500D02*
X62293500Y54927500D01*
X62293500Y54419500D01*
X61531500Y54419500D01*
X61531500Y54927500D01*
G37*
D16*
X55689500Y57721500D02*
X55562500Y54800500D01*
X55689500Y57721500D02*
X55943500Y57975500D01*
X65341500Y57975500D02*
X55943500Y57975500D01*
D18*
X56146700Y57365900D03*
D19*
X56146700Y57365900D03*
D11*
X55892500Y15240000D02*
X78092500Y15240000D01*
G02*
X55892500Y15240000I-11100000J0D01*
G01*
D17*
G36*
X55892500Y15240000D02*
X78092500Y15240000D01*
G02*
X55892500Y15240000I-11100000J0D01*
G01*
G37*
D21*
X66992500Y25400000D02*
X66992500Y22860000D01*
D11*
X55892500Y15240000D02*
G02*
X78092500Y15240000I11100000J0D01*
G01*
D21*
X68262500Y24130000D02*
X65722500Y24130000D01*
D11*
X-2900000Y9220000D02*
X9100000Y9220000D01*
X9100000Y11000000D01*
X9100000Y14000000D02*
X9100000Y16000000D01*
X9100000Y19000000D02*
X9100000Y20780000D01*
X-2900000Y20780000D01*
D20*
X8609584Y7935000D02*
X8394584Y7865000D01*
X8324584Y7793333D01*
X8252917Y7650000D01*
X8252917Y7435000D01*
X8324584Y7293333D01*
X8394584Y7221667D01*
X8537917Y7150000D01*
X9109584Y7150000D01*
X9109584Y8650000D01*
X8609584Y8650000D01*
X8466251Y8578333D01*
X8394584Y8506667D01*
X8324584Y8365000D01*
X8324584Y8221667D01*
X8394584Y8078333D01*
X8466251Y8006667D01*
X8609584Y7935000D01*
X9109584Y7935000D01*
X6937917Y7150000D02*
X6937917Y7935000D01*
X7009584Y8078333D01*
X7152917Y8150000D01*
X7437917Y8150000D01*
X7581250Y8078333D01*
X6937917Y7221667D02*
X7081250Y7150000D01*
X7437917Y7150000D01*
X7581250Y7221667D01*
X7652917Y7365000D01*
X7652917Y7506667D01*
X7581250Y7650000D01*
X7437917Y7721667D01*
X7081250Y7721667D01*
X6937917Y7793333D01*
X6337917Y8150000D02*
X5766250Y8150000D01*
X6122917Y8650000D02*
X6122917Y7365000D01*
X6052917Y7221667D01*
X5909584Y7150000D01*
X5766250Y7150000D01*
X5166250Y8150000D02*
X4594583Y8150000D01*
X4951250Y8650000D02*
X4951250Y7365000D01*
X4881250Y7221667D01*
X4737917Y7150000D01*
X4594583Y7150000D01*
X3351250Y7221667D02*
X3494583Y7150000D01*
X3779583Y7150000D01*
X3922916Y7221667D01*
X3994583Y7365000D01*
X3994583Y7935000D01*
X3922916Y8078333D01*
X3779583Y8150000D01*
X3494583Y8150000D01*
X3351250Y8078333D01*
X3279583Y7935000D01*
X3279583Y7793333D01*
X3994583Y7650000D01*
X2679583Y7150000D02*
X2679583Y8150000D01*
X2679583Y7865000D02*
X2607916Y8006667D01*
X2536250Y8078333D01*
X2394583Y8150000D01*
X2251250Y8150000D01*
X1651250Y8150000D02*
X1294583Y7150000D01*
X936250Y8150000D02*
X1294583Y7150000D01*
X1436250Y6793333D01*
X1507917Y6721667D01*
X1651250Y6650000D01*
D10*
X35685000Y64280000D02*
X35685000Y66530000D01*
X35415000Y66800000D01*
X33165000Y66800000D01*
X32895000Y66530000D01*
X32895000Y64280000D01*
X33165000Y64010000D01*
X35415000Y64010000D01*
X35685000Y64280000D01*
D11*
X35642222Y68151250D02*
X35023333Y68151250D01*
X35356666Y67770139D01*
X35213333Y67770139D01*
X35118889Y67722361D01*
X35071111Y67674583D01*
X35023333Y67580139D01*
X35023333Y67341250D01*
X35071111Y67246806D01*
X35118889Y67199028D01*
X35213333Y67151250D01*
X35498889Y67151250D01*
X35594444Y67199028D01*
X35642222Y67246806D01*
X34623333Y68151250D02*
X34290000Y67151250D01*
X33956666Y68151250D01*
X33556666Y68151250D02*
X32937777Y68151250D01*
X33271110Y67770139D01*
X33127777Y67770139D01*
X33033333Y67722361D01*
X32985555Y67674583D01*
X32937777Y67580139D01*
X32937777Y67341250D01*
X32985555Y67246806D01*
X33033333Y67199028D01*
X33127777Y67151250D01*
X33413333Y67151250D01*
X33508888Y67199028D01*
X33556666Y67246806D01*
X67920000Y37985000D02*
X36220000Y37985000D01*
X36220000Y26785000D01*
X67920000Y26785000D01*
X67920000Y37985000D01*
X10953750Y94846527D02*
X10953750Y95513194D01*
X10953750Y95417638D02*
X10905972Y95465416D01*
X10810417Y95513194D01*
X10668194Y95513194D01*
X10572639Y95465416D01*
X10524861Y95369860D01*
X10524861Y94846527D01*
X10524861Y95369860D02*
X10477083Y95465416D01*
X10382639Y95513194D01*
X10239306Y95513194D01*
X10143750Y95465416D01*
X10097083Y95369860D01*
X10097083Y94846527D01*
X9220416Y94846527D02*
X9220416Y95369860D01*
X9268194Y95465416D01*
X9363750Y95513194D01*
X9553750Y95513194D01*
X9649305Y95465416D01*
X9220416Y94894305D02*
X9315972Y94846527D01*
X9553750Y94846527D01*
X9649305Y94894305D01*
X9697083Y94989860D01*
X9697083Y95084305D01*
X9649305Y95179860D01*
X9553750Y95227638D01*
X9315972Y95227638D01*
X9220416Y95275416D01*
X8820416Y94846527D02*
X8297083Y95513194D01*
X8820416Y95513194D02*
X8297083Y94846527D01*
X7849305Y94942083D02*
X7801527Y94894305D01*
X7849305Y94846527D01*
X7897083Y94894305D01*
X7849305Y94942083D01*
X7849305Y94846527D01*
X6601528Y95846527D02*
X5982639Y95846527D01*
X6315972Y95465416D01*
X6172639Y95465416D01*
X6078195Y95417638D01*
X6030417Y95369860D01*
X5982639Y95275416D01*
X5982639Y95036527D01*
X6030417Y94942083D01*
X6078195Y94894305D01*
X6172639Y94846527D01*
X6458195Y94846527D01*
X6553750Y94894305D01*
X6601528Y94942083D01*
X5487083Y95132083D02*
X5011528Y95132083D01*
X5582639Y94846527D02*
X5249306Y95846527D01*
X4915972Y94846527D01*
X10953750Y92868750D02*
X10953750Y93535417D01*
X10953750Y93439861D02*
X10905972Y93487639D01*
X10810417Y93535417D01*
X10668194Y93535417D01*
X10572639Y93487639D01*
X10524861Y93392083D01*
X10524861Y92868750D01*
X10524861Y93392083D02*
X10477083Y93487639D01*
X10382639Y93535417D01*
X10239306Y93535417D01*
X10143750Y93487639D01*
X10097083Y93392083D01*
X10097083Y92868750D01*
X9220416Y92868750D02*
X9220416Y93392083D01*
X9268194Y93487639D01*
X9363750Y93535417D01*
X9553750Y93535417D01*
X9649305Y93487639D01*
X9220416Y92916528D02*
X9315972Y92868750D01*
X9553750Y92868750D01*
X9649305Y92916528D01*
X9697083Y93012083D01*
X9697083Y93106528D01*
X9649305Y93202083D01*
X9553750Y93249861D01*
X9315972Y93249861D01*
X9220416Y93297639D01*
X8820416Y92868750D02*
X8297083Y93535417D01*
X8820416Y93535417D02*
X8297083Y92868750D01*
X7849305Y92964306D02*
X7801527Y92916528D01*
X7849305Y92868750D01*
X7897083Y92916528D01*
X7849305Y92964306D01*
X7849305Y92868750D01*
X6030417Y92868750D02*
X6601528Y92868750D01*
X6315972Y92868750D02*
X6315972Y93868750D01*
X6411528Y93725417D01*
X6505972Y93630972D01*
X6601528Y93583194D01*
X5107084Y93868750D02*
X5582639Y93868750D01*
X5630417Y93392083D01*
X5582639Y93439861D01*
X5487084Y93487639D01*
X5249306Y93487639D01*
X5153750Y93439861D01*
X5107084Y93392083D01*
X5059306Y93297639D01*
X5059306Y93058750D01*
X5107084Y92964306D01*
X5153750Y92916528D01*
X5249306Y92868750D01*
X5487084Y92868750D01*
X5582639Y92916528D01*
X5630417Y92964306D01*
X4421528Y93868750D02*
X4325973Y93868750D01*
X4230417Y93820972D01*
X4182639Y93773194D01*
X4135973Y93678750D01*
X4088195Y93487639D01*
X4088195Y93249861D01*
X4135973Y93058750D01*
X4182639Y92964306D01*
X4230417Y92916528D01*
X4325973Y92868750D01*
X4421528Y92868750D01*
X4515973Y92916528D01*
X4563750Y92964306D01*
X4611528Y93058750D01*
X4659306Y93249861D01*
X4659306Y93487639D01*
X4611528Y93678750D01*
X4563750Y93773194D01*
X4515973Y93820972D01*
X4421528Y93868750D01*
X3688195Y93868750D02*
X3354862Y92868750D01*
X3021528Y93868750D01*
X2621528Y92868750D02*
X2621528Y93868750D01*
X2383750Y93868750D01*
X2240417Y93820972D01*
X2144861Y93725417D01*
X2098195Y93630972D01*
X2050417Y93439861D01*
X2050417Y93297639D01*
X2098195Y93106528D01*
X2144861Y93012083D01*
X2240417Y92916528D01*
X2383750Y92868750D01*
X2621528Y92868750D01*
X1031528Y92964306D02*
X1079306Y92916528D01*
X1221528Y92868750D01*
X1317084Y92868750D01*
X1460417Y92916528D01*
X1554861Y93012083D01*
X1602639Y93106528D01*
X1650417Y93297639D01*
X1650417Y93439861D01*
X1602639Y93630972D01*
X1554861Y93725417D01*
X1460417Y93820972D01*
X1317084Y93868750D01*
X1221528Y93868750D01*
X1079306Y93820972D01*
X1031528Y93773194D01*
X7525139Y5080000D02*
X8096250Y5080000D01*
X7810694Y5080000D02*
X7810694Y6080000D01*
X7906250Y5936667D01*
X8000694Y5842222D01*
X8096250Y5794444D01*
X7077361Y5984444D02*
X7029583Y6032222D01*
X6935139Y6080000D01*
X6696250Y6080000D01*
X6601806Y6032222D01*
X6554028Y5984444D01*
X6506250Y5890000D01*
X6506250Y5794444D01*
X6554028Y5651111D01*
X7125139Y5080000D01*
X6506250Y5080000D01*
X6106250Y6080000D02*
X5772917Y5080000D01*
X5439583Y6080000D01*
X4182916Y6127778D02*
X5039583Y4842222D01*
X3735138Y5984444D02*
X3687360Y6032222D01*
X3592916Y6080000D01*
X3354027Y6080000D01*
X3259583Y6032222D01*
X3211805Y5984444D01*
X3164027Y5890000D01*
X3164027Y5794444D01*
X3211805Y5651111D01*
X3782916Y5080000D01*
X3164027Y5080000D01*
X2287360Y5746667D02*
X2287360Y5080000D01*
X2526249Y6127778D02*
X2764027Y5413333D01*
X2145138Y5413333D01*
X1745138Y6080000D02*
X1411805Y5080000D01*
X1078471Y6080000D01*
D23*
X10604167Y18573750D02*
X10604167Y16287083D01*
X11271250Y5747083D02*
X8984583Y5747083D01*
X10127917Y4603750D02*
X10127917Y6890417D01*
X10127917Y88265000D02*
X10127917Y85978333D01*
D11*
X27072499Y34496806D02*
X27120277Y34449028D01*
X27262499Y34401250D01*
X27358055Y34401250D01*
X27501388Y34449028D01*
X27595832Y34544583D01*
X27643610Y34639028D01*
X27691388Y34830139D01*
X27691388Y34972361D01*
X27643610Y35163472D01*
X27595832Y35257917D01*
X27501388Y35353472D01*
X27358055Y35401250D01*
X27262499Y35401250D01*
X27120277Y35353472D01*
X27072499Y35305694D01*
X26624721Y35305694D02*
X26576943Y35353472D01*
X26482499Y35401250D01*
X26243610Y35401250D01*
X26149166Y35353472D01*
X26101388Y35305694D01*
X26053610Y35211250D01*
X26053610Y35115694D01*
X26101388Y34972361D01*
X26672499Y34401250D01*
X26053610Y34401250D01*
X25558054Y34401250D02*
X25368054Y34401250D01*
X25272499Y34449028D01*
X25224721Y34496806D01*
X25130277Y34639028D01*
X25082499Y34830139D01*
X25082499Y35211250D01*
X25130277Y35305694D01*
X25176943Y35353472D01*
X25272499Y35401250D01*
X25463610Y35401250D01*
X25558054Y35353472D01*
X25605832Y35305694D01*
X25653610Y35211250D01*
X25653610Y34972361D01*
X25605832Y34877917D01*
X25558054Y34830139D01*
X25463610Y34782361D01*
X25272499Y34782361D01*
X25176943Y34830139D01*
X25130277Y34877917D01*
X25082499Y34972361D01*
X30163750Y36090000D02*
X30163750Y35280000D01*
X30115972Y35185556D01*
X30068194Y35137778D01*
X29973750Y35090000D01*
X29782639Y35090000D01*
X29687083Y35137778D01*
X29640417Y35185556D01*
X29592639Y35280000D01*
X29592639Y36090000D01*
X29144861Y35994444D02*
X29097083Y36042222D01*
X29002639Y36090000D01*
X28763750Y36090000D01*
X28669306Y36042222D01*
X28621528Y35994444D01*
X28573750Y35900000D01*
X28573750Y35804444D01*
X28621528Y35661111D01*
X29192639Y35090000D01*
X28573750Y35090000D01*
X107254583Y83290000D02*
X107587916Y83766667D01*
X107825694Y83290000D02*
X107825694Y84290000D01*
X107444583Y84290000D01*
X107349027Y84242222D01*
X107302361Y84194444D01*
X107254583Y84100000D01*
X107254583Y83956667D01*
X107302361Y83861111D01*
X107349027Y83813333D01*
X107444583Y83766667D01*
X107825694Y83766667D01*
X106806805Y84194444D02*
X106759027Y84242222D01*
X106664583Y84290000D01*
X106425694Y84290000D01*
X106331250Y84242222D01*
X106283472Y84194444D01*
X106235694Y84100000D01*
X106235694Y84004444D01*
X106283472Y83861111D01*
X106854583Y83290000D01*
X106235694Y83290000D01*
X105835694Y84290000D02*
X105216805Y84290000D01*
X105550138Y83908889D01*
X105406805Y83908889D01*
X105312361Y83861111D01*
X105264583Y83813333D01*
X105216805Y83718889D01*
X105216805Y83480000D01*
X105264583Y83385556D01*
X105312361Y83337778D01*
X105406805Y83290000D01*
X105692361Y83290000D01*
X105787916Y83337778D01*
X105835694Y83385556D01*
X40776250Y59578750D02*
X40776250Y58864306D01*
X40824028Y58722083D01*
X40919583Y58626528D01*
X41061805Y58578750D01*
X41157361Y58578750D01*
X39899583Y59578750D02*
X40090694Y59578750D01*
X40186250Y59530972D01*
X40232917Y59483194D01*
X40328472Y59340972D01*
X40376250Y59149861D01*
X40376250Y58768750D01*
X40328472Y58674306D01*
X40280694Y58626528D01*
X40186250Y58578750D01*
X39995139Y58578750D01*
X39899583Y58626528D01*
X39852917Y58674306D01*
X39805139Y58768750D01*
X39805139Y59007639D01*
X39852917Y59102083D01*
X39899583Y59149861D01*
X39995139Y59197639D01*
X40186250Y59197639D01*
X40280694Y59149861D01*
X40328472Y59102083D01*
X40376250Y59007639D01*
X22764444Y35576111D02*
X22812222Y35623889D01*
X22860000Y35766111D01*
X22860000Y35861667D01*
X22812222Y36005000D01*
X22716667Y36099444D01*
X22622222Y36147222D01*
X22431111Y36195000D01*
X22288889Y36195000D01*
X22097778Y36147222D01*
X22003333Y36099444D01*
X21907778Y36005000D01*
X21860000Y35861667D01*
X21860000Y35766111D01*
X21907778Y35623889D01*
X21955556Y35576111D01*
X21955556Y35128333D02*
X21907778Y35080555D01*
X21860000Y34986111D01*
X21860000Y34747222D01*
X21907778Y34652778D01*
X21955556Y34605000D01*
X22050000Y34557222D01*
X22145556Y34557222D01*
X22288889Y34605000D01*
X22860000Y35176111D01*
X22860000Y34557222D01*
X22860000Y33586111D02*
X22860000Y34157222D01*
X22860000Y33871666D02*
X21860000Y33871666D01*
X22003333Y33967222D01*
X22097778Y34061666D01*
X22145556Y34157222D01*
X117938194Y35065000D02*
X118271527Y35541667D01*
X118509305Y35065000D02*
X118509305Y36065000D01*
X118128194Y36065000D01*
X118032638Y36017222D01*
X117985972Y35969444D01*
X117938194Y35875000D01*
X117938194Y35731667D01*
X117985972Y35636111D01*
X118032638Y35588333D01*
X118128194Y35541667D01*
X118509305Y35541667D01*
X117490416Y35969444D02*
X117442638Y36017222D01*
X117348194Y36065000D01*
X117109305Y36065000D01*
X117014861Y36017222D01*
X116967083Y35969444D01*
X116919305Y35875000D01*
X116919305Y35779444D01*
X116967083Y35636111D01*
X117538194Y35065000D01*
X116919305Y35065000D01*
X116281527Y36065000D02*
X116185972Y36065000D01*
X116090416Y36017222D01*
X116042638Y35969444D01*
X115995972Y35875000D01*
X115948194Y35683889D01*
X115948194Y35446111D01*
X115995972Y35255000D01*
X116042638Y35160556D01*
X116090416Y35112778D01*
X116185972Y35065000D01*
X116281527Y35065000D01*
X116375972Y35112778D01*
X116423749Y35160556D01*
X116471527Y35255000D01*
X116519305Y35446111D01*
X116519305Y35683889D01*
X116471527Y35875000D01*
X116423749Y35969444D01*
X116375972Y36017222D01*
X116281527Y36065000D01*
X31385000Y62366111D02*
X32195000Y62366111D01*
X32289444Y62318333D01*
X32337222Y62270555D01*
X32385000Y62176111D01*
X32385000Y61985000D01*
X32337222Y61889444D01*
X32289444Y61842778D01*
X32195000Y61795000D01*
X31385000Y61795000D01*
X32385000Y60823889D02*
X32385000Y61395000D01*
X32385000Y61109444D02*
X31385000Y61109444D01*
X31528333Y61205000D01*
X31622778Y61299444D01*
X31670556Y61395000D01*
X30616250Y67836805D02*
X30139583Y68170138D01*
X30616250Y68407916D02*
X29616250Y68407916D01*
X29616250Y68026805D01*
X29664028Y67931249D01*
X29711806Y67884583D01*
X29806250Y67836805D01*
X29949583Y67836805D01*
X30045139Y67884583D01*
X30092917Y67931249D01*
X30139583Y68026805D01*
X30139583Y68407916D01*
X30616250Y66865694D02*
X30616250Y67436805D01*
X30616250Y67151249D02*
X29616250Y67151249D01*
X29759583Y67246805D01*
X29854028Y67341249D01*
X29901806Y67436805D01*
X30616250Y66370138D02*
X30616250Y66180138D01*
X30568472Y66084583D01*
X30520694Y66036805D01*
X30378472Y65942361D01*
X30187361Y65894583D01*
X29806250Y65894583D01*
X29711806Y65942361D01*
X29664028Y65989027D01*
X29616250Y66084583D01*
X29616250Y66275694D01*
X29664028Y66370138D01*
X29711806Y66417916D01*
X29806250Y66465694D01*
X30045139Y66465694D01*
X30139583Y66417916D01*
X30187361Y66370138D01*
X30235139Y66275694D01*
X30235139Y66084583D01*
X30187361Y65989027D01*
X30139583Y65942361D01*
X30045139Y65894583D01*
X19320417Y10074306D02*
X19320417Y10407639D01*
X19843750Y10407639D02*
X18843750Y10407639D01*
X18843750Y9930972D01*
X19843750Y8959861D02*
X19843750Y9530972D01*
X19843750Y9245416D02*
X18843750Y9245416D01*
X18987083Y9340972D01*
X19081528Y9435416D01*
X19129306Y9530972D01*
X33194861Y38513056D02*
X33242639Y38465278D01*
X33384861Y38417500D01*
X33480417Y38417500D01*
X33623750Y38465278D01*
X33718194Y38560833D01*
X33765972Y38655278D01*
X33813750Y38846389D01*
X33813750Y38988611D01*
X33765972Y39179722D01*
X33718194Y39274167D01*
X33623750Y39369722D01*
X33480417Y39417500D01*
X33384861Y39417500D01*
X33242639Y39369722D01*
X33194861Y39321944D01*
X32223750Y38417500D02*
X32794861Y38417500D01*
X32509305Y38417500D02*
X32509305Y39417500D01*
X32604861Y39274167D01*
X32699305Y39179722D01*
X32794861Y39131944D01*
X31300417Y39417500D02*
X31775972Y39417500D01*
X31823750Y38940833D01*
X31775972Y38988611D01*
X31680417Y39036389D01*
X31442639Y39036389D01*
X31347083Y38988611D01*
X31300417Y38940833D01*
X31252639Y38846389D01*
X31252639Y38607500D01*
X31300417Y38513056D01*
X31347083Y38465278D01*
X31442639Y38417500D01*
X31680417Y38417500D01*
X31775972Y38465278D01*
X31823750Y38513056D01*
X2095061Y26641550D02*
X2428394Y27118217D01*
X2666172Y26641550D02*
X2666172Y27641550D01*
X2285061Y27641550D01*
X2189505Y27593772D01*
X2142839Y27545994D01*
X2095061Y27451550D01*
X2095061Y27308217D01*
X2142839Y27212661D01*
X2189505Y27164883D01*
X2285061Y27118217D01*
X2666172Y27118217D01*
X1505061Y27212661D02*
X1599505Y27260439D01*
X1647283Y27308217D01*
X1695061Y27403772D01*
X1695061Y27451550D01*
X1647283Y27545994D01*
X1599505Y27593772D01*
X1505061Y27641550D01*
X1313950Y27641550D01*
X1218394Y27593772D01*
X1171728Y27545994D01*
X1123950Y27451550D01*
X1123950Y27403772D01*
X1171728Y27308217D01*
X1218394Y27260439D01*
X1313950Y27212661D01*
X1505061Y27212661D01*
X1599505Y27164883D01*
X1647283Y27118217D01*
X1695061Y27022661D01*
X1695061Y26831550D01*
X1647283Y26737106D01*
X1599505Y26689328D01*
X1505061Y26641550D01*
X1313950Y26641550D01*
X1218394Y26689328D01*
X1171728Y26737106D01*
X1123950Y26831550D01*
X1123950Y27022661D01*
X1171728Y27118217D01*
X1218394Y27164883D01*
X1313950Y27212661D01*
X18557569Y35576111D02*
X18605347Y35623889D01*
X18653125Y35766111D01*
X18653125Y35861667D01*
X18605347Y36005000D01*
X18509792Y36099444D01*
X18415347Y36147222D01*
X18224236Y36195000D01*
X18082014Y36195000D01*
X17890903Y36147222D01*
X17796458Y36099444D01*
X17700903Y36005000D01*
X17653125Y35861667D01*
X17653125Y35766111D01*
X17700903Y35623889D01*
X17748681Y35576111D01*
X17653125Y35176111D02*
X17653125Y34509444D01*
X18653125Y34938333D01*
X28524506Y27543056D02*
X28476728Y27638611D01*
X28381172Y27734167D01*
X28238950Y27876389D01*
X28191172Y27971944D01*
X28191172Y28067500D01*
X28428950Y28019722D02*
X28381172Y28114167D01*
X28285617Y28209722D01*
X28095617Y28257500D01*
X27762283Y28257500D01*
X27572283Y28209722D01*
X27476728Y28114167D01*
X27428950Y28019722D01*
X27428950Y27828611D01*
X27476728Y27734167D01*
X27572283Y27638611D01*
X27762283Y27590833D01*
X28095617Y27590833D01*
X28285617Y27638611D01*
X28381172Y27734167D01*
X28428950Y27828611D01*
X28428950Y28019722D01*
X27524506Y27095278D02*
X27476728Y27047500D01*
X27428950Y26953056D01*
X27428950Y26714167D01*
X27476728Y26619723D01*
X27524506Y26571945D01*
X27618950Y26524167D01*
X27714506Y26524167D01*
X27857839Y26571945D01*
X28428950Y27143056D01*
X28428950Y26524167D01*
X84612500Y42595555D02*
X84135833Y42928888D01*
X84612500Y43166666D02*
X83612500Y43166666D01*
X83612500Y42785555D01*
X83660278Y42689999D01*
X83708056Y42643333D01*
X83802500Y42595555D01*
X83945833Y42595555D01*
X84041389Y42643333D01*
X84089167Y42689999D01*
X84135833Y42785555D01*
X84135833Y43166666D01*
X84612500Y41624444D02*
X84612500Y42195555D01*
X84612500Y41909999D02*
X83612500Y41909999D01*
X83755833Y42005555D01*
X83850278Y42099999D01*
X83898056Y42195555D01*
X83612500Y40701111D02*
X83612500Y41176666D01*
X84089167Y41224444D01*
X84041389Y41176666D01*
X83993611Y41081111D01*
X83993611Y40843333D01*
X84041389Y40747777D01*
X84089167Y40701111D01*
X84183611Y40653333D01*
X84422500Y40653333D01*
X84516944Y40701111D01*
X84564722Y40747777D01*
X84612500Y40843333D01*
X84612500Y41081111D01*
X84564722Y41176666D01*
X84516944Y41224444D01*
X14779861Y45498056D02*
X14827639Y45450278D01*
X14969861Y45402500D01*
X15065417Y45402500D01*
X15208750Y45450278D01*
X15303194Y45545833D01*
X15350972Y45640278D01*
X15398750Y45831389D01*
X15398750Y45973611D01*
X15350972Y46164722D01*
X15303194Y46259167D01*
X15208750Y46354722D01*
X15065417Y46402500D01*
X14969861Y46402500D01*
X14827639Y46354722D01*
X14779861Y46306944D01*
X13808750Y45402500D02*
X14379861Y45402500D01*
X14094305Y45402500D02*
X14094305Y46402500D01*
X14189861Y46259167D01*
X14284305Y46164722D01*
X14379861Y46116944D01*
X12932083Y46069167D02*
X12932083Y45402500D01*
X13170972Y46450278D02*
X13408750Y45735833D01*
X12789861Y45735833D01*
X26345972Y63356944D02*
X26441527Y63404722D01*
X26537083Y63500278D01*
X26679305Y63642500D01*
X26774860Y63690278D01*
X26870416Y63690278D01*
X26822638Y63452500D02*
X26917083Y63500278D01*
X27012638Y63595833D01*
X27060416Y63785833D01*
X27060416Y64119167D01*
X27012638Y64309167D01*
X26917083Y64404722D01*
X26822638Y64452500D01*
X26631527Y64452500D01*
X26537083Y64404722D01*
X26441527Y64309167D01*
X26393749Y64119167D01*
X26393749Y63785833D01*
X26441527Y63595833D01*
X26537083Y63500278D01*
X26631527Y63452500D01*
X26822638Y63452500D01*
X25945972Y64452500D02*
X25327083Y64452500D01*
X25660416Y64071389D01*
X25517083Y64071389D01*
X25422639Y64023611D01*
X25374861Y63975833D01*
X25327083Y63881389D01*
X25327083Y63642500D01*
X25374861Y63548056D01*
X25422639Y63500278D01*
X25517083Y63452500D01*
X25802639Y63452500D01*
X25898194Y63500278D01*
X25945972Y63548056D01*
X31343750Y45929305D02*
X30867083Y46262638D01*
X31343750Y46500416D02*
X30343750Y46500416D01*
X30343750Y46119305D01*
X30391528Y46023749D01*
X30439306Y45977083D01*
X30533750Y45929305D01*
X30677083Y45929305D01*
X30772639Y45977083D01*
X30820417Y46023749D01*
X30867083Y46119305D01*
X30867083Y46500416D01*
X31343750Y44958194D02*
X31343750Y45529305D01*
X31343750Y45243749D02*
X30343750Y45243749D01*
X30487083Y45339305D01*
X30581528Y45433749D01*
X30629306Y45529305D01*
X30343750Y44081527D02*
X30343750Y44272638D01*
X30391528Y44368194D01*
X30439306Y44414861D01*
X30581528Y44510416D01*
X30772639Y44558194D01*
X31153750Y44558194D01*
X31248194Y44510416D01*
X31295972Y44462638D01*
X31343750Y44368194D01*
X31343750Y44177083D01*
X31295972Y44081527D01*
X31248194Y44034861D01*
X31153750Y43987083D01*
X30914861Y43987083D01*
X30820417Y44034861D01*
X30772639Y44081527D01*
X30724861Y44177083D01*
X30724861Y44368194D01*
X30772639Y44462638D01*
X30820417Y44510416D01*
X30914861Y44558194D01*
X33820000Y44268611D02*
X34630000Y44268611D01*
X34724444Y44220833D01*
X34772222Y44173055D01*
X34820000Y44078611D01*
X34820000Y43887500D01*
X34772222Y43791944D01*
X34724444Y43745278D01*
X34630000Y43697500D01*
X33820000Y43697500D01*
X33820000Y42774167D02*
X33820000Y43249722D01*
X34296667Y43297500D01*
X34248889Y43249722D01*
X34201111Y43154167D01*
X34201111Y42916389D01*
X34248889Y42820833D01*
X34296667Y42774167D01*
X34391111Y42726389D01*
X34630000Y42726389D01*
X34724444Y42774167D01*
X34772222Y42820833D01*
X34820000Y42916389D01*
X34820000Y43154167D01*
X34772222Y43249722D01*
X34724444Y43297500D01*
X107254583Y71701250D02*
X107587916Y72177917D01*
X107825694Y71701250D02*
X107825694Y72701250D01*
X107444583Y72701250D01*
X107349027Y72653472D01*
X107302361Y72605694D01*
X107254583Y72511250D01*
X107254583Y72367917D01*
X107302361Y72272361D01*
X107349027Y72224583D01*
X107444583Y72177917D01*
X107825694Y72177917D01*
X106806805Y72605694D02*
X106759027Y72653472D01*
X106664583Y72701250D01*
X106425694Y72701250D01*
X106331250Y72653472D01*
X106283472Y72605694D01*
X106235694Y72511250D01*
X106235694Y72415694D01*
X106283472Y72272361D01*
X106854583Y71701250D01*
X106235694Y71701250D01*
X105359027Y72367917D02*
X105359027Y71701250D01*
X105597916Y72749028D02*
X105835694Y72034583D01*
X105216805Y72034583D01*
X7778750Y68081111D02*
X6778750Y68081111D01*
X6778750Y67843333D01*
X6826528Y67700000D01*
X6922083Y67604444D01*
X7016528Y67557778D01*
X7207639Y67510000D01*
X7349861Y67510000D01*
X7540972Y67557778D01*
X7635417Y67604444D01*
X7730972Y67700000D01*
X7778750Y67843333D01*
X7778750Y68081111D01*
X6778750Y66586667D02*
X6778750Y67062222D01*
X7255417Y67110000D01*
X7207639Y67062222D01*
X7159861Y66966667D01*
X7159861Y66728889D01*
X7207639Y66633333D01*
X7255417Y66586667D01*
X7349861Y66538889D01*
X7588750Y66538889D01*
X7683194Y66586667D01*
X7730972Y66633333D01*
X7778750Y66728889D01*
X7778750Y66966667D01*
X7730972Y67062222D01*
X7683194Y67110000D01*
X47626250Y58578750D02*
X47626250Y59578750D01*
X47388472Y59578750D01*
X47245139Y59530972D01*
X47149583Y59435417D01*
X47102917Y59340972D01*
X47055139Y59149861D01*
X47055139Y59007639D01*
X47102917Y58816528D01*
X47149583Y58722083D01*
X47245139Y58626528D01*
X47388472Y58578750D01*
X47626250Y58578750D01*
X46178472Y59245417D02*
X46178472Y58578750D01*
X46417361Y59626528D02*
X46655139Y58912083D01*
X46036250Y58912083D01*
X31578750Y41975139D02*
X31102083Y42308472D01*
X31578750Y42546250D02*
X30578750Y42546250D01*
X30578750Y42165139D01*
X30626528Y42069583D01*
X30674306Y42022917D01*
X30768750Y41975139D01*
X30912083Y41975139D01*
X31007639Y42022917D01*
X31055417Y42069583D01*
X31102083Y42165139D01*
X31102083Y42546250D01*
X30912083Y41098472D02*
X31578750Y41098472D01*
X30530972Y41337361D02*
X31245417Y41575139D01*
X31245417Y40956250D01*
X50323978Y53333127D02*
X50323978Y53809794D01*
X49323978Y53809794D01*
X49323978Y52933127D02*
X49323978Y52314238D01*
X49705089Y52647571D01*
X49705089Y52504238D01*
X49752867Y52409794D01*
X49800645Y52362016D01*
X49895089Y52314238D01*
X50133978Y52314238D01*
X50228422Y52362016D01*
X50276200Y52409794D01*
X50323978Y52504238D01*
X50323978Y52789794D01*
X50276200Y52885349D01*
X50228422Y52933127D01*
X17049444Y35576111D02*
X17097222Y35623889D01*
X17145000Y35766111D01*
X17145000Y35861667D01*
X17097222Y36005000D01*
X17001667Y36099444D01*
X16907222Y36147222D01*
X16716111Y36195000D01*
X16573889Y36195000D01*
X16382778Y36147222D01*
X16288333Y36099444D01*
X16192778Y36005000D01*
X16145000Y35861667D01*
X16145000Y35766111D01*
X16192778Y35623889D01*
X16240556Y35576111D01*
X17145000Y35080555D02*
X17145000Y34890555D01*
X17097222Y34795000D01*
X17049444Y34747222D01*
X16907222Y34652778D01*
X16716111Y34605000D01*
X16335000Y34605000D01*
X16240556Y34652778D01*
X16192778Y34699444D01*
X16145000Y34795000D01*
X16145000Y34986111D01*
X16192778Y35080555D01*
X16240556Y35128333D01*
X16335000Y35176111D01*
X16573889Y35176111D01*
X16668333Y35128333D01*
X16716111Y35080555D01*
X16763889Y34986111D01*
X16763889Y34795000D01*
X16716111Y34699444D01*
X16668333Y34652778D01*
X16573889Y34605000D01*
X84612500Y48786805D02*
X84135833Y49120138D01*
X84612500Y49357916D02*
X83612500Y49357916D01*
X83612500Y48976805D01*
X83660278Y48881249D01*
X83708056Y48834583D01*
X83802500Y48786805D01*
X83945833Y48786805D01*
X84041389Y48834583D01*
X84089167Y48881249D01*
X84135833Y48976805D01*
X84135833Y49357916D01*
X84612500Y47815694D02*
X84612500Y48386805D01*
X84612500Y48101249D02*
X83612500Y48101249D01*
X83755833Y48196805D01*
X83850278Y48291249D01*
X83898056Y48386805D01*
X83612500Y47177916D02*
X83612500Y47082361D01*
X83660278Y46986805D01*
X83708056Y46939027D01*
X83802500Y46892361D01*
X83993611Y46844583D01*
X84231389Y46844583D01*
X84422500Y46892361D01*
X84516944Y46939027D01*
X84564722Y46986805D01*
X84612500Y47082361D01*
X84612500Y47177916D01*
X84564722Y47272361D01*
X84516944Y47320138D01*
X84422500Y47367916D01*
X84231389Y47415694D01*
X83993611Y47415694D01*
X83802500Y47367916D01*
X83708056Y47320138D01*
X83660278Y47272361D01*
X83612500Y47177916D01*
X31820000Y37539444D02*
X31343333Y37872777D01*
X31820000Y38110555D02*
X30820000Y38110555D01*
X30820000Y37729444D01*
X30867778Y37633888D01*
X30915556Y37587222D01*
X31010000Y37539444D01*
X31153333Y37539444D01*
X31248889Y37587222D01*
X31296667Y37633888D01*
X31343333Y37729444D01*
X31343333Y38110555D01*
X30915556Y37091666D02*
X30867778Y37043888D01*
X30820000Y36949444D01*
X30820000Y36710555D01*
X30867778Y36616111D01*
X30915556Y36568333D01*
X31010000Y36520555D01*
X31105556Y36520555D01*
X31248889Y36568333D01*
X31820000Y37139444D01*
X31820000Y36520555D01*
X31820000Y35549444D02*
X31820000Y36120555D01*
X31820000Y35834999D02*
X30820000Y35834999D01*
X30963333Y35930555D01*
X31057778Y36024999D01*
X31105556Y36120555D01*
X67922500Y54657500D02*
X67922500Y53943056D01*
X67970278Y53800833D01*
X68065833Y53705278D01*
X68208055Y53657500D01*
X68303611Y53657500D01*
X66999167Y54657500D02*
X67474722Y54657500D01*
X67522500Y54180833D01*
X67474722Y54228611D01*
X67379167Y54276389D01*
X67141389Y54276389D01*
X67045833Y54228611D01*
X66999167Y54180833D01*
X66951389Y54086389D01*
X66951389Y53847500D01*
X66999167Y53753056D01*
X67045833Y53705278D01*
X67141389Y53657500D01*
X67379167Y53657500D01*
X67474722Y53705278D01*
X67522500Y53753056D01*
X12687500Y76615833D02*
X12210833Y76949166D01*
X12687500Y77186944D02*
X11687500Y77186944D01*
X11687500Y76805833D01*
X11735278Y76710277D01*
X11783056Y76663611D01*
X11877500Y76615833D01*
X12020833Y76615833D01*
X12116389Y76663611D01*
X12164167Y76710277D01*
X12210833Y76805833D01*
X12210833Y77186944D01*
X11783056Y76168055D02*
X11735278Y76120277D01*
X11687500Y76025833D01*
X11687500Y75786944D01*
X11735278Y75692500D01*
X11783056Y75644722D01*
X11877500Y75596944D01*
X11973056Y75596944D01*
X12116389Y75644722D01*
X12687500Y76215833D01*
X12687500Y75596944D01*
X11783056Y75149166D02*
X11735278Y75101388D01*
X11687500Y75006944D01*
X11687500Y74768055D01*
X11735278Y74673611D01*
X11783056Y74625833D01*
X11877500Y74578055D01*
X11973056Y74578055D01*
X12116389Y74625833D01*
X12687500Y75196944D01*
X12687500Y74578055D01*
X33248750Y37030000D02*
X32772083Y37363333D01*
X33248750Y37601111D02*
X32248750Y37601111D01*
X32248750Y37220000D01*
X32296528Y37124444D01*
X32344306Y37077778D01*
X32438750Y37030000D01*
X32582083Y37030000D01*
X32677639Y37077778D01*
X32725417Y37124444D01*
X32772083Y37220000D01*
X32772083Y37601111D01*
X33248750Y36058889D02*
X33248750Y36630000D01*
X33248750Y36344444D02*
X32248750Y36344444D01*
X32392083Y36440000D01*
X32486528Y36534444D01*
X32534306Y36630000D01*
X14896527Y39894306D02*
X14944305Y39846528D01*
X15086527Y39798750D01*
X15182083Y39798750D01*
X15325416Y39846528D01*
X15419860Y39942083D01*
X15467638Y40036528D01*
X15515416Y40227639D01*
X15515416Y40369861D01*
X15467638Y40560972D01*
X15419860Y40655417D01*
X15325416Y40750972D01*
X15182083Y40798750D01*
X15086527Y40798750D01*
X14944305Y40750972D01*
X14896527Y40703194D01*
X14448749Y40703194D02*
X14400971Y40750972D01*
X14306527Y40798750D01*
X14067638Y40798750D01*
X13973194Y40750972D01*
X13925416Y40703194D01*
X13877638Y40608750D01*
X13877638Y40513194D01*
X13925416Y40369861D01*
X14496527Y39798750D01*
X13877638Y39798750D01*
X13477638Y40798750D02*
X12858749Y40798750D01*
X13192082Y40417639D01*
X13048749Y40417639D01*
X12954305Y40369861D01*
X12906527Y40322083D01*
X12858749Y40227639D01*
X12858749Y39988750D01*
X12906527Y39894306D01*
X12954305Y39846528D01*
X13048749Y39798750D01*
X13334305Y39798750D01*
X13429860Y39846528D01*
X13477638Y39894306D01*
X50657361Y58674306D02*
X50705139Y58626528D01*
X50847361Y58578750D01*
X50942917Y58578750D01*
X51086250Y58626528D01*
X51180694Y58722083D01*
X51228472Y58816528D01*
X51276250Y59007639D01*
X51276250Y59149861D01*
X51228472Y59340972D01*
X51180694Y59435417D01*
X51086250Y59530972D01*
X50942917Y59578750D01*
X50847361Y59578750D01*
X50705139Y59530972D01*
X50657361Y59483194D01*
X49686250Y58578750D02*
X50257361Y58578750D01*
X49971805Y58578750D02*
X49971805Y59578750D01*
X50067361Y59435417D01*
X50161805Y59340972D01*
X50257361Y59293194D01*
X49096250Y59149861D02*
X49190694Y59197639D01*
X49238472Y59245417D01*
X49286250Y59340972D01*
X49286250Y59388750D01*
X49238472Y59483194D01*
X49190694Y59530972D01*
X49096250Y59578750D01*
X48905139Y59578750D01*
X48809583Y59530972D01*
X48762917Y59483194D01*
X48715139Y59388750D01*
X48715139Y59340972D01*
X48762917Y59245417D01*
X48809583Y59197639D01*
X48905139Y59149861D01*
X49096250Y59149861D01*
X49190694Y59102083D01*
X49238472Y59055417D01*
X49286250Y58959861D01*
X49286250Y58768750D01*
X49238472Y58674306D01*
X49190694Y58626528D01*
X49096250Y58578750D01*
X48905139Y58578750D01*
X48809583Y58626528D01*
X48762917Y58674306D01*
X48715139Y58768750D01*
X48715139Y58959861D01*
X48762917Y59055417D01*
X48809583Y59102083D01*
X48905139Y59149861D01*
X84612500Y45611805D02*
X84135833Y45945138D01*
X84612500Y46182916D02*
X83612500Y46182916D01*
X83612500Y45801805D01*
X83660278Y45706249D01*
X83708056Y45659583D01*
X83802500Y45611805D01*
X83945833Y45611805D01*
X84041389Y45659583D01*
X84089167Y45706249D01*
X84135833Y45801805D01*
X84135833Y46182916D01*
X84612500Y44640694D02*
X84612500Y45211805D01*
X84612500Y44926249D02*
X83612500Y44926249D01*
X83755833Y45021805D01*
X83850278Y45116249D01*
X83898056Y45211805D01*
X84612500Y43669583D02*
X84612500Y44240694D01*
X84612500Y43955138D02*
X83612500Y43955138D01*
X83755833Y44050694D01*
X83850278Y44145138D01*
X83898056Y44240694D01*
X33570694Y52476250D02*
X33904027Y52952917D01*
X34141805Y52476250D02*
X34141805Y53476250D01*
X33760694Y53476250D01*
X33665138Y53428472D01*
X33618472Y53380694D01*
X33570694Y53286250D01*
X33570694Y53142917D01*
X33618472Y53047361D01*
X33665138Y52999583D01*
X33760694Y52952917D01*
X34141805Y52952917D01*
X32599583Y52476250D02*
X33170694Y52476250D01*
X32885138Y52476250D02*
X32885138Y53476250D01*
X32980694Y53332917D01*
X33075138Y53238472D01*
X33170694Y53190694D01*
X32151805Y53380694D02*
X32104027Y53428472D01*
X32009583Y53476250D01*
X31770694Y53476250D01*
X31676250Y53428472D01*
X31628472Y53380694D01*
X31580694Y53286250D01*
X31580694Y53190694D01*
X31628472Y53047361D01*
X32199583Y52476250D01*
X31580694Y52476250D01*
X34401250Y57295555D02*
X35115694Y57295555D01*
X35257917Y57343333D01*
X35353472Y57438888D01*
X35401250Y57581110D01*
X35401250Y57676666D01*
X35401250Y56324444D02*
X35401250Y56895555D01*
X35401250Y56609999D02*
X34401250Y56609999D01*
X34544583Y56705555D01*
X34639028Y56799999D01*
X34686806Y56895555D01*
X34401250Y55686666D02*
X34401250Y55591111D01*
X34449028Y55495555D01*
X34496806Y55447777D01*
X34591250Y55401111D01*
X34782361Y55353333D01*
X35020139Y55353333D01*
X35211250Y55401111D01*
X35305694Y55447777D01*
X35353472Y55495555D01*
X35401250Y55591111D01*
X35401250Y55686666D01*
X35353472Y55781111D01*
X35305694Y55828888D01*
X35211250Y55876666D01*
X35020139Y55924444D01*
X34782361Y55924444D01*
X34591250Y55876666D01*
X34496806Y55828888D01*
X34449028Y55781111D01*
X34401250Y55686666D01*
X1231250Y73268750D02*
X1231250Y72554306D01*
X1279028Y72412083D01*
X1374583Y72316528D01*
X1516805Y72268750D01*
X1612361Y72268750D01*
X260139Y72268750D02*
X831250Y72268750D01*
X545694Y72268750D02*
X545694Y73268750D01*
X641250Y73125417D01*
X735694Y73030972D01*
X831250Y72983194D01*
X57921250Y71367778D02*
X57444583Y71701111D01*
X57921250Y71938889D02*
X56921250Y71938889D01*
X56921250Y71557778D01*
X56969028Y71462222D01*
X57016806Y71415556D01*
X57111250Y71367778D01*
X57254583Y71367778D01*
X57350139Y71415556D01*
X57397917Y71462222D01*
X57444583Y71557778D01*
X57444583Y71938889D01*
X56921250Y70967778D02*
X56921250Y70301111D01*
X57921250Y70730000D01*
X8325000Y27663750D02*
X7848333Y27997083D01*
X8325000Y28234861D02*
X7325000Y28234861D01*
X7325000Y27853750D01*
X7372778Y27758194D01*
X7420556Y27711528D01*
X7515000Y27663750D01*
X7658333Y27663750D01*
X7753889Y27711528D01*
X7801667Y27758194D01*
X7848333Y27853750D01*
X7848333Y28234861D01*
X8325000Y27168194D02*
X8325000Y26978194D01*
X8277222Y26882639D01*
X8229444Y26834861D01*
X8087222Y26740417D01*
X7896111Y26692639D01*
X7515000Y26692639D01*
X7420556Y26740417D01*
X7372778Y26787083D01*
X7325000Y26882639D01*
X7325000Y27073750D01*
X7372778Y27168194D01*
X7420556Y27215972D01*
X7515000Y27263750D01*
X7753889Y27263750D01*
X7848333Y27215972D01*
X7896111Y27168194D01*
X7943889Y27073750D01*
X7943889Y26882639D01*
X7896111Y26787083D01*
X7848333Y26740417D01*
X7753889Y26692639D01*
X56381528Y22272500D02*
X56381528Y21558056D01*
X56429306Y21415833D01*
X56524861Y21320278D01*
X56667083Y21272500D01*
X56762639Y21272500D01*
X55981528Y22272500D02*
X55314861Y22272500D01*
X55743750Y21272500D01*
X26330000Y25447500D02*
X26330000Y24733056D01*
X26377778Y24590833D01*
X26473333Y24495278D01*
X26615555Y24447500D01*
X26711111Y24447500D01*
X25834444Y24447500D02*
X25644444Y24447500D01*
X25548889Y24495278D01*
X25501111Y24543056D01*
X25406667Y24685278D01*
X25358889Y24876389D01*
X25358889Y25257500D01*
X25406667Y25351944D01*
X25453333Y25399722D01*
X25548889Y25447500D01*
X25740000Y25447500D01*
X25834444Y25399722D01*
X25882222Y25351944D01*
X25930000Y25257500D01*
X25930000Y25018611D01*
X25882222Y24924167D01*
X25834444Y24876389D01*
X25740000Y24828611D01*
X25548889Y24828611D01*
X25453333Y24876389D01*
X25406667Y24924167D01*
X25358889Y25018611D01*
X19906944Y35576111D02*
X19954722Y35623889D01*
X20002500Y35766111D01*
X20002500Y35861667D01*
X19954722Y36005000D01*
X19859167Y36099444D01*
X19764722Y36147222D01*
X19573611Y36195000D01*
X19431389Y36195000D01*
X19240278Y36147222D01*
X19145833Y36099444D01*
X19050278Y36005000D01*
X19002500Y35861667D01*
X19002500Y35766111D01*
X19050278Y35623889D01*
X19098056Y35576111D01*
X19002500Y34652778D02*
X19002500Y35128333D01*
X19479167Y35176111D01*
X19431389Y35128333D01*
X19383611Y35032778D01*
X19383611Y34795000D01*
X19431389Y34699444D01*
X19479167Y34652778D01*
X19573611Y34605000D01*
X19812500Y34605000D01*
X19906944Y34652778D01*
X19954722Y34699444D01*
X20002500Y34795000D01*
X20002500Y35032778D01*
X19954722Y35128333D01*
X19906944Y35176111D01*
X35388750Y30545139D02*
X34912083Y30878472D01*
X35388750Y31116250D02*
X34388750Y31116250D01*
X34388750Y30735139D01*
X34436528Y30639583D01*
X34484306Y30592917D01*
X34578750Y30545139D01*
X34722083Y30545139D01*
X34817639Y30592917D01*
X34865417Y30639583D01*
X34912083Y30735139D01*
X34912083Y31116250D01*
X34388750Y30145139D02*
X34388750Y29526250D01*
X34769861Y29859583D01*
X34769861Y29716250D01*
X34817639Y29621806D01*
X34865417Y29574028D01*
X34959861Y29526250D01*
X35198750Y29526250D01*
X35293194Y29574028D01*
X35340972Y29621806D01*
X35388750Y29716250D01*
X35388750Y30001806D01*
X35340972Y30097361D01*
X35293194Y30145139D01*
X25829861Y37077500D02*
X26306528Y37077500D01*
X26306528Y38077500D01*
X25382083Y37981944D02*
X25334305Y38029722D01*
X25239861Y38077500D01*
X25000972Y38077500D01*
X24906528Y38029722D01*
X24858750Y37981944D01*
X24810972Y37887500D01*
X24810972Y37791944D01*
X24858750Y37648611D01*
X25429861Y37077500D01*
X24810972Y37077500D01*
X54308611Y6921806D02*
X54356389Y6874028D01*
X54498611Y6826250D01*
X54594167Y6826250D01*
X54737500Y6874028D01*
X54831944Y6969583D01*
X54879722Y7064028D01*
X54927500Y7255139D01*
X54927500Y7397361D01*
X54879722Y7588472D01*
X54831944Y7682917D01*
X54737500Y7778472D01*
X54594167Y7826250D01*
X54498611Y7826250D01*
X54356389Y7778472D01*
X54308611Y7730694D01*
X53908611Y7826250D02*
X53289722Y7826250D01*
X53623055Y7445139D01*
X53479722Y7445139D01*
X53385278Y7397361D01*
X53337500Y7349583D01*
X53289722Y7255139D01*
X53289722Y7016250D01*
X53337500Y6921806D01*
X53385278Y6874028D01*
X53479722Y6826250D01*
X53765278Y6826250D01*
X53860833Y6874028D01*
X53908611Y6921806D01*
X2041389Y32868750D02*
X2041389Y32154306D01*
X2089167Y32012083D01*
X2184722Y31916528D01*
X2326944Y31868750D01*
X2422500Y31868750D01*
X1641389Y32868750D02*
X1022500Y32868750D01*
X1355833Y32487639D01*
X1212500Y32487639D01*
X1118056Y32439861D01*
X1070278Y32392083D01*
X1022500Y32297639D01*
X1022500Y32058750D01*
X1070278Y31964306D01*
X1118056Y31916528D01*
X1212500Y31868750D01*
X1498056Y31868750D01*
X1593611Y31916528D01*
X1641389Y31964306D01*
X52022500Y53191944D02*
X52736944Y53191944D01*
X52879167Y53239722D01*
X52974722Y53335277D01*
X53022500Y53477499D01*
X53022500Y53573055D01*
X53022500Y52220833D02*
X53022500Y52791944D01*
X53022500Y52506388D02*
X52022500Y52506388D01*
X52165833Y52601944D01*
X52260278Y52696388D01*
X52308056Y52791944D01*
X52022500Y51820833D02*
X52022500Y51201944D01*
X52403611Y51535277D01*
X52403611Y51391944D01*
X52451389Y51297500D01*
X52499167Y51249722D01*
X52593611Y51201944D01*
X52832500Y51201944D01*
X52926944Y51249722D01*
X52974722Y51297500D01*
X53022500Y51391944D01*
X53022500Y51677500D01*
X52974722Y51773055D01*
X52926944Y51820833D01*
X34470555Y53864306D02*
X34518333Y53816528D01*
X34660555Y53768750D01*
X34756111Y53768750D01*
X34899444Y53816528D01*
X34993888Y53912083D01*
X35041666Y54006528D01*
X35089444Y54197639D01*
X35089444Y54339861D01*
X35041666Y54530972D01*
X34993888Y54625417D01*
X34899444Y54720972D01*
X34756111Y54768750D01*
X34660555Y54768750D01*
X34518333Y54720972D01*
X34470555Y54673194D01*
X34022777Y54673194D02*
X33974999Y54720972D01*
X33880555Y54768750D01*
X33641666Y54768750D01*
X33547222Y54720972D01*
X33499444Y54673194D01*
X33451666Y54578750D01*
X33451666Y54483194D01*
X33499444Y54339861D01*
X34070555Y53768750D01*
X33451666Y53768750D01*
X33051666Y54768750D02*
X32384999Y54768750D01*
X32813888Y53768750D01*
X10234444Y63271250D02*
X10567777Y63747917D01*
X10805555Y63271250D02*
X10805555Y64271250D01*
X10424444Y64271250D01*
X10328888Y64223472D01*
X10282222Y64175694D01*
X10234444Y64081250D01*
X10234444Y63937917D01*
X10282222Y63842361D01*
X10328888Y63794583D01*
X10424444Y63747917D01*
X10805555Y63747917D01*
X9263333Y63271250D02*
X9834444Y63271250D01*
X9548888Y63271250D02*
X9548888Y64271250D01*
X9644444Y64127917D01*
X9738888Y64033472D01*
X9834444Y63985694D01*
X8386666Y63937917D02*
X8386666Y63271250D01*
X8625555Y64319028D02*
X8863333Y63604583D01*
X8244444Y63604583D01*
X16621250Y94228819D02*
X17335694Y94228819D01*
X17477917Y94276597D01*
X17573472Y94372152D01*
X17621250Y94514374D01*
X17621250Y94609930D01*
X17621250Y93257708D02*
X17621250Y93828819D01*
X17621250Y93543263D02*
X16621250Y93543263D01*
X16764583Y93638819D01*
X16859028Y93733263D01*
X16906806Y93828819D01*
X16716806Y92809930D02*
X16669028Y92762152D01*
X16621250Y92667708D01*
X16621250Y92428819D01*
X16669028Y92334375D01*
X16716806Y92286597D01*
X16811250Y92238819D01*
X16906806Y92238819D01*
X17050139Y92286597D01*
X17621250Y92857708D01*
X17621250Y92238819D01*
X81710972Y55527700D02*
X81710972Y56527700D01*
X81473194Y56527700D01*
X81329861Y56479922D01*
X81234305Y56384367D01*
X81187639Y56289922D01*
X81139861Y56098811D01*
X81139861Y55956589D01*
X81187639Y55765478D01*
X81234305Y55671033D01*
X81329861Y55575478D01*
X81473194Y55527700D01*
X81710972Y55527700D01*
X80168750Y55527700D02*
X80739861Y55527700D01*
X80454305Y55527700D02*
X80454305Y56527700D01*
X80549861Y56384367D01*
X80644305Y56289922D01*
X80739861Y56242144D01*
X104775000Y67320694D02*
X105489444Y67320694D01*
X105631667Y67368472D01*
X105727222Y67464027D01*
X105775000Y67606249D01*
X105775000Y67701805D01*
X105775000Y66349583D02*
X105775000Y66920694D01*
X105775000Y66635138D02*
X104775000Y66635138D01*
X104918333Y66730694D01*
X105012778Y66825138D01*
X105060556Y66920694D01*
X105108333Y65472916D02*
X105775000Y65472916D01*
X104727222Y65711805D02*
X105441667Y65949583D01*
X105441667Y65330694D01*
X115890139Y57537500D02*
X115890139Y56823056D01*
X115937917Y56680833D01*
X116033472Y56585278D01*
X116175694Y56537500D01*
X116271250Y56537500D01*
X115013472Y57204167D02*
X115013472Y56537500D01*
X115252361Y57585278D02*
X115490139Y56870833D01*
X114871250Y56870833D01*
X110795000Y14427778D02*
X110651667Y14380000D01*
X110413889Y14380000D01*
X110318333Y14427778D01*
X110271667Y14475556D01*
X110223889Y14570000D01*
X110223889Y14665556D01*
X110271667Y14761111D01*
X110318333Y14808889D01*
X110413889Y14856667D01*
X110605000Y14903333D01*
X110699444Y14951111D01*
X110747222Y14998889D01*
X110795000Y15094444D01*
X110795000Y15190000D01*
X110747222Y15284444D01*
X110699444Y15332222D01*
X110605000Y15380000D01*
X110366111Y15380000D01*
X110223889Y15332222D01*
X109823889Y15380000D02*
X109205000Y15380000D01*
X109538333Y14998889D01*
X109395000Y14998889D01*
X109300556Y14951111D01*
X109252778Y14903333D01*
X109205000Y14808889D01*
X109205000Y14570000D01*
X109252778Y14475556D01*
X109300556Y14427778D01*
X109395000Y14380000D01*
X109680556Y14380000D01*
X109776111Y14427778D01*
X109823889Y14475556D01*
X23446944Y30295277D02*
X23494722Y30343055D01*
X23542500Y30485277D01*
X23542500Y30580833D01*
X23494722Y30724166D01*
X23399167Y30818610D01*
X23304722Y30866388D01*
X23113611Y30914166D01*
X22971389Y30914166D01*
X22780278Y30866388D01*
X22685833Y30818610D01*
X22590278Y30724166D01*
X22542500Y30580833D01*
X22542500Y30485277D01*
X22590278Y30343055D01*
X22638056Y30295277D01*
X22638056Y29847499D02*
X22590278Y29799721D01*
X22542500Y29705277D01*
X22542500Y29466388D01*
X22590278Y29371944D01*
X22638056Y29324166D01*
X22732500Y29276388D01*
X22828056Y29276388D01*
X22971389Y29324166D01*
X23542500Y29895277D01*
X23542500Y29276388D01*
X22875833Y28399721D02*
X23542500Y28399721D01*
X22494722Y28638610D02*
X23209167Y28876388D01*
X23209167Y28257499D01*
X43278333Y49301250D02*
X43611666Y49777917D01*
X43849444Y49301250D02*
X43849444Y50301250D01*
X43468333Y50301250D01*
X43372777Y50253472D01*
X43326111Y50205694D01*
X43278333Y50111250D01*
X43278333Y49967917D01*
X43326111Y49872361D01*
X43372777Y49824583D01*
X43468333Y49777917D01*
X43849444Y49777917D01*
X42307222Y49301250D02*
X42878333Y49301250D01*
X42592777Y49301250D02*
X42592777Y50301250D01*
X42688333Y50157917D01*
X42782777Y50063472D01*
X42878333Y50015694D01*
X41907222Y50301250D02*
X41240555Y50301250D01*
X41669444Y49301250D01*
X36893194Y93519861D02*
X36940972Y93567639D01*
X36988750Y93709861D01*
X36988750Y93805417D01*
X36940972Y93948750D01*
X36845417Y94043194D01*
X36750972Y94090972D01*
X36559861Y94138750D01*
X36417639Y94138750D01*
X36226528Y94090972D01*
X36132083Y94043194D01*
X36036528Y93948750D01*
X35988750Y93805417D01*
X35988750Y93709861D01*
X36036528Y93567639D01*
X36084306Y93519861D01*
X36084306Y93072083D02*
X36036528Y93024305D01*
X35988750Y92929861D01*
X35988750Y92690972D01*
X36036528Y92596528D01*
X36084306Y92548750D01*
X36178750Y92500972D01*
X36274306Y92500972D01*
X36417639Y92548750D01*
X36988750Y93119861D01*
X36988750Y92500972D01*
X35988750Y91577639D02*
X35988750Y92053194D01*
X36465417Y92100972D01*
X36417639Y92053194D01*
X36369861Y91957639D01*
X36369861Y91719861D01*
X36417639Y91624305D01*
X36465417Y91577639D01*
X36559861Y91529861D01*
X36798750Y91529861D01*
X36893194Y91577639D01*
X36940972Y91624305D01*
X36988750Y91719861D01*
X36988750Y91957639D01*
X36940972Y92053194D01*
X36893194Y92100972D01*
X70913194Y68617221D02*
X70960972Y68664999D01*
X71008750Y68807221D01*
X71008750Y68902777D01*
X70960972Y69046110D01*
X70865417Y69140554D01*
X70770972Y69188332D01*
X70579861Y69236110D01*
X70437639Y69236110D01*
X70246528Y69188332D01*
X70152083Y69140554D01*
X70056528Y69046110D01*
X70008750Y68902777D01*
X70008750Y68807221D01*
X70056528Y68664999D01*
X70104306Y68617221D01*
X71008750Y67646110D02*
X71008750Y68217221D01*
X71008750Y67931665D02*
X70008750Y67931665D01*
X70152083Y68027221D01*
X70246528Y68121665D01*
X70294306Y68217221D01*
X70008750Y67008332D02*
X70008750Y66912777D01*
X70056528Y66817221D01*
X70104306Y66769443D01*
X70198750Y66722777D01*
X70389861Y66674999D01*
X70627639Y66674999D01*
X70818750Y66722777D01*
X70913194Y66769443D01*
X70960972Y66817221D01*
X71008750Y66912777D01*
X71008750Y67008332D01*
X70960972Y67102777D01*
X70913194Y67150554D01*
X70818750Y67198332D01*
X70627639Y67246110D01*
X70389861Y67246110D01*
X70198750Y67198332D01*
X70104306Y67150554D01*
X70056528Y67102777D01*
X70008750Y67008332D01*
X15074722Y68278194D02*
X15170277Y68325972D01*
X15265833Y68421528D01*
X15408055Y68563750D01*
X15503610Y68611528D01*
X15599166Y68611528D01*
X15551388Y68373750D02*
X15645833Y68421528D01*
X15741388Y68517083D01*
X15789166Y68707083D01*
X15789166Y69040417D01*
X15741388Y69230417D01*
X15645833Y69325972D01*
X15551388Y69373750D01*
X15360277Y69373750D01*
X15265833Y69325972D01*
X15170277Y69230417D01*
X15122499Y69040417D01*
X15122499Y68707083D01*
X15170277Y68517083D01*
X15265833Y68421528D01*
X15360277Y68373750D01*
X15551388Y68373750D01*
X14198055Y69040417D02*
X14198055Y68373750D01*
X14436944Y69421528D02*
X14674722Y68707083D01*
X14055833Y68707083D01*
X47958611Y52641806D02*
X48006389Y52594028D01*
X48148611Y52546250D01*
X48244167Y52546250D01*
X48387500Y52594028D01*
X48481944Y52689583D01*
X48529722Y52784028D01*
X48577500Y52975139D01*
X48577500Y53117361D01*
X48529722Y53308472D01*
X48481944Y53402917D01*
X48387500Y53498472D01*
X48244167Y53546250D01*
X48148611Y53546250D01*
X48006389Y53498472D01*
X47958611Y53450694D01*
X46987500Y52546250D02*
X47558611Y52546250D01*
X47273055Y52546250D02*
X47273055Y53546250D01*
X47368611Y53402917D01*
X47463055Y53308472D01*
X47558611Y53260694D01*
X46587500Y53546250D02*
X45920833Y53546250D01*
X46349722Y52546250D01*
X34782361Y58356806D02*
X34830139Y58309028D01*
X34972361Y58261250D01*
X35067917Y58261250D01*
X35211250Y58309028D01*
X35305694Y58404583D01*
X35353472Y58499028D01*
X35401250Y58690139D01*
X35401250Y58832361D01*
X35353472Y59023472D01*
X35305694Y59117917D01*
X35211250Y59213472D01*
X35067917Y59261250D01*
X34972361Y59261250D01*
X34830139Y59213472D01*
X34782361Y59165694D01*
X34382361Y59261250D02*
X33763472Y59261250D01*
X34096805Y58880139D01*
X33953472Y58880139D01*
X33859028Y58832361D01*
X33811250Y58784583D01*
X33763472Y58690139D01*
X33763472Y58451250D01*
X33811250Y58356806D01*
X33859028Y58309028D01*
X33953472Y58261250D01*
X34239028Y58261250D01*
X34334583Y58309028D01*
X34382361Y58356806D01*
X33125694Y59261250D02*
X33030139Y59261250D01*
X32934583Y59213472D01*
X32886805Y59165694D01*
X32840139Y59071250D01*
X32792361Y58880139D01*
X32792361Y58642361D01*
X32840139Y58451250D01*
X32886805Y58356806D01*
X32934583Y58309028D01*
X33030139Y58261250D01*
X33125694Y58261250D01*
X33220139Y58309028D01*
X33267916Y58356806D01*
X33315694Y58451250D01*
X33363472Y58642361D01*
X33363472Y58880139D01*
X33315694Y59071250D01*
X33267916Y59165694D01*
X33220139Y59213472D01*
X33125694Y59261250D01*
X54311111Y93710556D02*
X54358889Y93662778D01*
X54501111Y93615000D01*
X54596667Y93615000D01*
X54740000Y93662778D01*
X54834444Y93758333D01*
X54882222Y93852778D01*
X54930000Y94043889D01*
X54930000Y94186111D01*
X54882222Y94377222D01*
X54834444Y94471667D01*
X54740000Y94567222D01*
X54596667Y94615000D01*
X54501111Y94615000D01*
X54358889Y94567222D01*
X54311111Y94519444D01*
X53340000Y93615000D02*
X53911111Y93615000D01*
X53625555Y93615000D02*
X53625555Y94615000D01*
X53721111Y94471667D01*
X53815555Y94377222D01*
X53911111Y94329444D01*
X16938194Y43947777D02*
X16985972Y43995555D01*
X17033750Y44137777D01*
X17033750Y44233333D01*
X16985972Y44376666D01*
X16890417Y44471110D01*
X16795972Y44518888D01*
X16604861Y44566666D01*
X16462639Y44566666D01*
X16271528Y44518888D01*
X16177083Y44471110D01*
X16081528Y44376666D01*
X16033750Y44233333D01*
X16033750Y44137777D01*
X16081528Y43995555D01*
X16129306Y43947777D01*
X16033750Y43547777D02*
X16033750Y42928888D01*
X16414861Y43262221D01*
X16414861Y43118888D01*
X16462639Y43024444D01*
X16510417Y42976666D01*
X16604861Y42928888D01*
X16843750Y42928888D01*
X16938194Y42976666D01*
X16985972Y43024444D01*
X17033750Y43118888D01*
X17033750Y43404444D01*
X16985972Y43499999D01*
X16938194Y43547777D01*
X16033750Y42528888D02*
X16033750Y41909999D01*
X16414861Y42243332D01*
X16414861Y42099999D01*
X16462639Y42005555D01*
X16510417Y41957777D01*
X16604861Y41909999D01*
X16843750Y41909999D01*
X16938194Y41957777D01*
X16985972Y42005555D01*
X17033750Y42099999D01*
X17033750Y42385555D01*
X16985972Y42481110D01*
X16938194Y42528888D01*
X45086250Y59578750D02*
X45086250Y58768750D01*
X45038472Y58674306D01*
X44990694Y58626528D01*
X44896250Y58578750D01*
X44705139Y58578750D01*
X44609583Y58626528D01*
X44562917Y58674306D01*
X44515139Y58768750D01*
X44515139Y59578750D01*
X43638472Y59245417D02*
X43638472Y58578750D01*
X43877361Y59626528D02*
X44115139Y58912083D01*
X43496250Y58912083D01*
X27917361Y49997500D02*
X27917361Y49187500D01*
X27869583Y49093056D01*
X27821805Y49045278D01*
X27727361Y48997500D01*
X27536250Y48997500D01*
X27440694Y49045278D01*
X27394028Y49093056D01*
X27346250Y49187500D01*
X27346250Y49997500D01*
X26469583Y49997500D02*
X26660694Y49997500D01*
X26756250Y49949722D01*
X26802917Y49901944D01*
X26898472Y49759722D01*
X26946250Y49568611D01*
X26946250Y49187500D01*
X26898472Y49093056D01*
X26850694Y49045278D01*
X26756250Y48997500D01*
X26565139Y48997500D01*
X26469583Y49045278D01*
X26422917Y49093056D01*
X26375139Y49187500D01*
X26375139Y49426389D01*
X26422917Y49520833D01*
X26469583Y49568611D01*
X26565139Y49616389D01*
X26756250Y49616389D01*
X26850694Y49568611D01*
X26898472Y49520833D01*
X26946250Y49426389D01*
X102309444Y74952500D02*
X102642777Y75429167D01*
X102880555Y74952500D02*
X102880555Y75952500D01*
X102499444Y75952500D01*
X102403888Y75904722D01*
X102357222Y75856944D01*
X102309444Y75762500D01*
X102309444Y75619167D01*
X102357222Y75523611D01*
X102403888Y75475833D01*
X102499444Y75429167D01*
X102880555Y75429167D01*
X101861666Y75856944D02*
X101813888Y75904722D01*
X101719444Y75952500D01*
X101480555Y75952500D01*
X101386111Y75904722D01*
X101338333Y75856944D01*
X101290555Y75762500D01*
X101290555Y75666944D01*
X101338333Y75523611D01*
X101909444Y74952500D01*
X101290555Y74952500D01*
X100413888Y75952500D02*
X100604999Y75952500D01*
X100700555Y75904722D01*
X100747222Y75856944D01*
X100842777Y75714722D01*
X100890555Y75523611D01*
X100890555Y75142500D01*
X100842777Y75048056D01*
X100794999Y75000278D01*
X100700555Y74952500D01*
X100509444Y74952500D01*
X100413888Y75000278D01*
X100367222Y75048056D01*
X100319444Y75142500D01*
X100319444Y75381389D01*
X100367222Y75475833D01*
X100413888Y75523611D01*
X100509444Y75571389D01*
X100700555Y75571389D01*
X100794999Y75523611D01*
X100842777Y75475833D01*
X100890555Y75381389D01*
X31983194Y47237500D02*
X32316527Y47714167D01*
X32554305Y47237500D02*
X32554305Y48237500D01*
X32173194Y48237500D01*
X32077638Y48189722D01*
X32030972Y48141944D01*
X31983194Y48047500D01*
X31983194Y47904167D01*
X32030972Y47808611D01*
X32077638Y47760833D01*
X32173194Y47714167D01*
X32554305Y47714167D01*
X31012083Y47237500D02*
X31583194Y47237500D01*
X31297638Y47237500D02*
X31297638Y48237500D01*
X31393194Y48094167D01*
X31487638Y47999722D01*
X31583194Y47951944D01*
X30612083Y48237500D02*
X29993194Y48237500D01*
X30326527Y47856389D01*
X30183194Y47856389D01*
X30088750Y47808611D01*
X30040972Y47760833D01*
X29993194Y47666389D01*
X29993194Y47427500D01*
X30040972Y47333056D01*
X30088750Y47285278D01*
X30183194Y47237500D01*
X30468750Y47237500D01*
X30564305Y47285278D01*
X30612083Y47333056D01*
X77377639Y93393056D02*
X77425417Y93345278D01*
X77567639Y93297500D01*
X77663195Y93297500D01*
X77806528Y93345278D01*
X77900972Y93440833D01*
X77948750Y93535278D01*
X77996528Y93726389D01*
X77996528Y93868611D01*
X77948750Y94059722D01*
X77900972Y94154167D01*
X77806528Y94249722D01*
X77663195Y94297500D01*
X77567639Y94297500D01*
X77425417Y94249722D01*
X77377639Y94201944D01*
X76929861Y94201944D02*
X76882083Y94249722D01*
X76787639Y94297500D01*
X76548750Y94297500D01*
X76454306Y94249722D01*
X76406528Y94201944D01*
X76358750Y94107500D01*
X76358750Y94011944D01*
X76406528Y93868611D01*
X76977639Y93297500D01*
X76358750Y93297500D01*
X15732361Y50578056D02*
X15780139Y50530278D01*
X15922361Y50482500D01*
X16017917Y50482500D01*
X16161250Y50530278D01*
X16255694Y50625833D01*
X16303472Y50720278D01*
X16351250Y50911389D01*
X16351250Y51053611D01*
X16303472Y51244722D01*
X16255694Y51339167D01*
X16161250Y51434722D01*
X16017917Y51482500D01*
X15922361Y51482500D01*
X15780139Y51434722D01*
X15732361Y51386944D01*
X14761250Y50482500D02*
X15332361Y50482500D01*
X15046805Y50482500D02*
X15046805Y51482500D01*
X15142361Y51339167D01*
X15236805Y51244722D01*
X15332361Y51196944D01*
X14265694Y50482500D02*
X14075694Y50482500D01*
X13980139Y50530278D01*
X13932361Y50578056D01*
X13837917Y50720278D01*
X13790139Y50911389D01*
X13790139Y51292500D01*
X13837917Y51386944D01*
X13884583Y51434722D01*
X13980139Y51482500D01*
X14171250Y51482500D01*
X14265694Y51434722D01*
X14313472Y51386944D01*
X14361250Y51292500D01*
X14361250Y51053611D01*
X14313472Y50959167D01*
X14265694Y50911389D01*
X14171250Y50863611D01*
X13980139Y50863611D01*
X13884583Y50911389D01*
X13837917Y50959167D01*
X13790139Y51053611D01*
X32203750Y88630000D02*
X32203750Y87915556D01*
X32251528Y87773333D01*
X32347083Y87677778D01*
X32489305Y87630000D01*
X32584861Y87630000D01*
X31613750Y88201111D02*
X31708194Y88248889D01*
X31755972Y88296667D01*
X31803750Y88392222D01*
X31803750Y88440000D01*
X31755972Y88534444D01*
X31708194Y88582222D01*
X31613750Y88630000D01*
X31422639Y88630000D01*
X31327083Y88582222D01*
X31280417Y88534444D01*
X31232639Y88440000D01*
X31232639Y88392222D01*
X31280417Y88296667D01*
X31327083Y88248889D01*
X31422639Y88201111D01*
X31613750Y88201111D01*
X31708194Y88153333D01*
X31755972Y88106667D01*
X31803750Y88011111D01*
X31803750Y87820000D01*
X31755972Y87725556D01*
X31708194Y87677778D01*
X31613750Y87630000D01*
X31422639Y87630000D01*
X31327083Y87677778D01*
X31280417Y87725556D01*
X31232639Y87820000D01*
X31232639Y88011111D01*
X31280417Y88106667D01*
X31327083Y88153333D01*
X31422639Y88201111D01*
X102309444Y80032500D02*
X102642777Y80509167D01*
X102880555Y80032500D02*
X102880555Y81032500D01*
X102499444Y81032500D01*
X102403888Y80984722D01*
X102357222Y80936944D01*
X102309444Y80842500D01*
X102309444Y80699167D01*
X102357222Y80603611D01*
X102403888Y80555833D01*
X102499444Y80509167D01*
X102880555Y80509167D01*
X101861666Y80936944D02*
X101813888Y80984722D01*
X101719444Y81032500D01*
X101480555Y81032500D01*
X101386111Y80984722D01*
X101338333Y80936944D01*
X101290555Y80842500D01*
X101290555Y80746944D01*
X101338333Y80603611D01*
X101909444Y80032500D01*
X101290555Y80032500D01*
X100367222Y81032500D02*
X100842777Y81032500D01*
X100890555Y80555833D01*
X100842777Y80603611D01*
X100747222Y80651389D01*
X100509444Y80651389D01*
X100413888Y80603611D01*
X100367222Y80555833D01*
X100319444Y80461389D01*
X100319444Y80222500D01*
X100367222Y80128056D01*
X100413888Y80080278D01*
X100509444Y80032500D01*
X100747222Y80032500D01*
X100842777Y80080278D01*
X100890555Y80128056D01*
X29915000Y45443750D02*
X29438333Y45777083D01*
X29915000Y46014861D02*
X28915000Y46014861D01*
X28915000Y45633750D01*
X28962778Y45538194D01*
X29010556Y45491528D01*
X29105000Y45443750D01*
X29248333Y45443750D01*
X29343889Y45491528D01*
X29391667Y45538194D01*
X29438333Y45633750D01*
X29438333Y46014861D01*
X28915000Y44520417D02*
X28915000Y44995972D01*
X29391667Y45043750D01*
X29343889Y44995972D01*
X29296111Y44900417D01*
X29296111Y44662639D01*
X29343889Y44567083D01*
X29391667Y44520417D01*
X29486111Y44472639D01*
X29725000Y44472639D01*
X29819444Y44520417D01*
X29867222Y44567083D01*
X29915000Y44662639D01*
X29915000Y44900417D01*
X29867222Y44995972D01*
X29819444Y45043750D01*
X53881389Y58601250D02*
X54214722Y59077917D01*
X54452500Y58601250D02*
X54452500Y59601250D01*
X54071389Y59601250D01*
X53975833Y59553472D01*
X53929167Y59505694D01*
X53881389Y59411250D01*
X53881389Y59267917D01*
X53929167Y59172361D01*
X53975833Y59124583D01*
X54071389Y59077917D01*
X54452500Y59077917D01*
X53433611Y59505694D02*
X53385833Y59553472D01*
X53291389Y59601250D01*
X53052500Y59601250D01*
X52958056Y59553472D01*
X52910278Y59505694D01*
X52862500Y59411250D01*
X52862500Y59315694D01*
X52910278Y59172361D01*
X53481389Y58601250D01*
X52862500Y58601250D01*
X70643333Y53657500D02*
X71120000Y53657500D01*
X71120000Y54657500D01*
X69672222Y53657500D02*
X70243333Y53657500D01*
X69957777Y53657500D02*
X69957777Y54657500D01*
X70053333Y54514167D01*
X70147777Y54419722D01*
X70243333Y54371944D01*
X21335694Y35576111D02*
X21383472Y35623889D01*
X21431250Y35766111D01*
X21431250Y35861667D01*
X21383472Y36005000D01*
X21287917Y36099444D01*
X21193472Y36147222D01*
X21002361Y36195000D01*
X20860139Y36195000D01*
X20669028Y36147222D01*
X20574583Y36099444D01*
X20479028Y36005000D01*
X20431250Y35861667D01*
X20431250Y35766111D01*
X20479028Y35623889D01*
X20526806Y35576111D01*
X20860139Y34986111D02*
X20812361Y35080555D01*
X20764583Y35128333D01*
X20669028Y35176111D01*
X20621250Y35176111D01*
X20526806Y35128333D01*
X20479028Y35080555D01*
X20431250Y34986111D01*
X20431250Y34795000D01*
X20479028Y34699444D01*
X20526806Y34652778D01*
X20621250Y34605000D01*
X20669028Y34605000D01*
X20764583Y34652778D01*
X20812361Y34699444D01*
X20860139Y34795000D01*
X20860139Y34986111D01*
X20907917Y35080555D01*
X20954583Y35128333D01*
X21050139Y35176111D01*
X21241250Y35176111D01*
X21335694Y35128333D01*
X21383472Y35080555D01*
X21431250Y34986111D01*
X21431250Y34795000D01*
X21383472Y34699444D01*
X21335694Y34652778D01*
X21241250Y34605000D01*
X21050139Y34605000D01*
X20954583Y34652778D01*
X20907917Y34699444D01*
X20860139Y34795000D01*
X32083611Y50260556D02*
X32131389Y50212778D01*
X32273611Y50165000D01*
X32369167Y50165000D01*
X32512500Y50212778D01*
X32606944Y50308333D01*
X32654722Y50402778D01*
X32702500Y50593889D01*
X32702500Y50736111D01*
X32654722Y50927222D01*
X32606944Y51021667D01*
X32512500Y51117222D01*
X32369167Y51165000D01*
X32273611Y51165000D01*
X32131389Y51117222D01*
X32083611Y51069444D01*
X31112500Y50165000D02*
X31683611Y50165000D01*
X31398055Y50165000D02*
X31398055Y51165000D01*
X31493611Y51021667D01*
X31588055Y50927222D01*
X31683611Y50879444D01*
X30235833Y51165000D02*
X30426944Y51165000D01*
X30522500Y51117222D01*
X30569167Y51069444D01*
X30664722Y50927222D01*
X30712500Y50736111D01*
X30712500Y50355000D01*
X30664722Y50260556D01*
X30616944Y50212778D01*
X30522500Y50165000D01*
X30331389Y50165000D01*
X30235833Y50212778D01*
X30189167Y50260556D01*
X30141389Y50355000D01*
X30141389Y50593889D01*
X30189167Y50688333D01*
X30235833Y50736111D01*
X30331389Y50783889D01*
X30522500Y50783889D01*
X30616944Y50736111D01*
X30664722Y50688333D01*
X30712500Y50593889D01*
X37164518Y66261037D02*
X37212296Y66308815D01*
X37260074Y66451037D01*
X37260074Y66546593D01*
X37212296Y66689926D01*
X37116741Y66784370D01*
X37022296Y66832148D01*
X36831185Y66879926D01*
X36688963Y66879926D01*
X36497852Y66832148D01*
X36403407Y66784370D01*
X36307852Y66689926D01*
X36260074Y66546593D01*
X36260074Y66451037D01*
X36307852Y66308815D01*
X36355630Y66261037D01*
X36260074Y65384370D02*
X36260074Y65575481D01*
X36307852Y65671037D01*
X36355630Y65717704D01*
X36497852Y65813259D01*
X36688963Y65861037D01*
X37070074Y65861037D01*
X37164518Y65813259D01*
X37212296Y65765481D01*
X37260074Y65671037D01*
X37260074Y65479926D01*
X37212296Y65384370D01*
X37164518Y65337704D01*
X37070074Y65289926D01*
X36831185Y65289926D01*
X36736741Y65337704D01*
X36688963Y65384370D01*
X36641185Y65479926D01*
X36641185Y65671037D01*
X36688963Y65765481D01*
X36736741Y65813259D01*
X36831185Y65861037D01*
X16289445Y86724583D02*
X16622778Y86724583D01*
X16622778Y86201250D02*
X16622778Y87201250D01*
X16146111Y87201250D01*
X15698333Y87105694D02*
X15650555Y87153472D01*
X15556111Y87201250D01*
X15317222Y87201250D01*
X15222778Y87153472D01*
X15175000Y87105694D01*
X15127222Y87011250D01*
X15127222Y86915694D01*
X15175000Y86772361D01*
X15746111Y86201250D01*
X15127222Y86201250D01*
X58321250Y75765000D02*
X57844583Y76098333D01*
X58321250Y76336111D02*
X57321250Y76336111D01*
X57321250Y75955000D01*
X57369028Y75859444D01*
X57416806Y75812778D01*
X57511250Y75765000D01*
X57654583Y75765000D01*
X57750139Y75812778D01*
X57797917Y75859444D01*
X57844583Y75955000D01*
X57844583Y76336111D01*
X57321250Y74888333D02*
X57321250Y75079444D01*
X57369028Y75175000D01*
X57416806Y75221667D01*
X57559028Y75317222D01*
X57750139Y75365000D01*
X58131250Y75365000D01*
X58225694Y75317222D01*
X58273472Y75269444D01*
X58321250Y75175000D01*
X58321250Y74983889D01*
X58273472Y74888333D01*
X58225694Y74841667D01*
X58131250Y74793889D01*
X57892361Y74793889D01*
X57797917Y74841667D01*
X57750139Y74888333D01*
X57702361Y74983889D01*
X57702361Y75175000D01*
X57750139Y75269444D01*
X57797917Y75317222D01*
X57892361Y75365000D01*
X15314909Y74449354D02*
X15362687Y74401576D01*
X15504909Y74353798D01*
X15600465Y74353798D01*
X15743798Y74401576D01*
X15838242Y74497131D01*
X15886020Y74591576D01*
X15933798Y74782687D01*
X15933798Y74924909D01*
X15886020Y75116020D01*
X15838242Y75210465D01*
X15743798Y75306020D01*
X15600465Y75353798D01*
X15504909Y75353798D01*
X15362687Y75306020D01*
X15314909Y75258242D01*
X14343798Y74353798D02*
X14914909Y74353798D01*
X14629353Y74353798D02*
X14629353Y75353798D01*
X14724909Y75210465D01*
X14819353Y75116020D01*
X14914909Y75068242D01*
X13943798Y75353798D02*
X13324909Y75353798D01*
X13658242Y74972687D01*
X13514909Y74972687D01*
X13420465Y74924909D01*
X13372687Y74877131D01*
X13324909Y74782687D01*
X13324909Y74543798D01*
X13372687Y74449354D01*
X13420465Y74401576D01*
X13514909Y74353798D01*
X13800465Y74353798D01*
X13896020Y74401576D01*
X13943798Y74449354D01*
X20383889Y68103750D02*
X20717222Y68580417D01*
X20955000Y68103750D02*
X20955000Y69103750D01*
X20573889Y69103750D01*
X20478333Y69055972D01*
X20431667Y69008194D01*
X20383889Y68913750D01*
X20383889Y68770417D01*
X20431667Y68674861D01*
X20478333Y68627083D01*
X20573889Y68580417D01*
X20955000Y68580417D01*
X19412778Y68103750D02*
X19983889Y68103750D01*
X19698333Y68103750D02*
X19698333Y69103750D01*
X19793889Y68960417D01*
X19888333Y68865972D01*
X19983889Y68818194D01*
X18822778Y68674861D02*
X18917222Y68722639D01*
X18965000Y68770417D01*
X19012778Y68865972D01*
X19012778Y68913750D01*
X18965000Y69008194D01*
X18917222Y69055972D01*
X18822778Y69103750D01*
X18631667Y69103750D01*
X18536111Y69055972D01*
X18489445Y69008194D01*
X18441667Y68913750D01*
X18441667Y68865972D01*
X18489445Y68770417D01*
X18536111Y68722639D01*
X18631667Y68674861D01*
X18822778Y68674861D01*
X18917222Y68627083D01*
X18965000Y68580417D01*
X19012778Y68484861D01*
X19012778Y68293750D01*
X18965000Y68199306D01*
X18917222Y68151528D01*
X18822778Y68103750D01*
X18631667Y68103750D01*
X18536111Y68151528D01*
X18489445Y68199306D01*
X18441667Y68293750D01*
X18441667Y68484861D01*
X18489445Y68580417D01*
X18536111Y68627083D01*
X18631667Y68674861D01*
X43106249Y47990556D02*
X43154027Y47942778D01*
X43296249Y47895000D01*
X43391805Y47895000D01*
X43535138Y47942778D01*
X43629582Y48038333D01*
X43677360Y48132778D01*
X43725138Y48323889D01*
X43725138Y48466111D01*
X43677360Y48657222D01*
X43629582Y48751667D01*
X43535138Y48847222D01*
X43391805Y48895000D01*
X43296249Y48895000D01*
X43154027Y48847222D01*
X43106249Y48799444D01*
X42135138Y47895000D02*
X42706249Y47895000D01*
X42420693Y47895000D02*
X42420693Y48895000D01*
X42516249Y48751667D01*
X42610693Y48657222D01*
X42706249Y48609444D01*
X41687360Y48799444D02*
X41639582Y48847222D01*
X41545138Y48895000D01*
X41306249Y48895000D01*
X41211805Y48847222D01*
X41164027Y48799444D01*
X41116249Y48705000D01*
X41116249Y48609444D01*
X41164027Y48466111D01*
X41735138Y47895000D01*
X41116249Y47895000D01*
X60563056Y58629244D02*
X60658611Y58677022D01*
X60754167Y58772578D01*
X60896389Y58914800D01*
X60991944Y58962578D01*
X61087500Y58962578D01*
X61039722Y58724800D02*
X61134167Y58772578D01*
X61229722Y58868133D01*
X61277500Y59058133D01*
X61277500Y59391467D01*
X61229722Y59581467D01*
X61134167Y59677022D01*
X61039722Y59724800D01*
X60848611Y59724800D01*
X60754167Y59677022D01*
X60658611Y59581467D01*
X60610833Y59391467D01*
X60610833Y59058133D01*
X60658611Y58868133D01*
X60754167Y58772578D01*
X60848611Y58724800D01*
X61039722Y58724800D01*
X59591945Y58724800D02*
X60163056Y58724800D01*
X59877500Y58724800D02*
X59877500Y59724800D01*
X59973056Y59581467D01*
X60067500Y59487022D01*
X60163056Y59439244D01*
X41973194Y41996295D02*
X42020972Y42044073D01*
X42068750Y42186295D01*
X42068750Y42281851D01*
X42020972Y42425184D01*
X41925417Y42519628D01*
X41830972Y42567406D01*
X41639861Y42615184D01*
X41497639Y42615184D01*
X41306528Y42567406D01*
X41212083Y42519628D01*
X41116528Y42425184D01*
X41068750Y42281851D01*
X41068750Y42186295D01*
X41116528Y42044073D01*
X41164306Y41996295D01*
X41164306Y41548517D02*
X41116528Y41500739D01*
X41068750Y41406295D01*
X41068750Y41167406D01*
X41116528Y41072962D01*
X41164306Y41025184D01*
X41258750Y40977406D01*
X41354306Y40977406D01*
X41497639Y41025184D01*
X42068750Y41596295D01*
X42068750Y40977406D01*
X41068750Y40100739D02*
X41068750Y40291850D01*
X41116528Y40387406D01*
X41164306Y40434073D01*
X41306528Y40529628D01*
X41497639Y40577406D01*
X41878750Y40577406D01*
X41973194Y40529628D01*
X42020972Y40481850D01*
X42068750Y40387406D01*
X42068750Y40196295D01*
X42020972Y40100739D01*
X41973194Y40054073D01*
X41878750Y40006295D01*
X41639861Y40006295D01*
X41545417Y40054073D01*
X41497639Y40100739D01*
X41449861Y40196295D01*
X41449861Y40387406D01*
X41497639Y40481850D01*
X41545417Y40529628D01*
X41639861Y40577406D01*
X77009861Y7239306D02*
X77057639Y7191528D01*
X77199861Y7143750D01*
X77295417Y7143750D01*
X77438750Y7191528D01*
X77533194Y7287083D01*
X77580972Y7381528D01*
X77628750Y7572639D01*
X77628750Y7714861D01*
X77580972Y7905972D01*
X77533194Y8000417D01*
X77438750Y8095972D01*
X77295417Y8143750D01*
X77199861Y8143750D01*
X77057639Y8095972D01*
X77009861Y8048194D01*
X76133194Y7810417D02*
X76133194Y7143750D01*
X76372083Y8191528D02*
X76609861Y7477083D01*
X75990972Y7477083D01*
X9717500Y20511389D02*
X10431944Y20511389D01*
X10574167Y20559167D01*
X10669722Y20654722D01*
X10717500Y20796944D01*
X10717500Y20892500D01*
X9813056Y20063611D02*
X9765278Y20015833D01*
X9717500Y19921389D01*
X9717500Y19682500D01*
X9765278Y19588056D01*
X9813056Y19540278D01*
X9907500Y19492500D01*
X10003056Y19492500D01*
X10146389Y19540278D01*
X10717500Y20111389D01*
X10717500Y19492500D01*
X31385000Y66344305D02*
X32099444Y66344305D01*
X32241667Y66392083D01*
X32337222Y66487638D01*
X32385000Y66629860D01*
X32385000Y66725416D01*
X32385000Y65373194D02*
X32385000Y65944305D01*
X32385000Y65658749D02*
X31385000Y65658749D01*
X31528333Y65754305D01*
X31622778Y65848749D01*
X31670556Y65944305D01*
X32385000Y64402083D02*
X32385000Y64973194D01*
X32385000Y64687638D02*
X31385000Y64687638D01*
X31528333Y64783194D01*
X31622778Y64877638D01*
X31670556Y64973194D01*
X69278194Y32877361D02*
X69325972Y32925139D01*
X69373750Y33067361D01*
X69373750Y33162917D01*
X69325972Y33306250D01*
X69230417Y33400694D01*
X69135972Y33448472D01*
X68944861Y33496250D01*
X68802639Y33496250D01*
X68611528Y33448472D01*
X68517083Y33400694D01*
X68421528Y33306250D01*
X68373750Y33162917D01*
X68373750Y33067361D01*
X68421528Y32925139D01*
X68469306Y32877361D01*
X69373750Y31906250D02*
X69373750Y32477361D01*
X69373750Y32191805D02*
X68373750Y32191805D01*
X68517083Y32287361D01*
X68611528Y32381805D01*
X68659306Y32477361D01*
X69373750Y30935139D02*
X69373750Y31506250D01*
X69373750Y31220694D02*
X68373750Y31220694D01*
X68517083Y31316250D01*
X68611528Y31410694D01*
X68659306Y31506250D01*
X29479444Y40566249D02*
X29527222Y40614027D01*
X29575000Y40756249D01*
X29575000Y40851805D01*
X29527222Y40995138D01*
X29431667Y41089582D01*
X29337222Y41137360D01*
X29146111Y41185138D01*
X29003889Y41185138D01*
X28812778Y41137360D01*
X28718333Y41089582D01*
X28622778Y40995138D01*
X28575000Y40851805D01*
X28575000Y40756249D01*
X28622778Y40614027D01*
X28670556Y40566249D01*
X28670556Y40118471D02*
X28622778Y40070693D01*
X28575000Y39976249D01*
X28575000Y39737360D01*
X28622778Y39642916D01*
X28670556Y39595138D01*
X28765000Y39547360D01*
X28860556Y39547360D01*
X29003889Y39595138D01*
X29575000Y40166249D01*
X29575000Y39547360D01*
X29003889Y38957360D02*
X28956111Y39051804D01*
X28908333Y39099582D01*
X28812778Y39147360D01*
X28765000Y39147360D01*
X28670556Y39099582D01*
X28622778Y39051804D01*
X28575000Y38957360D01*
X28575000Y38766249D01*
X28622778Y38670693D01*
X28670556Y38624027D01*
X28765000Y38576249D01*
X28812778Y38576249D01*
X28908333Y38624027D01*
X28956111Y38670693D01*
X29003889Y38766249D01*
X29003889Y38957360D01*
X29051667Y39051804D01*
X29098333Y39099582D01*
X29193889Y39147360D01*
X29385000Y39147360D01*
X29479444Y39099582D01*
X29527222Y39051804D01*
X29575000Y38957360D01*
X29575000Y38766249D01*
X29527222Y38670693D01*
X29479444Y38624027D01*
X29385000Y38576249D01*
X29193889Y38576249D01*
X29098333Y38624027D01*
X29051667Y38670693D01*
X29003889Y38766249D01*
X15573611Y52483056D02*
X15621389Y52435278D01*
X15763611Y52387500D01*
X15859167Y52387500D01*
X16002500Y52435278D01*
X16096944Y52530833D01*
X16144722Y52625278D01*
X16192500Y52816389D01*
X16192500Y52958611D01*
X16144722Y53149722D01*
X16096944Y53244167D01*
X16002500Y53339722D01*
X15859167Y53387500D01*
X15763611Y53387500D01*
X15621389Y53339722D01*
X15573611Y53291944D01*
X15125833Y53291944D02*
X15078055Y53339722D01*
X14983611Y53387500D01*
X14744722Y53387500D01*
X14650278Y53339722D01*
X14602500Y53291944D01*
X14554722Y53197500D01*
X14554722Y53101944D01*
X14602500Y52958611D01*
X15173611Y52387500D01*
X14554722Y52387500D01*
X13916944Y53387500D02*
X13821389Y53387500D01*
X13725833Y53339722D01*
X13678055Y53291944D01*
X13631389Y53197500D01*
X13583611Y53006389D01*
X13583611Y52768611D01*
X13631389Y52577500D01*
X13678055Y52483056D01*
X13725833Y52435278D01*
X13821389Y52387500D01*
X13916944Y52387500D01*
X14011389Y52435278D01*
X14059166Y52483056D01*
X14106944Y52577500D01*
X14154722Y52768611D01*
X14154722Y53006389D01*
X14106944Y53197500D01*
X14059166Y53291944D01*
X14011389Y53339722D01*
X13916944Y53387500D01*
X24193194Y35576111D02*
X24240972Y35623889D01*
X24288750Y35766111D01*
X24288750Y35861667D01*
X24240972Y36005000D01*
X24145417Y36099444D01*
X24050972Y36147222D01*
X23859861Y36195000D01*
X23717639Y36195000D01*
X23526528Y36147222D01*
X23432083Y36099444D01*
X23336528Y36005000D01*
X23288750Y35861667D01*
X23288750Y35766111D01*
X23336528Y35623889D01*
X23384306Y35576111D01*
X23384306Y35128333D02*
X23336528Y35080555D01*
X23288750Y34986111D01*
X23288750Y34747222D01*
X23336528Y34652778D01*
X23384306Y34605000D01*
X23478750Y34557222D01*
X23574306Y34557222D01*
X23717639Y34605000D01*
X24288750Y35176111D01*
X24288750Y34557222D01*
X23384306Y34109444D02*
X23336528Y34061666D01*
X23288750Y33967222D01*
X23288750Y33728333D01*
X23336528Y33633889D01*
X23384306Y33586111D01*
X23478750Y33538333D01*
X23574306Y33538333D01*
X23717639Y33586111D01*
X24288750Y34157222D01*
X24288750Y33538333D01*
%LPC*%
D24*
X80230000Y50000000D03*
X82770000Y50000000D03*
D25*
X25558750Y33335000D03*
X25558750Y31435000D03*
D26*
X92750000Y42755000D03*
X86250000Y47245000D03*
X92750000Y47245000D03*
X86250000Y42755000D03*
D27*
X32745500Y32385000D03*
X27579500Y29845000D03*
X32745500Y33655000D03*
X27579500Y32385000D03*
X27579500Y31115000D03*
X32745500Y31115000D03*
X27579500Y33655000D03*
X32745500Y29845000D03*
D28*
X103938250Y79216250D03*
X103938250Y81756250D03*
X109104250Y81756250D03*
X109104250Y79216250D03*
D29*
X40481250Y56515000D03*
D30*
X22383750Y38791250D03*
X22383750Y37091250D03*
D31*
X114950000Y44500000D03*
X117450000Y42000000D03*
X114950000Y39500000D03*
D32*
X35081250Y62995000D03*
X33181250Y60195000D03*
X34131250Y60195000D03*
X35081250Y60195000D03*
X33181250Y62995000D03*
D33*
X28733750Y67926250D03*
X28733750Y66376250D03*
D34*
X14605000Y12697500D03*
X14605000Y6847500D03*
X14605000Y29347500D03*
X14605000Y23497500D03*
D35*
X35560000Y38881250D03*
X35560000Y42081250D03*
D36*
X3352800Y23495000D03*
X8077200Y23495000D03*
D30*
X18097500Y37091250D03*
X18097500Y38791250D03*
D37*
X31432500Y20637500D03*
X31432500Y23177500D03*
X31432500Y25717500D03*
D33*
X82796250Y43002500D03*
X82796250Y41452500D03*
D38*
X14978750Y44608750D03*
X13278750Y44608750D03*
D39*
X25093750Y67307500D03*
X27293750Y66357500D03*
X25093750Y65407500D03*
D33*
X33496250Y44468750D03*
X33496250Y46018750D03*
D40*
X36517500Y49096750D03*
X36507500Y43930750D03*
X37777500Y43930750D03*
X39047500Y43930750D03*
X35237500Y43930750D03*
D41*
X37147500Y46513750D03*
D40*
X39057500Y49096750D03*
X35247500Y49096750D03*
X37787500Y49096750D03*
D42*
X14922500Y90328750D03*
X30162500Y90328750D03*
D28*
X103938250Y74136250D03*
X103938250Y76676250D03*
X109104250Y76676250D03*
X109104250Y74136250D03*
D43*
X8733750Y66210000D03*
X9683750Y68410000D03*
X10633750Y66210000D03*
X46516250Y54621250D03*
X47466250Y56821250D03*
X48416250Y54621250D03*
D44*
X32861250Y40326250D03*
X32861250Y43176250D03*
D45*
X46873868Y50011154D03*
X46873868Y40061154D03*
D30*
X16668750Y37091250D03*
X16668750Y38791250D03*
D33*
X82796250Y46850000D03*
X82796250Y48400000D03*
X34131250Y36055000D03*
X34131250Y37605000D03*
D29*
X67627500Y56197500D03*
D44*
X10477500Y74457500D03*
X10477500Y77307500D03*
D33*
X35401250Y36055000D03*
X35401250Y37605000D03*
D38*
X14978750Y41751250D03*
X13278750Y41751250D03*
X51015000Y57150000D03*
X49315000Y57150000D03*
D33*
X82796250Y44151250D03*
X82796250Y45701250D03*
X34925000Y52051250D03*
X34925000Y50501250D03*
D24*
X80230000Y60000000D03*
X82770000Y60000000D03*
D29*
X37306250Y56515000D03*
D46*
X7000000Y76920000D03*
X7000000Y82000000D03*
X7000000Y87080000D03*
D33*
X55880000Y71895000D03*
X55880000Y70345000D03*
X9366250Y26688750D03*
X9366250Y28238750D03*
D29*
X56038750Y24130000D03*
X20320000Y24447500D03*
D30*
X20955000Y37091250D03*
X20955000Y38791250D03*
D44*
X34925000Y32071250D03*
X34925000Y34921250D03*
D47*
X24942500Y38893750D03*
X26492500Y38893750D03*
D48*
X44450000Y10240000D03*
X44450000Y20240000D03*
D26*
X8030000Y51276250D03*
X10570000Y56356250D03*
X8030000Y58896250D03*
X8030000Y41116250D03*
X10570000Y53816250D03*
X10570000Y46196250D03*
X8030000Y46196250D03*
X8030000Y48736250D03*
X8030000Y53816250D03*
X10570000Y48736250D03*
X10570000Y38576250D03*
X10570000Y43656250D03*
X10570000Y51276250D03*
D49*
X10570000Y61436250D03*
D26*
X8030000Y61436250D03*
X8030000Y38576250D03*
X10570000Y58896250D03*
X10570000Y41116250D03*
X8030000Y43656250D03*
X8030000Y56356250D03*
D50*
X53657500Y55245000D03*
D30*
X36353750Y51220000D03*
X36353750Y52920000D03*
D47*
X11607500Y63817500D03*
X13157500Y63817500D03*
D50*
X14922500Y93345000D03*
D51*
X77152500Y56197500D03*
X72072500Y56197500D03*
D29*
X107791250Y68897500D03*
D52*
X107791250Y63817500D03*
X107791250Y66357500D03*
D46*
X113000000Y86700000D03*
X113000000Y76540000D03*
X113000000Y66380000D03*
X113000000Y81620000D03*
X113000000Y61300000D03*
X113000000Y71460000D03*
D53*
X102380000Y27700000D03*
D54*
X115080000Y20460000D03*
D53*
X102380000Y23000000D03*
D54*
X115080000Y25540000D03*
D53*
X102380000Y18300000D03*
D55*
X20320000Y31927500D03*
X20320000Y27127500D03*
D47*
X38595000Y52070000D03*
X40145000Y52070000D03*
D55*
X33972500Y94792500D03*
X33972500Y89992500D03*
D56*
X21160000Y71000000D03*
X31320000Y71000000D03*
X33860000Y71000000D03*
X16080000Y71000000D03*
X36400000Y71000000D03*
X44020000Y71000000D03*
X46560000Y71000000D03*
X28780000Y71000000D03*
X18620000Y71000000D03*
X23700000Y71000000D03*
X13540000Y71000000D03*
X38940000Y71000000D03*
X49100000Y71000000D03*
X41480000Y71000000D03*
D57*
X11000000Y71000000D03*
D56*
X26240000Y71000000D03*
D58*
X39907500Y63817500D03*
X67407500Y63817500D03*
D43*
X12226250Y66210000D03*
X13176250Y68410000D03*
X14126250Y66210000D03*
D38*
X43441250Y53022500D03*
X45141250Y53022500D03*
D25*
X36671250Y58898750D03*
X36671250Y60798750D03*
D48*
X46037500Y89772500D03*
X46037500Y79772500D03*
D38*
X13278750Y43180000D03*
X14978750Y43180000D03*
D32*
X43815000Y57280000D03*
X43815000Y54480000D03*
X44765000Y57280000D03*
X44765000Y54480000D03*
X42865000Y54480000D03*
X42865000Y57280000D03*
D59*
X21983750Y49393750D03*
X25183750Y49393750D03*
X21183750Y49393750D03*
D60*
X26533750Y46443750D03*
X26533750Y48043750D03*
D59*
X20383750Y41093750D03*
D60*
X26533750Y42443750D03*
X26533750Y44043750D03*
D59*
X19583750Y49393750D03*
X23583750Y41093750D03*
D60*
X18233750Y44843750D03*
D59*
X20383750Y49393750D03*
D60*
X18233750Y44043750D03*
D59*
X19583750Y41093750D03*
X25183750Y41093750D03*
D60*
X18233750Y46443750D03*
X18233750Y43243750D03*
X18233750Y45643750D03*
X26533750Y47243750D03*
D59*
X22783750Y41093750D03*
D60*
X26533750Y45643750D03*
D59*
X24383750Y49393750D03*
X21183750Y41093750D03*
D60*
X26533750Y43243750D03*
D59*
X24383750Y41093750D03*
D60*
X18233750Y48043750D03*
D59*
X23583750Y49393750D03*
D60*
X18233750Y42443750D03*
X26533750Y44843750D03*
D59*
X22783750Y49393750D03*
D60*
X18233750Y47243750D03*
D59*
X21983750Y41093750D03*
D24*
X80230000Y40000000D03*
X82770000Y40000000D03*
D47*
X102375000Y74136250D03*
X100825000Y74136250D03*
D61*
X23495000Y10160000D03*
X23495000Y25400000D03*
D33*
X33496250Y48558750D03*
X33496250Y47008750D03*
D48*
X68580000Y89772500D03*
X68580000Y79772500D03*
D38*
X17406250Y50958750D03*
X19106250Y50958750D03*
D29*
X29368750Y87312500D03*
D47*
X102375000Y79216250D03*
X100825000Y79216250D03*
D33*
X32226250Y44468750D03*
X32226250Y46018750D03*
D47*
X54432500Y57467500D03*
X52882500Y57467500D03*
D62*
X67627500Y52720000D03*
X67627500Y38720000D03*
D30*
X19526250Y37091250D03*
X19526250Y38791250D03*
X33496250Y49791250D03*
X33496250Y51491250D03*
D25*
X36671250Y64291250D03*
X36671250Y62391250D03*
D63*
X27942500Y82073750D03*
X33792500Y82073750D03*
X11292500Y82073750D03*
X17142500Y82073750D03*
D44*
X55880000Y76990000D03*
X55880000Y74140000D03*
D38*
X15455000Y73342500D03*
X13755000Y73342500D03*
D31*
X19685000Y57230000D03*
X22185000Y67230000D03*
X17185000Y67230000D03*
D38*
X39585000Y50641250D03*
X37885000Y50641250D03*
D64*
X63182500Y56197500D03*
X60642500Y56197500D03*
X58102500Y56197500D03*
D35*
X38735000Y42085036D03*
X38735000Y38885036D03*
D48*
X66992500Y10240000D03*
X66992500Y20240000D03*
D46*
X7000000Y17540000D03*
X7000000Y12460000D03*
D29*
X34290000Y65405000D03*
D26*
X86250000Y57245000D03*
X92750000Y52755000D03*
X86250000Y52755000D03*
X92750000Y57245000D03*
D58*
X38320000Y32385000D03*
X65820000Y32385000D03*
D30*
X27622500Y40696250D03*
X27622500Y38996250D03*
D65*
X19206250Y52863750D03*
X17306250Y52863750D03*
D30*
X23812500Y38791250D03*
X23812500Y37091250D03*
D17*
X0Y0D02*
X120000000Y0D01*
X120000000Y4000000D01*
X0Y4000000D01*
X0Y0D01*
G36*
X0Y0D02*
X120000000Y0D01*
X120000000Y4000000D01*
X0Y4000000D01*
X0Y0D01*
G37*
X0Y100000000D02*
X120000000Y100000000D01*
X120000000Y96000000D01*
X0Y96000000D01*
X0Y100000000D01*
G36*
X0Y100000000D02*
X120000000Y100000000D01*
X120000000Y96000000D01*
X0Y96000000D01*
X0Y100000000D01*
G37*
G04 --- BOARD END --- *
%TF.MD5,1a28f19e8f0a7231aaf026bd41113482*%
M02*
